<svg xmlns="http://www.w3.org/2000/svg" xmlns:xlink="http://www.w3.org/1999/xlink" viewBox="0 0 247.92 181.96"><defs><style>.cls-1,.cls-2{opacity:0.6;}.cls-2{fill:url(#radial-gradient);}.cls-3{fill:url(#linear-gradient);}.cls-4{fill:url(#linear-gradient-2);}.cls-5{fill:#313636;}.cls-6{fill:#b93828;}.cls-7{fill:#fff;}.cls-8{fill:url(#linear-gradient-3);}.cls-9{fill:url(#linear-gradient-4);}.cls-10{fill:url(#linear-gradient-5);}.cls-11{fill:url(#linear-gradient-6);}</style><radialGradient id="radial-gradient" cx="123.96" cy="71.85" r="101.31" gradientTransform="translate(247.92 114.96) rotate(180) scale(1 0.6)" gradientUnits="userSpaceOnUse"><stop offset="0" stop-color="#00d6e5"/><stop offset="0.18" stop-color="#00e3ed" stop-opacity="0.84"/><stop offset="0.4" stop-color="#00eff5" stop-opacity="0.69"/><stop offset="0.61" stop-color="#00f8fa" stop-opacity="0.59"/><stop offset="0.81" stop-color="#00fdfe" stop-opacity="0.52"/><stop offset="1" stop-color="aqua" stop-opacity="0.5"/></radialGradient><linearGradient id="linear-gradient" x1="72.16" y1="110.5" x2="54.02" y2="140.1" gradientUnits="userSpaceOnUse"><stop offset="0" stop-color="#00d6e5" stop-opacity="0.7"/><stop offset="1" stop-color="#f9fefe" stop-opacity="0"/></linearGradient><linearGradient id="linear-gradient-2" x1="177.75" y1="111.01" x2="194.1" y2="141.85" xlink:href="#linear-gradient"/><linearGradient id="linear-gradient-3" x1="40.9" y1="109.67" x2="90.47" y2="70.15" gradientUnits="userSpaceOnUse"><stop offset="0" stop-color="#00a79c"/><stop offset="0.22" stop-color="#00a79c" stop-opacity="0.71"/><stop offset="0.48" stop-color="#00a79c" stop-opacity="0.41"/><stop offset="0.7" stop-color="#00a79c" stop-opacity="0.19"/><stop offset="0.88" stop-color="#00a79c" stop-opacity="0.05"/><stop offset="1" stop-color="#00a79c" stop-opacity="0"/></linearGradient><linearGradient id="linear-gradient-4" x1="45.67" y1="93.3" x2="99.13" y2="93.3" gradientUnits="userSpaceOnUse"><stop offset="0" stop-color="#ef474d"/><stop offset="0.17" stop-color="#ef474d" stop-opacity="0.77"/><stop offset="0.39" stop-color="#ef474d" stop-opacity="0.5"/><stop offset="0.59" stop-color="#ef474d" stop-opacity="0.28"/><stop offset="0.77" stop-color="#ef474d" stop-opacity="0.13"/><stop offset="0.91" stop-color="#ef474d" stop-opacity="0.03"/><stop offset="1" stop-color="#ef474d" stop-opacity="0"/></linearGradient><linearGradient id="linear-gradient-5" x1="57.8" y1="105.91" x2="141.4" y2="105.91" gradientUnits="userSpaceOnUse"><stop offset="0" stop-color="#fcb240"/><stop offset="0.2" stop-color="#fcb240" stop-opacity="0.73"/><stop offset="0.41" stop-color="#fcb240" stop-opacity="0.47"/><stop offset="0.61" stop-color="#fcb240" stop-opacity="0.27"/><stop offset="0.78" stop-color="#fcb240" stop-opacity="0.12"/><stop offset="0.91" stop-color="#fcb240" stop-opacity="0.03"/><stop offset="1" stop-color="#fcb240" stop-opacity="0"/></linearGradient><linearGradient id="linear-gradient-6" x1="57.92" y1="115.55" x2="158.78" y2="115.55" gradientUnits="userSpaceOnUse"><stop offset="0" stop-color="#8dc63f"/><stop offset="0.05" stop-color="#8dc63f" stop-opacity="0.93"/><stop offset="0.3" stop-color="#8dc63f" stop-opacity="0.6"/><stop offset="0.54" stop-color="#8dc63f" stop-opacity="0.34"/><stop offset="0.74" stop-color="#8dc63f" stop-opacity="0.16"/><stop offset="0.9" stop-color="#8dc63f" stop-opacity="0.04"/><stop offset="1" stop-color="#8dc63f" stop-opacity="0"/></linearGradient></defs><g id="Layer_2" data-name="Layer 2"><g id="Layer_1-2" data-name="Layer 1"><g class="cls-1"><polygon class="cls-2" points="0 71.8 123.45 0 247.92 71.46 124.24 143.71 0 71.8"/><polygon class="cls-3" points="0 71.8 0 110.06 124.24 181.96 124.24 143.71 0 71.8"/><polygon class="cls-4" points="124.24 143.71 247.92 71.46 247.92 109.72 124.24 181.96 124.24 143.71"/></g><path class="cls-5" d="M118.54,85.38a22.27,22.27,0,0,0,6.28-2.24c1.6-1,1.7-1.68.84-2.2s-1.81-.46-4.44.33c-4.68,1.39-7.93,1.06-9.91-.17-3.15-1.89-2.84-4.94,1.35-7.46a16.29,16.29,0,0,1,5.29-2l3.64,2.19a19.08,19.08,0,0,0-5.12,1.9c-1.28.77-1.49,1.52-.62,2s1.87.33,4.68-.48c4.33-1.27,7.31-1.1,9.84.37,3.15,1.89,3,4.78-1.87,7.69a17.3,17.3,0,0,1-6.19,2.3Z"/><path class="cls-5" d="M149.37,71.91A10.8,10.8,0,0,1,145.76,75a17.19,17.19,0,0,1-17.63.19c-5-3-5.61-7.44.69-11.22a16.13,16.13,0,0,1,4.3-1.79L137,64.51a16.09,16.09,0,0,0-3.91,1.72c-2.77,1.67-2.6,3.93.21,5.57a9.26,9.26,0,0,0,9.38.07,10.34,10.34,0,0,0,2.78-2.29Z"/><path class="cls-5" d="M159.84,55.73c6.21,3.72,4.65,8.06.11,10.79a17.5,17.5,0,0,1-17.5,0c-5.47-3.29-5.37-7.55.07-10.81A17.34,17.34,0,0,1,159.84,55.73Zm-12.09,7.46c2.91,1.75,6.31,2.33,8.56,1,2-1.23,1.32-3.25-1.73-5.08-2.53-1.51-6.07-2.47-8.46-1S145.26,61.69,147.75,63.19Z"/><path class="cls-5" d="M99.18,79.63c-1.63-1-1.65-2.57-.07-3.57l-1.37-.82-5.33,3.2,8,4.82-.07,0A10.45,10.45,0,0,0,94,84.84c-4,2.44-4.33,6.55,1.42,10,5.27,3.16,11.92,3.29,15.94.87,2.18-1.31,3.26-3.11,2.43-4.9l.07,0,2.73,1.35,4.61-2.77-16.06-9.64A6.48,6.48,0,0,1,99.18,79.63ZM108.3,88a5.15,5.15,0,0,1,1.08.81c1.17,1.08,1,2.43-.52,3.35-2.19,1.31-5.41,1.08-8.28-.64-2.67-1.61-3.57-3.64-1.18-5.08a6.91,6.91,0,0,1,5.68-.29c.31.15.73.36,1,.52Z"/><path class="cls-6" d="M99.58,76.13l-.07.05,5.42,3.25.09,0c1.5-.9,1.5-2.36,0-3.26A5.76,5.76,0,0,0,99.58,76.13Z"/><path class="cls-7" d="M61.49,118.53c2.79,2.79,3.68,6.45,2,8.15s-5.35.81-8.15-2-3.68-6.44-2-8.14S58.7,115.74,61.49,118.53Z"/><path class="cls-8" d="M57.25,121.86,35.41,95.26a6.92,6.92,0,0,1,2.76-9l48.7-28.17.78,1.35L39,87.63a5.35,5.35,0,0,0-2.13,7l21.84,26.59Z"/><path class="cls-9" d="M57.19,121.68,45.83,101.1a6.9,6.9,0,0,1,3.25-7.39L98.34,64.92l.79,1.35L49.87,95.06a5.33,5.33,0,0,0-2.51,5.71l11.36,20.58Z"/><path class="cls-10" d="M58.11,122.28l-.31-1.53,28.87.07a5.12,5.12,0,0,0,1.64-.63L140.6,89.47l.8,1.35L89.11,121.54a7.08,7.08,0,0,1-2.13.82Z"/><path class="cls-11" d="M103.48,131.75h-.33L57.92,122.3l.07-1.57,45.23,9.45a5.47,5.47,0,0,0,2.93-.71L158,99.35l.79,1.35-51.85,30.12A6.87,6.87,0,0,1,103.48,131.75Z"/><path class="cls-6" d="M60.34,119.56c1.79,1.79,2.31,4.06,1.19,5.17s-3.39.6-5.17-1.18-2.3-4-1.18-5.17S58.56,117.78,60.34,119.56Zm-3.55,3.56c1.49,1.49,3.46,2,4.31,1.18s.3-2.82-1.19-4.3-3.46-2-4.3-1.19S55.3,121.63,56.79,123.12Z"/><path class="cls-6" d="M61.44,118.47c2.79,2.8,3.68,6.45,2,8.15s-5.36.81-8.15-2-3.68-6.45-2-8.15S58.64,115.68,61.44,118.47Zm-5.95,6c2.67,2.68,6.13,3.57,7.71,2s.69-5-2-7.72-6.14-3.56-7.72-2S52.81,121.75,55.49,124.42Z"/><ellipse class="cls-6" cx="58.35" cy="121.56" rx="1.34" ry="2.24" transform="translate(-68.86 76.86) rotate(-45)"/></g></g></svg>