<svg xmlns="http://www.w3.org/2000/svg" xmlns:xlink="http://www.w3.org/1999/xlink" viewBox="0 0 102.32 87.91"><defs><style>.cls-1{fill:#1c75bc;stroke-linejoin:round;}.cls-1,.cls-15,.cls-2,.cls-3{stroke:#000;}.cls-15,.cls-2,.cls-3,.cls-4{fill:#fff;}.cls-15,.cls-2,.cls-3{stroke-miterlimit:10;}.cls-2{stroke-width:0.5px;}.cls-3{stroke-width:0.25px;}.cls-5{fill:url(#New_Gradient_Swatch_3);}.cls-6{fill:url(#New_Gradient_Swatch_3-2);}.cls-7{fill:url(#New_Gradient_Swatch_3-3);}.cls-8{fill:url(#New_Gradient_Swatch_3-4);}.cls-9{fill:url(#New_Gradient_Swatch_3-5);}.cls-10{fill:url(#New_Gradient_Swatch_3-6);}.cls-11{fill:url(#New_Gradient_Swatch_3-7);}.cls-12{fill:url(#New_Gradient_Swatch_3-8);}.cls-13{fill:url(#New_Gradient_Swatch_3-9);}.cls-14{fill:url(#New_Gradient_Swatch_3-10);}</style><linearGradient id="New_Gradient_Swatch_3" x1="-1797.1" y1="53.33" x2="-1794.12" y2="59.14" gradientTransform="matrix(-1, 0, 0, 1, -1743.75, 0)" gradientUnits="userSpaceOnUse"><stop offset="0" stop-color="#fff"/><stop offset="1" stop-color="#d7d7d7"/></linearGradient><linearGradient id="New_Gradient_Swatch_3-2" x1="-1814.73" y1="43.09" x2="-1811.75" y2="48.9" xlink:href="#New_Gradient_Swatch_3"/><linearGradient id="New_Gradient_Swatch_3-3" x1="-458.09" y1="56.19" x2="-455.11" y2="61.99" gradientTransform="translate(487.34)" xlink:href="#New_Gradient_Swatch_3"/><linearGradient id="New_Gradient_Swatch_3-4" x1="-474.18" y1="47.24" x2="-471.2" y2="53.04" gradientTransform="translate(487.34)" xlink:href="#New_Gradient_Swatch_3"/><linearGradient id="New_Gradient_Swatch_3-5" x1="-474.18" y1="61.05" x2="-471.2" y2="66.85" gradientTransform="translate(487.34)" xlink:href="#New_Gradient_Swatch_3"/><linearGradient id="New_Gradient_Swatch_3-6" x1="-1832.35" y1="32.71" x2="-1829.37" y2="38.51" xlink:href="#New_Gradient_Swatch_3"/><linearGradient id="New_Gradient_Swatch_3-7" x1="46.1" y1="73.77" x2="55.74" y2="73.77" gradientTransform="matrix(1, 0, 0, 1, 0, 0)" xlink:href="#New_Gradient_Swatch_3"/><linearGradient id="New_Gradient_Swatch_3-8" x1="58.79" y1="66.13" x2="68.42" y2="66.13" gradientTransform="matrix(1, 0, 0, 1, 0, 0)" xlink:href="#New_Gradient_Swatch_3"/><linearGradient id="New_Gradient_Swatch_3-9" x1="71.47" y1="58.78" x2="81.1" y2="58.78" gradientTransform="matrix(1, 0, 0, 1, 0, 0)" xlink:href="#New_Gradient_Swatch_3"/><linearGradient id="New_Gradient_Swatch_3-10" x1="84.16" y1="51.29" x2="93.79" y2="51.29" gradientTransform="matrix(1, 0, 0, 1, 0, 0)" xlink:href="#New_Gradient_Swatch_3"/></defs><g id="Layer_2" data-name="Layer 2"><g id="Layer_1-2" data-name="Layer 1"><polygon class="cls-1" points="6.39 37.8 41.38 57.19 41.38 87.41 6.21 67.66 6.39 37.8"/><polygon class="cls-1" points="41.33 57 41.33 87.41 95.17 56.35 95.17 26.43 68.59 30.49 41.33 57"/><polygon class="cls-2" points="30.6 73.09 30.6 80.83 27.56 79.15 27.56 71.53 30.6 73.09"/><polygon class="cls-2" points="33.65 74.65 33.65 82.39 30.62 80.72 30.62 73.1 33.65 74.65"/><polygon class="cls-3" points="46.96 57.51 46.96 62.16 55.71 56.88 55.71 52.31 46.96 57.51"/><polygon class="cls-4" points="47.48 57.78 55.24 53.2 55.24 56.66 47.48 61.3 47.48 57.78"/><path d="M55,53.63v2.88l-7.26,4.35V57.92L55,53.63m.5-.87-8.26,4.88v4.1l8.26-4.94v-4Z"/><line class="cls-4" x1="46.6" y1="57.15" x2="46.96" y2="57.51"/><rect x="46.7" y="57.07" width="0.16" height="0.51" transform="translate(-26.84 49.88) rotate(-45.01)"/><rect x="46.68" y="61.8" width="0.16" height="0.51" transform="translate(-30.19 51.24) rotate(-45)"/><rect x="55.47" y="51.82" width="0.16" height="0.51" transform="translate(-20.55 54.53) rotate(-45)"/><polygon points="46.69 57.19 55.44 52.01 55.44 51.81 46.53 57.1 46.53 61.94 46.69 61.85 46.69 57.19"/><path d="M56.28,56.74l-.36-.38-.13.08v.2l.1,0,.24.24-9.38,5.6-.25-.25.18-.11-.12-.13-.27.17v.65l.44.39,9.56-5.79Zm-9.62,6.17-.23-.25v-.31l.22.22Zm9.46-5.65-9.29,5.6v-.28L56.12,57Z"/><path class="cls-5" d="M55.3,53.1v3.61l-7.9,4.71V57.75l7.9-4.65"/><polygon class="cls-4" points="54.31 57.3 51.41 55.42 49.93 56.26 52.91 58.13 54.31 57.3"/><polygon class="cls-3" points="64.58 47.27 64.58 51.92 73.33 46.64 73.33 42.07 64.58 47.27"/><polygon class="cls-4" points="65.1 47.54 72.87 42.96 72.87 46.41 65.1 51.06 65.1 47.54"/><path d="M72.62,43.39v2.88l-7.27,4.35V47.68l7.27-4.29m.5-.87L64.85,47.4v4.1l8.27-4.94v-4Z"/><line class="cls-4" x1="64.22" y1="46.91" x2="64.58" y2="47.27"/><rect x="64.32" y="46.83" width="0.16" height="0.51" transform="translate(-14.43 59.35) rotate(-45.01)"/><rect x="64.3" y="51.56" width="0.16" height="0.51" transform="translate(-17.78 60.7) rotate(-45)"/><rect x="73.1" y="41.58" width="0.16" height="0.51" transform="translate(-8.15 63.99) rotate(-45)"/><polygon points="64.32 46.95 73.07 41.77 73.07 41.57 64.16 46.86 64.16 51.7 64.31 51.61 64.32 46.95"/><path d="M73.91,46.5l-.36-.38-.14.08v.2l.1,0,.25.24-9.38,5.6-.25-.25.18-.11-.13-.13-.27.17v.65l.44.39,9.56-5.79Zm-9.63,6.17-.22-.25v-.31l.22.22ZM73.74,47l-9.29,5.6v-.28l9.29-5.55Z"/><path class="cls-6" d="M72.93,42.86v3.61L65,51.18V47.51l7.9-4.65"/><polygon class="cls-4" points="71.93 47.06 69.03 45.18 67.56 46.02 70.53 47.89 71.93 47.06"/><polygon class="cls-3" points="35.65 60.36 35.65 65.01 26.9 59.74 26.9 55.17 35.65 60.36"/><polygon class="cls-4" points="27.36 59.51 27.36 56.05 35.13 60.63 35.13 64.16 27.36 59.51"/><path d="M27.61,56.49l7.27,4.29v2.93l-7.27-4.34V56.49m-.5-.88v4l8.27,4.95V60.49l-8.27-4.88Z"/><line class="cls-4" x1="36.01" y1="60" x2="35.65" y2="60.36"/><rect x="35.57" y="60.1" width="0.51" height="0.16" transform="translate(-32.06 42.95) rotate(-44.99)"/><rect x="35.59" y="64.83" width="0.51" height="0.16" transform="translate(-35.4 44.36) rotate(-45)"/><rect x="26.8" y="54.85" width="0.51" height="0.16" transform="translate(-30.92 35.22) rotate(-45)"/><polygon points="35.91 60.05 27.16 54.86 27.16 54.67 36.07 59.96 36.07 64.8 35.92 64.7 35.91 60.05"/><path d="M26.32,60.21,35.88,66l.44-.39V65l-.27-.16-.13.13.18.1-.25.25-9.38-5.6.25-.24.1.06v-.21l-.14-.08-.36.38ZM36,65.42l.22-.21v.31l-.22.24Zm-9.46-5.53,9.29,5.55v.27l-9.29-5.59Z"/><path class="cls-7" d="M27.3,56l7.9,4.65v3.67l-7.9-4.71V56"/><polygon class="cls-4" points="28.3 60.16 31.2 58.28 32.67 59.12 29.7 60.99 28.3 60.16"/><polygon class="cls-3" points="19.55 51.41 19.55 56.06 10.8 50.79 10.8 46.22 19.55 51.41"/><polygon class="cls-4" points="11.26 50.56 11.26 47.1 19.03 51.69 19.03 55.21 11.26 50.56"/><path d="M11.51,47.54l7.27,4.29v2.93l-7.27-4.34V47.54m-.5-.87v4l8.27,4.95V51.54L11,46.67Z"/><line class="cls-4" x1="19.91" y1="51.05" x2="19.55" y2="51.41"/><rect x="19.48" y="51.15" width="0.51" height="0.16" transform="translate(-30.44 28.95) rotate(-44.99)"/><rect x="19.49" y="55.88" width="0.51" height="0.16" transform="translate(-33.79 30.36) rotate(-45)"/><rect x="10.7" y="45.9" width="0.51" height="0.16" transform="translate(-29.3 21.21) rotate(-45)"/><polygon points="19.82 51.1 11.06 45.91 11.06 45.72 19.98 51.01 19.98 55.85 19.82 55.75 19.82 51.1"/><path d="M10.22,51.27l9.56,5.79.44-.39V56L20,55.85l-.13.13.18.1-.25.25-9.37-5.59.24-.25.1.06v-.21l-.13-.08-.36.39Zm9.63,5.21.22-.22v.31l-.23.25Zm-9.46-5.54,9.29,5.55v.27l-9.29-5.59Z"/><path class="cls-8" d="M11.21,47l7.9,4.65v3.67l-7.9-4.71V47"/><polygon class="cls-4" points="12.2 51.21 15.1 49.33 16.57 50.17 13.6 52.04 12.2 51.21"/><polygon class="cls-3" points="19.55 65.22 19.55 69.87 10.8 64.59 10.8 60.02 19.55 65.22"/><polygon class="cls-4" points="11.26 64.37 11.26 60.91 19.03 65.49 19.03 69.01 11.26 64.37"/><path d="M11.51,61.35l7.27,4.28v2.94l-7.27-4.35V61.35m-.5-.88v4l8.27,4.94v-4.1L11,60.47Z"/><line class="cls-4" x1="19.91" y1="64.86" x2="19.55" y2="65.22"/><rect x="19.48" y="64.96" width="0.51" height="0.16" transform="translate(-40.2 32.99) rotate(-44.99)"/><rect x="19.49" y="69.69" width="0.51" height="0.16" transform="translate(-43.55 34.4) rotate(-45)"/><rect x="10.7" y="59.7" width="0.51" height="0.16" transform="translate(-39.06 25.26) rotate(-45)"/><polygon points="19.82 64.91 11.06 59.72 11.06 59.52 19.98 64.81 19.98 69.66 19.82 69.56 19.82 64.91"/><path d="M10.22,65.07l9.56,5.79.44-.39v-.65L20,69.65l-.13.14.18.1-.25.25-9.37-5.6.24-.24.1.06v-.21l-.13-.08-.36.38Zm9.63,5.21.22-.22v.31l-.23.25Zm-9.46-5.53,9.29,5.54v.28L10.39,65Z"/><path class="cls-9" d="M11.21,60.82l7.9,4.65v3.67l-7.9-4.72v-3.6"/><polygon class="cls-4" points="12.2 65.01 15.1 63.13 16.57 63.98 13.6 65.84 12.2 65.01"/><polygon class="cls-3" points="82.21 36.88 82.21 41.53 90.96 36.26 90.96 31.68 82.21 36.88"/><polygon class="cls-4" points="82.73 37.15 90.49 32.57 90.49 36.03 82.73 40.67 82.73 37.15"/><path d="M90.24,33v2.88L83,40.23V37.3L90.24,33m.5-.88L82.48,37v4.1l8.26-4.94v-4Z"/><line class="cls-4" x1="81.85" y1="36.52" x2="82.21" y2="36.88"/><rect x="81.95" y="36.45" width="0.16" height="0.51" transform="translate(-1.92 68.77) rotate(-45.01)"/><rect x="81.93" y="41.17" width="0.16" height="0.51" transform="translate(-5.28 70.12) rotate(-45)"/><rect x="90.72" y="31.19" width="0.16" height="0.51" transform="translate(4.36 73.42) rotate(-45)"/><polygon points="81.94 36.57 90.69 31.38 90.69 31.18 81.78 36.48 81.78 41.32 81.94 41.22 81.94 36.57"/><path d="M91.53,36.11l-.36-.38-.13.08V36l.1-.06.24.24L82,41.8l-.25-.25.18-.1-.12-.14-.27.17v.65l.44.4,9.56-5.8Zm-9.62,6.17L81.68,42v-.31l.22.22Zm9.46-5.64-9.29,5.59V42l9.29-5.55Z"/><path class="cls-10" d="M90.55,32.48v3.61l-7.9,4.71V37.13l7.9-4.65"/><polygon class="cls-4" points="89.56 36.67 86.66 34.8 85.18 35.64 88.16 37.51 89.56 36.67"/><path class="cls-11" d="M53.8,66.68l.84.43v6.63l1.1.55v1.55s-8.57,5-8.65,5-1-.35-1-.35V79l.63-.6,0-7.56Z"/><path d="M54.26,68,48,71.48V78l6.3-3.6Zm-.41,5.68-5.49,3v-.16l5.49-3Zm0-.4-5.49,3v-.17l5.49-3Zm0-.41-5.49,3v-.17l5.49-3Zm0-.4-5.49,3v-.17l5.49-3Zm0-.4-5.49,3V75l5.49-3Zm0-.4-5.49,3v-.17l5.49-3Zm0-.4-5.49,3v-.17l5.49-3Zm0-.4-5.49,3v-.16l5.49-3Zm0-.4-5.49,3v-.17l5.49-3Zm0-.41-5.49,3V73l5.49-3Zm0-.4-5.49,3v-.17l5.49-3Zm0-.4-5.49,3v-.17l5.49-3Zm0-.54v.14l-5.49,3v-.22Zm-5.49,8.49V77l5.49-3v.2Z"/><path d="M55.85,74.2l-1.1-.58,0-6.6-.88-.51-7.27,4.24v7.64l-.58.45,0,1.71,1,.57,8.84-5.22Zm-8.32-3-.44-.28,6.84-4,.58.3Zm6.81-3.34v6.6l-6.59,3.86V71.49ZM46.93,78.22v-7l.4.26v7l-.42-.27Zm-.07,2.44-.55-.29V79.26l.56.31Zm-.46-1.77.34-.28.6.39,7.41-4.36V74l.76.37L47,79.32Zm9.17-3.25-8.32,5v-1l8.32-4.76Z"/><path class="cls-12" d="M66.48,59l.85.43V66.1l1.09.55v1.56s-8.57,5-8.65,5-1-.36-1-.36V71.34l.63-.6-.06-7.55Z"/><path d="M66.94,60.39l-6.3,3.45v6.49l6.3-3.6Zm-.4,5.68-5.49,3v-.16l5.49-3Zm0-.4-5.49,3v-.17l5.49-3Zm0-.41-5.49,3v-.17l5.49-3Zm0-.4-5.49,3v-.17l5.49-3Zm0-.4-5.49,3v-.17l5.49-3Zm0-.4-5.49,3v-.17l5.49-3Zm0-.4-5.49,3v-.17l5.49-3Zm0-.4-5.49,3v-.16l5.49-3Zm0-.4-5.49,3v-.17l5.49-3Zm0-.41-5.49,3v-.17l5.49-3Zm0-.4-5.49,3v-.17l5.49-3Zm0-.4-5.49,3v-.17l5.49-3Zm0-.54v.14l-5.49,3v-.22ZM61.05,69.6v-.26l5.49-3v.2Z"/><path d="M68.53,66.56,67.44,66l0-6.6-.87-.51-7.28,4.24v7.64l-.57.45,0,1.71,1,.57,8.85-5.22Zm-8.31-3.05-.45-.28,6.84-4,.58.31ZM67,60.17v6.6l-6.59,3.86V63.85ZM59.61,70.58v-7l.41.26v7l-.43-.27ZM59.55,73,59,72.73V71.62l.57.31Zm-.47-1.77.34-.28.61.39L67.44,67v-.6l.75.37-8.48,4.91ZM68.26,68,59.93,73V72l8.33-4.76Z"/><path class="cls-13" d="M79.17,51.69l.84.44v6.63l1.09.54v1.56s-8.56,5-8.65,5-1-.36-1-.36V64l.63-.6,0-7.55Z"/><path d="M79.63,53l-6.31,3.45V63l6.31-3.61Zm-.41,5.68-5.49,3v-.17l5.49-3Zm0-.4-5.49,3v-.16l5.49-3Zm0-.4-5.49,3v-.17l5.49-3Zm0-.4-5.49,3v-.17l5.49-3Zm0-.41-5.49,3V60l5.49-3Zm0-.4-5.49,3v-.17l5.49-3Zm0-.4-5.49,3v-.17l5.49-3Zm0-.4-5.49,3v-.17l5.49-3Zm0-.4-5.49,3v-.16l5.49-3Zm0-.4-5.49,3V58l5.49-3Zm0-.41-5.49,3v-.17l5.49-3Zm0-.4-5.49,3v-.17l5.49-3Zm0-.54v.14l-5.49,3v-.22Zm-5.49,8.49V62l5.49-3v.2Z"/><path d="M81.22,59.21l-1.1-.58,0-6.59-.87-.51-7.28,4.23V63.4l-.57.45,0,1.71,1,.58,8.84-5.23Zm-8.32-3-.44-.29,6.83-4,.59.31Zm6.81-3.35v6.61l-6.59,3.85V56.5ZM72.29,63.23l0-7,.4.26v7l-.42-.27Zm-.06,2.44-.55-.28,0-1.12.57.32Zm-.46-1.77.34-.28.6.4,7.41-4.37v-.6l.76.37-8.49,4.91Zm9.17-3.24-8.32,5v-1l8.32-4.77Z"/><path class="cls-14" d="M91.85,44.2l.85.43v6.63l1.09.55v1.55s-8.57,5-8.65,5-1-.35-1-.35V56.5l.62-.6,0-7.56Z"/><path d="M92.31,45.55,86,49v6.49l6.3-3.6Zm-.41,5.68-5.48,3v-.17l5.48-3Zm0-.41-5.48,3v-.17l5.48-3Zm0-.4-5.48,3v-.17l5.48-3Zm0-.4-5.48,3v-.17l5.48-3Zm0-.4-5.48,3v-.17l5.48-3Zm0-.4-5.48,3v-.16l5.48-3Zm0-.4-5.48,3v-.17l5.48-3Zm0-.4-5.48,3v-.17l5.48-3Zm0-.41-5.48,3v-.17l5.48-3Zm0-.4-5.48,3v-.17l5.48-3Zm0-.4-5.48,3v-.17l5.48-3Zm0-.4-5.48,3v-.17l5.48-3Zm0-.54v.14l-5.48,3v-.21Zm-5.48,8.49V54.5l5.48-3v.2Z"/><path d="M93.9,51.72l-1.1-.58,0-6.6L91.9,44l-7.27,4.24v7.64l-.58.45,0,1.71,1,.57,8.85-5.22Zm-8.32-3-.44-.28,6.84-4,.58.31Zm6.82-3.34v6.6l-6.6,3.85V49ZM85,55.74v-7l.41.26V56L85,55.74Zm-.07,2.44-.55-.29V56.77l.56.32Zm-.46-1.77.34-.28.61.39,7.4-4.36v-.6l.76.37-8.48,4.9Zm9.17-3.25-8.32,5v-1l8.32-4.77Z"/><polygon class="cls-15" points="100.82 25.5 68.65 30.28 39.94 61.18 0.81 38.31 30.89 7.66 57.19 0.54 100.82 25.5"/><line class="cls-15" x1="68.7" y1="30.39" x2="30.83" y2="7.8"/></g></g></svg>