<svg xmlns="http://www.w3.org/2000/svg" xmlns:xlink="http://www.w3.org/1999/xlink" viewBox="0 0 27.51 60.96"><defs><style>.cls-1{fill:url(#linear-gradient);}.cls-2{fill:#b93828;}.cls-3{fill:url(#linear-gradient-2);}</style><linearGradient id="linear-gradient" x1="7.16" y1="60.96" x2="7.16" y2="11.79" gradientUnits="userSpaceOnUse"><stop offset="0" stop-color="#b93828" stop-opacity="0"/><stop offset="0.17" stop-color="#b93828" stop-opacity="0.14"/><stop offset="0.53" stop-color="#b93828" stop-opacity="0.49"/><stop offset="1" stop-color="#b93828"/></linearGradient><linearGradient id="linear-gradient-2" x1="20.35" y1="52.92" x2="20.35" y2="3.75" xlink:href="#linear-gradient"/></defs><g id="Layer_2" data-name="Layer 2"><g id="Layer_1-2" data-name="Layer 1"><path class="cls-1" d="M7.16,61a.62.62,0,0,1-.61-.61V12.4a.61.61,0,0,1,.61-.61.61.61,0,0,1,.61.61v48A.61.61,0,0,1,7.16,61Z"/><ellipse class="cls-2" cx="7.16" cy="12.4" rx="2.24" ry="1.34"/><path class="cls-2" d="M7.16,15.22c-2.52,0-4.49-1.24-4.49-2.82s2-2.82,4.49-2.82,4.5,1.24,4.5,2.82S9.68,15.22,7.16,15.22Zm0-5c-2.1,0-3.88,1-3.88,2.21s1.78,2.21,3.88,2.21,3.89-1,3.89-2.21S9.27,10.19,7.16,10.19Z"/><path class="cls-2" d="M7.16,16.76C3.21,16.76,0,14.8,0,12.4S3.21,8,7.16,8s7.17,2,7.17,4.36S11.11,16.76,7.16,16.76Zm0-8.41C3.38,8.35.31,10.16.31,12.4s3.07,4,6.85,4S14,14.64,14,12.4,11,8.35,7.16,8.35Z"/><path class="cls-3" d="M20.35,52.92a.61.61,0,0,1-.61-.62V4.36a.61.61,0,1,1,1.22,0V52.3A.61.61,0,0,1,20.35,52.92Z"/><ellipse class="cls-2" cx="20.35" cy="4.36" rx="2.24" ry="1.34"/><path class="cls-2" d="M20.35,7.18c-2.52,0-4.49-1.24-4.49-2.82s2-2.82,4.49-2.82,4.49,1.24,4.49,2.82S22.87,7.18,20.35,7.18Zm0-5c-2.1,0-3.88,1-3.88,2.21s1.78,2.21,3.88,2.21,3.88-1,3.88-2.21S22.45,2.15,20.35,2.15Z"/><path class="cls-2" d="M20.35,8.72c-4,0-7.16-2-7.16-4.36S16.4,0,20.35,0s7.16,2,7.16,4.36S24.3,8.72,20.35,8.72Zm0-8.41c-3.78,0-6.86,1.81-6.86,4.05s3.08,4.05,6.86,4.05,6.86-1.81,6.86-4S24.13.31,20.35.31Z"/></g></g></svg>