<svg xmlns="http://www.w3.org/2000/svg" xmlns:xlink="http://www.w3.org/1999/xlink" viewBox="0 0 14.33 52.92"><defs><style>.cls-1{fill:url(#linear-gradient);}.cls-2{fill:#b93828;}</style><linearGradient id="linear-gradient" x1="7.16" y1="52.92" x2="7.16" y2="3.75" gradientUnits="userSpaceOnUse"><stop offset="0" stop-color="#b93828" stop-opacity="0"/><stop offset="0.17" stop-color="#b93828" stop-opacity="0.14"/><stop offset="0.53" stop-color="#b93828" stop-opacity="0.49"/><stop offset="1" stop-color="#b93828"/></linearGradient></defs><g id="Layer_2" data-name="Layer 2"><g id="Layer_1-2" data-name="Layer 1"><path class="cls-1" d="M7.16,52.92a.62.62,0,0,1-.61-.62V4.36a.61.61,0,0,1,.61-.61.61.61,0,0,1,.61.61V52.3A.61.61,0,0,1,7.16,52.92Z"/><ellipse class="cls-2" cx="7.16" cy="4.36" rx="2.24" ry="1.34"/><path class="cls-2" d="M7.16,7.18c-2.52,0-4.49-1.24-4.49-2.82s2-2.82,4.49-2.82,4.5,1.24,4.5,2.82S9.68,7.18,7.16,7.18Zm0-5c-2.1,0-3.88,1-3.88,2.21S5.06,6.57,7.16,6.57s3.89-1,3.89-2.21S9.27,2.15,7.16,2.15Z"/><path class="cls-2" d="M7.16,8.72C3.21,8.72,0,6.76,0,4.36S3.21,0,7.16,0s7.17,2,7.17,4.36S11.11,8.72,7.16,8.72Zm0-8.41C3.38.31.31,2.12.31,4.36S3.38,8.41,7.16,8.41,14,6.6,14,4.36,11,.31,7.16.31Z"/></g></g></svg>