<svg xmlns="http://www.w3.org/2000/svg" xmlns:xlink="http://www.w3.org/1999/xlink" viewBox="0 0 40.5 68.58"><defs><style>.cls-1{fill:url(#linear-gradient);}.cls-2{fill:#b93828;}.cls-3{fill:url(#linear-gradient-2);}.cls-4{fill:url(#linear-gradient-3);}</style><linearGradient id="linear-gradient" x1="7.16" y1="68.58" x2="7.16" y2="19.42" gradientUnits="userSpaceOnUse"><stop offset="0" stop-color="#b93828" stop-opacity="0"/><stop offset="0.17" stop-color="#b93828" stop-opacity="0.14"/><stop offset="0.53" stop-color="#b93828" stop-opacity="0.49"/><stop offset="1" stop-color="#b93828"/></linearGradient><linearGradient id="linear-gradient-2" x1="20.35" y1="60.54" x2="20.35" y2="11.38" xlink:href="#linear-gradient"/><linearGradient id="linear-gradient-3" x1="33.33" y1="52.92" x2="33.33" y2="3.75" xlink:href="#linear-gradient"/></defs><g id="Layer_2" data-name="Layer 2"><g id="Layer_1-2" data-name="Layer 1"><path class="cls-1" d="M7.16,68.58A.61.61,0,0,1,6.55,68V20a.61.61,0,0,1,.61-.61.61.61,0,0,1,.61.61V68A.61.61,0,0,1,7.16,68.58Z"/><ellipse class="cls-2" cx="7.16" cy="20.03" rx="2.24" ry="1.34"/><path class="cls-2" d="M7.16,22.85c-2.52,0-4.49-1.24-4.49-2.82s2-2.82,4.49-2.82,4.5,1.24,4.5,2.82S9.68,22.85,7.16,22.85Zm0-5c-2.1,0-3.88,1-3.88,2.21s1.78,2.2,3.88,2.2,3.89-1,3.89-2.2S9.27,17.82,7.16,17.82Z"/><path class="cls-2" d="M7.16,24.39C3.21,24.39,0,22.43,0,20s3.21-4.36,7.16-4.36,7.17,2,7.17,4.36S11.11,24.39,7.16,24.39Zm0-8.42C3.38,16,.31,17.79.31,20s3.07,4,6.85,4S14,22.26,14,20,11,16,7.16,16Z"/><path class="cls-3" d="M20.35,60.54a.61.61,0,0,1-.61-.61V12A.61.61,0,1,1,21,12V59.93A.61.61,0,0,1,20.35,60.54Z"/><ellipse class="cls-2" cx="20.35" cy="11.99" rx="2.24" ry="1.34"/><path class="cls-2" d="M20.35,14.8c-2.52,0-4.49-1.23-4.49-2.81s2-2.82,4.49-2.82,4.49,1.24,4.49,2.82S22.87,14.8,20.35,14.8Zm0-5c-2.1,0-3.88,1-3.88,2.21s1.78,2.2,3.88,2.2,3.88-1,3.88-2.2S22.45,9.78,20.35,9.78Z"/><path class="cls-2" d="M20.35,16.35c-4,0-7.16-2-7.16-4.36s3.21-4.36,7.16-4.36,7.16,2,7.16,4.36S24.3,16.35,20.35,16.35Zm0-8.42c-3.78,0-6.86,1.82-6.86,4.06s3.08,4,6.86,4,6.86-1.82,6.86-4S24.13,7.93,20.35,7.93Z"/><path class="cls-4" d="M33.33,52.92a.62.62,0,0,1-.61-.62V4.36a.61.61,0,0,1,.61-.61.61.61,0,0,1,.61.61V52.3A.61.61,0,0,1,33.33,52.92Z"/><ellipse class="cls-2" cx="33.33" cy="4.36" rx="2.24" ry="1.34"/><path class="cls-2" d="M33.33,7.18c-2.52,0-4.49-1.24-4.49-2.82s2-2.82,4.49-2.82,4.5,1.24,4.5,2.82S35.85,7.18,33.33,7.18Zm0-5c-2.1,0-3.88,1-3.88,2.21s1.78,2.21,3.88,2.21,3.89-1,3.89-2.21S35.44,2.15,33.33,2.15Z"/><path class="cls-2" d="M33.33,8.72c-3.95,0-7.16-2-7.16-4.36S29.38,0,33.33,0,40.5,2,40.5,4.36,37.28,8.72,33.33,8.72Zm0-8.41c-3.78,0-6.86,1.81-6.86,4.05s3.08,4.05,6.86,4.05,6.86-1.81,6.86-4S37.12.31,33.33.31Z"/></g></g></svg>