<svg xmlns="http://www.w3.org/2000/svg" xmlns:xlink="http://www.w3.org/1999/xlink" viewBox="0 0 39.53 33.53"><defs><style>.cls-1{fill:#fff;}.cls-2{fill:#d7d7d7;}.cls-3{fill:url(#linear-gradient);}.cls-4{fill:url(#New_Gradient_Swatch_3);}.cls-5{fill:url(#New_Gradient_Swatch_3-2);}.cls-6{fill:#231f20;}.cls-7{fill:url(#New_Gradient_Swatch_3-3);}.cls-8{fill:url(#New_Gradient_Swatch_3-4);}.cls-9{fill:url(#New_Gradient_Swatch_3-5);}</style><linearGradient id="linear-gradient" x1="0.25" y1="16.42" x2="39.48" y2="16.42" gradientUnits="userSpaceOnUse"><stop offset="0" stop-color="#7a9351"/><stop offset="1" stop-color="#7a9351"/></linearGradient><linearGradient id="New_Gradient_Swatch_3" x1="15.04" y1="9.5" x2="16.47" y2="17.49" gradientUnits="userSpaceOnUse"><stop offset="0" stop-color="#fff"/><stop offset="1" stop-color="#d7d7d7"/></linearGradient><linearGradient id="New_Gradient_Swatch_3-2" x1="20.94" y1="16.64" x2="28.77" y2="16.64" xlink:href="#New_Gradient_Swatch_3"/><linearGradient id="New_Gradient_Swatch_3-3" x1="29.74" y1="11.46" x2="38.16" y2="11.46" xlink:href="#New_Gradient_Swatch_3"/><linearGradient id="New_Gradient_Swatch_3-4" x1="8.46" y1="29.1" x2="11.4" y2="29.1" xlink:href="#New_Gradient_Swatch_3"/><linearGradient id="New_Gradient_Swatch_3-5" x1="0.39" y1="24.43" x2="2.3" y2="24.43" xlink:href="#New_Gradient_Swatch_3"/></defs><g id="Layer_2" data-name="Layer 2"><g id="Layer_1-2" data-name="Layer 1"><ellipse class="cls-1" cx="16.25" cy="30.61" rx="2.98" ry="1.83" transform="translate(-18.39 29.38) rotate(-60)"/><path d="M15.37,33.46a1.29,1.29,0,0,1-.67-.17c-.93-.54-1-2.17-.13-3.65A4.21,4.21,0,0,1,16.13,28a1.66,1.66,0,0,1,1.66-.1,1.66,1.66,0,0,1,.74,1.49,4.51,4.51,0,0,1-2.16,3.75A2.11,2.11,0,0,1,15.37,33.46ZM17.12,28a2,2,0,0,0-.88.25,4,4,0,0,0-1.48,1.52c-.79,1.36-.76,2.86.06,3.33A1.46,1.46,0,0,0,16.26,33a4,4,0,0,0,1.47-1.51,3.9,3.9,0,0,0,.57-2,1.46,1.46,0,0,0-.62-1.31A1.19,1.19,0,0,0,17.12,28Z"/><path d="M17.89,27.93h0L16.45,27c-.95-.55-2.42.22-3.29,1.72s-.8,3.16.14,3.7l1.27.83.18.12a1.34,1.34,0,0,0,.69.18,2.21,2.21,0,0,0,1-.29,4.56,4.56,0,0,0,2.18-3.79A1.7,1.7,0,0,0,17.89,27.93Z"/><ellipse class="cls-1" cx="16.25" cy="30.61" rx="2.09" ry="1.29" transform="translate(-18.39 29.38) rotate(-60)"/><path d="M15.63,32.59a1,1,0,0,1-.46-.11,1.2,1.2,0,0,1-.51-1,3,3,0,0,1,.42-1.5,3,3,0,0,1,1.09-1.11,1.17,1.17,0,0,1,1.15-.08,1.14,1.14,0,0,1,.51,1,3,3,0,0,1-.42,1.5A2.34,2.34,0,0,1,15.63,32.59Zm1.23-3.84a1.35,1.35,0,0,0-.63.18,3,3,0,0,0-1.45,2.51,1.05,1.05,0,0,0,.45.94c.59.33,1.52-.18,2.08-1.15a2.9,2.9,0,0,0,.41-1.44,1.06,1.06,0,0,0-.45-.94A.8.8,0,0,0,16.86,28.75Z"/><ellipse class="cls-2" cx="16.24" cy="30.62" rx="2.05" ry="1.26" transform="matrix(0.5, -0.87, 0.87, 0.5, -18.4, 29.38)"/><path d="M15.64,32.57a.87.87,0,0,1-.45-.12,1.13,1.13,0,0,1-.5-1A2.91,2.91,0,0,1,15.1,30c.58-1,1.57-1.53,2.2-1.16s.66,1.47.08,2.48a2.87,2.87,0,0,1-1.07,1.09A1.39,1.39,0,0,1,15.64,32.57Zm1.2-3.78A2.21,2.21,0,0,0,15.2,30a2.78,2.78,0,0,0-.4,1.41.9.9,0,0,0,1.46.84,2.72,2.72,0,0,0,1-1.05c.55-.95.53-2,0-2.32A.8.8,0,0,0,16.84,28.79Z"/><ellipse cx="16.25" cy="30.61" rx="0.46" ry="0.28" transform="translate(-18.39 29.38) rotate(-60)"/><path class="cls-1" d="M16.11,31.1a.25.25,0,0,1-.12,0,.3.3,0,0,1-.14-.26.7.7,0,0,1,.1-.36h0c.15-.25.39-.37.56-.28s.18.37,0,.62a.68.68,0,0,1-.26.27A.34.34,0,0,1,16.11,31.1Zm.27-.86a.49.49,0,0,0-.33.26h0a.48.48,0,0,0-.08.29c0,.05,0,.14.07.17a.19.19,0,0,0,.19,0,.63.63,0,0,0,.21-.22c.11-.19.12-.41,0-.47Z"/><ellipse cx="16.74" cy="29.69" rx="0.37" ry="0.22" transform="translate(-17.34 29.34) rotate(-60)"/><ellipse cx="17.02" cy="30.27" rx="0.37" ry="0.22" transform="translate(-17.7 29.88) rotate(-60)"/><ellipse cx="16.71" cy="31.06" rx="0.37" ry="0.22" transform="translate(-18.54 30) rotate(-60)"/><ellipse cx="16.03" cy="31.54" rx="0.37" ry="0.22" transform="translate(-19.3 29.66) rotate(-60)"/><ellipse cx="15.57" cy="31.25" rx="0.37" ry="0.22" transform="translate(-19.27 29.11) rotate(-60)"/><ellipse cx="15.53" cy="30.5" rx="0.37" ry="0.22" transform="translate(-18.65 28.7) rotate(-60)"/><ellipse cx="16.03" cy="29.85" rx="0.37" ry="0.22" transform="translate(-17.83 28.81) rotate(-60)"/><ellipse class="cls-1" cx="35.69" cy="19.53" rx="2.98" ry="1.83" transform="matrix(0.5, -0.87, 0.87, 0.5, 0.93, 40.67)"/><path d="M34.81,22.38a1.39,1.39,0,0,1-.67-.17c-.92-.54-1-2.18-.13-3.65A4.08,4.08,0,0,1,35.57,17,1.5,1.5,0,0,1,38,18.35a4.16,4.16,0,0,1-.6,2.15,4.21,4.21,0,0,1-1.56,1.6A2.08,2.08,0,0,1,34.81,22.38Zm1.75-5.47a1.85,1.85,0,0,0-.88.25,3.91,3.91,0,0,0-1.48,1.51c-.78,1.37-.76,2.87.06,3.34a1.48,1.48,0,0,0,1.44-.11,4,4,0,0,0,1.47-1.51,4,4,0,0,0,.57-2,1.44,1.44,0,0,0-.62-1.3A1.08,1.08,0,0,0,36.56,16.91Z"/><path d="M37.33,16.84h0l-1.44-.95c-1-.55-2.42.23-3.29,1.72s-.8,3.17.14,3.71l1.27.82a1.18,1.18,0,0,0,.18.13,1.34,1.34,0,0,0,.69.18,2.21,2.21,0,0,0,1-.29,4.23,4.23,0,0,0,1.57-1.62,4.12,4.12,0,0,0,.61-2.17A1.73,1.73,0,0,0,37.33,16.84Z"/><ellipse class="cls-1" cx="35.69" cy="19.53" rx="2.09" ry="1.29" transform="matrix(0.5, -0.87, 0.87, 0.5, 0.93, 40.67)"/><path d="M35.07,21.51a.9.9,0,0,1-.46-.12c-.64-.37-.68-1.51-.08-2.53s1.59-1.56,2.23-1.19.68,1.5.09,2.53A2.34,2.34,0,0,1,35.07,21.51Zm1.23-3.85a2.25,2.25,0,0,0-1.68,1.25c-.56,1-.54,2,.05,2.38s1.52-.17,2.08-1.15.54-2,0-2.37A.74.74,0,0,0,36.3,17.66Z"/><ellipse class="cls-2" cx="35.68" cy="19.54" rx="2.05" ry="1.26" transform="matrix(0.5, -0.87, 0.87, 0.5, 0.92, 40.67)"/><path d="M35.08,21.48a.87.87,0,0,1-.45-.12,1.11,1.11,0,0,1-.5-1,2.88,2.88,0,0,1,.41-1.47c.58-1,1.57-1.53,2.2-1.17a1.16,1.16,0,0,1,.5,1,2.92,2.92,0,0,1-.42,1.47,2.87,2.87,0,0,1-1.07,1.09A1.37,1.37,0,0,1,35.08,21.48Zm1.2-3.77a2.19,2.19,0,0,0-1.64,1.23,2.73,2.73,0,0,0-.4,1.41.9.9,0,0,0,1.46.84,2.72,2.72,0,0,0,1-1.05,2.78,2.78,0,0,0,.4-1.41,1,1,0,0,0-.44-.92A.77.77,0,0,0,36.28,17.71Z"/><ellipse cx="35.69" cy="19.53" rx="0.46" ry="0.28" transform="translate(0.93 40.67) rotate(-60)"/><path class="cls-1" d="M35.55,20a.24.24,0,0,1-.12,0,.3.3,0,0,1-.14-.27.78.78,0,0,1,.1-.35h0a.75.75,0,0,1,.26-.27.32.32,0,0,1,.3,0c.16.09.18.37,0,.62a.66.66,0,0,1-.35.3Zm.27-.85a.25.25,0,0,0-.12,0,.56.56,0,0,0-.21.22h0a.53.53,0,0,0-.08.29.2.2,0,0,0,.07.17.17.17,0,0,0,.12,0,.51.51,0,0,0,.28-.25c.11-.19.12-.4,0-.46Z"/><ellipse cx="36.18" cy="18.61" rx="0.37" ry="0.22" transform="matrix(0.5, -0.87, 0.87, 0.5, 1.98, 40.64)"/><ellipse cx="36.46" cy="19.19" rx="0.37" ry="0.22" transform="translate(1.62 41.17) rotate(-60)"/><ellipse cx="36.15" cy="19.98" rx="0.37" ry="0.22" transform="translate(0.78 41.3) rotate(-60)"/><ellipse cx="35.48" cy="20.46" rx="0.37" ry="0.22" transform="translate(0.02 40.95) rotate(-60)"/><ellipse cx="35.01" cy="20.16" rx="0.37" ry="0.22" transform="translate(0.04 40.4) rotate(-60)"/><ellipse cx="34.97" cy="19.41" rx="0.37" ry="0.22" transform="matrix(0.5, -0.87, 0.87, 0.5, 0.67, 39.99)"/><ellipse cx="35.48" cy="18.76" rx="0.37" ry="0.22" transform="translate(1.49 40.1) rotate(-60)"/><path class="cls-3" d="M13.94,8a4.83,4.83,0,0,0-.9.7C13,8.85,8.9,16,8.9,16L8,16.6,1.37,20.87l-.32.35L.41,22.31l0,.6a31.65,31.65,0,0,0-.09,3.51c.12,0,10.39,6.35,10.39,6.35a3.85,3.85,0,0,0,1.09-.13c.22-.13,1.82-4.37,1.82-4.37l4.05-2.13,1.78,2.1,12.09-6.95,1.34-4.08L37,14.91l1.85,1.66s.45-.45.45-.58a5.52,5.52,0,0,0,.22-1.59c0-1.05,0-3.79,0-3.79a4,4,0,0,0-.41-.5,2,2,0,0,1-.23-.83c0-.13,0-2.66,0-2.66A1,1,0,0,0,38.26,6a1.5,1.5,0,0,1-.66-.36L28,.07A6.32,6.32,0,0,0,27,.5C26.76.64,13.94,8,13.94,8Z"/><path d="M9.76,31.21a.28.28,0,0,1-.15,0l-1.06-.63a.55.55,0,0,1-.25-.44V30a.24.24,0,0,1,.11-.22.23.23,0,0,1,.25,0l1.07.63a.54.54,0,0,1,.25.44V31a.26.26,0,0,1-.12.23ZM8.52,30v.15a.33.33,0,0,0,.14.24L9.73,31h0v-.14a.35.35,0,0,0-.14-.25L8.55,30Z"/><path d="M2.08,26.81a.28.28,0,0,1-.15,0L.87,26.14a.58.58,0,0,1-.25-.45v-.12a.23.23,0,0,1,.12-.22.25.25,0,0,1,.25,0L2.05,26a.54.54,0,0,1,.25.44v.12a.27.27,0,0,1-.11.23ZM.85,25.55v.14a.34.34,0,0,0,.14.25l1.06.63h0v-.14a.32.32,0,0,0-.14-.25L.87,25.56Z"/><path class="cls-4" d="M10,14.94a.22.22,0,0,0,.07.28l9.11,5.21a.19.19,0,0,0,.27-.07l2.78-4.83a.21.21,0,0,0-.08-.28L13,10a.19.19,0,0,0-.27.07Z"/><path d="M19.23,20.58a.3.3,0,0,1-.16,0L10,15.32a.34.34,0,0,1-.12-.44h0l2.76-4.83a.3.3,0,0,1,.19-.14.33.33,0,0,1,.24,0l9.12,5.21a.32.32,0,0,1,.12.43L19.5,20.42a.32.32,0,0,1-.19.15ZM10.05,15a.1.1,0,0,0,0,.13l9.1,5.22h.07a.1.1,0,0,0,.05,0l2.78-4.84a.11.11,0,0,0,0-.13l-9.13-5.2a.08.08,0,0,0-.11,0Z"/><path d="M11.26,32.89a.73.73,0,0,1-.39-.1.75.75,0,0,1-.35-.7V28.62a1.85,1.85,0,0,1,.3-.92l.28-.43a2.31,2.31,0,0,1,.73-.73l6.8-4.38a2,2,0,0,0,.48-.4L20,20.41l3.15-5.6a2.14,2.14,0,0,1,.81-.87L37.31,6.22c.55-.32,1-.4,1.28-.22a.84.84,0,0,1,.37.71v3a.43.43,0,0,0,.22.42.65.65,0,0,1,.35.63v4.57a1.62,1.62,0,0,1-.21.76l-.33.62a2.28,2.28,0,0,1-.58.72l-.15-.18a2.19,2.19,0,0,0,.53-.64l.33-.62a1.48,1.48,0,0,0,.19-.66V10.72a.43.43,0,0,0-.22-.42.63.63,0,0,1-.36-.63v-3a.62.62,0,0,0-.25-.52c-.22-.12-.59-.05-1.06.22L24.05,14.14a2,2,0,0,0-.73.78l-3.15,5.6c-.08.14-.85,1.33-.88,1.38a2,2,0,0,1-.54.45L12,26.74a2,2,0,0,0-.66.65l-.27.44a1.59,1.59,0,0,0-.27.79v3.47a.54.54,0,0,0,.23.5.92.92,0,0,0,.88-.12l.11.2A1.49,1.49,0,0,1,11.26,32.89Z"/><rect x="18.43" y="24.69" width="13.9" height="0.23" transform="translate(-9.01 16.03) rotate(-30.02)"/><path d="M.44,26.18H.21V22.72a1.77,1.77,0,0,1,.31-.92l.27-.44a2.38,2.38,0,0,1,.73-.72l6.81-4.39a1.73,1.73,0,0,0,.47-.4c.21-.32.8-1.23.86-1.34L12.81,8.9A2.29,2.29,0,0,1,13.63,8L27,.31A1.53,1.53,0,0,1,28.13,0l-.06.22a1.39,1.39,0,0,0-.95.26L13.74,8.23A2,2,0,0,0,13,9L9.86,14.62C9.78,14.76,9,15.94,9,16a2.07,2.07,0,0,1-.54.46l-6.8,4.38a2.05,2.05,0,0,0-.65.66l-.28.43a1.59,1.59,0,0,0-.27.8Z"/><path class="cls-5" d="M21,21l7.76-4.48V12.19L25,14.39a3,3,0,0,0-1.27,1.4L21,21C20.92,21.17,20.93,21.05,21,21Z"/><path class="cls-6" d="M21,21.2h-.1l0-.08a.23.23,0,0,1,.07-.17l2.69-5.21a3.09,3.09,0,0,1,1.32-1.44l4-2.3v4.6l-.06,0L21.08,21.1S21,21.2,21,21.2Zm7.71-8.81L25,14.49a3,3,0,0,0-1.23,1.35l-2.52,4.88,7.39-4.26Z"/><path class="cls-7" d="M29.74,16l7.64-4.42a1.56,1.56,0,0,0,.78-1.35V7.25c0-.31-.16-.38-.41-.24l-8,4.59Z"/><path class="cls-6" d="M29.62,16.17l.06-4.63.06,0,8-4.59a.41.41,0,0,1,.42,0,.4.4,0,0,1,.17.38V10.2a1.69,1.69,0,0,1-.84,1.45Zm.29-4.5-.06,4.1,7.47-4.32a1.43,1.43,0,0,0,.73-1.25V7.25a.26.26,0,0,0,0-.19s-.09,0-.2.05Z"/><path class="cls-1" d="M17.47,26.76l1.38,1.65c.06.08.18.08.31,0l.09-.05c.27-.16.45-.56.31-.72l-1.72-2.06c-.06-.08-.18-.08-.32,0l-3.93,2.28a.79.79,0,0,0-.33.39L11.8,32.15c-.12.3.06.48.32.33h0a.82.82,0,0,0,.33-.4L13.6,29a.79.79,0,0,1,.33-.39l3.22-1.87C17.28,26.68,17.41,26.68,17.47,26.76Z"/><path d="M11.94,32.65a.34.34,0,0,1-.19-.07.41.41,0,0,1-.06-.47l1.47-3.91a.87.87,0,0,1,.37-.45l3.94-2.28a.35.35,0,0,1,.46,0l1.72,2.07a.37.37,0,0,1,.07.31.88.88,0,0,1-.42.58l-.08.05a.35.35,0,0,1-.46,0l-1.38-1.65s-.09,0-.17,0L14,28.71a.67.67,0,0,0-.28.34l-1.15,3.07a.89.89,0,0,1-.38.45A.46.46,0,0,1,11.94,32.65Zm5.77-7a.38.38,0,0,0-.13,0l-3.93,2.27a.67.67,0,0,0-.28.34L11.9,32.19c0,.11,0,.19,0,.22s.09,0,.17,0a.71.71,0,0,0,.27-.34L13.5,29a.87.87,0,0,1,.37-.45l3.23-1.86a.34.34,0,0,1,.46,0l1.38,1.66s.09,0,.17,0l.08,0a.61.61,0,0,0,.3-.42.18.18,0,0,0,0-.13l-1.73-2.06A.05.05,0,0,0,17.71,25.63Z"/><path class="cls-1" d="M36.83,15.64l1.38,1.66c.06.07.18.07.31,0l.08-.05c.28-.16.46-.56.32-.72L37.2,14.46a.27.27,0,0,0-.32,0L33,16.73a.82.82,0,0,0-.33.4L31.15,21c-.11.31.06.49.33.33h0a.79.79,0,0,0,.33-.39L33,17.9a.82.82,0,0,1,.33-.4l3.22-1.86A.27.27,0,0,1,36.83,15.64Z"/><path d="M31.3,21.53a.31.31,0,0,1-.19-.06.42.42,0,0,1-.06-.48l1.46-3.9a1,1,0,0,1,.38-.46l3.93-2.27a.37.37,0,0,1,.47,0L39,16.46a.35.35,0,0,1,.06.31.9.9,0,0,1-.41.58l-.08,0a.35.35,0,0,1-.46,0l-1.38-1.65s-.1,0-.17,0L33.34,17.6a.71.71,0,0,0-.27.34L31.91,21a.87.87,0,0,1-.37.45A.47.47,0,0,1,31.3,21.53Zm5.76-7a.24.24,0,0,0-.12,0L33,16.83a.71.71,0,0,0-.27.34l-1.47,3.9c0,.12,0,.2,0,.22s.09,0,.16,0a.67.67,0,0,0,.28-.34l1.15-3.07a1,1,0,0,1,.38-.46l3.22-1.86a.35.35,0,0,1,.46,0l1.38,1.65s.1,0,.17,0l.09-.05a.68.68,0,0,0,.3-.42.17.17,0,0,0,0-.13l-1.72-2.06Z"/><polygon class="cls-1" points="27.14 18.51 28.65 17.64 28.65 17.32 27.14 18.2 27.14 18.51"/><path d="M27,18.71v-.58l1.74-1v.58Zm.23-.45v.06l1.28-.74v-.06Z"/><path d="M20.88,26.82a.56.56,0,0,1-.27-.08.53.53,0,0,1-.26-.46V21.94a2.58,2.58,0,0,1,.3-1.13l2.59-5.18A4.12,4.12,0,0,1,24.76,14l4.08-2.35a.29.29,0,0,1,.28,0,.23.23,0,0,1,.1.2v4.69a.89.89,0,0,1-.06.31,1.65,1.65,0,0,0-.15.48v4.19a1.19,1.19,0,0,1-.59,1l-7.27,4.19A.53.53,0,0,1,20.88,26.82ZM29,11.75a.24.24,0,0,0-.12,0l-4.08,2.35a4.17,4.17,0,0,0-1.47,1.54l-2.59,5.19a2.39,2.39,0,0,0-.29,1.07v4.34a.44.44,0,0,0,.21.37.45.45,0,0,0,.42,0l7.27-4.2a1.06,1.06,0,0,0,.53-.92V17.34a2.16,2.16,0,0,1,.16-.53.65.65,0,0,0,.06-.26V11.86a.11.11,0,0,0-.05-.1Z"/><rect x="13.92" y="12.94" width="0.23" height="11.88" transform="translate(-9.32 21.68) rotate(-60.19)"/><path d="M.12,26l10.1,5.81a.8.8,0,0,0,.82,0l.06,0a.23.23,0,0,1,.35.2v.75l-.4.23a.91.91,0,0,1-.93,0L.19,27.26A.32.32,0,0,1,0,27c0-.24,0-.65,0-.87C0,26,.06,26,.12,26Z"/><path d="M9.63,24.92a.61.61,0,0,1-.31-.09L4.6,22a.37.37,0,0,1-.16-.46v0l5.13-5.18.08.08L4.54,21.64a.26.26,0,0,0,.11.3l4.73,2.79a.48.48,0,0,0,.48,0L18,21.14l0,.1L9.91,24.86A.67.67,0,0,1,9.63,24.92Z"/><path d="M9.74,25.31a1.8,1.8,0,0,1-.66-.14S5,22.75,4.4,22.42A.74.74,0,0,1,4,21.91a.48.48,0,0,1,.15-.37l5.33-5.27.08.08L4.2,21.63a.3.3,0,0,0-.11.27c0,.15.14.29.37.42l4.68,2.75a1.44,1.44,0,0,0,1.1,0c1.19-.45,8.28-3.51,8.35-3.55l.05.11c-.08,0-7.17,3.1-8.36,3.55A1.59,1.59,0,0,1,9.74,25.31Z"/><rect x="33.05" y="-2.91" width="0.23" height="11.97" transform="translate(14.06 30.36) rotate(-60.29)"/><path d="M22.52,20.79a6.36,6.36,0,0,0-1.38-.73c-.17.05-.27.32-.32.33v.71a.23.23,0,0,0,.12.2l1.08.62a.94.94,0,0,0,.51.06Z"/><path d="M2.79,25.21l4.94,2.86a.22.22,0,0,0,.33-.19v-.4L2.68,24.37V25A.23.23,0,0,0,2.79,25.21Z"/><path d="M2.79,26.18l4.94,2.87a.22.22,0,0,0,.33-.19v-.4L2.68,25.35V26A.21.21,0,0,0,2.79,26.18Z"/><path d="M2.79,27.18l4.94,2.87a.22.22,0,0,0,.33-.19v-.4L2.68,26.35V27A.21.21,0,0,0,2.79,27.18Z"/><path class="cls-8" d="M10.27,28.68l-1.56-.89a.17.17,0,0,0-.25.15v1.33a.16.16,0,0,0,.09.15l1.73,1s.24.17.79-.2a.19.19,0,0,0,.12-.16l.21-1.32a.17.17,0,0,0-.21-.17c-.34.09-.54.31-.9.14Z"/><path d="M10.45,30.55a.47.47,0,0,1-.24-.06l-1.72-1a.29.29,0,0,1-.14-.25V27.94a.27.27,0,0,1,.14-.24.26.26,0,0,1,.28,0l1.56.89-.06.1.07-.09a.58.58,0,0,0,.53,0,2,2,0,0,1,.29-.11.29.29,0,0,1,.24,0,.3.3,0,0,1,.11.23l-.2,1.33a.31.31,0,0,1-.17.24A1.23,1.23,0,0,1,10.45,30.55ZM8.63,27.89h0a.06.06,0,0,0,0,.05v1.33a.08.08,0,0,0,0,.05l1.74,1s.21.12.67-.19c0,0,.07-.05.07-.07l.2-1.34,0,0h0l-.26.1a.84.84,0,0,1-.72,0l0,0-1.56-.89Z"/><path class="cls-9" d="M.39,23.14l1.8,1a.21.21,0,0,1,.11.18v1.17A.21.21,0,0,1,2,25.7l-1.6-.91Z"/><path d="M2.09,25.85a.33.33,0,0,1-.16-.05L.28,24.85V22.94l2,1.13a.33.33,0,0,1,.16.28v1.17a.32.32,0,0,1-.16.28A.3.3,0,0,1,2.09,25.85ZM.51,24.72,2,25.6a.09.09,0,0,0,.1,0,.08.08,0,0,0,0-.08V24.35a.12.12,0,0,0,0-.08L.51,23.34Z"/><polygon class="cls-1" points="9.01 29.55 9.96 28.63 10.21 28.78 9.31 29.72 9.01 29.55"/><polygon class="cls-1" points="0.58 24.76 1.48 23.89 1.74 24.04 0.88 24.93 0.58 24.76"/><path class="cls-1" d="M9.63,29.89l.81-.3a.38.38,0,0,0,.13-.09l.69-.67,0,.26-.58.64a.49.49,0,0,1-.21.14l-.55.18Z"/></g></g></svg>