<svg xmlns="http://www.w3.org/2000/svg" xmlns:xlink="http://www.w3.org/1999/xlink" viewBox="0 0 38.87 28.43"><defs><style>.cls-1{fill:url(#linear-gradient);}.cls-2{fill:#fff;}.cls-3{fill:#d7d7d7;}.cls-4{fill:url(#linear-gradient-2);}.cls-5{fill:#231f20;}.cls-6{fill:url(#New_Gradient_Swatch_3);}.cls-7{fill:url(#New_Gradient_Swatch_3-2);}.cls-8{fill:url(#New_Gradient_Swatch_3-3);}.cls-9{fill:url(#New_Gradient_Swatch_3-4);}.cls-10{fill:url(#New_Gradient_Swatch_3-5);}.cls-11{fill:url(#New_Gradient_Swatch_3-6);}</style><linearGradient id="linear-gradient" x1="348.34" y1="13.74" x2="386.02" y2="13.74" gradientTransform="matrix(-1, 0, 0, 1, 386.12, 0)" gradientUnits="userSpaceOnUse"><stop offset="0" stop-color="#6a823b"/><stop offset="1" stop-color="#7a9351"/></linearGradient><linearGradient id="linear-gradient-2" x1="347.35" y1="17.68" x2="375.07" y2="17.68" xlink:href="#linear-gradient"/><linearGradient id="New_Gradient_Swatch_3" x1="20.92" y1="12.48" x2="27.75" y2="12.48" gradientUnits="userSpaceOnUse"><stop offset="0" stop-color="#fff"/><stop offset="1" stop-color="#d7d7d7"/></linearGradient><linearGradient id="New_Gradient_Swatch_3-2" x1="12.46" y1="16.31" x2="19.84" y2="16.31" xlink:href="#New_Gradient_Swatch_3"/><linearGradient id="New_Gradient_Swatch_3-3" x1="376.25" y1="16.68" x2="384.06" y2="16.68" gradientTransform="matrix(-1, 0, 0, 1, 386.12, 0)" xlink:href="#New_Gradient_Swatch_3"/><linearGradient id="New_Gradient_Swatch_3-4" x1="374.17" y1="12.3" x2="385.22" y2="12.3" gradientTransform="matrix(-1, 0, 0, 1, 386.12, 0)" xlink:href="#New_Gradient_Swatch_3"/><linearGradient id="New_Gradient_Swatch_3-5" x1="375.35" y1="24.01" x2="375.97" y2="24.01" gradientTransform="matrix(-1, 0, 0, 1, 386.12, 0)" xlink:href="#New_Gradient_Swatch_3"/><linearGradient id="New_Gradient_Swatch_3-6" x1="385.21" y1="18.11" x2="385.81" y2="18.11" gradientTransform="matrix(-1, 0, 0, 1, 386.12, 0)" xlink:href="#New_Gradient_Swatch_3"/></defs><g id="Layer_2" data-name="Layer 2"><g id="Layer_1-2" data-name="Layer 1"><path class="cls-1" d="M.27,16.19.38,16a.94.94,0,0,0,.18-.56L.47,10.13a1.64,1.64,0,0,1,.18-.76L.9,8.9a1.53,1.53,0,0,1,.58-.63L13.41,1.39a1.24,1.24,0,0,1,1.41.08l3.53,2.39a1.38,1.38,0,0,0,.48-.17L24.71.25h0l.07,0a.77.77,0,0,1,.75,0S37.65,7.6,37.79,7.73l-1.7-.48L11.19,27.37.37,20.69a.67.67,0,0,1-.16-.43L.1,16.76A.91.91,0,0,1,.27,16.19Z"/><path d="M.32,20.77l0,0a.73.73,0,0,1-.19-.48L0,16.77a1,1,0,0,1,.2-.64L.3,16a.75.75,0,0,0,.16-.5L.37,10.13a1.81,1.81,0,0,1,.19-.8l.25-.48a1.71,1.71,0,0,1,.62-.66L13.36,1.31a1.34,1.34,0,0,1,1.51.07l3.51,2.37a1.12,1.12,0,0,0,.4-.14L24.66.16l.07,0a.91.91,0,0,1,.85,0c2,1.24,12.14,7.44,12.28,7.58l.26.26-2-.57L11.2,27.49ZM37.18,7.46C35.3,6.28,29,2.43,25.49.26a.72.72,0,0,0-.67,0L18.88,3.78a1.28,1.28,0,0,1-.51.17h0L14.76,1.54a1.15,1.15,0,0,0-1.3-.06L1.53,8.36A1.53,1.53,0,0,0,1,8.94l-.24.48a1.42,1.42,0,0,0-.17.7l.09,5.35a1.07,1.07,0,0,1-.2.63l-.11.15a.85.85,0,0,0-.15.51l.1,3.5a.6.6,0,0,0,.14.36l10.74,6.63L36,7.17l0,0Z"/><ellipse class="cls-2" cx="34.41" cy="15.33" rx="3.4" ry="2.09" transform="translate(3.93 37.47) rotate(-60)"/><path d="M32.67,18.36a1.87,1.87,0,0,1-.83-1.68,4.78,4.78,0,0,1,.68-2.44,4.89,4.89,0,0,1,1.77-1.81A1.69,1.69,0,0,1,37,14a4.67,4.67,0,0,1-.69,2.43,4.75,4.75,0,0,1-1.76,1.82,2.38,2.38,0,0,1-1.12.31A1.47,1.47,0,0,1,32.67,18.36Zm1.72-5.76a4.59,4.59,0,0,0-1.7,1.74h0A4.6,4.6,0,0,0,32,16.67a1.69,1.69,0,0,0,.74,1.52,1.67,1.67,0,0,0,1.67-.13,4.56,4.56,0,0,0,1.7-1.73A4.61,4.61,0,0,0,36.8,14a1.69,1.69,0,0,0-.74-1.51,1.19,1.19,0,0,0-.65-.17A2.21,2.21,0,0,0,34.39,12.6Z"/><path d="M36.29,12.27h0l-1.64-1.09c-1.08-.62-2.77.26-3.75,2s-.92,3.61.15,4.23l1.45.94.2.14a1.66,1.66,0,0,0,.79.2,2.41,2.41,0,0,0,1.16-.33,4.76,4.76,0,0,0,1.8-1.84,4.83,4.83,0,0,0,.7-2.48A2,2,0,0,0,36.29,12.27Z"/><ellipse class="cls-2" cx="34.41" cy="15.33" rx="2.39" ry="1.47" transform="matrix(0.5, -0.87, 0.87, 0.5, 3.93, 37.47)"/><path d="M33.2,17.44c-.73-.41-.77-1.7-.1-2.86s1.81-1.78,2.53-1.36.77,1.71.1,2.87a2.67,2.67,0,0,1-2,1.49A1,1,0,0,1,33.2,17.44Zm0-2.82c-.65,1.12-.62,2.35.05,2.74s1.76-.2,2.4-1.32.62-2.34,0-2.73a.89.89,0,0,0-.47-.12A2.56,2.56,0,0,0,33.19,14.62Z"/><ellipse class="cls-3" cx="34.41" cy="15.34" rx="2.34" ry="1.44" transform="translate(3.92 37.47) rotate(-60)"/><path d="M33.21,17.41a1.3,1.3,0,0,1-.56-1.14,3.51,3.51,0,0,1,1.68-2.91,1.28,1.28,0,0,1,1.27-.09c.71.41.75,1.68.1,2.82a3.23,3.23,0,0,1-1.22,1.24,1.64,1.64,0,0,1-.76.22A1,1,0,0,1,33.21,17.41Zm1.17-4a3.07,3.07,0,0,0-1.17,1.2h0a3.18,3.18,0,0,0-.46,1.62,1.17,1.17,0,0,0,.51,1.06,1.21,1.21,0,0,0,1.18-.09A3.14,3.14,0,0,0,35.61,16c.63-1.1.61-2.3-.06-2.68a.87.87,0,0,0-.45-.12A1.48,1.48,0,0,0,34.38,13.45Z"/><ellipse cx="34.41" cy="15.33" rx="0.53" ry="0.32" transform="translate(3.93 37.47) rotate(-60)"/><path class="cls-2" d="M34.13,15.83c-.18-.1-.2-.4,0-.68h0a.84.84,0,0,1,.29-.3.34.34,0,0,1,.32,0c.18.11.2.41,0,.69a.63.63,0,0,1-.48.35A.2.2,0,0,1,34.13,15.83Zm.3-.89a.57.57,0,0,0-.25.26h0c-.13.22-.13.47,0,.55s.34-.05.47-.28.13-.48,0-.55a.11.11,0,0,0-.08,0A.27.27,0,0,0,34.43,14.94Z"/><ellipse cx="34.98" cy="14.28" rx="0.42" ry="0.26" transform="translate(5.12 37.43) rotate(-60)"/><ellipse cx="35.3" cy="14.94" rx="0.42" ry="0.26" transform="translate(4.71 38.04) rotate(-60)"/><ellipse cx="34.95" cy="15.85" rx="0.42" ry="0.26" transform="translate(3.75 38.19) rotate(-60)"/><ellipse cx="34.17" cy="16.39" rx="0.42" ry="0.26" transform="matrix(0.5, -0.87, 0.87, 0.5, 2.89, 37.79)"/><ellipse cx="33.64" cy="16.05" rx="0.42" ry="0.26" transform="matrix(0.5, -0.87, 0.87, 0.5, 2.92, 37.16)"/><ellipse cx="33.59" cy="15.2" rx="0.42" ry="0.26" transform="translate(3.63 36.69) rotate(-60)"/><ellipse cx="34.17" cy="14.46" rx="0.42" ry="0.26" transform="translate(4.56 36.82) rotate(-60)"/><ellipse class="cls-2" cx="17.7" cy="24.89" rx="3.4" ry="2.09" transform="matrix(0.5, -0.87, 0.87, 0.5, -12.71, 27.77)"/><path d="M16,27.92a1.91,1.91,0,0,1-.83-1.68,4.7,4.7,0,0,1,.69-2.44c1-1.67,2.59-2.54,3.63-1.94a1.88,1.88,0,0,1,.83,1.68A4.78,4.78,0,0,1,19.59,26a4.67,4.67,0,0,1-1.77,1.81,2.4,2.4,0,0,1-1.12.32A1.49,1.49,0,0,1,16,27.92Zm0-4h0a4.5,4.5,0,0,0-.66,2.33,1.71,1.71,0,0,0,.73,1.52,1.72,1.72,0,0,0,1.68-.13,4.95,4.95,0,0,0,2.35-4.07A1.71,1.71,0,0,0,19.35,22a1.35,1.35,0,0,0-.66-.17A3.62,3.62,0,0,0,16,23.9Z"/><path d="M19.57,21.82h0l-1.64-1.08c-1.08-.62-2.76.26-3.75,2s-.91,3.61.16,4.23l1.44.94L16,28a1.57,1.57,0,0,0,.8.21,2.48,2.48,0,0,0,1.16-.33,5.17,5.17,0,0,0,2.49-4.32A2,2,0,0,0,19.57,21.82Z"/><ellipse class="cls-2" cx="17.7" cy="24.89" rx="2.39" ry="1.47" transform="matrix(0.5, -0.87, 0.87, 0.5, -12.71, 27.77)"/><path d="M16.48,27c-.72-.42-.77-1.7-.09-2.87h0c.67-1.16,1.8-1.77,2.53-1.35s.76,1.7.09,2.87a3.2,3.2,0,0,1-1.24,1.26,1.59,1.59,0,0,1-.77.22A1,1,0,0,1,16.48,27Zm0-2.82c-.65,1.12-.62,2.35.06,2.74a1.25,1.25,0,0,0,1.2-.09,3.3,3.3,0,0,0,1.2-1.23c.64-1.12.61-2.35-.06-2.74a.94.94,0,0,0-.47-.12A2.58,2.58,0,0,0,16.47,24.18Z"/><ellipse class="cls-3" cx="17.69" cy="24.9" rx="2.34" ry="1.44" transform="translate(-12.72 27.77) rotate(-60)"/><path d="M16.5,27a1.3,1.3,0,0,1-.57-1.14,3.37,3.37,0,0,1,.47-1.67h0c.66-1.14,1.78-1.74,2.49-1.33s.75,1.67.09,2.81a2.61,2.61,0,0,1-2,1.46A1,1,0,0,1,16.5,27Zm0-2.76h0A3.18,3.18,0,0,0,16,25.83a1.23,1.23,0,0,0,.51,1.06c.67.38,1.72-.2,2.35-1.29s.61-2.3-.05-2.68a.93.93,0,0,0-.46-.12A2.5,2.5,0,0,0,16.49,24.21Z"/><ellipse cx="17.7" cy="24.89" rx="0.53" ry="0.32" transform="matrix(0.5, -0.87, 0.87, 0.5, -12.71, 27.77)"/><path class="cls-2" d="M17.41,25.39a.3.3,0,0,1-.13-.18.74.74,0,0,1,.09-.51h0c.17-.28.43-.41.62-.31s.19.41,0,.69a.61.61,0,0,1-.48.34A.31.31,0,0,1,17.41,25.39Zm.05-.64h0a.59.59,0,0,0-.09.43.18.18,0,0,0,.09.12c.13.08.35-.05.48-.27s.13-.48,0-.55l-.09,0A.54.54,0,0,0,17.46,24.75Z"/><ellipse cx="18.26" cy="23.84" rx="0.42" ry="0.26" transform="translate(-11.52 27.73) rotate(-60)"/><ellipse cx="18.58" cy="24.5" rx="0.42" ry="0.26" transform="translate(-11.93 28.34) rotate(-60)"/><ellipse cx="18.23" cy="25.4" rx="0.42" ry="0.26" transform="matrix(0.5, -0.87, 0.87, 0.5, -12.88, 28.49)"/><ellipse cx="17.46" cy="25.95" rx="0.42" ry="0.26" transform="translate(-13.75 28.09) rotate(-60)"/><ellipse cx="16.92" cy="25.61" rx="0.42" ry="0.26" transform="translate(-13.72 27.46) rotate(-60)"/><ellipse cx="16.88" cy="24.76" rx="0.42" ry="0.26" transform="matrix(0.5, -0.87, 0.87, 0.5, -13, 26.99)"/><ellipse cx="17.46" cy="24.02" rx="0.42" ry="0.26" transform="matrix(0.5, -0.87, 0.87, 0.5, -12.07, 27.13)"/><path class="cls-4" d="M11.33,22.68a.92.92,0,0,0,.18-.57l-.09-5a1.63,1.63,0,0,1,.18-.75l.25-.48a1.64,1.64,0,0,1,.58-.62l11.51-7a1.25,1.25,0,0,1,1.41.07l3,2.27a1.29,1.29,0,0,0,1.44.09l6.38-3.48a.8.8,0,0,1,.75,0l1,.58a1.06,1.06,0,0,1,.48.67l.43,3.63a1.53,1.53,0,0,1-.31,1l-.4.51a.31.31,0,0,1-.53-.07c-.41-1-1.39-3.16-1.84-2.85l-4.93,3.14c-.43.31,0,3.81,0,3.81l-10,5.89-1.33-2.39c-.38-.51-5.51,3.11-5.4,3.63v3.57l-2.32-.6a.67.67,0,0,1-.55-.65l-.11-3.61a1,1,0,0,1,.18-.58Z"/><path d="M14,28.35c-.74-.19-2.18-.57-2.31-.59a.79.79,0,0,1-.64-.75L11,23.41a1.1,1.1,0,0,1,.2-.64l.1-.15a.79.79,0,0,0,.16-.51l-.08-5a1.63,1.63,0,0,1,.19-.8l.24-.47a1.79,1.79,0,0,1,.62-.66l11.51-7a1.34,1.34,0,0,1,1.52.08l3,2.28a1.21,1.21,0,0,0,1.34.07l6.37-3.48a.91.91,0,0,1,.85,0l.95.57a1.19,1.19,0,0,1,.53.74l.43,3.65a1.59,1.59,0,0,1-.34,1l-.39.51a.39.39,0,0,1-.38.15.42.42,0,0,1-.32-.24c-.69-1.67-1.3-2.73-1.62-2.82,0,0-.06,0-.07,0l-4.93,3.14c-.24.17-.15,2,.08,3.72v.06l-10.1,5.92-.09.06-1.37-2.47s-.08-.06-.49.11c-1.25.53-4.74,3-4.73,3.46v3.69ZM19.51,21l1.28,2.3,9.91-5.8c-.09-.71-.44-3.53,0-3.84l4.93-3.14a.29.29,0,0,1,.24,0c.49.15,1.22,1.68,1.74,2.93a.23.23,0,0,0,.17.13.2.2,0,0,0,.19-.08l.4-.51a1.47,1.47,0,0,0,.3-.89l-.43-3.62a1,1,0,0,0-.45-.61l-.93-.57a.7.7,0,0,0-.66,0l-6.38,3.48a1.37,1.37,0,0,1-1.55-.09l-3-2.27A1.15,1.15,0,0,0,24,8.35l-11.51,7a1.53,1.53,0,0,0-.54.59l-.25.47a1.61,1.61,0,0,0-.17.71l.09,5a1.07,1.07,0,0,1-.2.62l-.1.15a.8.8,0,0,0-.16.52L11.26,27a.58.58,0,0,0,.47.56c.16,0,1.74.44,2.2.56V24.71c-.11-.55,3.48-3,4.76-3.61a1.59,1.59,0,0,1,.6-.18A.25.25,0,0,1,19.51,21Z"/><path class="cls-2" d="M29.84,18.15l.43-3.76A1.49,1.49,0,0,1,30.81,13l4.23-3h0a1.22,1.22,0,0,1,1.74.45l1.29,2.82-.12.18a.29.29,0,0,1-.51,0l-1-1.81c-.23-.44-.72-.42-1.13-.14l-3.67,2.4a1,1,0,0,0-.38.94L30.85,18a.29.29,0,0,1-.36.28Z"/><path class="cls-5" d="M30.46,18.42l-.72-.2.43-3.83A1.61,1.61,0,0,1,30.75,13L35,10a1.26,1.26,0,0,1,1-.18,1.38,1.38,0,0,1,.88.67l1.29,2.82,0,0-.15.23a.38.38,0,0,1-.35.18.39.39,0,0,1-.33-.21l-1-1.82a.47.47,0,0,0-.33-.27.8.8,0,0,0-.65.17L31.74,14c-.24.17-.33.41-.33.87L30.94,18a.36.36,0,0,1-.14.32.41.41,0,0,1-.24.08Zm5.66-7.19a.73.73,0,0,1,.46.37l1,1.82a.25.25,0,0,0,.17.11.21.21,0,0,0,.18-.09L38,13.3,36.7,10.54A1.13,1.13,0,0,0,36,10a1.06,1.06,0,0,0-.86.16l-4.23,3a1.37,1.37,0,0,0-.5,1.28L30,18.08l.56.15a.18.18,0,0,0,.17,0,.18.18,0,0,0,.07-.17l.47-3.17a1.12,1.12,0,0,1,.41-1l3.68-2.4a1,1,0,0,1,.63-.22Z"/><path class="cls-2" d="M13.61,28.15l-.16-3.48A1.49,1.49,0,0,1,14,23.32l4.23-3h0a1.21,1.21,0,0,1,1.73.45l1.2,2.48-.1.15a.32.32,0,0,1-.55,0l-.85-1.46c-.23-.43-.72-.42-1.12-.14l-3.68,2.41a1,1,0,0,0-.37.93L14.62,28a.29.29,0,0,1-.36.29Z"/><path class="cls-5" d="M14.23,28.42l-.71-.19-.16-3.56a1.59,1.59,0,0,1,.57-1.43l4.25-3a1.27,1.27,0,0,1,1-.18,1.36,1.36,0,0,1,.87.67l1.2,2.48,0,.05-.12.2a.43.43,0,0,1-.38.18.4.4,0,0,1-.35-.22L19.58,22a.45.45,0,0,0-.32-.27.81.81,0,0,0-.66.17l-3.68,2.4a.91.91,0,0,0-.33.85L14.71,28a.36.36,0,0,1-.14.32.41.41,0,0,1-.24.08Zm5.07-6.91a.68.68,0,0,1,.46.37l.85,1.45a.2.2,0,0,0,.18.12.2.2,0,0,0,.2-.1l.07-.11-1.17-2.42a1.14,1.14,0,0,0-.75-.57,1.06,1.06,0,0,0-.86.16l-4.23,3a1.36,1.36,0,0,0-.5,1.27l.16,3.41.57.15a.2.2,0,0,0,.17,0,.2.2,0,0,0,.07-.16l-.12-2.92a1.14,1.14,0,0,1,.41-1l3.68-2.4a1.13,1.13,0,0,1,.63-.21A.55.55,0,0,1,19.3,21.51Z"/><path class="cls-6" d="M27.69,11.93l-6.77,3.74V11.23l3-1.79a1,1,0,0,1,1.14.09l2.63,2.18A.15.15,0,0,1,27.69,11.93Z"/><path class="cls-5" d="M20.82,11.17l3.07-1.81a1,1,0,0,1,1.25.1l2.63,2.18a.24.24,0,0,1,.08.19.27.27,0,0,1-.11.18l-6.92,3.83Zm6.83.64v0L25,9.61a.84.84,0,0,0-1-.09l-3,1.76v4.21l6.63-3.65A0,0,0,0,0,27.65,11.81Z"/><path class="cls-7" d="M19.84,16.43l-7.38,4.29v-4.1a.79.79,0,0,1,.37-.67l7-4Z"/><path class="cls-5" d="M12.36,16.62a.87.87,0,0,1,.41-.75l7.12-4.14.05,4.75-7.58,4.41Zm7.34-4.54-6.82,4a.69.69,0,0,0-.33.59v3.92l7.2-4.16Z"/><path d="M28.57,10.83l4.67-4.5a.47.47,0,0,0,.1-.34.44.44,0,0,0-.19-.29c-.6-.41-2.07-1.29-3.49-2.15S27,2,26.34,1.52a1.13,1.13,0,0,0-1-.13L18.84,4.07l.08.18L25.4,1.57a1,1,0,0,1,.84.11c.66.44,2,1.25,3.32,2S32.45,5.45,33,5.86a.21.21,0,0,1,.1.16.24.24,0,0,1,0,.18l-4.66,4.49Z"/><path d="M29.12,10.92l4.33-4.21a.48.48,0,0,0,.13-.41.67.67,0,0,0-.31-.5l-.1.17a.46.46,0,0,1,.21.36.27.27,0,0,1-.06.23L29,10.78Z"/><rect x="21.76" y="1.94" width="0.2" height="8.31" transform="translate(4.93 21.21) rotate(-57.37)"/><polygon points="30.18 9.89 35.62 6.39 35.56 6.31 30.13 9.8 30.18 9.89"/><rect x="19.57" y="1.92" width="6.46" height="0.1" transform="translate(2.56 12.65) rotate(-32.75)"/><path class="cls-5" d="M21.54,22.3a.48.48,0,0,1-.28-.26l-.8-1.72a1,1,0,0,1-.08-.39V11.3a.59.59,0,0,1,.3-.51l3.59-2.07a.88.88,0,0,1,.95,0l3.05,2.34a.71.71,0,0,1,.3.59l0,6.28a.58.58,0,0,1-.3.53l-6.38,3.75a.43.43,0,0,1-.22.06ZM24.32,8.81l-3.59,2.06a.52.52,0,0,0-.25.43v8.63a.84.84,0,0,0,.07.35l.8,1.72a.38.38,0,0,0,.22.21.36.36,0,0,0,.29,0l6.38-3.76A.51.51,0,0,0,28.5,18l0-6.28a.64.64,0,0,0-.26-.51L25.16,8.85a.74.74,0,0,0-.45-.15A.77.77,0,0,0,24.32,8.81Z"/><path d="M11.22,23.21a1.53,1.53,0,0,0,.83-.35L35.81,9a2.9,2.9,0,0,1,2.52-.5l.07-.18a3,3,0,0,0-2.69.52L11.94,22.71c-.16.12-.58.39-.86.28S3.82,18.61.14,16.36l-.1.17c1.09.67,10.72,6.55,11,6.64A.57.57,0,0,0,11.22,23.21Z"/><path class="cls-5" d="M9.29,25,1.5,20.23a.91.91,0,0,1-.43-.77V17.57a1.08,1.08,0,0,1,.26-.7l.11-.14a.87.87,0,0,0,.22-.57V12A.61.61,0,0,1,2,11.49a.6.6,0,0,1,.62,0l7.56,4.85a.63.63,0,0,1,.28.52v4.73a1,1,0,0,1-.25.67.82.82,0,0,0-.2.54V24.6a.46.46,0,0,1-.23.4.49.49,0,0,1-.23.06A.44.44,0,0,1,9.29,25ZM2.07,11.66a.41.41,0,0,0-.22.37v4.13a1.08,1.08,0,0,1-.26.7L1.48,17a.87.87,0,0,0-.22.57v1.89a.7.7,0,0,0,.34.6l7.79,4.77a.26.26,0,0,0,.27,0,.27.27,0,0,0,.14-.23V22.82a1,1,0,0,1,.24-.67.82.82,0,0,0,.2-.54V16.88a.42.42,0,0,0-.19-.36L2.5,11.68a.39.39,0,0,0-.23-.07A.46.46,0,0,0,2.07,11.66Z"/><path class="cls-8" d="M9.51,21.18,2.32,16.89a.54.54,0,0,1-.26-.46V12.35a.21.21,0,0,1,.33-.18l7.28,4.55a.39.39,0,0,1,.19.33V21A.23.23,0,0,1,9.51,21.18Z"/><path class="cls-5" d="M9.46,21.27,2.27,17A.63.63,0,0,1,2,16.43V12.35a.29.29,0,0,1,.16-.27.31.31,0,0,1,.32,0l7.29,4.56a.49.49,0,0,1,.23.41V21a.32.32,0,0,1-.17.29.31.31,0,0,1-.34,0Zm-7.24-9a.11.11,0,0,0-.06.1v4.08a.41.41,0,0,0,.21.37l7.19,4.3h0a.12.12,0,0,0,.14,0A.13.13,0,0,0,9.78,21l0-3.93a.3.3,0,0,0-.14-.25L2.34,12.25l-.06,0Z"/><line class="cls-9" x1="11.95" y1="15.69" x2="0.9" y2="8.9"/><rect class="cls-5" x="6.33" y="5.81" width="0.2" height="12.98" transform="matrix(0.52, -0.85, 0.85, 0.52, -7.41, 11.33)"/><polygon class="cls-10" points="10.78 23.43 10.15 23.04 10.15 24.6 10.78 24.99 10.78 23.43"/><path class="cls-5" d="M10.06,24.65V22.86l.81.51v1.79Zm.19-1.43v1.33l.43.26V23.48Z"/><polygon class="cls-11" points="0.91 17.55 0.32 17.18 0.32 18.67 0.91 19.04 0.91 17.55"/><path class="cls-5" d="M.22,18.73V17l.79.5v1.72Zm.19-1.38v1.27l.41.25V17.6Z"/><path d="M29.44,11.8a6.22,6.22,0,0,0-1.39-.73c-.16.06-.26.32-.31.34v.71a.22.22,0,0,0,.12.19l1.08.63a1,1,0,0,0,.51.05Z"/><polygon class="cls-2" points="21.1 16.65 22.61 15.78 22.61 15.46 21.1 16.33 21.1 16.65"/><path d="M21,16.85v-.58l1.74-1v.58Zm.23-.45v.05l1.28-.74v-.05Z"/></g></g></svg>