<svg xmlns="http://www.w3.org/2000/svg" xmlns:xlink="http://www.w3.org/1999/xlink" viewBox="0 0 67.5 76.17"><defs><style>.cls-1{fill:#1c75bc;}.cls-2,.cls-4,.cls-6{fill:#fff;}.cls-2,.cls-5{stroke:#d7d7d7;}.cls-10,.cls-11,.cls-12,.cls-2,.cls-4,.cls-5,.cls-6,.cls-8{stroke-miterlimit:10;}.cls-3{fill:url(#New_Gradient_Swatch_3);}.cls-10,.cls-11,.cls-12,.cls-4,.cls-6,.cls-8{stroke:#000;}.cls-10,.cls-12,.cls-4,.cls-8{stroke-width:0.75px;}.cls-11,.cls-5{fill:none;}.cls-7{fill:url(#New_Gradient_Swatch_3-2);}.cls-8{fill:url(#New_Gradient_Swatch_3-3);}.cls-9{fill:url(#New_Gradient_Swatch_3-4);}.cls-10{fill:url(#New_Gradient_Swatch_3-5);}.cls-11{stroke-linecap:round;stroke-width:3px;}.cls-12{fill:url(#New_Gradient_Swatch_3-6);}</style><linearGradient id="New_Gradient_Swatch_3" x1="23.01" y1="18.46" x2="36.67" y2="44.17" gradientUnits="userSpaceOnUse"><stop offset="0" stop-color="#fff"/><stop offset="1" stop-color="#d7d7d7"/></linearGradient><linearGradient id="New_Gradient_Swatch_3-2" x1="65.74" y1="42.64" x2="65.74" y2="51.89" xlink:href="#New_Gradient_Swatch_3"/><linearGradient id="New_Gradient_Swatch_3-3" x1="65.72" y1="35.78" x2="65.72" y2="44.73" xlink:href="#New_Gradient_Swatch_3"/><linearGradient id="New_Gradient_Swatch_3-4" x1="1.43" y1="43.82" x2="1.43" y2="52.19" xlink:href="#New_Gradient_Swatch_3"/><linearGradient id="New_Gradient_Swatch_3-5" x1="1.45" y1="35.78" x2="1.45" y2="44.73" gradientTransform="translate(2.9 82.34) rotate(-180)" xlink:href="#New_Gradient_Swatch_3"/><linearGradient id="New_Gradient_Swatch_3-6" x1="38.94" y1="63.52" x2="38.94" y2="64.97" xlink:href="#New_Gradient_Swatch_3"/></defs><g id="Layer_2" data-name="Layer 2"><g id="Layer_1-2" data-name="Layer 1"><path class="cls-1" d="M51,13.15l1.52-1.47a28.09,28.09,0,0,0-37.32-.6l1.87,1.81a.62.62,0,0,0,.81.06,27.58,27.58,0,0,1,32.3.25A.62.62,0,0,0,51,13.15Z"/><path class="cls-2" d="M56.57,32.85c.06,1.73.13,3.47.18,5.2a1.22,1.22,0,0,0,.77,1.3,2,2,0,0,1,1.2,1.88c0,2.27.06,4.54-.14,6.79a15.14,15.14,0,0,1-1.91,5.23A33.59,33.59,0,0,1,53,58.66a5.53,5.53,0,0,0-.75,1.52c-1.89,5.21-4.72,9.74-9.5,12.8a16.14,16.14,0,0,1-9.46,2.68,17.29,17.29,0,0,1-10.37-4.12,23.61,23.61,0,0,1-7.38-11A12.27,12.27,0,0,0,13.37,57a22.94,22.94,0,0,1-4.24-8.53,13.2,13.2,0,0,1-.27-2.88c0-1.43,0-2.85.05-4.28a2.12,2.12,0,0,1,1.28-2,1.08,1.08,0,0,0,.69-1.1c.09-2.68.22-5.36.24-8a24.8,24.8,0,0,1,1.55-9.38A18.89,18.89,0,0,1,26.3,9.12a31.91,31.91,0,0,1,10.49-.76,22.5,22.5,0,0,1,11.72,4.06,18.64,18.64,0,0,1,7.56,12.23,66,66,0,0,1,.49,7.46l0,.74Z"/><path class="cls-3" d="M10.89,32.71c-.05,1.83-.13,3.67-.19,5.5a1.07,1.07,0,0,1-.69,1.1,2.12,2.12,0,0,0-1.28,2c0,1.43-.08,2.85,0,4.28A13.2,13.2,0,0,0,9,48.49,23.1,23.1,0,0,0,13.19,57a12.3,12.3,0,0,1,2.19,3.49,23.59,23.59,0,0,0,7.37,11,17.29,17.29,0,0,0,10.37,4.12A16.12,16.12,0,0,0,42.58,73c4.79-3.06,7.61-7.59,9.5-12.8a5.53,5.53,0,0,1,.75-1.52,33,33,0,0,0,3.66-5.41A15.14,15.14,0,0,0,58.4,48c.21-2.25.15-4.52.14-6.79a2,2,0,0,0-1.2-1.88,1.23,1.23,0,0,1-.77-1.3c0-1.73-.12-3.47-.18-5.2h0c0-.25,0-.49,0-.74a63.72,63.72,0,0,0-.49-7.46,19.55,19.55,0,0,0-2.46-6.72,44.24,44.24,0,0,0-9-.94A43.46,43.46,0,0,0,10.89,32.71Z"/><circle class="cls-4" cx="62.84" cy="30.19" r="0.66"/><circle class="cls-4" cx="4.32" cy="30.19" r="0.66"/><path class="cls-5" d="M56.57,32.85c.06,1.73.13,3.47.18,5.2a1.22,1.22,0,0,0,.77,1.3,2,2,0,0,1,1.2,1.88c0,2.27.06,4.54-.14,6.79a15.14,15.14,0,0,1-1.91,5.23A33.59,33.59,0,0,1,53,58.66a5.53,5.53,0,0,0-.75,1.52c-1.89,5.21-4.72,9.74-9.5,12.8a16.14,16.14,0,0,1-9.46,2.68,17.29,17.29,0,0,1-10.37-4.12,23.61,23.61,0,0,1-7.38-11A12.27,12.27,0,0,0,13.37,57a22.94,22.94,0,0,1-4.24-8.53,13.2,13.2,0,0,1-.27-2.88c0-1.43,0-2.85.05-4.28a2.12,2.12,0,0,1,1.28-2,1.08,1.08,0,0,0,.69-1.1c.09-2.68.22-5.36.24-8a24.8,24.8,0,0,1,1.55-9.38A18.89,18.89,0,0,1,26.3,9.12a31.91,31.91,0,0,1,10.49-.76,22.5,22.5,0,0,1,11.72,4.06,18.64,18.64,0,0,1,7.56,12.23,66,66,0,0,1,.49,7.46l0,.74Z"/><path class="cls-1" d="M63.87,38.14l-2.15-1.2a.34.34,0,0,0-.22-.17H59.37a2.5,2.5,0,0,0-2.5,2.5V53.6a2.5,2.5,0,0,0,2.5,2.5H61.5a.38.38,0,0,0,.22-.17l2.15-1.21c.71,0,1.28-3.71,1.28-8.28S64.58,38.14,63.87,38.14Z"/><path class="cls-1" d="M7.8,36.76H5.66a.35.35,0,0,0-.21.17L3.3,38.14C2.59,38.14,2,41.85,2,46.43s.57,8.28,1.28,8.28l2.15,1.21a.4.4,0,0,0,.21.17H7.8a2.5,2.5,0,0,0,2.5-2.5V39.26A2.5,2.5,0,0,0,7.8,36.76Z"/><rect class="cls-6" x="63.63" y="32.28" width="1.23" height="4.93" rx="0.62" transform="translate(-5.75 55.61) rotate(-45)"/><path class="cls-7" d="M65.74,52a.44.44,0,0,1-.44-.43V41a.44.44,0,0,1,.87,0V51.54A.44.44,0,0,1,65.74,52Z"/><path d="M65.74,39.53h0A1.44,1.44,0,0,0,64.3,41V51.54A1.44,1.44,0,0,0,65.74,53h0a1.44,1.44,0,0,0,1.43-1.43V41a1.44,1.44,0,0,0-1.43-1.43Z"/><rect class="cls-8" x="65.1" y="35.61" width="1.23" height="11.12" rx="0.62"/><path class="cls-6" d="M3.68,30.43c0-.46,0-.92,0-1.37a29.93,29.93,0,0,1,59.81.16c0,.4,0,.8,0,1.21L62,29.19a28.71,28.71,0,0,0-56.9,0Z"/><rect class="cls-6" x="62.26" y="29.49" width="1.23" height="4.64" rx="0.62"/><rect class="cls-6" x="2.3" y="32.28" width="1.23" height="4.93" rx="0.62" transform="translate(-19.59 61.38) rotate(-135)"/><path class="cls-9" d="M1.43,52A.44.44,0,0,1,1,51.54V41a.44.44,0,0,1,.43-.43.43.43,0,0,1,.43.43V51.54A.43.43,0,0,1,1.43,52Z"/><path d="M1.43,39.53h0A1.43,1.43,0,0,0,0,41V51.54A1.44,1.44,0,0,0,1.43,53h0a1.44,1.44,0,0,0,1.43-1.43V41a1.43,1.43,0,0,0-1.43-1.43Z"/><rect class="cls-10" x="0.83" y="35.61" width="1.23" height="11.12" rx="0.62" transform="translate(2.9 82.34) rotate(180)"/><rect class="cls-6" x="3.67" y="29.49" width="1.23" height="4.64" rx="0.62" transform="translate(8.57 63.62) rotate(-180)"/><circle class="cls-6" cx="4.32" cy="30.19" r="1.14"/><path class="cls-11" d="M39,64.2S58.21,65.7,66,50.83"/><line class="cls-4" x1="12.16" y1="13.62" x2="10.32" y2="11.78"/><line class="cls-4" x1="57.91" y1="13.1" x2="56.07" y2="14.94"/><rect x="32.27" y="62.12" width="6.48" height="4.28" rx="2.14"/><rect class="cls-12" x="37.78" y="63.12" width="2.33" height="2.28" rx="1.14"/><circle class="cls-6" cx="62.84" cy="30.19" r="1.14"/></g></g></svg>