<svg xmlns="http://www.w3.org/2000/svg" xmlns:xlink="http://www.w3.org/1999/xlink" viewBox="0 0 96.99 83.46"><defs><style>.cls-1,.cls-16,.cls-17,.cls-18,.cls-19,.cls-20,.cls-21,.cls-22,.cls-23,.cls-24,.cls-25,.cls-26,.cls-3,.cls-4,.cls-5,.cls-6,.cls-7,.cls-8,.cls-9{stroke:#000;stroke-miterlimit:10;}.cls-1{fill:url(#New_Gradient_Swatch_3);}.cls-2{fill:url(#New_Gradient_Swatch_3-2);}.cls-3{fill:none;}.cls-11,.cls-4,.cls-9{fill:#fff;}.cls-5{fill:url(#New_Gradient_Swatch_3-3);}.cls-6{fill:url(#New_Gradient_Swatch_3-4);}.cls-7{fill:#ed3224;}.cls-8,.cls-9{stroke-width:0.5px;}.cls-8{fill:url(#New_Gradient_Swatch_3-5);}.cls-10{fill:url(#New_Gradient_Swatch_3-6);}.cls-12{fill:url(#New_Gradient_Swatch_3-7);}.cls-13{fill:url(#New_Gradient_Swatch_3-8);}.cls-14{fill:url(#New_Gradient_Swatch_3-9);}.cls-15{fill:url(#New_Gradient_Swatch_3-10);}.cls-16{fill:url(#New_Gradient_Swatch_3-11);}.cls-17{fill:url(#New_Gradient_Swatch_3-12);}.cls-18{fill:url(#New_Gradient_Swatch_3-13);}.cls-19{fill:url(#New_Gradient_Swatch_3-14);}.cls-20{fill:url(#New_Gradient_Swatch_3-15);}.cls-21{fill:url(#New_Gradient_Swatch_3-16);}.cls-22{fill:url(#New_Gradient_Swatch_3-17);}.cls-23{fill:url(#New_Gradient_Swatch_3-18);}.cls-24{fill:url(#New_Gradient_Swatch_3-19);}.cls-25{fill:url(#New_Gradient_Swatch_3-20);}.cls-26{fill:url(#New_Gradient_Swatch_3-21);}</style><linearGradient id="New_Gradient_Swatch_3" x1="75" y1="54.67" x2="75" y2="22.7" gradientUnits="userSpaceOnUse"><stop offset="0" stop-color="#fff"/><stop offset="1" stop-color="#d7d7d7"/></linearGradient><linearGradient id="New_Gradient_Swatch_3-2" x1="34.02" y1="43.8" x2="60.06" y2="43.8" xlink:href="#New_Gradient_Swatch_3"/><linearGradient id="New_Gradient_Swatch_3-3" x1="21.56" y1="59.33" x2="8.25" y2="75.58" xlink:href="#New_Gradient_Swatch_3"/><linearGradient id="New_Gradient_Swatch_3-4" x1="51.96" y1="67.54" x2="23.26" y2="59.24" xlink:href="#New_Gradient_Swatch_3"/><linearGradient id="New_Gradient_Swatch_3-5" x1="50.96" y1="60.85" x2="52.06" y2="60.85" xlink:href="#New_Gradient_Swatch_3"/><linearGradient id="New_Gradient_Swatch_3-6" x1="-658.83" y1="35.53" x2="-655.5" y2="42.01" gradientTransform="matrix(-1, 0, 0, 1, -586.93, 0)" xlink:href="#New_Gradient_Swatch_3"/><linearGradient id="New_Gradient_Swatch_3-7" x1="-633.09" y1="59.55" x2="-630.05" y2="65.47" gradientTransform="matrix(-1, 0, 0, 1, -586.93, 0)" xlink:href="#New_Gradient_Swatch_3"/><linearGradient id="New_Gradient_Swatch_3-8" x1="-673.58" y1="26.53" x2="-670.25" y2="33.01" gradientTransform="matrix(-1, 0, 0, 1, -586.93, 0)" xlink:href="#New_Gradient_Swatch_3"/><linearGradient id="New_Gradient_Swatch_3-9" x1="-657.66" y1="49.43" x2="-654.59" y2="55.42" gradientTransform="matrix(-1, 0, 0, 1, -586.93, 0)" xlink:href="#New_Gradient_Swatch_3"/><linearGradient id="New_Gradient_Swatch_3-10" x1="-671.3" y1="41.1" x2="-668.22" y2="47.09" gradientTransform="matrix(-1, 0, 0, 1, -586.93, 0)" xlink:href="#New_Gradient_Swatch_3"/><linearGradient id="New_Gradient_Swatch_3-11" x1="79.48" y1="9.14" x2="77.31" y2="11.79" xlink:href="#New_Gradient_Swatch_3"/><linearGradient id="New_Gradient_Swatch_3-12" x1="63.85" y1="8.94" x2="61.68" y2="11.58" xlink:href="#New_Gradient_Swatch_3"/><linearGradient id="New_Gradient_Swatch_3-13" x1="41.06" y1="58.22" x2="31.92" y2="43.6" xlink:href="#New_Gradient_Swatch_3"/><linearGradient id="New_Gradient_Swatch_3-14" x1="85.72" y1="47.42" x2="61.31" y2="40.37" xlink:href="#New_Gradient_Swatch_3"/><linearGradient id="New_Gradient_Swatch_3-15" x1="1.72" y1="43.54" x2="46.22" y2="43.54" xlink:href="#New_Gradient_Swatch_3"/><linearGradient id="New_Gradient_Swatch_3-16" x1="31.73" y1="20.83" x2="77.81" y2="20.83" xlink:href="#New_Gradient_Swatch_3"/><linearGradient id="New_Gradient_Swatch_3-17" x1="48.83" y1="10.52" x2="95.3" y2="10.52" xlink:href="#New_Gradient_Swatch_3"/><linearGradient id="New_Gradient_Swatch_3-18" x1="20.82" y1="52.15" x2="4.61" y2="71.94" xlink:href="#New_Gradient_Swatch_3"/><linearGradient id="New_Gradient_Swatch_3-19" x1="18.56" y1="54.39" x2="2.35" y2="74.18" xlink:href="#New_Gradient_Swatch_3"/><linearGradient id="New_Gradient_Swatch_3-20" x1="24.29" y1="55.02" x2="6.89" y2="76.25" xlink:href="#New_Gradient_Swatch_3"/><linearGradient id="New_Gradient_Swatch_3-21" x1="13.64" y1="45.99" x2="10.52" y2="49.8" xlink:href="#New_Gradient_Swatch_3"/></defs><g id="Layer_2" data-name="Layer 2"><g id="Layer_1-2" data-name="Layer 1"><polygon class="cls-1" points="59.94 38.05 59.94 54.32 58.29 53.34 58.39 64.7 90.24 45.48 90.24 35.87 91.71 34.99 91.45 18.9 75.81 18.7 59.94 38.05"/><polygon class="cls-2" points="34.02 22.85 34.02 45.66 58.33 64.75 58.33 53.34 59.76 54.27 60.06 39.98 34.02 22.85"/><polyline class="cls-3" points="65.51 1.51 49.88 1.31 34.01 20.66 34.01 48.73"/><polygon class="cls-3" points="34.03 20.65 59.85 38.18 59.85 54.27 58.33 53.34 58.33 64.75 33.93 48.53 34.03 20.65"/><polyline class="cls-4" points="56.12 45.89 24.61 65.18 4.43 53.26 36.15 33.82"/><polygon class="cls-5" points="4.43 53.26 14.65 53.38 24.61 65.15 24.61 82.58 4.33 70.48 4.43 53.26"/><polyline class="cls-3" points="35.96 34.53 46.18 34.66 56.14 46.42 56.14 63.18"/><polygon class="cls-6" points="24.7 65.02 24.7 82.56 56.21 63.12 56.21 45.87 24.7 65.02"/><polygon class="cls-7" points="50.21 56.63 50.21 66.76 54.16 64.25 54.16 54.28 50.21 56.63"/><polygon class="cls-8" points="50.96 58.01 50.96 64.35 52.06 63.65 52.06 57.35 50.96 58.01"/><polygon class="cls-4" points="26.06 70.25 26.06 81.61 37.38 74.68 37.38 63.6 26.06 70.25"/><polygon class="cls-9" points="65.1 39.68 65.1 45.73 74.19 39.98 74.19 34.03 65.1 39.68"/><path d="M73.41,35.51v4.08L66,44.29V40.13l7.46-4.62m.5-.9-8.46,5.24v5.34l8.46-5.32V34.61Z"/><rect x="73.88" y="33.36" width="0.21" height="0.66" transform="translate(-2.15 62.18) rotate(-45)"/><polygon points="64.75 39.28 73.85 33.64 73.85 33.38 64.54 39.16 64.54 45.52 64.74 45.63 64.75 39.28"/><path d="M74.94,39.79l-.47-.5-.17.11v.27l.12-.08.32.32-9.91,6.18-.32-.33.23-.13-.17-.18-.34.22v.85l.57.51L74.94,40.6ZM64.7,46.71l-.29-.32V46l.28.28Zm10-6.23-9.79,6.16v-.35l9.79-6.11Z"/><path class="cls-10" d="M73.66,35.06v4.7l-8,5V40l8-4.95"/><polygon class="cls-11" points="71.86 40.87 68.16 38.47 66.33 39.57 70.11 41.99 71.86 40.87"/><rect x="64.74" y="45.32" width="0.24" height="0.61" transform="translate(-13.27 59.22) rotate(-45)"/><rect x="64.74" y="39.14" width="0.24" height="0.61" transform="translate(-8.9 57.42) rotate(-45)"/><polygon class="cls-9" points="39.95 63.34 39.95 68.87 48.25 63.61 48.25 58.18 39.95 63.34"/><path d="M47.5,59.61v3.62l-6.73,4.24V63.78l6.73-4.17m.5-.9L40.27,63.5v4.87L48,63.51v-4.8Z"/><rect x="47.97" y="57.57" width="0.19" height="0.6" transform="translate(-26.85 50.94) rotate(-45)"/><polygon points="39.63 62.97 47.94 57.82 47.94 57.59 39.44 62.86 39.44 68.67 39.62 68.78 39.63 62.97"/><path d="M48.93,63.44,48.5,63l-.15.09v.25l.11-.07.29.29-9,5.64-.3-.3.21-.12-.15-.16-.32.2v.77l.53.47,9.26-5.87Zm-9.34,6.32-.27-.29V69.1l.26.26Zm9.15-5.69-9,5.63v-.33l9-5.58Z"/><path class="cls-12" d="M47.77,59.12v4.29L40.47,68V63.64l7.3-4.52"/><polygon class="cls-11" points="46.13 64.42 42.75 62.23 41.07 63.24 44.53 65.45 46.13 64.42"/><rect x="39.62" y="68.49" width="0.22" height="0.56" transform="translate(-36.99 48.23) rotate(-45)"/><rect x="39.62" y="62.85" width="0.22" height="0.56" transform="translate(-33 46.58) rotate(-45)"/><polygon class="cls-9" points="79.84 30.68 79.84 36.73 88.94 30.97 88.94 25.02 79.84 30.68"/><path d="M88.16,26.5v4.08l-7.47,4.7V31.13l7.47-4.63m.5-.89-8.47,5.24v5.34l8.47-5.33V25.61Z"/><rect x="88.63" y="24.36" width="0.21" height="0.66" transform="translate(8.53 69.97) rotate(-45)"/><polygon points="79.5 30.27 88.59 24.63 88.59 24.37 79.29 30.15 79.29 36.52 79.49 36.63 79.5 30.27"/><path d="M89.68,30.79l-.46-.5-.17.1v.27l.12-.07.32.31-9.91,6.18-.33-.33.24-.13-.17-.17-.34.21v.85l.57.51,10.14-6.43ZM79.45,37.71l-.29-.32V37l.28.29Zm10-6.24-9.8,6.17v-.36l9.8-6.11Z"/><path class="cls-13" d="M88.41,26.06v4.69l-8,5V31l8-4.94"/><polygon class="cls-11" points="86.61 31.86 82.91 29.46 81.08 30.57 84.86 32.99 86.61 31.86"/><rect x="79.49" y="36.31" width="0.24" height="0.61" transform="translate(-2.58 67.01) rotate(-45)"/><rect x="79.49" y="30.14" width="0.24" height="0.61" transform="translate(1.79 65.21) rotate(-45)"/><polygon class="cls-9" points="64.44 53.27 64.44 58.86 72.85 53.54 72.85 48.04 64.44 53.27"/><path d="M72.09,49.47v3.69l-6.82,4.29V53.7l6.82-4.23m.5-.89-7.82,4.84v4.94l7.82-4.93V48.58Z"/><rect x="72.56" y="47.42" width="0.19" height="0.61" transform="translate(-12.47 65.36) rotate(-45)"/><polygon points="64.12 52.89 72.53 47.67 72.53 47.44 63.93 52.78 63.93 58.67 64.11 58.77 64.12 52.89"/><path d="M73.54,53.37l-.43-.46L73,53v.25l.12-.07.29.29L64.2,59.19l-.3-.31.21-.12L64,58.6l-.32.2v.79l.53.47,9.38-6Zm-9.46,6.4-.27-.3v-.38l.26.27ZM73.34,54l-9.06,5.7v-.33l9.06-5.65Z"/><path class="cls-14" d="M72.36,49v4.34L65,58V53.57L72.36,49"/><polygon class="cls-11" points="70.7 54.36 67.28 52.14 65.58 53.16 69.08 55.4 70.7 54.36"/><rect x="64.11" y="58.48" width="0.22" height="0.57" transform="translate(-22.74 62.62) rotate(-45)"/><rect x="64.11" y="52.77" width="0.22" height="0.57" transform="translate(-18.7 60.95) rotate(-45)"/><polygon class="cls-9" points="78.08 44.94 78.08 50.53 86.49 45.21 86.49 39.71 78.08 44.94"/><path d="M85.73,41.15v3.68l-6.83,4.3V45.38l6.83-4.23m.5-.9L78.4,45.1V50l7.83-4.92V40.25Z"/><rect x="86.2" y="39.1" width="0.19" height="0.61" transform="translate(-2.59 72.56) rotate(-45)"/><polygon points="77.76 44.56 86.17 39.35 86.17 39.11 77.56 44.45 77.56 50.34 77.75 50.44 77.76 44.56"/><path d="M87.17,45l-.43-.46-.16.09v.26l.12-.07.29.29-9.16,5.71-.3-.3.22-.12-.16-.17-.32.2v.79l.53.47,9.38-5.94Zm-9.45,6.4-.27-.3v-.37l.27.26ZM87,45.67l-9.06,5.71v-.33L87,45.4Z"/><path class="cls-15" d="M86,40.67V45l-7.39,4.64V45.24L86,40.67"/><polygon class="cls-11" points="84.33 46.04 80.91 43.81 79.22 44.84 82.72 47.07 84.33 46.04"/><rect x="77.75" y="50.15" width="0.22" height="0.57" transform="translate(-12.86 69.82) rotate(-45)"/><rect x="77.75" y="44.44" width="0.22" height="0.57" transform="translate(-8.82 68.15) rotate(-45)"/><line class="cls-16" x1="65.51" y1="1.82" x2="91.45" y2="18.9"/><line class="cls-17" x1="49.88" y1="1.61" x2="75.82" y2="18.7"/><polygon class="cls-4" points="1.91 53.48 14.65 53.38 26.48 67.38 58.29 48.09 46.18 33.96 32.84 33.7 1.91 53.48"/><polygon class="cls-4" points="48.9 0.63 31.77 20.99 61.23 40.96 77.97 20.31 95.3 20.41 65.54 0.83 48.9 0.63"/><line class="cls-4" x1="48.9" y1="0.63" x2="77.97" y2="20.31"/><polygon class="cls-18" points="14.38 53.39 26.38 67.36 58.36 48.04 46.22 33.82 14.38 53.39"/><line class="cls-4" x1="46.18" y1="33.96" x2="14.65" y2="53.38"/><line class="cls-19" x1="59.94" y1="54.27" x2="91.87" y2="34.89"/><line class="cls-9" x1="26.04" y1="78.98" x2="37.4" y2="72.07"/><line class="cls-9" x1="26.04" y1="75.97" x2="37.4" y2="69.06"/><line class="cls-9" x1="26.04" y1="72.96" x2="37.4" y2="66.05"/><polygon class="cls-20" points="1.72 53.39 14.51 53.39 46.22 33.95 32.65 33.69 1.72 53.39"/><polygon class="cls-21" points="48.83 0.67 31.73 20.76 61.49 40.99 77.81 20.24 48.83 0.67"/><polygon class="cls-22" points="48.83 0.67 77.81 20.24 95.3 20.37 65.41 0.8 48.83 0.67"/><polygon class="cls-23" points="9.29 44.23 17.41 49.01 17.41 78.31 9.25 73.44 9.29 44.23"/><polygon class="cls-24" points="7 46.48 15.16 51.26 15.16 80.56 7 75.69 7 46.48"/><polygon class="cls-25" points="15.16 80.56 17.41 78.31 17.41 49.01 15.16 51.26 15.16 80.56"/><polygon class="cls-26" points="7 46.48 9.29 44.23 17.41 49.01 15.16 51.26 7 46.48"/></g></g></svg>