<svg xmlns="http://www.w3.org/2000/svg" xmlns:xlink="http://www.w3.org/1999/xlink" viewBox="0 0 28.5 25.31"><defs><style>.cls-1{fill:#666;}.cls-2,.cls-4{fill:none;stroke:#000;}.cls-2{stroke-miterlimit:10;}.cls-3{fill:#b3b3b3;}.cls-4{stroke-linejoin:round;stroke-width:0.5px;}.cls-5{fill:url(#New_Gradient_Swatch_3);}</style><linearGradient id="New_Gradient_Swatch_3" x1="1917.97" y1="11.42" x2="1918.73" y2="11.42" gradientTransform="translate(-932.94 -1655.63) rotate(60)" gradientUnits="userSpaceOnUse"><stop offset="0" stop-color="#fff"/><stop offset="1" stop-color="#d7d7d7"/></linearGradient></defs><g id="Layer_2" data-name="Layer 2"><g id="Layer_1-2" data-name="Layer 1"><path class="cls-1" d="M16.29,11.77a.46.46,0,0,1-.2,0,.4.4,0,0,1-.2-.34V1h.79v9.67l5.4-3.24.4.67-6,3.6A.49.49,0,0,1,16.29,11.77Z"/><polyline class="cls-2" points="15.52 11.14 16.2 8.72 15.82 8.53"/><path d="M16.1,8.07l-.78-.41a.29.29,0,0,0-.27,0l-.85.41a.31.31,0,0,0,0,.55L15,9a.32.32,0,0,0,.27,0l.79-.41A.3.3,0,0,0,16.1,8.07Z"/><polygon class="cls-1" points="4.34 18.73 3.78 18.56 5.55 12.85 6.11 13.02 4.34 18.73"/><path d="M8.81,13.73h0l-.76-.55c-2-1.13-5,.47-6.79,3.56s-1.65,6.54.29,7.66l.4.28a2.36,2.36,0,0,0,.36.26,2.94,2.94,0,0,0,1.44.37,4.4,4.4,0,0,0,2.1-.6,8.7,8.7,0,0,0,3.26-3.33,8.77,8.77,0,0,0,1.26-4.5A3.56,3.56,0,0,0,8.81,13.73ZM7.72,20.61c-1.2,2.07-3.2,3.15-4.47,2.42S1.92,20,3.12,18s3.19-3.15,4.46-2.42S8.91,18.54,7.72,20.61Z"/><path d="M26.94,3.19h0l-.76-.54c-2-1.13-5,.46-6.79,3.56s-1.65,6.53.29,7.65l.4.29a2.9,2.9,0,0,0,.36.25,2.83,2.83,0,0,0,1.44.37,4.38,4.38,0,0,0,2.1-.59,8.73,8.73,0,0,0,3.26-3.34A8.74,8.74,0,0,0,28.5,6.35,3.59,3.59,0,0,0,26.94,3.19Zm-1.09,6.88c-1.2,2.07-3.2,3.16-4.47,2.42s-1.33-3-.13-5.07S24.44,4.27,25.71,5,27,8,25.85,10.07Z"/><ellipse class="cls-3" cx="16.38" cy="11.52" rx="1.75" ry="1.08" transform="translate(-1.79 19.94) rotate(-60)"/><ellipse cx="2.99" cy="8.31" rx="0.45" ry="0.27" transform="translate(-5.7 6.74) rotate(-60)"/><ellipse cx="1.38" cy="7.43" rx="0.45" ry="0.27" transform="translate(-5.75 4.91) rotate(-60)"/><ellipse cx="23.53" cy="8.33" rx="0.96" ry="0.59" transform="translate(4.55 24.55) rotate(-60)"/><ellipse cx="22.28" cy="7.79" rx="0.96" ry="0.59" transform="translate(4.4 23.19) rotate(-60)"/><path d="M5.71,19.09l-1.25-.68c-.13-.07-.34,0-.46.25s-.12.45,0,.52c0,0,1.25.69,1.25.69s.33,0,.46-.25S5.84,19.17,5.71,19.09Z"/><path class="cls-1" d="M5.73,19.62l-.38-.06,2.26-7a.54.54,0,0,0-.3-.58L7,11.8a.54.54,0,0,0-.51,0,.55.55,0,0,0-.29.43L6,12.88,5.63,13l.17-.76a.94.94,0,0,1,.49-.71,1,1,0,0,1,.87,0l.32.17a.93.93,0,0,1,.51,1Z"/><path class="cls-1" d="M16.47,11.78l-9.88.05V9.4L16.29,2l8,6.41Zm-9.1-.64,9-.16,6.43-2.75L16.23,3,7.37,9.83Z"/><path d="M13.81,2.39s.08.28,1.41-.33a5.74,5.74,0,0,1,2.08-.73.79.79,0,0,0,.63-1c-.18-.5-1.27-.3-1.27-.3S13.18,1.83,13.81,2.39Z"/><line class="cls-2" x1="1.35" y1="7.5" x2="9.42" y2="11.67"/><path d="M5.82,9.93l-.07-.37,1.13-.21A.19.19,0,1,1,7,9.72C6.71,9.78,5.82,9.93,5.82,9.93Z"/><path d="M2.76,8.69s-1.64-.88-1.61-.88A8.57,8.57,0,0,0,1.6,7l1.61.88Z"/><ellipse cx="9.38" cy="11.67" rx="0.45" ry="0.27" transform="translate(-5.41 13.95) rotate(-60)"/><ellipse cx="7.77" cy="10.79" rx="0.45" ry="0.27" transform="translate(-5.46 12.12) rotate(-60)"/><path d="M9.15,12.05s-1.64-.88-1.61-.88A8.57,8.57,0,0,0,8,10.4l1.61.88Z"/><polygon points="3.29 8.67 2.93 8.91 3.4 9.17 3.74 8.93 3.29 8.67"/><path d="M3.4,9.17a.6.6,0,0,1-.58.16c-.32-.11-.94-.81-1.48-.84.1-.11.11-.13.17-.12A10.4,10.4,0,0,1,2.64,9c.07.07.29-.06.29-.06Z"/><polygon points="7.3 10.64 7.27 11.07 6.8 10.79 6.84 10.38 7.3 10.64"/><path d="M6.8,10.79a.62.62,0,0,0,.16.58c.25.23,1.16.42,1.46.88.05-.15.06-.17,0-.21s-1-.66-1.08-.69-.09-.28-.09-.28Z"/><path class="cls-4" d="M16.23,10.14l7.28-2.57s.74-.42.74.36a1.51,1.51,0,0,1-.78,1.19l-6.93,3.75s-1.48.89-1.44-.81S16.23,10.14,16.23,10.14Z"/><ellipse class="cls-5" cx="16.35" cy="11.42" rx="0.52" ry="0.32" transform="matrix(0.5, -0.87, 0.87, 0.5, -1.71, 19.87)"/><polyline class="cls-2" points="16.4 14.16 16.02 13.97 16.7 11.55 16.37 11.44"/><path d="M16.11,14.63l.79.4a.29.29,0,0,0,.27,0l.85-.41a.3.3,0,0,0,0-.54l-.84-.41a.27.27,0,0,0-.26,0l-.79.4A.31.31,0,0,0,16.11,14.63Z"/></g></g></svg>