<svg xmlns="http://www.w3.org/2000/svg" xmlns:xlink="http://www.w3.org/1999/xlink" viewBox="0 0 26.22 28.03"><defs><style>.cls-1{fill:#666;}.cls-2,.cls-4{fill:none;stroke:#000;}.cls-2{stroke-miterlimit:10;}.cls-3{fill:#b3b3b3;}.cls-4{stroke-linejoin:round;stroke-width:0.5px;}.cls-5{fill:url(#New_Gradient_Swatch_3);}</style><linearGradient id="New_Gradient_Swatch_3" x1="1913.43" y1="17.25" x2="1914.19" y2="17.25" gradientTransform="translate(-930.16 -1648.78) rotate(60)" gradientUnits="userSpaceOnUse"><stop offset="0" stop-color="#fff"/><stop offset="1" stop-color="#d7d7d7"/></linearGradient></defs><g id="Layer_2" data-name="Layer 2"><g id="Layer_1-2" data-name="Layer 1"><path class="cls-1" d="M12.22,17.79a.62.62,0,0,0,.14-.14.41.41,0,0,0,0-.4L8,9.07l-.67.39,4.05,7.59L4,20.72l0,.78,8-3.66A.46.46,0,0,0,12.22,17.79Z"/><polygon class="cls-1" points="19.85 12.51 20.41 12.34 19.19 9.15 18.88 9.22 19.85 12.51"/><path d="M24.65,7.12h0l-.76-.55c-2-1.13-5,.47-6.79,3.56s-1.66,6.54.28,7.66l.41.28a2.36,2.36,0,0,0,.36.26,2.82,2.82,0,0,0,1.43.37,4.47,4.47,0,0,0,2.1-.59A8.8,8.8,0,0,0,25,14.77a8.76,8.76,0,0,0,1.26-4.49A3.55,3.55,0,0,0,24.65,7.12ZM23.56,14c-1.19,2.07-3.19,3.15-4.46,2.42s-1.33-3-.14-5.08,3.2-3.15,4.47-2.42S24.76,11.93,23.56,14Z"/><path d="M8.81,16.45h0l-.76-.55c-2-1.13-5,.47-6.79,3.56S-.39,26,1.55,27.12l.4.28a2.36,2.36,0,0,0,.36.26A2.94,2.94,0,0,0,3.75,28a4.4,4.4,0,0,0,2.1-.6A8.7,8.7,0,0,0,9.11,24.1a8.77,8.77,0,0,0,1.26-4.5A3.56,3.56,0,0,0,8.81,16.45ZM7.72,23.33c-1.2,2.07-3.2,3.15-4.47,2.42s-1.33-3-.13-5.08,3.19-3.15,4.46-2.42S8.91,21.26,7.72,23.33Z"/><ellipse cx="5.4" cy="21.59" rx="0.96" ry="0.59" transform="translate(-16 15.47) rotate(-60)"/><ellipse cx="4.15" cy="21.04" rx="0.96" ry="0.59" transform="translate(-16.15 14.11) rotate(-60)"/><path d="M21.56,12.49l-1.25-.69c-.13-.07-.34,0-.46.25s-.12.45,0,.53l1.25.68c.14.07.34,0,.46-.25S21.69,12.56,21.56,12.49Z"/><path class="cls-1" d="M21.75,12.72l-.36.13L20,6.91a.55.55,0,0,0-.55-.36l-.37,0a.57.57,0,0,0-.44.26.56.56,0,0,0,0,.52l.15.65-.27.24-.23-.74a1,1,0,0,1,.07-.87.93.93,0,0,1,.74-.44l.36,0a.94.94,0,0,1,.94.6Z"/><path d="M10.09,7.47s.21.21-1,1.07S7.6,9.68,7.43,10A.78.78,0,0,1,6.26,10c-.34-.41.37-1.25.37-1.25S9.93,6.65,10.09,7.47Z"/><path d="M18,3.41l-.35.13L18,4.63a.19.19,0,0,0,.36-.13C18.27,4.26,18,3.41,18,3.41Z"/><path d="M22.35,5h0L20.78,4l-.09,0-.19-.12.06,0s.22-.14.29-.07a11.3,11.3,0,0,0,1.13.6c.06,0,.07,0,.17-.12-.54,0-1.17-.73-1.49-.84a.63.63,0,0,0-.58.17h0L17,1.62l0-.17a.62.62,0,0,0-.16-.58C16.57.65,15.65.45,15.35,0c0,.14,0,.16,0,.21s1,.65,1.08.68.09.28.09.28v.15l-.2-.12a.2.2,0,0,0-.06-.07L15.29.55,14.71.18h0c-.13-.08-.34,0-.46.25s-.12.45,0,.52l1.57,1a.25.25,0,0,0,.17,0l4.28,2.75a.21.21,0,0,0,.09.15l1.56,1c.13.08.34,0,.46-.25S22.48,5.06,22.35,5Z"/><path class="cls-1" d="M4.72,22.32,8.13,10.14,18.25,4.31l.88,1.86L12.06,17.89Zm13-17L8.65,10.94l-3,10.13,6.11-3.93L18.1,6Z"/><polyline class="cls-2" points="10.97 16.98 11.65 14.55 11.27 14.36"/><path d="M11.56,13.9l-.79-.41a.29.29,0,0,0-.27,0l-.84.41a.3.3,0,0,0,0,.54l.84.4a.3.3,0,0,0,.26,0l.79-.41A.3.3,0,0,0,11.56,13.9Z"/><ellipse class="cls-3" cx="11.84" cy="17.35" rx="1.75" ry="1.08" transform="matrix(0.5, -0.87, 0.87, 0.5, -9.11, 18.92)"/><path class="cls-4" d="M12.21,18.62l-6.72,3.8s-.66.54-.79-.22a1.48,1.48,0,0,1,.56-1.31L11.43,16s1.3-1.13,1.56.55S12.21,18.62,12.21,18.62Z"/><ellipse class="cls-5" cx="11.81" cy="17.25" rx="0.52" ry="0.32" transform="translate(-9.04 18.85) rotate(-60)"/><polyline class="cls-2" points="11.85 20 11.47 19.81 12.16 17.38 11.82 17.27"/><path d="M11.57,20.46l.78.41a.32.32,0,0,0,.27,0l.85-.41a.3.3,0,0,0,0-.54l-.84-.4a.29.29,0,0,0-.27,0l-.79.4A.31.31,0,0,0,11.57,20.46Z"/><path d="M17.6,3.54a12.58,12.58,0,0,0,.75-1.06s.92.49.78.52a16.86,16.86,0,0,0-1.37,1Z"/></g></g></svg>