<svg xmlns="http://www.w3.org/2000/svg" xmlns:xlink="http://www.w3.org/1999/xlink" viewBox="0 0 90.95 116.68"><defs><style>.cls-1,.cls-63,.cls-7,.cls-8{fill:none;}.cls-2{fill:url(#New_Gradient_Swatch_3);}.cls-3{fill:url(#New_Gradient_Swatch_3-2);}.cls-10,.cls-11,.cls-16,.cls-4,.cls-5,.cls-9{fill:#fff;}.cls-10,.cls-16,.cls-4,.cls-5,.cls-6,.cls-63,.cls-7,.cls-8,.cls-9{stroke:#000;}.cls-10,.cls-16,.cls-4,.cls-63,.cls-7,.cls-8,.cls-9{stroke-miterlimit:10;}.cls-5,.cls-6{stroke-linejoin:round;}.cls-6{fill:#fbcf2f;}.cls-16,.cls-7{stroke-width:0.75px;}.cls-8,.cls-9{stroke-width:0.5px;}.cls-10{stroke-width:0.25px;}.cls-12{fill:url(#New_Gradient_Swatch_3-3);}.cls-13{fill:url(#New_Gradient_Swatch_3-4);}.cls-14{fill:url(#New_Gradient_Swatch_3-5);}.cls-15{fill:url(#New_Gradient_Swatch_3-6);}.cls-17{clip-path:url(#clip-path);}.cls-18{clip-path:url(#clip-path-2);}.cls-19{fill:#fefefe;}.cls-20{fill:#fdfdfd;}.cls-21{fill:#fcfcfc;}.cls-22{fill:#fbfbfb;}.cls-23{fill:#fafafa;}.cls-24{fill:#f9f9f9;}.cls-25{fill:#f8f8f8;}.cls-26{fill:#f7f7f7;}.cls-27{fill:#f6f6f6;}.cls-28{fill:#f5f5f5;}.cls-29{fill:#f4f4f4;}.cls-30{fill:#f3f3f3;}.cls-31{fill:#f2f2f2;}.cls-32{fill:#f1f1f1;}.cls-33{fill:#f0f0f0;}.cls-34{fill:#efefef;}.cls-35{fill:#eee;}.cls-36{fill:#ededed;}.cls-37{fill:#ececec;}.cls-38{fill:#eaeaea;}.cls-39{fill:#e9e9e9;}.cls-40{fill:#e8e8e8;}.cls-41{fill:#e7e7e7;}.cls-42{fill:#e6e6e6;}.cls-43{fill:#e5e5e5;}.cls-44{fill:#e4e4e4;}.cls-45{fill:#e3e3e3;}.cls-46{fill:#e2e2e2;}.cls-47{fill:#e1e1e1;}.cls-48{fill:#e0e0e0;}.cls-49{fill:#dfdfdf;}.cls-50{fill:#dedede;}.cls-51{fill:#ddd;}.cls-52{fill:#dcdcdc;}.cls-53{fill:#dbdbdb;}.cls-54{fill:#dadada;}.cls-55{fill:#d9d9d9;}.cls-56{fill:#d8d8d8;}.cls-57{fill:#d7d7d7;}.cls-58{clip-path:url(#clip-path-3);}.cls-59{clip-path:url(#clip-path-4);}.cls-60{clip-path:url(#clip-path-5);}.cls-61{clip-path:url(#clip-path-6);}.cls-62{fill:url(#New_Gradient_Swatch_3-7);}.cls-64{clip-path:url(#clip-path-7);}.cls-65{clip-path:url(#clip-path-8);}.cls-66{clip-path:url(#clip-path-9);}.cls-67{clip-path:url(#clip-path-10);}.cls-68{clip-path:url(#clip-path-11);}.cls-69{clip-path:url(#clip-path-12);}.cls-70{fill:url(#New_Gradient_Swatch_3-8);}</style><linearGradient id="New_Gradient_Swatch_3" x1="50.34" y1="8.52" x2="23.9" y2="40.79" gradientUnits="userSpaceOnUse"><stop offset="0" stop-color="#fff"/><stop offset="1" stop-color="#d7d7d7"/></linearGradient><linearGradient id="New_Gradient_Swatch_3-2" x1="38.44" y1="15.67" x2="10.01" y2="50.38" xlink:href="#New_Gradient_Swatch_3"/><linearGradient id="New_Gradient_Swatch_3-3" x1="-465.45" y1="90.75" x2="-461.05" y2="99.34" gradientTransform="translate(487.34)" xlink:href="#New_Gradient_Swatch_3"/><linearGradient id="New_Gradient_Swatch_3-4" x1="-480.8" y1="81.58" x2="-476.4" y2="90.17" gradientTransform="translate(487.34)" xlink:href="#New_Gradient_Swatch_3"/><linearGradient id="New_Gradient_Swatch_3-5" x1="40.33" y1="97.54" x2="53.73" y2="97.54" xlink:href="#New_Gradient_Swatch_3"/><linearGradient id="New_Gradient_Swatch_3-6" x1="54.95" y1="88.48" x2="68.35" y2="88.48" xlink:href="#New_Gradient_Swatch_3"/><clipPath id="clip-path"><path class="cls-1" d="M45.63,39.12a24.93,24.93,0,0,0,12.23.13C56.19,41.89,48.34,52,48.34,52l-9-4.7Z"/></clipPath><clipPath id="clip-path-2"><polygon class="cls-1" points="41.58 46.92 48.68 51.12 60.38 35 53.1 31.08 41.58 46.92"/></clipPath><clipPath id="clip-path-3"><path class="cls-1" d="M55.82,41.91c.19,0,4.44,1.41,14-.52C67.47,44.22,58,57.29,58,57.29L48.29,52Z"/></clipPath><clipPath id="clip-path-4"><polygon class="cls-1" points="49.4 51.58 58.03 56.47 69.87 40.08 61.2 35.32 49.4 51.58"/></clipPath><clipPath id="clip-path-5"><path class="cls-1" d="M68.43,43.45c.2,0,8.43,5.37,14.35,2.79S67.85,63.79,67.85,63.79l-10-6Z"/></clipPath><clipPath id="clip-path-6"><polygon class="cls-1" points="58.89 57.03 67.85 62.09 80.64 45.83 70.77 40.56 58.89 57.03"/></clipPath><linearGradient id="New_Gradient_Swatch_3-7" x1="74.22" y1="52.85" x2="77.49" y2="57.6" xlink:href="#New_Gradient_Swatch_3"/><clipPath id="clip-path-7"><path class="cls-1" d="M27.63,49.93a24.88,24.88,0,0,0,12.22.13C38.18,52.7,30.33,62.8,30.33,62.8l-9-4.7Z"/></clipPath><clipPath id="clip-path-8"><polygon class="cls-1" points="23.58 57.72 30.67 61.92 42.37 45.81 35.1 41.89 23.58 57.72"/></clipPath><clipPath id="clip-path-9"><path class="cls-1" d="M37.81,52.71c.19,0,4.44,1.42,14-.51C49.46,55,40,68.09,40,68.09l-9.72-5.34Z"/></clipPath><clipPath id="clip-path-10"><polygon class="cls-1" points="31.4 62.39 40.02 67.28 51.86 50.89 43.2 46.13 31.4 62.39"/></clipPath><clipPath id="clip-path-11"><path class="cls-1" d="M50.43,54.26c.19,0,8.43,5.36,14.35,2.79S49.85,74.59,49.85,74.59l-10-6Z"/></clipPath><clipPath id="clip-path-12"><polygon class="cls-1" points="40.88 67.84 49.85 72.9 62.63 56.64 52.76 51.36 40.88 67.84"/></clipPath><linearGradient id="New_Gradient_Swatch_3-8" x1="56.21" y1="63.65" x2="59.48" y2="68.4" xlink:href="#New_Gradient_Swatch_3"/></defs><g id="Layer_2" data-name="Layer 2"><g id="Layer_1-2" data-name="Layer 1"><path class="cls-2" d="M47.23,37.91,44.33,3S43.46,5,39.28,5,34,3.71,34,2.83c-.1.88-.49,22-.49,22L35,46.1Z"/><path class="cls-3" d="M35,46.1,32.18,9.93s-.87,1.94-5.05,1.94-5.25-1.26-5.25-2.14c-.1.88-.49,22-.49,22l-.68,23.42Z"/><ellipse class="cls-4" cx="27.1" cy="9.46" rx="5.18" ry="2.26"/><ellipse cx="27.13" cy="9.46" rx="3.74" ry="1.49"/><line class="cls-4" x1="21.92" y1="9.46" x2="20.62" y2="54.63"/><line class="cls-4" x1="32.27" y1="9.46" x2="35.05" y2="45.59"/><ellipse class="cls-4" cx="39.23" cy="2.76" rx="5.18" ry="2.26"/><ellipse cx="39.27" cy="2.76" rx="3.74" ry="1.49"/><line class="cls-4" x1="34.05" y1="2.76" x2="33.45" y2="24.55"/><polygon class="cls-5" points="90.3 54.27 35.67 86.01 0.68 65.13 55.59 33.21 90.3 54.27"/><polygon class="cls-6" points="0.68 65.13 35.67 85.95 35.67 116.18 0.5 95.99 0.68 65.13"/><polygon class="cls-6" points="35.82 85.73 35.82 116.14 90.44 84.15 90.44 54.23 35.82 85.73"/><polygon class="cls-4" points="75.97 79.51 75.97 91.79 86.4 85.57 86.4 73.49 75.97 79.51"/><line class="cls-4" x1="44.38" y1="2.65" x2="47.18" y2="38.22"/><polygon class="cls-7" points="55.7 34.95 3.56 65.44 35.78 84.59 87.6 54.3 55.7 34.95"/><path class="cls-8" d="M16.61,66.5V67c0,.56-.76,1-1.69,1s-1.7-.46-1.7-1v-.5"/><path class="cls-8" d="M18.54,62.84v1.82c0,1.2-1.62,2.17-3.62,2.17s-3.62-1-3.62-2.17V62.9"/><ellipse class="cls-9" cx="14.92" cy="62.81" rx="3.66" ry="2.19"/><ellipse class="cls-9" cx="14.92" cy="62.73" rx="1.69" ry="1.02"/><path class="cls-8" d="M16.1,63.3a1.3,1.3,0,0,0-1.18-.54,1.28,1.28,0,0,0-1.18.54"/><path class="cls-8" d="M26.14,72.11v.52c0,.57-.76,1-1.69,1s-1.7-.45-1.7-1v-.49"/><path class="cls-8" d="M28.07,68.44v1.82c0,1.2-1.62,2.17-3.62,2.17s-3.63-1-3.63-2.17V68.5"/><ellipse class="cls-9" cx="24.45" cy="68.41" rx="3.66" ry="2.19"/><ellipse class="cls-9" cx="24.45" cy="68.33" rx="1.69" ry="1.02"/><path class="cls-8" d="M25.63,68.9a1.3,1.3,0,0,0-1.18-.54,1.28,1.28,0,0,0-1.18.54"/><path class="cls-8" d="M36.21,77.94v.53c0,.56-.76,1-1.69,1s-1.69-.45-1.69-1V78"/><path class="cls-8" d="M38.14,74.27v1.82c0,1.2-1.62,2.17-3.62,2.17s-3.62-1-3.62-2.17V74.33"/><ellipse class="cls-9" cx="34.52" cy="74.24" rx="3.66" ry="2.19"/><ellipse class="cls-9" cx="34.52" cy="74.16" rx="1.69" ry="1.02"/><path class="cls-8" d="M35.7,74.74a1.56,1.56,0,0,0-2.36,0"/><polygon class="cls-10" points="31.34 96.92 31.34 103.8 18.4 96 18.4 89.24 31.34 96.92"/><polygon class="cls-11" points="18.97 95.73 18.97 90.34 30.7 97.26 30.7 102.74 18.97 95.73"/><path d="M19.22,90.78,30.45,97.4v4.9L19.22,95.59V90.78m-.5-.88v6L31,103.18V97.12L18.72,89.9Z"/><line class="cls-11" x1="31.87" y1="96.39" x2="31.34" y2="96.92"/><rect x="31.23" y="96.54" width="0.75" height="0.24" transform="translate(-59.08 50.64) rotate(-44.99)"/><rect x="31.26" y="103.53" width="0.76" height="0.24" transform="translate(-64.03 52.73) rotate(-45)"/><rect x="18.26" y="88.77" width="0.75" height="0.24" transform="translate(-57.39 39.21) rotate(-45)"/><polygon points="31.74 96.46 18.79 88.79 18.79 88.5 31.98 96.33 31.98 103.48 31.75 103.34 31.74 96.46"/><path d="M17.55,96.7l14.13,8.57.65-.58v-1l-.39-.25-.19.2.26.15-.37.37L17.78,95.92l.36-.36.14.09v-.31l-.19-.12-.53.57Zm14.24,7.71.32-.32v.46l-.33.36Zm-14-8.18,13.74,8.2v.4L17.8,96.57Z"/><path class="cls-12" d="M19,90.41l11.69,6.88v5.43L19,95.75V90.41"/><polygon class="cls-11" points="20.47 96.62 24.76 93.84 26.94 95.09 22.54 97.85 20.47 96.62"/><polygon class="cls-10" points="15.99 87.75 15.99 94.63 3.05 86.83 3.05 80.07 15.99 87.75"/><polygon class="cls-11" points="3.62 86.56 3.62 81.17 15.35 88.09 15.35 93.58 3.62 86.56"/><path d="M3.87,81.61,15.1,88.23v4.9L3.87,86.42V81.61m-.5-.88v6L15.6,94V88L3.37,80.73Z"/><line class="cls-11" x1="16.52" y1="87.23" x2="15.99" y2="87.75"/><rect x="15.88" y="87.37" width="0.75" height="0.24" transform="translate(-57.09 37.1) rotate(-44.99)"/><rect x="15.91" y="94.36" width="0.76" height="0.24" transform="translate(-62.04 39.19) rotate(-45)"/><rect x="2.91" y="79.6" width="0.75" height="0.24" transform="translate(-55.41 25.67) rotate(-45)"/><polygon points="16.39 87.29 3.44 79.62 3.44 79.33 16.62 87.16 16.62 94.32 16.4 94.17 16.39 87.29"/><path d="M2.19,87.54l14.14,8.57.65-.59v-1l-.39-.25-.19.2.26.15-.37.37L2.43,86.75l.36-.36.14.09v-.31l-.19-.12-.54.57Zm14.25,7.7.32-.32v.46l-.33.37Zm-14-8.18,13.75,8.2v.41L2.44,87.4Z"/><path class="cls-13" d="M3.65,81.25l11.69,6.87v5.43l-11.69-7V81.25"/><polygon class="cls-11" points="5.12 87.45 9.41 84.67 11.59 85.92 7.19 88.68 5.12 87.45"/><path class="cls-14" d="M51,87.67l1.18.61V97.5l1.52.76v2.16s-11.92,7-12,7-1.37-.5-1.37-.5v-2.12l.87-.84-.07-10.51Z"/><path d="M51.68,89.55l-8.78,4.8v9l8.78-5Zm-.57,7.9-7.64,4.22v-.23l7.64-4.23Zm0-.56-7.64,4.22v-.23l7.64-4.22Zm0-.56-7.64,4.23v-.24l7.64-4.22Zm0-.56L43.47,100v-.24l7.64-4.22Zm0-.56-7.64,4.23V99.2L51.11,95Zm0-.55-7.64,4.22v-.23l7.64-4.23Zm0-.56-7.64,4.22v-.23l7.64-4.23Zm0-.56-7.64,4.22v-.23l7.64-4.23Zm0-.56L43.47,97.2V97l7.64-4.22Zm0-.56-7.64,4.23v-.24l7.64-4.22Zm0-.56-7.64,4.23v-.24l7.64-4.22Zm0-.56-7.64,4.23v-.24l7.64-4.22Zm0-.75v.2L43.47,95v-.3Zm-7.64,11.81V102l7.64-4.23v.28Z"/><path d="M53.89,98.14l-1.53-.81,0-9.18-1.21-.71L41,93.33V104l-.8.63,0,2.38,1.38.8,12.31-7.27ZM42.32,93.89l-.62-.39L51.21,88l.81.43Zm9.47-4.65v9.19l-9.17,5.36V94.36ZM41.47,103.73l0-9.77.56.36v9.79l-.59-.38Zm-.09,3.39-.77-.4v-1.55l.78.44Zm-.64-2.46.47-.4.84.56,10.31-6.08v-.83l1,.51-11.8,6.83Zm12.76-4.52L41.92,107v-1.38L53.5,99Z"/><path class="cls-15" d="M65.66,78.61l1.17.61v9.22l1.52.76v2.16s-11.92,7-12,7-1.37-.5-1.37-.5V95.73l.88-.84-.08-10.51Z"/><path d="M66.3,80.5l-8.77,4.79v9l8.77-5Zm-.57,7.89L58.1,92.61v-.23l7.63-4.22Zm0-.56L58.1,92.06v-.24l7.63-4.22Zm0-.56L58.1,91.5v-.24L65.73,87Zm0-.56L58.1,90.94V90.7l7.63-4.22Zm0-.55L58.1,90.38v-.23l7.63-4.23Zm0-.56L58.1,89.82v-.23l7.63-4.23Zm0-.56L58.1,89.26V89l7.63-4.23Zm0-.56L58.1,88.7v-.23l7.63-4.22Zm0-.56L58.1,88.15v-.24l7.63-4.22Zm0-.56L58.1,87.59v-.24l7.63-4.22Zm0-.55L58.1,87V86.8l7.63-4.23Zm0-.56L58.1,86.47v-.23L65.73,82Zm0-.76v.2L58.1,85.91v-.3ZM58.1,93.31v-.37l7.63-4.23V89Z"/><path d="M68.51,89.08,67,88.27l0-9.18-1.22-.71L55.61,84.27V94.9l-.8.63,0,2.38,1.38.8,12.3-7.27ZM56.94,84.84l-.62-.4,9.51-5.53.81.43Zm9.48-4.66v9.19l-9.17,5.36V85.31ZM56.1,94.67l0-9.77.56.36v9.8l-.59-.38ZM56,98.06l-.77-.4,0-1.55.79.44Zm-.64-2.46.47-.39.84.55L67,89.69v-.84l1.05.51-11.8,6.83Zm12.75-4.51L56.55,98V96.59L68.12,90Z"/><polygon class="cls-16" points="39.76 47.48 52.63 29.71 82.23 46.66 68.07 63.7 39.76 47.48"/><g class="cls-17"><g class="cls-18"><polygon class="cls-11" points="60.38 31.73 41.58 36.78 41.58 31.08 60.38 31.08 60.38 31.73"/><polygon class="cls-11" points="60.38 32.09 41.58 37.15 41.58 36.78 60.38 31.73 60.38 32.09"/><polygon class="cls-19" points="60.38 32.47 41.58 37.52 41.58 37.15 60.38 32.09 60.38 32.47"/><polygon class="cls-20" points="60.38 32.84 41.58 37.89 41.58 37.52 60.38 32.47 60.38 32.84"/><polygon class="cls-21" points="60.38 33.21 41.58 38.26 41.58 37.89 60.38 32.84 60.38 33.21"/><polygon class="cls-22" points="60.38 33.58 41.58 38.63 41.58 38.26 60.38 33.21 60.38 33.58"/><polygon class="cls-23" points="60.38 33.95 41.58 39 41.58 38.63 60.38 33.58 60.38 33.95"/><polygon class="cls-24" points="60.38 34.32 41.58 39.38 41.58 39 60.38 33.95 60.38 34.32"/><polygon class="cls-25" points="60.38 34.69 41.58 39.74 41.58 39.38 60.38 34.32 60.38 34.69"/><polygon class="cls-26" points="60.38 35.06 41.58 40.12 41.58 39.74 60.38 34.69 60.38 35.06"/><polygon class="cls-27" points="60.38 35.43 41.58 40.49 41.58 40.12 60.38 35.06 60.38 35.43"/><polygon class="cls-28" points="60.38 35.8 41.58 40.86 41.58 40.49 60.38 35.43 60.38 35.8"/><polygon class="cls-29" points="60.38 36.17 41.58 41.23 41.58 40.86 60.38 35.8 60.38 36.17"/><polygon class="cls-30" points="60.38 36.54 41.58 41.6 41.58 41.23 60.38 36.17 60.38 36.54"/><polygon class="cls-31" points="60.38 36.91 41.58 41.97 41.58 41.6 60.38 36.54 60.38 36.91"/><polygon class="cls-32" points="60.38 37.28 41.58 42.34 41.58 41.97 60.38 36.91 60.38 37.28"/><polygon class="cls-33" points="60.38 37.65 41.58 42.71 41.58 42.34 60.38 37.28 60.38 37.65"/><polygon class="cls-34" points="60.38 38.02 41.58 43.08 41.58 42.71 60.38 37.65 60.38 38.02"/><polygon class="cls-35" points="60.38 38.39 41.58 43.45 41.58 43.08 60.38 38.02 60.38 38.39"/><polygon class="cls-36" points="60.38 38.77 41.58 43.82 41.58 43.45 60.38 38.39 60.38 38.77"/><polygon class="cls-37" points="60.38 39.13 41.58 44.19 41.58 43.82 60.38 38.77 60.38 39.13"/><polygon class="cls-38" points="60.38 39.51 41.58 44.56 41.58 44.19 60.38 39.13 60.38 39.51"/><polygon class="cls-39" points="60.38 39.88 41.58 44.93 41.58 44.56 60.38 39.51 60.38 39.88"/><polygon class="cls-40" points="60.38 40.25 41.58 45.3 41.58 44.93 60.38 39.88 60.38 40.25"/><polygon class="cls-41" points="60.38 40.62 41.58 45.67 41.58 45.3 60.38 40.25 60.38 40.62"/><polygon class="cls-42" points="60.38 40.99 41.58 46.04 41.58 45.67 60.38 40.62 60.38 40.99"/><polygon class="cls-43" points="60.38 41.36 41.58 46.41 41.58 46.04 60.38 40.99 60.38 41.36"/><polygon class="cls-44" points="60.38 41.73 41.58 46.78 41.58 46.41 60.38 41.36 60.38 41.73"/><polygon class="cls-45" points="60.38 42.1 41.58 47.16 41.58 46.78 60.38 41.73 60.38 42.1"/><polygon class="cls-46" points="60.38 42.47 41.58 47.53 41.58 47.16 60.38 42.1 60.38 42.47"/><polygon class="cls-47" points="60.38 42.84 41.58 47.9 41.58 47.53 60.38 42.47 60.38 42.84"/><polygon class="cls-48" points="60.38 43.21 41.58 48.27 41.58 47.9 60.38 42.84 60.38 43.21"/><polygon class="cls-49" points="60.38 43.58 41.58 48.64 41.58 48.27 60.38 43.21 60.38 43.58"/><polygon class="cls-50" points="60.38 43.95 41.58 49.01 41.58 48.64 60.38 43.58 60.38 43.95"/><polygon class="cls-51" points="60.38 44.32 41.58 49.38 41.58 49.01 60.38 43.95 60.38 44.32"/><polygon class="cls-52" points="60.38 44.69 41.58 49.75 41.58 49.38 60.38 44.32 60.38 44.69"/><polygon class="cls-53" points="60.38 45.06 41.58 50.12 41.58 49.75 60.38 44.69 60.38 45.06"/><polygon class="cls-54" points="60.38 45.43 41.58 50.49 41.58 50.12 60.38 45.06 60.38 45.43"/><polygon class="cls-55" points="60.38 45.8 41.58 50.86 41.58 50.49 60.38 45.43 60.38 45.8"/><polygon class="cls-56" points="60.38 46.17 42.01 51.12 41.58 51.12 41.58 50.86 60.38 45.8 60.38 46.17"/><polygon class="cls-57" points="60.38 46.55 43.39 51.12 42.01 51.12 60.38 46.17 60.38 46.55"/><polygon class="cls-57" points="43.39 51.12 60.38 46.55 60.38 51.12 43.39 51.12"/></g></g><g class="cls-58"><g class="cls-59"><polygon class="cls-11" points="69.87 35.68 49.4 41.43 49.4 35.32 69.87 35.32 69.87 35.68"/><polygon class="cls-11" points="69.87 36.08 49.4 41.83 49.4 41.43 69.87 35.68 69.87 36.08"/><polygon class="cls-19" points="69.87 36.47 49.4 42.23 49.4 41.83 69.87 36.08 69.87 36.47"/><polygon class="cls-20" points="69.87 36.87 49.4 42.63 49.4 42.23 69.87 36.47 69.87 36.87"/><polygon class="cls-21" points="69.87 37.27 49.4 43.03 49.4 42.63 69.87 36.87 69.87 37.27"/><polygon class="cls-22" points="69.87 37.67 49.4 43.42 49.4 43.03 69.87 37.27 69.87 37.67"/><polygon class="cls-23" points="69.87 38.07 49.4 43.82 49.4 43.42 69.87 37.67 69.87 38.07"/><polygon class="cls-24" points="69.87 38.47 49.4 44.22 49.4 43.82 69.87 38.07 69.87 38.47"/><polygon class="cls-25" points="69.87 38.86 49.4 44.62 49.4 44.22 69.87 38.47 69.87 38.86"/><polygon class="cls-26" points="69.87 39.26 49.4 45.02 49.4 44.62 69.87 38.86 69.87 39.26"/><polygon class="cls-27" points="69.87 39.66 49.4 45.42 49.4 45.02 69.87 39.26 69.87 39.66"/><polygon class="cls-28" points="69.87 40.06 49.4 45.81 49.4 45.42 69.87 39.66 69.87 40.06"/><polygon class="cls-29" points="69.87 40.46 49.4 46.21 49.4 45.81 69.87 40.06 69.87 40.46"/><polygon class="cls-30" points="69.87 40.86 49.4 46.61 49.4 46.21 69.87 40.46 69.87 40.86"/><polygon class="cls-31" points="69.87 41.25 49.4 47.01 49.4 46.61 69.87 40.86 69.87 41.25"/><polygon class="cls-32" points="69.87 41.65 49.4 47.41 49.4 47.01 69.87 41.25 69.87 41.65"/><polygon class="cls-33" points="69.87 42.05 49.4 47.81 49.4 47.41 69.87 41.65 69.87 42.05"/><polygon class="cls-34" points="69.87 42.45 49.4 48.2 49.4 47.81 69.87 42.05 69.87 42.45"/><polygon class="cls-35" points="69.87 42.85 49.4 48.6 49.4 48.2 69.87 42.45 69.87 42.85"/><polygon class="cls-36" points="69.87 43.25 49.4 49 49.4 48.6 69.87 42.85 69.87 43.25"/><polygon class="cls-37" points="69.87 43.65 49.4 49.4 49.4 49 69.87 43.25 69.87 43.65"/><polygon class="cls-38" points="69.87 44.04 49.4 49.8 49.4 49.4 69.87 43.65 69.87 44.04"/><polygon class="cls-39" points="69.87 44.44 49.4 50.2 49.4 49.8 69.87 44.04 69.87 44.44"/><polygon class="cls-40" points="69.87 44.84 49.4 50.6 49.4 50.2 69.87 44.44 69.87 44.84"/><polygon class="cls-41" points="69.87 45.24 49.4 50.99 49.4 50.6 69.87 44.84 69.87 45.24"/><polygon class="cls-42" points="69.87 45.64 49.4 51.39 49.4 50.99 69.87 45.24 69.87 45.64"/><polygon class="cls-43" points="69.87 46.03 49.4 51.79 49.4 51.39 69.87 45.64 69.87 46.03"/><polygon class="cls-44" points="69.87 46.43 49.4 52.19 49.4 51.79 69.87 46.03 69.87 46.43"/><polygon class="cls-45" points="69.87 46.83 49.4 52.59 49.4 52.19 69.87 46.43 69.87 46.83"/><polygon class="cls-46" points="69.87 47.23 49.4 52.99 49.4 52.59 69.87 46.83 69.87 47.23"/><polygon class="cls-47" points="69.87 47.63 49.4 53.38 49.4 52.99 69.87 47.23 69.87 47.63"/><polygon class="cls-48" points="69.87 48.03 49.4 53.78 49.4 53.38 69.87 47.63 69.87 48.03"/><polygon class="cls-49" points="69.87 48.43 49.4 54.18 49.4 53.78 69.87 48.03 69.87 48.43"/><polygon class="cls-50" points="69.87 48.82 49.4 54.58 49.4 54.18 69.87 48.43 69.87 48.82"/><polygon class="cls-51" points="69.87 49.22 49.4 54.98 49.4 54.58 69.87 48.82 69.87 49.22"/><polygon class="cls-52" points="69.87 49.62 49.4 55.38 49.4 54.98 69.87 49.22 69.87 49.62"/><polygon class="cls-53" points="69.87 50.02 49.4 55.77 49.4 55.38 69.87 49.62 69.87 50.02"/><polygon class="cls-54" points="69.87 50.42 49.4 56.17 49.4 55.77 69.87 50.02 69.87 50.42"/><polygon class="cls-55" points="69.87 50.82 49.75 56.47 49.4 56.47 49.4 56.17 69.87 50.42 69.87 50.82"/><polygon class="cls-56" points="69.87 51.21 51.17 56.47 49.75 56.47 69.87 50.82 69.87 51.21"/><polygon class="cls-57" points="69.87 51.61 52.59 56.47 51.17 56.47 69.87 51.21 69.87 51.61"/><polygon class="cls-57" points="52.59 56.47 69.87 51.61 69.87 56.47 52.59 56.47"/></g></g><g class="cls-60"><g class="cls-61"><polygon class="cls-11" points="80.64 40.64 58.89 46.75 58.89 40.56 80.64 40.56 80.64 40.64"/><polygon class="cls-11" points="80.64 41.04 58.89 47.16 58.89 46.75 80.64 40.64 80.64 41.04"/><polygon class="cls-19" points="80.64 41.45 58.89 47.57 58.89 47.16 80.64 41.04 80.64 41.45"/><polygon class="cls-20" points="80.64 41.86 58.89 47.98 58.89 47.57 80.64 41.45 80.64 41.86"/><polygon class="cls-21" points="80.64 42.27 58.89 48.38 58.89 47.98 80.64 41.86 80.64 42.27"/><polygon class="cls-22" points="80.64 42.67 58.89 48.79 58.89 48.38 80.64 42.27 80.64 42.67"/><polygon class="cls-23" points="80.64 43.08 58.89 49.2 58.89 48.79 80.64 42.67 80.64 43.08"/><polygon class="cls-24" points="80.64 43.49 58.89 49.61 58.89 49.2 80.64 43.08 80.64 43.49"/><polygon class="cls-25" points="80.64 43.9 58.89 50.01 58.89 49.61 80.64 43.49 80.64 43.9"/><polygon class="cls-26" points="80.64 44.3 58.89 50.42 58.89 50.01 80.64 43.9 80.64 44.3"/><polygon class="cls-27" points="80.64 44.71 58.89 50.83 58.89 50.42 80.64 44.3 80.64 44.71"/><polygon class="cls-28" points="80.64 45.12 58.89 51.24 58.89 50.83 80.64 44.71 80.64 45.12"/><polygon class="cls-29" points="80.64 45.52 58.89 51.64 58.89 51.24 80.64 45.12 80.64 45.52"/><polygon class="cls-30" points="80.64 45.93 58.89 52.05 58.89 51.64 80.64 45.52 80.64 45.93"/><polygon class="cls-31" points="80.64 46.34 58.89 52.46 58.89 52.05 80.64 45.93 80.64 46.34"/><polygon class="cls-32" points="80.64 46.75 58.89 52.87 58.89 52.46 80.64 46.34 80.64 46.75"/><polygon class="cls-33" points="80.64 47.16 58.89 53.27 58.89 52.87 80.64 46.75 80.64 47.16"/><polygon class="cls-34" points="80.64 47.56 58.89 53.68 58.89 53.27 80.64 47.16 80.64 47.56"/><polygon class="cls-35" points="80.64 47.97 58.89 54.09 58.89 53.68 80.64 47.56 80.64 47.97"/><polygon class="cls-36" points="80.64 48.38 58.89 54.49 58.89 54.09 80.64 47.97 80.64 48.38"/><polygon class="cls-37" points="80.64 48.78 58.89 54.9 58.89 54.49 80.64 48.38 80.64 48.78"/><polygon class="cls-38" points="80.64 49.19 58.89 55.31 58.89 54.9 80.64 48.78 80.64 49.19"/><polygon class="cls-39" points="80.64 49.6 58.89 55.72 58.89 55.31 80.64 49.19 80.64 49.6"/><polygon class="cls-40" points="80.64 50.01 58.89 56.13 58.89 55.72 80.64 49.6 80.64 50.01"/><polygon class="cls-41" points="80.64 50.41 58.89 56.53 58.89 56.13 80.64 50.01 80.64 50.41"/><polygon class="cls-42" points="80.64 50.82 58.89 56.94 58.89 56.53 80.64 50.41 80.64 50.82"/><polygon class="cls-43" points="80.64 51.23 58.89 57.35 58.89 56.94 80.64 50.82 80.64 51.23"/><polygon class="cls-44" points="80.64 51.64 58.89 57.76 58.89 57.35 80.64 51.23 80.64 51.64"/><polygon class="cls-45" points="80.64 52.04 58.89 58.16 58.89 57.76 80.64 51.64 80.64 52.04"/><polygon class="cls-46" points="80.64 52.45 58.89 58.57 58.89 58.16 80.64 52.04 80.64 52.45"/><polygon class="cls-47" points="80.64 52.86 58.89 58.98 58.89 58.57 80.64 52.45 80.64 52.86"/><polygon class="cls-48" points="80.64 53.27 58.89 59.38 58.89 58.98 80.64 52.86 80.64 53.27"/><polygon class="cls-49" points="80.64 53.67 58.89 59.79 58.89 59.38 80.64 53.27 80.64 53.67"/><polygon class="cls-50" points="80.64 54.08 58.89 60.2 58.89 59.79 80.64 53.67 80.64 54.08"/><polygon class="cls-51" points="80.64 54.49 58.89 60.61 58.89 60.2 80.64 54.08 80.64 54.49"/><polygon class="cls-52" points="80.64 54.9 58.89 61.01 58.89 60.61 80.64 54.49 80.64 54.9"/><polygon class="cls-53" points="80.64 55.3 58.89 61.42 58.89 61.01 80.64 54.9 80.64 55.3"/><polygon class="cls-54" points="80.64 55.71 58.89 61.83 58.89 61.42 80.64 55.3 80.64 55.71"/><polygon class="cls-55" points="80.64 56.12 59.39 62.09 58.89 62.09 58.89 61.83 80.64 55.71 80.64 56.12"/><polygon class="cls-56" points="80.64 56.53 60.84 62.09 59.39 62.09 80.64 56.12 80.64 56.53"/><polygon class="cls-57" points="80.64 56.93 62.29 62.09 60.84 62.09 80.64 56.53 80.64 56.93"/><polygon class="cls-57" points="62.29 62.09 80.64 56.93 80.64 62.09 62.29 62.09"/></g></g><line class="cls-9" x1="48.63" y1="51.19" x2="60.17" y2="35.02"/><line class="cls-9" x1="49.22" y1="51.54" x2="60.78" y2="35.35"/><line class="cls-9" x1="58.05" y1="56.53" x2="69.63" y2="40.4"/><line class="cls-9" x1="58.64" y1="56.89" x2="70.24" y2="40.73"/><polygon class="cls-62" points="82.35 47.17 82.35 55.29 69.18 63.01 82.35 47.17"/><path d="M82.1,47.86v7.28L70.28,62.07,82.1,47.86m.5-1.38L68.07,63.94,82.6,55.43v-9Z"/><polygon class="cls-7" points="41.1 47.19 52.9 30.91 80.64 46.77 67.84 62.5 41.1 47.19"/><line class="cls-63" x1="81.41" y1="76.35" x2="81.41" y2="88.57"/><polygon class="cls-16" points="21.75 58.28 34.62 40.52 64.22 57.47 50.06 74.5 21.75 58.28"/><g class="cls-64"><g class="cls-65"><polygon class="cls-11" points="42.37 42.53 23.58 47.59 23.58 41.89 42.37 41.89 42.37 42.53"/><polygon class="cls-11" points="42.37 42.9 23.58 47.96 23.58 47.59 42.37 42.53 42.37 42.9"/><polygon class="cls-19" points="42.37 43.27 23.58 48.33 23.58 47.96 42.37 42.9 42.37 43.27"/><polygon class="cls-20" points="42.37 43.64 23.58 48.7 23.58 48.33 42.37 43.27 42.37 43.64"/><polygon class="cls-21" points="42.37 44.01 23.58 49.07 23.58 48.7 42.37 43.64 42.37 44.01"/><polygon class="cls-22" points="42.37 44.38 23.58 49.44 23.58 49.07 42.37 44.01 42.37 44.38"/><polygon class="cls-23" points="42.37 44.75 23.58 49.81 23.58 49.44 42.37 44.38 42.37 44.75"/><polygon class="cls-24" points="42.37 45.12 23.58 50.18 23.58 49.81 42.37 44.75 42.37 45.12"/><polygon class="cls-25" points="42.37 45.49 23.58 50.55 23.58 50.18 42.37 45.12 42.37 45.49"/><polygon class="cls-26" points="42.37 45.86 23.58 50.92 23.58 50.55 42.37 45.49 42.37 45.86"/><polygon class="cls-27" points="42.37 46.23 23.58 51.29 23.58 50.92 42.37 45.86 42.37 46.23"/><polygon class="cls-28" points="42.37 46.6 23.58 51.66 23.58 51.29 42.37 46.23 42.37 46.6"/><polygon class="cls-29" points="42.37 46.98 23.58 52.03 23.58 51.66 42.37 46.6 42.37 46.98"/><polygon class="cls-30" points="42.37 47.35 23.58 52.4 23.58 52.03 42.37 46.98 42.37 47.35"/><polygon class="cls-31" points="42.37 47.72 23.58 52.77 23.58 52.4 42.37 47.35 42.37 47.72"/><polygon class="cls-32" points="42.37 48.09 23.58 53.14 23.58 52.77 42.37 47.72 42.37 48.09"/><polygon class="cls-33" points="42.37 48.46 23.58 53.51 23.58 53.14 42.37 48.09 42.37 48.46"/><polygon class="cls-34" points="42.37 48.83 23.58 53.88 23.58 53.51 42.37 48.46 42.37 48.83"/><polygon class="cls-35" points="42.37 49.2 23.58 54.26 23.58 53.88 42.37 48.83 42.37 49.2"/><polygon class="cls-36" points="42.37 49.57 23.58 54.63 23.58 54.26 42.37 49.2 42.37 49.57"/><polygon class="cls-37" points="42.37 49.94 23.58 55 23.58 54.63 42.37 49.57 42.37 49.94"/><polygon class="cls-38" points="42.37 50.31 23.58 55.37 23.58 55 42.37 49.94 42.37 50.31"/><polygon class="cls-39" points="42.37 50.68 23.58 55.74 23.58 55.37 42.37 50.31 42.37 50.68"/><polygon class="cls-40" points="42.37 51.05 23.58 56.11 23.58 55.74 42.37 50.68 42.37 51.05"/><polygon class="cls-41" points="42.37 51.42 23.58 56.48 23.58 56.11 42.37 51.05 42.37 51.42"/><polygon class="cls-42" points="42.37 51.79 23.58 56.85 23.58 56.48 42.37 51.42 42.37 51.79"/><polygon class="cls-43" points="42.37 52.16 23.58 57.22 23.58 56.85 42.37 51.79 42.37 52.16"/><polygon class="cls-44" points="42.37 52.53 23.58 57.59 23.58 57.22 42.37 52.16 42.37 52.53"/><polygon class="cls-45" points="42.37 52.9 23.58 57.96 23.58 57.59 42.37 52.53 42.37 52.9"/><polygon class="cls-46" points="42.37 53.27 23.58 58.33 23.58 57.96 42.37 52.9 42.37 53.27"/><polygon class="cls-47" points="42.37 53.65 23.58 58.7 23.58 58.33 42.37 53.27 42.37 53.65"/><polygon class="cls-48" points="42.37 54.02 23.58 59.07 23.58 58.7 42.37 53.65 42.37 54.02"/><polygon class="cls-49" points="42.37 54.39 23.58 59.44 23.58 59.07 42.37 54.02 42.37 54.39"/><polygon class="cls-50" points="42.37 54.76 23.58 59.81 23.58 59.44 42.37 54.39 42.37 54.76"/><polygon class="cls-51" points="42.37 55.13 23.58 60.18 23.58 59.81 42.37 54.76 42.37 55.13"/><polygon class="cls-52" points="42.37 55.5 23.58 60.55 23.58 60.18 42.37 55.13 42.37 55.5"/><polygon class="cls-53" points="42.37 55.87 23.58 60.92 23.58 60.55 42.37 55.5 42.37 55.87"/><polygon class="cls-54" points="42.37 56.24 23.58 61.3 23.58 60.92 42.37 55.87 42.37 56.24"/><polygon class="cls-55" points="42.37 56.61 23.58 61.66 23.58 61.3 42.37 56.24 42.37 56.61"/><polygon class="cls-56" points="42.37 56.98 24.01 61.92 23.58 61.92 23.58 61.66 42.37 56.61 42.37 56.98"/><polygon class="cls-57" points="42.37 57.35 25.38 61.92 24.01 61.92 42.37 56.98 42.37 57.35"/><polygon class="cls-57" points="25.38 61.92 42.37 57.35 42.37 61.92 25.38 61.92"/></g></g><g class="cls-66"><g class="cls-67"><polygon class="cls-11" points="51.86 46.48 31.4 52.24 31.4 46.13 51.86 46.13 51.86 46.48"/><polygon class="cls-11" points="51.86 46.88 31.4 52.63 31.4 52.24 51.86 46.48 51.86 46.88"/><polygon class="cls-19" points="51.86 47.28 31.4 53.03 31.4 52.63 51.86 46.88 51.86 47.28"/><polygon class="cls-20" points="51.86 47.68 31.4 53.43 31.4 53.03 51.86 47.28 51.86 47.68"/><polygon class="cls-21" points="51.86 48.07 31.4 53.83 31.4 53.43 51.86 47.68 51.86 48.07"/><polygon class="cls-22" points="51.86 48.47 31.4 54.23 31.4 53.83 51.86 48.07 51.86 48.47"/><polygon class="cls-23" points="51.86 48.87 31.4 54.63 31.4 54.23 51.86 48.47 51.86 48.87"/><polygon class="cls-24" points="51.86 49.27 31.4 55.02 31.4 54.63 51.86 48.87 51.86 49.27"/><polygon class="cls-25" points="51.86 49.67 31.4 55.42 31.4 55.02 51.86 49.27 51.86 49.67"/><polygon class="cls-26" points="51.86 50.07 31.4 55.82 31.4 55.42 51.86 49.67 51.86 50.07"/><polygon class="cls-27" points="51.86 50.47 31.4 56.22 31.4 55.82 51.86 50.07 51.86 50.47"/><polygon class="cls-28" points="51.86 50.86 31.4 56.62 31.4 56.22 51.86 50.47 51.86 50.86"/><polygon class="cls-29" points="51.86 51.26 31.4 57.02 31.4 56.62 51.86 50.86 51.86 51.26"/><polygon class="cls-30" points="51.86 51.66 31.4 57.42 31.4 57.02 51.86 51.26 51.86 51.66"/><polygon class="cls-31" points="51.86 52.06 31.4 57.81 31.4 57.42 51.86 51.66 51.86 52.06"/><polygon class="cls-32" points="51.86 52.46 31.4 58.21 31.4 57.81 51.86 52.06 51.86 52.46"/><polygon class="cls-33" points="51.86 52.85 31.4 58.61 31.4 58.21 51.86 52.46 51.86 52.85"/><polygon class="cls-34" points="51.86 53.25 31.4 59.01 31.4 58.61 51.86 52.85 51.86 53.25"/><polygon class="cls-35" points="51.86 53.65 31.4 59.41 31.4 59.01 51.86 53.25 51.86 53.65"/><polygon class="cls-36" points="51.86 54.05 31.4 59.81 31.4 59.41 51.86 53.65 51.86 54.05"/><polygon class="cls-37" points="51.86 54.45 31.4 60.2 31.4 59.81 51.86 54.05 51.86 54.45"/><polygon class="cls-38" points="51.86 54.85 31.4 60.6 31.4 60.2 51.86 54.45 51.86 54.85"/><polygon class="cls-39" points="51.86 55.25 31.4 61 31.4 60.6 51.86 54.85 51.86 55.25"/><polygon class="cls-40" points="51.86 55.64 31.4 61.4 31.4 61 51.86 55.25 51.86 55.64"/><polygon class="cls-41" points="51.86 56.04 31.4 61.8 31.4 61.4 51.86 55.64 51.86 56.04"/><polygon class="cls-42" points="51.86 56.44 31.4 62.2 31.4 61.8 51.86 56.04 51.86 56.44"/><polygon class="cls-43" points="51.86 56.84 31.4 62.59 31.4 62.2 51.86 56.44 51.86 56.84"/><polygon class="cls-44" points="51.86 57.24 31.4 62.99 31.4 62.59 51.86 56.84 51.86 57.24"/><polygon class="cls-45" points="51.86 57.64 31.4 63.39 31.4 62.99 51.86 57.24 51.86 57.64"/><polygon class="cls-46" points="51.86 58.03 31.4 63.79 31.4 63.39 51.86 57.64 51.86 58.03"/><polygon class="cls-47" points="51.86 58.43 31.4 64.19 31.4 63.79 51.86 58.03 51.86 58.43"/><polygon class="cls-48" points="51.86 58.83 31.4 64.59 31.4 64.19 51.86 58.43 51.86 58.83"/><polygon class="cls-49" points="51.86 59.23 31.4 64.99 31.4 64.59 51.86 58.83 51.86 59.23"/><polygon class="cls-50" points="51.86 59.63 31.4 65.38 31.4 64.99 51.86 59.23 51.86 59.63"/><polygon class="cls-51" points="51.86 60.03 31.4 65.78 31.4 65.38 51.86 59.63 51.86 60.03"/><polygon class="cls-52" points="51.86 60.42 31.4 66.18 31.4 65.78 51.86 60.03 51.86 60.42"/><polygon class="cls-53" points="51.86 60.82 31.4 66.58 31.4 66.18 51.86 60.42 51.86 60.82"/><polygon class="cls-54" points="51.86 61.22 31.4 66.98 31.4 66.58 51.86 60.82 51.86 61.22"/><polygon class="cls-55" points="51.86 61.62 31.75 67.28 31.4 67.28 31.4 66.98 51.86 61.22 51.86 61.62"/><polygon class="cls-56" points="51.86 62.02 33.16 67.28 31.75 67.28 51.86 61.62 51.86 62.02"/><polygon class="cls-57" points="51.86 62.42 34.58 67.28 33.16 67.28 51.86 62.02 51.86 62.42"/><polygon class="cls-57" points="34.58 67.28 51.86 62.42 51.86 67.28 34.58 67.28"/></g></g><g class="cls-68"><g class="cls-69"><polygon class="cls-11" points="62.63 51.44 40.88 57.56 40.88 51.36 62.63 51.36 62.63 51.44"/><polygon class="cls-11" points="62.63 51.85 40.88 57.97 40.88 57.56 62.63 51.44 62.63 51.85"/><polygon class="cls-19" points="62.63 52.26 40.88 58.37 40.88 57.97 62.63 51.85 62.63 52.26"/><polygon class="cls-20" points="62.63 52.66 40.88 58.78 40.88 58.37 62.63 52.26 62.63 52.66"/><polygon class="cls-21" points="62.63 53.07 40.88 59.19 40.88 58.78 62.63 52.66 62.63 53.07"/><polygon class="cls-22" points="62.63 53.48 40.88 59.6 40.88 59.19 62.63 53.07 62.63 53.48"/><polygon class="cls-23" points="62.63 53.88 40.88 60 40.88 59.6 62.63 53.48 62.63 53.88"/><polygon class="cls-24" points="62.63 54.29 40.88 60.41 40.88 60 62.63 53.88 62.63 54.29"/><polygon class="cls-25" points="62.63 54.7 40.88 60.82 40.88 60.41 62.63 54.29 62.63 54.7"/><polygon class="cls-26" points="62.63 55.11 40.88 61.23 40.88 60.82 62.63 54.7 62.63 55.11"/><polygon class="cls-27" points="62.63 55.52 40.88 61.63 40.88 61.23 62.63 55.11 62.63 55.52"/><polygon class="cls-28" points="62.63 55.92 40.88 62.04 40.88 61.63 62.63 55.52 62.63 55.92"/><polygon class="cls-29" points="62.63 56.33 40.88 62.45 40.88 62.04 62.63 55.92 62.63 56.33"/><polygon class="cls-30" points="62.63 56.74 40.88 62.85 40.88 62.45 62.63 56.33 62.63 56.74"/><polygon class="cls-31" points="62.63 57.14 40.88 63.26 40.88 62.85 62.63 56.74 62.63 57.14"/><polygon class="cls-32" points="62.63 57.55 40.88 63.67 40.88 63.26 62.63 57.14 62.63 57.55"/><polygon class="cls-33" points="62.63 57.96 40.88 64.08 40.88 63.67 62.63 57.55 62.63 57.96"/><polygon class="cls-34" points="62.63 58.37 40.88 64.48 40.88 64.08 62.63 57.96 62.63 58.37"/><polygon class="cls-35" points="62.63 58.77 40.88 64.89 40.88 64.48 62.63 58.37 62.63 58.77"/><polygon class="cls-36" points="62.63 59.18 40.88 65.3 40.88 64.89 62.63 58.77 62.63 59.18"/><polygon class="cls-37" points="62.63 59.59 40.88 65.71 40.88 65.3 62.63 59.18 62.63 59.59"/><polygon class="cls-38" points="62.63 60 40.88 66.11 40.88 65.71 62.63 59.59 62.63 60"/><polygon class="cls-39" points="62.63 60.4 40.88 66.52 40.88 66.11 62.63 60 62.63 60.4"/><polygon class="cls-40" points="62.63 60.81 40.88 66.93 40.88 66.52 62.63 60.4 62.63 60.81"/><polygon class="cls-41" points="62.63 61.22 40.88 67.34 40.88 66.93 62.63 60.81 62.63 61.22"/><polygon class="cls-42" points="62.63 61.63 40.88 67.74 40.88 67.34 62.63 61.22 62.63 61.63"/><polygon class="cls-43" points="62.63 62.03 40.88 68.15 40.88 67.74 62.63 61.63 62.63 62.03"/><polygon class="cls-44" points="62.63 62.44 40.88 68.56 40.88 68.15 62.63 62.03 62.63 62.44"/><polygon class="cls-45" points="62.63 62.85 40.88 68.97 40.88 68.56 62.63 62.44 62.63 62.85"/><polygon class="cls-46" points="62.63 63.26 40.88 69.37 40.88 68.97 62.63 62.85 62.63 63.26"/><polygon class="cls-47" points="62.63 63.66 40.88 69.78 40.88 69.37 62.63 63.26 62.63 63.66"/><polygon class="cls-48" points="62.63 64.07 40.88 70.19 40.88 69.78 62.63 63.66 62.63 64.07"/><polygon class="cls-49" points="62.63 64.48 40.88 70.6 40.88 70.19 62.63 64.07 62.63 64.48"/><polygon class="cls-50" points="62.63 64.89 40.88 71 40.88 70.6 62.63 64.48 62.63 64.89"/><polygon class="cls-51" points="62.63 65.29 40.88 71.41 40.88 71 62.63 64.89 62.63 65.29"/><polygon class="cls-52" points="62.63 65.7 40.88 71.82 40.88 71.41 62.63 65.29 62.63 65.7"/><polygon class="cls-53" points="62.63 66.11 40.88 72.23 40.88 71.82 62.63 65.7 62.63 66.11"/><polygon class="cls-54" points="62.63 66.52 40.88 72.63 40.88 72.23 62.63 66.11 62.63 66.52"/><polygon class="cls-55" points="62.63 66.92 41.38 72.9 40.88 72.9 40.88 72.63 62.63 66.52 62.63 66.92"/><polygon class="cls-56" points="62.63 67.33 42.83 72.9 41.38 72.9 62.63 66.92 62.63 67.33"/><polygon class="cls-57" points="62.63 67.74 44.28 72.9 42.83 72.9 62.63 67.33 62.63 67.74"/><polygon class="cls-57" points="44.28 72.9 62.63 67.74 62.63 72.9 44.28 72.9"/></g></g><line class="cls-9" x1="30.62" y1="61.99" x2="42.16" y2="45.82"/><line class="cls-9" x1="31.21" y1="62.35" x2="42.78" y2="46.15"/><line class="cls-9" x1="40.04" y1="67.34" x2="51.62" y2="51.2"/><line class="cls-9" x1="40.63" y1="67.69" x2="52.23" y2="51.54"/><polygon class="cls-70" points="64.34 57.98 64.34 66.09 51.17 73.81 64.34 57.98"/><path d="M64.09,58.67V66L52.27,72.87l11.82-14.2m.5-1.39L50.06,74.75l14.53-8.51v-9Z"/><polygon class="cls-7" points="23.1 57.99 34.89 41.72 62.64 57.58 49.83 73.3 23.1 57.99"/></g></g></svg>