<svg xmlns="http://www.w3.org/2000/svg" xmlns:xlink="http://www.w3.org/1999/xlink" viewBox="0 0 128.01 101.09"><defs><style>.cls-1{fill:url(#New_Gradient_Swatch_3);}.cls-2{fill:url(#linear-gradient);}.cls-3{fill:url(#New_Gradient_Swatch_3-2);}.cls-4{fill:url(#linear-gradient-2);}.cls-5{fill:url(#New_Gradient_Swatch_3-3);}.cls-6{fill:url(#New_Gradient_Swatch_3-4);}.cls-7{fill:url(#New_Gradient_Swatch_3-5);}.cls-8{fill:url(#New_Gradient_Swatch_3-6);}.cls-10,.cls-25,.cls-9{fill:none;}.cls-9{stroke:#000;}.cls-10,.cls-11,.cls-12,.cls-13,.cls-14,.cls-25,.cls-26,.cls-9{stroke-miterlimit:10;}.cls-10,.cls-11,.cls-12,.cls-13,.cls-26,.cls-9{stroke-width:2px;}.cls-10,.cls-11,.cls-12,.cls-13,.cls-14,.cls-25,.cls-26{stroke:#231f20;}.cls-11{fill:url(#New_Gradient_Swatch_3-7);}.cls-12,.cls-14,.cls-22{fill:#fff;}.cls-13{fill:url(#linear-gradient-3);}.cls-15{fill:url(#New_Gradient_Swatch_3-8);}.cls-16{fill:url(#linear-gradient-4);}.cls-17{fill:url(#New_Gradient_Swatch_3-9);}.cls-18{fill:url(#linear-gradient-5);}.cls-19{fill:url(#New_Gradient_Swatch_3-10);}.cls-20{fill:url(#New_Gradient_Swatch_3-11);}.cls-21{fill:url(#New_Gradient_Swatch_3-12);}.cls-23{fill:url(#New_Gradient_Swatch_3-13);}.cls-24{fill:url(#New_Gradient_Swatch_3-14);}.cls-26{fill:url(#linear-gradient-6);}</style><linearGradient id="New_Gradient_Swatch_3" x1="111.61" y1="8.21" x2="104.44" y2="15.8" gradientUnits="userSpaceOnUse"><stop offset="0" stop-color="#fff"/><stop offset="1" stop-color="#d7d7d7"/></linearGradient><linearGradient id="linear-gradient" x1="95.35" y1="14.34" x2="83.59" y2="26.79" gradientUnits="userSpaceOnUse"><stop offset="0" stop-color="#d7d7d7"/><stop offset="0.52" stop-color="#fff"/><stop offset="1" stop-color="#d7d7d7"/></linearGradient><linearGradient id="New_Gradient_Swatch_3-2" x1="72.83" y1="44.61" x2="80.98" y2="37.16" xlink:href="#New_Gradient_Swatch_3"/><linearGradient id="linear-gradient-2" x1="84.21" y1="53.45" x2="77.65" y2="60.4" gradientUnits="userSpaceOnUse"><stop offset="0" stop-color="#d7d7d7"/><stop offset="1" stop-color="#fff"/></linearGradient><linearGradient id="New_Gradient_Swatch_3-3" x1="99.99" y1="62.25" x2="97.93" y2="64.42" xlink:href="#New_Gradient_Swatch_3"/><linearGradient id="New_Gradient_Swatch_3-4" x1="120.23" y1="43.8" x2="119.98" y2="44.06" xlink:href="#New_Gradient_Swatch_3"/><linearGradient id="New_Gradient_Swatch_3-5" x1="123.91" y1="22.34" x2="119.43" y2="27.08" xlink:href="#New_Gradient_Swatch_3"/><linearGradient id="New_Gradient_Swatch_3-6" x1="79.98" y1="47.07" x2="126.99" y2="47.07" xlink:href="#New_Gradient_Swatch_3"/><linearGradient id="New_Gradient_Swatch_3-7" x1="106.98" y1="35.42" x2="101.42" y2="45.83" xlink:href="#New_Gradient_Swatch_3"/><linearGradient id="linear-gradient-3" x1="95.44" y1="64.36" x2="100.7" y2="64.36" xlink:href="#New_Gradient_Swatch_3"/><linearGradient id="New_Gradient_Swatch_3-8" x1="63.04" y1="14.89" x2="52.56" y2="25.98" xlink:href="#New_Gradient_Swatch_3"/><linearGradient id="linear-gradient-4" x1="38.74" y1="24.11" x2="21.46" y2="42.41" xlink:href="#linear-gradient"/><linearGradient id="New_Gradient_Swatch_3-9" x1="5.45" y1="69.05" x2="17.26" y2="58.26" xlink:href="#New_Gradient_Swatch_3"/><linearGradient id="linear-gradient-5" x1="22.21" y1="82.14" x2="12.39" y2="92.53" xlink:href="#linear-gradient-2"/><linearGradient id="New_Gradient_Swatch_3-10" x1="40.24" y1="90.03" x2="37.17" y2="93.28" xlink:href="#New_Gradient_Swatch_3"/><linearGradient id="New_Gradient_Swatch_3-11" x1="70.52" y1="62.43" x2="70.16" y2="62.82" xlink:href="#New_Gradient_Swatch_3"/><linearGradient id="New_Gradient_Swatch_3-12" x1="76.03" y1="30.32" x2="69.33" y2="37.4" xlink:href="#New_Gradient_Swatch_3"/><linearGradient id="New_Gradient_Swatch_3-13" x1="10.3" y1="67.32" x2="80.65" y2="67.32" xlink:href="#New_Gradient_Swatch_3"/><linearGradient id="New_Gradient_Swatch_3-14" x1="54.91" y1="50.8" x2="37.34" y2="69.41" xlink:href="#New_Gradient_Swatch_3"/><linearGradient id="linear-gradient-6" x1="33.43" y1="93.19" x2="41.31" y2="93.19" xlink:href="#New_Gradient_Swatch_3"/></defs><g id="Layer_2" data-name="Layer 2"><g id="Layer_1-2" data-name="Layer 1"><path class="cls-1" d="M104.42,1.3l13.79,13.62-4.52,5.61A6.43,6.43,0,0,1,110,22.67c-2,.13-2.62-.31-2.89-1.4s-.75-4.42-.75-4.42L97.86,8.37s.88-.07,2.55-1.94S104.42,1.3,104.42,1.3Z"/><path class="cls-2" d="M87,6.48,100.63,20l-.78,6.08a16,16,0,0,1-2.11,3.23c-.95.92-2.51,2.76-4.21,3a24.26,24.26,0,0,1-4.73-.61L75.16,18.17l4.32.48s1.08.27,3.77-2.18a8.61,8.61,0,0,0,3-4.86Z"/><path class="cls-3" d="M74.56,27.6,85,38l3.09,2.65s1,1.33-.24,4.36-4.45,5.27-4.45,5.27L80,52.69,66.3,38.92l5.61-4.18S75.1,31,74.56,27.6Z"/><path class="cls-4" d="M80,58.27l-7.53-7L71.4,53.44,84.92,67.28l3.4-6.77s.48-2.65-.71-3.84-3-.31-3-.31Z"/><path class="cls-5" d="M95.46,61.7l5.14,5.24-.78-4.73s-.45-1.12-2.42-1.09C95.77,61.26,95.46,61.7,95.46,61.7Z"/><path class="cls-6" d="M121.78,45.45l-3.2-3.2a2.1,2.1,0,0,0,.14.61C118.82,43,121.78,45.45,121.78,45.45Z"/><path class="cls-7" d="M120.69,19.3l6.22,6.29-5.3,2.18A2.68,2.68,0,0,1,119,26.54c-1-1.53.27-4.48.27-4.48Z"/><path class="cls-8" d="M127,25.4v0h-.06c-.11.05-4.16,1.76-5.25,2.17a2.07,2.07,0,0,1-2-.43,46.58,46.58,0,0,1-9.7,11c0,3.56-2.92,8.08-6.47,10.13-3.18,1.84-5.83,1.06-6.36-1.67a61.91,61.91,0,0,1-17,5.83l-.13.1a.32.32,0,0,0-.06.07V58s.06,0,.06,0,4.16-1.76,5.25-2.17a2.28,2.28,0,0,1,2.37.71l.07.1q.21.42.45.81l0,.13A5,5,0,0,1,88,60.92c-.58,1.21-2.78,5.49-3.1,6.11a.28.28,0,0,0,0,.08l3.9,1.65s.09-.05.09-.05,3.39-4.45,4.32-5.6a7.27,7.27,0,0,1,3.15-2l.15,0c.35,0,.71-.1,1.07-.17h.15c1.23.12,1.93.52,2.07,1.17.21.91.78,4.27.87,4.75a.05.05,0,0,0,0,0l5.51-3.18a.17.17,0,0,0,.06-.1c.09-.58.66-4.6.87-5.74a9.43,9.43,0,0,1,2.08-3.57l.14-.15L110.45,53l.15-.14c1.47-1.13,2.53-1.67,3.15-1.62.88.08,3.89.54,4.33.61l.07,0,3.9-6.15a.14.14,0,0,0,0-.09c-.32-.25-2.52-2-3.1-2.53-.42-.38-.49-1.41-.2-3l0-.18q.24-.66.45-1.32l.07-.19a10.23,10.23,0,0,1,2.37-3.44c1-.8,4.72-3.51,5.25-3.9l.06-.07V25.4Z"/><path class="cls-9" d="M108.2,2.75a.51.51,0,0,0,0-.09L104.32,1l-.09.06c-.44.57-3.45,4.51-4.32,5.59a6.13,6.13,0,0,1-2.13,1.58M72.47,50.64c-.64,1.26-1.24,2.42-1.4,2.72a.32.32,0,0,0,0,.08m3.45-25.93a7.69,7.69,0,0,1-.13,2.24l0,.18c-.16.44-.31.89-.45,1.33l-.07.18a10,10,0,0,1-2.37,3.45c-1,.8-4.72,3.5-5.25,3.89l-.06.08v5.51s.07,0,.07,0M92.45,3s0,0,0,0L86.89,6.13a.27.27,0,0,0-.06.1c-.08.58-.66,4.6-.87,5.75a9.49,9.49,0,0,1-2.07,3.56l-.14.16c-.37.35-.72.7-1.08,1.07l-.15.13C81.05,18,80,18.58,79.37,18.52c-.88-.08-3.89-.54-4.32-.6l-.08,0-3.9,6.15a.23.23,0,0,0,0,.09"/><path class="cls-10" d="M100.7,67s0,0,0,0l5.51-3.18a.61.61,0,0,0,.07-.1c.08-.58.65-4.6.86-5.75a9.72,9.72,0,0,1,2.08-3.57l.14-.15c.36-.35.72-.7,1.07-1.06l.15-.14c1.47-1.13,2.53-1.68,3.16-1.62.87.08,3.89.54,4.32.6l.07,0,3.9-6.16a.08.08,0,0,0,0-.08c-.32-.25-2.52-2-3.1-2.53-.42-.39-.49-1.41-.2-3l0-.18c.16-.44.31-.89.44-1.33l.08-.18a10.05,10.05,0,0,1,2.36-3.45c1-.8,4.72-3.5,5.25-3.89,0,0,.06-.06.06-.08V25.59H127c-.11.05-4.16,1.76-5.25,2.17a2.27,2.27,0,0,1-2.36-.71l-.08-.1a7.11,7.11,0,0,0-.44-.82l0-.12a5,5,0,0,1,.2-3.27c.58-1.21,2.78-5.5,3.1-6.11a.51.51,0,0,0,0-.09l-3.9-1.65-.09.06c-.44.57-3.45,4.51-4.32,5.59a7.47,7.47,0,0,1-3.16,2l-.15,0a10.32,10.32,0,0,0-1.07.17h-.14c-1.23-.13-1.93-.52-2.08-1.17-.21-.91-.78-4.27-.86-4.75,0,0,0,0,0,0L100.76,20a.27.27,0,0,0-.06.1c-.08.58-.66,4.6-.87,5.75a9.42,9.42,0,0,1-2.07,3.56l-.14.16c-.37.35-.72.7-1.08,1.07l-.15.13c-1.46,1.13-2.53,1.68-3.15,1.62-.88-.08-3.89-.54-4.32-.6l-.08,0L84.94,38a.23.23,0,0,0,0,.09c.07.05,2.49,2,3.1,2.53.42.39.49,1.41.21,3l0,.18c-.16.44-.31.89-.45,1.33l-.07.18a10,10,0,0,1-2.37,3.45c-1,.8-4.71,3.5-5.25,3.89l-.06.08v5.51s.07,0,.07,0,4.16-1.76,5.24-2.17a2.3,2.3,0,0,1,2.37.71l.07.1a7.76,7.76,0,0,0,.45.81l0,.13a5.1,5.1,0,0,1-.2,3.27c-.59,1.21-2.79,5.49-3.11,6.11a.32.32,0,0,0,0,.08L88.83,69s.09,0,.09,0,3.4-4.45,4.32-5.59a7.43,7.43,0,0,1,3.15-2l.16,0c.35,0,.7-.1,1.07-.17h.14c1.23.13,1.93.52,2.08,1.17C100,63.15,100.62,66.51,100.7,67Z"/><path class="cls-11" d="M103.51,48.39c-3.57,2.06-6.47.84-6.47-2.73s2.9-8.14,6.47-10.2,6.47-.84,6.47,2.73S107.07,46.33,103.51,48.39Z"/><line class="cls-12" x1="126.95" y1="25.58" x2="120.76" y2="19.39"/><line class="cls-12" x1="118.1" y1="14.94" x2="104.17" y2="1"/><line class="cls-12" x1="122.09" y1="16.53" x2="108.19" y2="2.63"/><line class="cls-12" x1="92.24" y1="2.79" x2="106.32" y2="16.86"/><line class="cls-12" x1="86.63" y1="6.03" x2="100.68" y2="20.08"/><path class="cls-12" d="M88.84,31.81c-.28-.2-14.07-14.07-14.07-14.07"/><line class="cls-12" x1="70.87" y1="23.89" x2="84.94" y2="37.96"/><line class="cls-12" x1="65.93" y1="38.66" x2="80" y2="52.73"/><line class="cls-12" x1="80.07" y1="58.27" x2="65.95" y2="44.15"/><line class="cls-12" x1="70.86" y1="53.24" x2="84.9" y2="67.28"/><line class="cls-13" x1="100.7" y1="66.99" x2="95.44" y2="61.73"/><line class="cls-14" x1="122.07" y1="45.8" x2="118.59" y2="42.32"/><path class="cls-15" d="M58,10l9.52,9.26L60.74,27.6s-2.54,3-5.54,3.21-3.92-.46-4.33-2.09-1.12-6.61-1.12-6.61l-1.57-1.58s1.32-.1,3.81-2.9S58,10,58,10Z"/><path class="cls-16" d="M32.05,17.78l9.16,9.06L40,36a23.4,23.4,0,0,1-3.16,4.83c-1.42,1.37-3.76,4.12-6.31,4.48a37.49,37.49,0,0,1-7.07-.92l-9.21-9.05,6.46.71s1.63.4,5.65-3.26,4.43-7.27,4.43-7.27Z"/><path class="cls-17" d="M13.43,49.43l4.32,4.32,4.63,4s1.53,2-.35,6.51c-1.68,4.43-6.67,7.89-6.67,7.89l-5,3.61L1.07,66.37l8.39-6.26S14.24,54.52,13.43,49.43Z"/><path class="cls-18" d="M10.32,84.07,8.39,88.3l9.31,9.26,5.09-10.13s.71-4-1.07-5.75-4.53-.45-4.53-.45Z"/><path class="cls-19" d="M33.47,89.21l7.68,7.84L40,90s-.66-1.68-3.61-1.63C33.93,88.55,33.47,89.21,33.47,89.21Z"/><path class="cls-20" d="M72.85,64.89l-4.78-4.78a3.09,3.09,0,0,0,.2.92C68.42,61.28,72.85,64.89,72.85,64.89Z"/><path class="cls-21" d="M71.22,25.77l9.31,9.41L72.6,38.44a4,4,0,0,1-3.92-1.83c-1.48-2.29.41-6.72.41-6.72Z"/><path class="cls-22" d="M41.31,97.13a.07.07,0,0,0,.06.05l8.25-4.76a.38.38,0,0,0,.09-.15c.13-.86,1-6.88,1.29-8.59.22-1.23,1.27-3,3.11-5.34l.21-.23c.55-.52,1.08-1.06,1.6-1.59l.23-.21c2.2-1.69,3.79-2.51,4.72-2.42,1.31.11,5.82.8,6.47.9a.28.28,0,0,0,.11,0l5.84-9.2a.19.19,0,0,0,0-.13c-.48-.38-3.77-3-4.64-3.79-.63-.58-.73-2.11-.31-4.55l.08-.27c.23-.66.46-1.32.66-2l.11-.28a14.93,14.93,0,0,1,3.55-5.15c1.54-1.2,7.05-5.25,7.85-5.83l.09-.11V35.17h-.09c-.17.08-6.23,2.63-7.85,3.25-1.11.41-2.3.06-3.55-1.07l-.11-.15c-.2-.42-.43-.82-.66-1.21l-.08-.19a7.49,7.49,0,0,1,.31-4.89c.87-1.81,4.16-8.23,4.64-9.15a1,1,0,0,0,0-.12l-5.84-2.47a.27.27,0,0,0-.13.08c-.65.85-5.16,6.75-6.47,8.37a10.91,10.91,0,0,1-4.72,3l-.22.06c-.53.06-1.06.15-1.61.26h-.21c-1.84-.18-2.89-.77-3.11-1.75-.31-1.36-1.17-6.38-1.29-7.1,0,0,0-.06-.06-.06L41.4,26.82a.46.46,0,0,0-.09.15c-.13.86-1,6.88-1.3,8.6-.21,1.22-1.26,3-3.1,5.33l-.22.24c-.54.51-1.07,1-1.6,1.59l-.23.2c-2.19,1.7-3.78,2.51-4.72,2.43-1.31-.12-5.82-.81-6.47-.91a.23.23,0,0,0-.1,0L17.73,53.7a.17.17,0,0,0,0,.13c.1.07,3.72,2.94,4.64,3.78.63.58.73,2.11.3,4.55l-.07.27c-.24.66-.46,1.33-.67,2l-.11.27a15,15,0,0,1-3.54,5.16c-1.54,1.19-7.06,5.24-7.85,5.82a.41.41,0,0,0-.09.12V84s.09,0,.09,0c.17-.07,6.23-2.63,7.85-3.24,1.1-.42,2.29-.06,3.54,1.06l.11.15c.21.42.43.83.67,1.21l.07.19a7.47,7.47,0,0,1-.3,4.9c-.87,1.81-4.16,8.21-4.64,9.14,0,.05,0,.11,0,.12l5.84,2.47s.13-.08.13-.08c.13-.18,5.08-6.65,6.46-8.37a11.11,11.11,0,0,1,4.73-3l.22-.06c.53-.06,1.06-.14,1.6-.25l.22,0c1.84.19,2.89.78,3.1,1.75C40.32,91.38,41.18,96.41,41.31,97.13Z"/><path class="cls-23" d="M80.65,34.9a0,0,0,0,0,0,0h-.09c-.17.07-6.22,2.63-7.85,3.24a3.12,3.12,0,0,1-3-.65A70,70,0,0,1,55.15,53.84c-.06,5.32-4.38,12.1-9.68,15.16-4.76,2.75-8.73,1.58-9.53-2.5a92.32,92.32,0,0,1-25.35,8.72l-.2.15-.09.11v8.26s.1,0,.1,0c.16-.08,6.22-2.64,7.85-3.25,1.1-.41,2.29-.06,3.54,1.06l.11.15A11.9,11.9,0,0,0,22.57,83l.07.18a7.59,7.59,0,0,1-.3,4.9c-.87,1.81-4.16,8.22-4.64,9.15a.2.2,0,0,0,0,.12l5.83,2.47s.13-.08.13-.08c.14-.18,5.09-6.66,6.47-8.37a10.91,10.91,0,0,1,4.72-3l.23-.06c.52-.07,1.06-.15,1.6-.26h.21c1.85.19,2.89.78,3.11,1.75.31,1.36,1.17,6.38,1.29,7.1,0,0,0,.06.06.06l8.26-4.76a.46.46,0,0,0,.09-.15c.12-.87,1-6.88,1.29-8.6.22-1.23,1.27-3,3.11-5.34l.21-.23c.54-.52,1.08-1,1.6-1.59l.23-.2c2.19-1.7,3.78-2.51,4.72-2.43,1.31.12,5.82.81,6.47.91a.28.28,0,0,0,.11,0l5.83-9.21a.15.15,0,0,0,0-.13c-.47-.37-3.77-3-4.64-3.78-.62-.58-.73-2.11-.3-4.55l.07-.27c.24-.66.47-1.33.67-2l.11-.27a15.14,15.14,0,0,1,3.54-5.16c1.54-1.19,7.06-5.24,7.85-5.82l.1-.12V34.9Z"/><path class="cls-24" d="M47.41,49.12a17.73,17.73,0,0,1-4.83,9.06c-4,3.87-6.51,4.63-6.51,4.63s-1.53,6.41,3.46,7.88S52.7,63.93,54,59.81s2.59-9.06-1.73-11.14C48.33,48.16,47.41,49.12,47.41,49.12Z"/><path class="cls-9" d="M64,12.42a.23.23,0,0,0,0-.13L58.14,9.83a.23.23,0,0,0-.13.08c-.66.85-5.16,6.74-6.47,8.37a9.32,9.32,0,0,1-3.19,2.36M10.48,84.09,8.4,88.16a.2.2,0,0,0,0,.12m5.16-38.81a11.16,11.16,0,0,1-.2,3.35l-.07.28c-.24.66-.47,1.32-.67,2l-.11.28A15.08,15.08,0,0,1,9,60.51c-1.54,1.2-7.06,5.24-7.86,5.83L1,66.45v8.26s.1,0,.1,0m39.28-62a.19.19,0,0,0-.07-.06l-8.25,4.77a.34.34,0,0,0-.09.14c-.12.87-1,6.89-1.29,8.6-.22,1.22-1.26,3-3.11,5.34l-.21.23c-.54.52-1.08,1.05-1.61,1.6l-.22.2c-2.2,1.69-3.79,2.5-4.72,2.42-1.31-.12-5.82-.81-6.47-.9a.18.18,0,0,0-.11,0L8.4,44.36a.24.24,0,0,0,0,.14"/><path class="cls-10" d="M45.51,69.3c-5.34,3.08-9.68,1.25-9.68-4.09S40.17,53,45.51,49.94,55.19,48.7,55.19,54,50.85,66.22,45.51,69.3Z"/><path class="cls-25" d="M36,62.89a12.56,12.56,0,0,0,2.05-1A21.08,21.08,0,0,0,47.49,49"/><line class="cls-12" x1="80.59" y1="35.16" x2="71.32" y2="25.9"/><line class="cls-12" x1="67.34" y1="19.24" x2="58.01" y2="9.91"/><line class="cls-12" x1="73.31" y1="21.63" x2="64.02" y2="12.34"/><line class="cls-12" x1="40.38" y1="12.78" x2="49.71" y2="22.12"/><line class="cls-12" x1="31.97" y1="17.63" x2="41.28" y2="26.94"/><path class="cls-12" d="M23.57,44.49c-.42-.3-9.34-9.33-9.34-9.33"/><line class="cls-12" x1="8.4" y1="44.36" x2="17.73" y2="53.7"/><line class="cls-12" x1="1" y1="66.45" x2="10.34" y2="75.79"/><line class="cls-12" x1="10.43" y1="84.08" x2="1.03" y2="74.68"/><line class="cls-12" x1="8.38" y1="88.28" x2="17.66" y2="97.56"/><line class="cls-26" x1="41.31" y1="97.13" x2="33.43" y2="89.25"/><line class="cls-14" x1="73.29" y1="65.42" x2="68.07" y2="60.21"/><path class="cls-9" d="M41.31,97.13a.07.07,0,0,0,.06.05l8.25-4.76a.38.38,0,0,0,.09-.15c.13-.86,1-6.88,1.29-8.59.22-1.23,1.27-3,3.11-5.34l.21-.23c.55-.52,1.08-1.06,1.6-1.59l.23-.21c2.2-1.69,3.79-2.51,4.72-2.42,1.31.11,5.82.8,6.47.9a.28.28,0,0,0,.11,0l5.84-9.2a.19.19,0,0,0,0-.13c-.48-.38-3.77-3-4.64-3.79-.63-.58-.73-2.11-.31-4.55l.08-.27c.23-.66.46-1.32.66-2l.11-.28a14.93,14.93,0,0,1,3.55-5.15c1.54-1.2,7.05-5.25,7.85-5.83l.09-.11V35.17h-.09c-.17.08-6.23,2.63-7.85,3.25-1.11.41-2.3.06-3.55-1.07l-.11-.15c-.2-.42-.43-.82-.66-1.21l-.08-.19a7.49,7.49,0,0,1,.31-4.89c.87-1.81,4.16-8.23,4.64-9.15a1,1,0,0,0,0-.12l-5.84-2.47a.27.27,0,0,0-.13.08c-.65.85-5.16,6.75-6.47,8.37a10.91,10.91,0,0,1-4.72,3l-.22.06c-.53.06-1.06.15-1.61.26h-.21c-1.84-.18-2.89-.77-3.11-1.75-.31-1.36-1.17-6.38-1.29-7.1,0,0,0-.06-.06-.06L41.4,26.82a.46.46,0,0,0-.09.15c-.13.86-1,6.88-1.3,8.6-.21,1.22-1.26,3-3.1,5.33l-.22.24c-.54.51-1.07,1-1.6,1.59l-.23.2c-2.19,1.7-3.78,2.51-4.72,2.43-1.31-.12-5.82-.81-6.47-.91a.23.23,0,0,0-.1,0L17.73,53.7a.17.17,0,0,0,0,.13c.1.07,3.72,2.94,4.64,3.78.63.58.73,2.11.3,4.55l-.07.27c-.24.66-.46,1.33-.67,2l-.11.27a15,15,0,0,1-3.54,5.16c-1.54,1.19-7.06,5.24-7.85,5.82a.41.41,0,0,0-.09.12V84s.09,0,.09,0c.17-.07,6.23-2.63,7.85-3.24,1.1-.42,2.29-.06,3.54,1.06l.11.15c.21.42.43.83.67,1.21l.07.19a7.47,7.47,0,0,1-.3,4.9c-.87,1.81-4.16,8.21-4.64,9.14,0,.05,0,.11,0,.12l5.84,2.47s.13-.08.13-.08c.13-.18,5.08-6.65,6.46-8.37a11.11,11.11,0,0,1,4.73-3l.22-.06c.53-.06,1.06-.14,1.6-.25l.22,0c1.84.19,2.89.78,3.1,1.75C40.32,91.38,41.18,96.41,41.31,97.13Z"/></g></g></svg>