<svg xmlns="http://www.w3.org/2000/svg" xmlns:xlink="http://www.w3.org/1999/xlink" viewBox="0 0 40.11 40.11"><defs><style>.cls-1{fill:#f15a29;}.cls-1,.cls-6,.cls-7{stroke:#000;stroke-miterlimit:10;}.cls-2{fill:url(#New_Gradient_Swatch_3);}.cls-3{fill:url(#New_Gradient_Swatch_3-2);}.cls-4,.cls-6{fill:#fff;}.cls-5,.cls-7{fill:none;}.cls-7{stroke-width:0.5px;}.cls-8{fill:url(#New_Gradient_Swatch_2);}.cls-9{fill:url(#New_Gradient_Swatch_2-2);}</style><linearGradient id="New_Gradient_Swatch_3" x1="23" y1="20.8" x2="30.72" y2="27.27" gradientUnits="userSpaceOnUse"><stop offset="0" stop-color="#fff"/><stop offset="1" stop-color="#d7d7d7"/></linearGradient><linearGradient id="New_Gradient_Swatch_3-2" x1="5418.45" y1="20.8" x2="5426.17" y2="27.27" gradientTransform="matrix(-1, 0, 0, 1, 5435.68, 0)" xlink:href="#New_Gradient_Swatch_3"/><linearGradient id="New_Gradient_Swatch_2" x1="12.38" y1="15.22" x2="27.77" y2="15.22" gradientUnits="userSpaceOnUse"><stop offset="0" stop-color="#fff" stop-opacity="0"/><stop offset="1" stop-opacity="0.15"/></linearGradient><linearGradient id="New_Gradient_Swatch_2-2" x1="5965.2" y1="3208.97" x2="5967.58" y2="3208.97" gradientTransform="translate(5992.99 3237.27) rotate(180)" xlink:href="#New_Gradient_Swatch_2"/></defs><g id="Layer_2" data-name="Layer 2"><g id="Layer_1-2" data-name="Layer 1"><circle class="cls-1" cx="20.05" cy="20.05" r="19.55"/><polygon class="cls-2" points="33.05 13.57 33.05 26.54 20.09 34.02 20.09 21.05 33.05 13.57"/><polygon class="cls-3" points="7.18 13.57 7.18 26.54 20.14 34.02 20.14 21.05 7.18 13.57"/><polygon class="cls-4" points="32.96 13.63 20.01 6 13.6 9.52 26.66 17.06 32.96 13.63"/><line class="cls-5" x1="26.64" y1="17.02" x2="26.64" y2="17.35"/><polyline class="cls-5" points="33.06 13.35 33.06 13.68 26.64 17.35 13.68 9.87 13.68 9.54"/><path d="M7.66,14.14l12,7v12.1l-12-6.91V14.14m-.5-.87v13.3l13,7.49V20.8l-13-7.53Z"/><path d="M32.5,14.53V26.34l-12,6.91V21.43l12-6.9m.5-.87L20,21.15v13l13-7.48v-13Z"/><polyline class="cls-6" points="20.09 21.07 26.5 17.4 26.5 17.07"/><polygon class="cls-4" points="7.55 13.24 13.51 9.86 26.06 17.08 20.1 20.49 7.55 13.24"/><path d="M13.51,10.15l12,6.93L20.1,20.2l-12-7,5.46-3.09m0-.58L7.05,13.24,20.1,20.78l6.46-3.7-13-7.51Z"/><polyline class="cls-7" points="12.4 10.24 25.41 17.75 25.41 21.67"/><polygon class="cls-8" points="25.47 21.47 25.55 21.53 25.63 21.38 25.72 21.43 25.8 21.28 25.86 21.34 25.96 21.19 26.06 21.23 26.16 21.07 26.26 21.12 26.35 20.96 26.44 21.01 26.56 20.84 26.71 20.86 26.81 20.7 26.89 20.75 27 20.59 27.11 20.62 27.2 20.47 27.31 20.51 27.41 20.35 27.49 20.4 27.63 20.22 27.77 20.23 27.77 16.26 14.88 8.82 12.38 10.19 25.39 17.7 25.39 21.62 25.47 21.47"/><polyline class="cls-7" points="14.89 8.87 27.78 16.31 27.78 20.28"/><polyline class="cls-7" points="25.4 21.67 25.48 21.52 25.56 21.58 25.64 21.43 25.73 21.48 25.81 21.33 25.88 21.39 25.97 21.24 26.07 21.28 26.18 21.12 26.27 21.17 26.36 21.02 26.45 21.06 26.57 20.89 26.72 20.91 26.82 20.75 26.9 20.8 27.01 20.64 27.12 20.67 27.22 20.52 27.32 20.56 27.42 20.4 27.51 20.45 27.64 20.27 27.79 20.29"/><line class="cls-7" x1="27.78" y1="29.56" x2="27.78" y2="25.64"/><polyline class="cls-9" points="27.79 29.55 27.79 25.62 27.71 25.77 27.64 25.72 27.55 25.87 27.47 25.82 27.39 25.96 27.32 25.9 27.22 26.06 27.12 26.02 27.02 26.18 26.93 26.13 26.84 26.28 26.75 26.23 26.62 26.41 26.48 26.39 26.38 26.55 26.3 26.49 26.18 26.66 26.07 26.62 25.98 26.78 25.88 26.73 25.78 26.89 25.69 26.84 25.55 27.02 25.42 27.01 25.42 30.99"/><line class="cls-7" x1="25.4" y1="30.94" x2="25.4" y2="27.03"/><polyline class="cls-7" points="27.78 25.64 27.7 25.79 27.63 25.73 27.54 25.88 27.45 25.83 27.38 25.98 27.31 25.92 27.21 26.07 27.11 26.03 27.01 26.19 26.91 26.14 26.82 26.3 26.73 26.25 26.61 26.42 26.46 26.4 26.36 26.56 26.29 26.5 26.17 26.67 26.06 26.64 25.97 26.79 25.86 26.75 25.77 26.91 25.68 26.86 25.54 27.04 25.39 27.02"/><path d="M20,6.6l12,7-5.15,3-12.2-7L20,6.6M20,6,13.6,9.57,26.82,17.2,33,13.63,20,6Z"/></g></g></svg>