<svg xmlns="http://www.w3.org/2000/svg" xmlns:xlink="http://www.w3.org/1999/xlink" viewBox="0 0 58.66 43"><defs><style>.cls-1{fill:url(#New_Gradient_Swatch_3);}.cls-2{fill:url(#New_Gradient_Swatch_3-2);}.cls-3{fill:#fff;}.cls-4{fill:#d7d7d7;}.cls-5{fill:url(#New_Gradient_Swatch_3-3);}.cls-6{fill:url(#New_Gradient_Swatch_3-4);}.cls-7{fill:url(#New_Gradient_Swatch_3-5);}.cls-8{fill:#ccc;}.cls-9{fill:url(#New_Gradient_Swatch_3-6);}.cls-10{fill:url(#New_Gradient_Swatch_3-7);}.cls-11{fill:url(#New_Gradient_Swatch_3-8);}.cls-12{fill:#231f20;}.cls-13{fill:url(#New_Gradient_Swatch_3-9);}.cls-14{fill:#ed3224;}</style><linearGradient id="New_Gradient_Swatch_3" x1="37.87" y1="12.65" x2="58.51" y2="12.65" gradientUnits="userSpaceOnUse"><stop offset="0" stop-color="#fff"/><stop offset="1" stop-color="#d7d7d7"/></linearGradient><linearGradient id="New_Gradient_Swatch_3-2" x1="38.04" y1="6.67" x2="49.61" y2="6.67" xlink:href="#New_Gradient_Swatch_3"/><linearGradient id="New_Gradient_Swatch_3-3" x1="7581.73" y1="-4174.01" x2="7586.06" y2="-4174.01" gradientTransform="matrix(-1, 1.02, 0, 1, 7633.79, -3544.37)" xlink:href="#New_Gradient_Swatch_3"/><linearGradient id="New_Gradient_Swatch_3-4" x1="7582.2" y1="-4172.91" x2="7582.2" y2="-4172.91" gradientTransform="matrix(-1, 1.02, 0, 1, 7633.79, -3544.37)" xlink:href="#New_Gradient_Swatch_3"/><linearGradient id="New_Gradient_Swatch_3-5" x1="7581.43" y1="-4166.8" x2="7586.75" y2="-4166.8" gradientTransform="matrix(-1, 1.02, 0, 1, 7633.79, -3544.37)" xlink:href="#New_Gradient_Swatch_3"/><linearGradient id="New_Gradient_Swatch_3-6" x1="-584.71" y1="31.9" x2="-574.54" y2="31.9" gradientTransform="translate(585.51)" xlink:href="#New_Gradient_Swatch_3"/><linearGradient id="New_Gradient_Swatch_3-7" x1="-574.63" y1="24.75" x2="-539.57" y2="24.75" gradientTransform="translate(585.51)" xlink:href="#New_Gradient_Swatch_3"/><linearGradient id="New_Gradient_Swatch_3-8" x1="-584.71" y1="15.2" x2="-539.61" y2="15.2" gradientTransform="translate(585.51)" xlink:href="#New_Gradient_Swatch_3"/><linearGradient id="New_Gradient_Swatch_3-9" x1="7583.55" y1="-4205.29" x2="7587.56" y2="-4205.29" gradientTransform="matrix(-1, 1, 0, 1, 7633.79, -3370.87)" xlink:href="#New_Gradient_Swatch_3"/></defs><g id="Layer_2" data-name="Layer 2"><g id="Layer_1-2" data-name="Layer 1"><path class="cls-1" d="M47.48,22.54l.69-.13,4.63-2.72s0-3.94,2.81-4.5,2.08,1.55,2.08,1.55.13.39.35.31.43-.52.43-.52l0-4.07s0-.48-.95-1-9-5.21-9-5.21L44.1,5.45,39.34,2.77s-.61,0-.78.13a7.13,7.13,0,0,1-.69.52l7.87,4.41L47,15.27Z"/><path class="cls-2" d="M49.61,8.63,42.24,4.39A5.08,5.08,0,0,0,38,3.88l8.05,5.81S47.82,7.83,49.61,8.63Z"/><path d="M46.11,9.9,37.69,3.82,38,3.73a5.15,5.15,0,0,1,4.33.54l7.36,4.22-.14.28c-1.67-.74-3.33,1-3.35,1ZM38.4,4l7.67,5.54a4.09,4.09,0,0,1,2.6-1.22h0L42.16,4.53A5,5,0,0,0,38.4,4Z"/><ellipse class="cls-3" cx="55.8" cy="18.16" rx="2.3" ry="1.41" transform="translate(12.17 57.4) rotate(-60)"/><path d="M55.12,20.43a1.06,1.06,0,0,1-.55-.15c-.76-.44-.82-1.71-.13-2.91a3.28,3.28,0,0,1,1.23-1.25,1.23,1.23,0,0,1,2,1.13,3.38,3.38,0,0,1-.48,1.69,3.24,3.24,0,0,1-1.23,1.26A1.69,1.69,0,0,1,55.12,20.43Zm1.35-4.23a1.33,1.33,0,0,0-.65.19,3,3,0,0,0-1.11,1.14c-.58,1-.57,2.14,0,2.48a1.09,1.09,0,0,0,1.05-.08,3.12,3.12,0,0,0,1.11-1.14,3.08,3.08,0,0,0,.43-1.54,1.06,1.06,0,0,0-.45-.95A.77.77,0,0,0,56.47,16.2Z"/><path d="M57.07,16.08h0L56,15.35c-.74-.42-1.87.17-2.54,1.33s-.62,2.44.11,2.86l1,.64.14.09a1.09,1.09,0,0,0,.54.14,1.63,1.63,0,0,0,.78-.22,3.33,3.33,0,0,0,1.22-1.25,3.4,3.4,0,0,0,.47-1.68A1.34,1.34,0,0,0,57.07,16.08Z"/><ellipse class="cls-3" cx="55.8" cy="18.16" rx="1.62" ry="0.99" transform="matrix(0.5, -0.87, 0.87, 0.5, 12.17, 57.4)"/><path d="M55.32,19.72a.69.69,0,0,1-.37-.1.92.92,0,0,1-.41-.82,2.35,2.35,0,0,1,.33-1.18c.47-.81,1.26-1.22,1.78-.93s.54,1.19.07,2A1.82,1.82,0,0,1,55.32,19.72Zm1-3A1.68,1.68,0,0,0,55,17.7a2.11,2.11,0,0,0-.31,1.09.78.78,0,0,0,.33.7c.44.25,1.14-.14,1.56-.88s.41-1.53,0-1.78A.52.52,0,0,0,56.27,16.75Z"/><ellipse class="cls-4" cx="55.79" cy="18.17" rx="1.58" ry="0.97" transform="translate(12.17 57.4) rotate(-60)"/><path d="M55.32,19.7a.65.65,0,0,1-.36-.1c-.5-.29-.53-1.17-.08-2s1.24-1.2,1.74-.91a.91.91,0,0,1,.41.81,2.25,2.25,0,0,1-.33,1.15A1.81,1.81,0,0,1,55.32,19.7Zm.94-2.91a1.66,1.66,0,0,0-1.24.93c-.42.72-.41,1.5,0,1.75s1.11-.14,1.53-.86a2.1,2.1,0,0,0,.3-1.07.77.77,0,0,0-.32-.68A.59.59,0,0,0,56.26,16.79Z"/><ellipse cx="55.8" cy="18.16" rx="0.36" ry="0.22" transform="translate(12.17 57.4) rotate(-60)"/><path class="cls-3" d="M55.69,18.56a.2.2,0,0,1-.11,0,.25.25,0,0,1-.12-.23.63.63,0,0,1,.08-.29h0a.5.5,0,0,1,.29-.25.25.25,0,0,1,.19,0c.14.08.16.32,0,.53a.55.55,0,0,1-.22.21A.28.28,0,0,1,55.69,18.56Zm.21-.65h0a.36.36,0,0,0-.19.18h0a.34.34,0,0,0-.06.21.11.11,0,0,0,0,.1.15.15,0,0,0,.11,0,.39.39,0,0,0,.15-.16c.08-.14.08-.28,0-.31Z"/><ellipse cx="56.18" cy="17.45" rx="0.28" ry="0.17" transform="translate(12.98 57.38) rotate(-60)"/><ellipse cx="56.4" cy="17.89" rx="0.28" ry="0.17" transform="translate(12.7 57.79) rotate(-60)"/><ellipse cx="56.16" cy="18.5" rx="0.28" ry="0.17" transform="translate(12.05 57.89) rotate(-60)"/><ellipse cx="55.63" cy="18.87" rx="0.28" ry="0.17" transform="matrix(0.5, -0.87, 0.87, 0.5, 11.47, 57.62)"/><ellipse cx="55.27" cy="18.65" rx="0.28" ry="0.17" transform="translate(11.49 57.19) rotate(-60)"/><ellipse cx="55.24" cy="18.07" rx="0.28" ry="0.17" transform="translate(11.97 56.88) rotate(-60)"/><ellipse cx="55.63" cy="17.57" rx="0.28" ry="0.17" transform="translate(12.6 56.96) rotate(-60)"/><path class="cls-5" d="M51.87,11.61c.46.68.06,1.7-.88,2.27l-1.54.92c-.94.57-1.71.28-1.71-.64a3.74,3.74,0,0,1,1.64-2.73A1.84,1.84,0,0,1,51.87,11.61Z"/><path d="M48,15.67a.37.37,0,0,1-.18-.05.44.44,0,0,1-.19-.41v-2.1a1.36,1.36,0,0,1,.56-1l2.25-1.44a.72.72,0,0,1,1,.2l1,1.45a.65.65,0,0,1,.1.52.68.68,0,0,1-.31.43l-3.9,2.34A.57.57,0,0,1,48,15.67Zm2.82-5a.54.54,0,0,0-.3.08L48.3,12.22a1.19,1.19,0,0,0-.49.89v2.1a.25.25,0,0,0,.42.24l3.9-2.35a.49.49,0,0,0,.16-.72l-1-1.45A.57.57,0,0,0,50.85,10.69Z"/><path d="M47.08,23.19a.33.33,0,0,1-.15,0c-.08,0-.16-.14-.16-.35V12.51a1.27,1.27,0,0,1,.56-.92l3.46-2c.39-.2.58,0,.64.09l2.38,2.51,4.09-.57a.64.64,0,0,1,.53.16.66.66,0,0,1,.23.51l0,2.44v2.08l-.64.36a.28.28,0,0,1-.32,0,.29.29,0,0,1-.13-.28V16h0a1.33,1.33,0,0,0-.64-.9,1.93,1.93,0,0,0-1.74.37A5.08,5.08,0,0,0,53,19.63v.09l-5.67,3.4A.56.56,0,0,1,47.08,23.19Zm4-13.4a.33.33,0,0,0-.16.05l-3.46,2a1,1,0,0,0-.4.65V22.8a.28.28,0,0,0,0,.08l.09,0,5.45-3.26-.39-.6,0-.37a5.44,5.44,0,0,1,3-4.73,2.63,2.63,0,0,1,2.3-.45,1.58,1.58,0,0,1,.76.62l0-1.81a.36.36,0,0,0-.12-.27.34.34,0,0,0-.29-.08l-4.25.59L51.17,9.83A.07.07,0,0,0,51.1,9.79Zm1.46,9.13.16.23A5.11,5.11,0,0,1,55,15.24a2.19,2.19,0,0,1,2-.38A1.65,1.65,0,0,1,57.86,16v.86l.47-.27V14.77h0v0a1.55,1.55,0,0,0-.86-1,2.33,2.33,0,0,0-2,.43,5.18,5.18,0,0,0-2.83,4.5Z"/><line class="cls-6" x1="51.59" y1="11.26" x2="51.59" y2="13.42"/><rect x="51.51" y="11.26" width="0.16" height="2.16"/><line class="cls-7" x1="52.36" y1="18.78" x2="47.04" y2="21.95"/><rect x="46.61" y="20.29" width="6.19" height="0.16" transform="matrix(0.86, -0.51, 0.51, 0.86, -3.42, 28.29)"/><ellipse class="cls-3" cx="45.92" cy="24.04" rx="2.3" ry="1.41" transform="matrix(0.5, -0.87, 0.87, 0.5, 2.14, 51.78)"/><path d="M45.25,26.31a1.09,1.09,0,0,1-.56-.15c-.76-.44-.82-1.71-.13-2.9h0A3.24,3.24,0,0,1,45.79,22a1.23,1.23,0,0,1,2,1.13,3.38,3.38,0,0,1-.48,1.69A2.63,2.63,0,0,1,45.25,26.31Zm-.42-2.9c-.58,1-.58,2.14,0,2.48s1.57-.2,2.16-1.22a3.1,3.1,0,0,0,.44-1.54,1.11,1.11,0,0,0-.45-.95,1.06,1.06,0,0,0-1.05.09,2.9,2.9,0,0,0-1.11,1.14Z"/><path d="M47.18,22h0l-1.11-.73c-.73-.42-1.87.17-2.53,1.33s-.62,2.44.1,2.86l1,.64.14.09a1.08,1.08,0,0,0,.53.14,1.66,1.66,0,0,0,.79-.22,3.24,3.24,0,0,0,1.21-1.25,3.2,3.2,0,0,0,.47-1.68A1.32,1.32,0,0,0,47.18,22Z"/><ellipse class="cls-3" cx="45.92" cy="24.04" rx="1.62" ry="0.99" transform="translate(2.14 51.78) rotate(-60)"/><path d="M45.44,25.6a.66.66,0,0,1-.37-.1.9.9,0,0,1-.41-.82A2.35,2.35,0,0,1,45,23.5c.47-.81,1.26-1.22,1.77-.93s.55,1.19.08,2A1.82,1.82,0,0,1,45.44,25.6Zm1-3a1.71,1.71,0,0,0-1.27.95,2.11,2.11,0,0,0-.31,1.09.79.79,0,0,0,.34.7c.43.25,1.13-.14,1.56-.87s.41-1.54,0-1.79A.51.51,0,0,0,46.39,22.63Z"/><ellipse class="cls-4" cx="45.91" cy="24.05" rx="1.58" ry="0.97" transform="translate(2.13 51.78) rotate(-60)"/><path d="M45.44,25.58a.65.65,0,0,1-.36-.1c-.5-.29-.54-1.17-.08-2s1.24-1.2,1.74-.91a.9.9,0,0,1,.4.81,2.23,2.23,0,0,1-.32,1.15A1.81,1.81,0,0,1,45.44,25.58Zm.93-2.91a1.66,1.66,0,0,0-1.23.93c-.42.72-.41,1.5,0,1.75s1.11-.14,1.53-.86a2.1,2.1,0,0,0,.3-1.07.78.78,0,0,0-.33-.68A.54.54,0,0,0,46.37,22.67Z"/><ellipse cx="45.92" cy="24.04" rx="0.36" ry="0.22" transform="matrix(0.5, -0.87, 0.87, 0.5, 2.14, 51.78)"/><path class="cls-3" d="M45.81,24.44a.2.2,0,0,1-.11,0,.24.24,0,0,1-.12-.23.46.46,0,0,1,.08-.29h0a.5.5,0,0,1,.29-.25.22.22,0,0,1,.18,0c.15.09.16.32,0,.53a.53.53,0,0,1-.21.21A.28.28,0,0,1,45.81,24.44Zm.21-.65h0a.38.38,0,0,0-.2.18h0a.42.42,0,0,0-.06.21.11.11,0,0,0,.05.1.15.15,0,0,0,.11,0,.47.47,0,0,0,.15-.16c.08-.14.07-.28,0-.31Z"/><ellipse cx="46.3" cy="23.33" rx="0.28" ry="0.17" transform="matrix(0.5, -0.87, 0.87, 0.5, 2.95, 51.76)"/><ellipse cx="46.51" cy="23.77" rx="0.28" ry="0.17" transform="translate(2.67 52.17) rotate(-60)"/><ellipse cx="46.27" cy="24.38" rx="0.28" ry="0.17" transform="translate(2.02 52.27) rotate(-60)"/><ellipse cx="45.75" cy="24.76" rx="0.28" ry="0.17" transform="translate(1.44 52) rotate(-60)"/><ellipse cx="45.39" cy="24.53" rx="0.28" ry="0.17" transform="matrix(0.5, -0.87, 0.87, 0.5, 1.46, 51.57)"/><ellipse cx="45.36" cy="23.95" rx="0.28" ry="0.17" transform="translate(1.94 51.26) rotate(-60)"/><ellipse cx="45.75" cy="23.45" rx="0.28" ry="0.17" transform="translate(2.57 51.35) rotate(-60)"/><ellipse class="cls-3" cx="42.22" cy="26.07" rx="2.3" ry="1.41" transform="translate(-1.47 49.6) rotate(-60)"/><path d="M41.56,28.34A1.08,1.08,0,0,1,41,28.2c-.76-.44-.82-1.72-.13-2.91h0A3.39,3.39,0,0,1,42.1,24,1.35,1.35,0,0,1,43.45,24c.76.44.82,1.72.13,2.91A2.64,2.64,0,0,1,41.56,28.34Zm1.34-4.22a1.42,1.42,0,0,0-.65.18,2.93,2.93,0,0,0-1.11,1.15h0c-.58,1-.58,2.14,0,2.48s1.58-.22,2.16-1.23.57-2.14,0-2.48A.79.79,0,0,0,42.9,24.12Z"/><path d="M43.49,24h0l-1.11-.73c-.73-.43-1.87.17-2.54,1.33S39.23,27,40,27.46l1,.63a.71.71,0,0,0,.14.1,1.08,1.08,0,0,0,.53.14,1.68,1.68,0,0,0,.79-.23,3.28,3.28,0,0,0,1.21-1.24,3.2,3.2,0,0,0,.47-1.68A1.32,1.32,0,0,0,43.49,24Z"/><ellipse class="cls-3" cx="42.22" cy="26.07" rx="1.62" ry="0.99" transform="translate(-1.47 49.6) rotate(-60)"/><path d="M41.75,27.64a.69.69,0,0,1-.37-.1.92.92,0,0,1-.41-.82,2.23,2.23,0,0,1,.33-1.18h0c.46-.81,1.26-1.23,1.77-.93s.55,1.19.08,2a2.23,2.23,0,0,1-.85.87A1.11,1.11,0,0,1,41.75,27.64Zm-.32-2a2.11,2.11,0,0,0-.31,1.09.68.68,0,0,0,1.1.64,2.18,2.18,0,0,0,.8-.82c.42-.73.41-1.54,0-1.79s-1.13.14-1.56.88Z"/><ellipse class="cls-4" cx="42.22" cy="26.08" rx="1.58" ry="0.97" transform="matrix(0.5, -0.87, 0.87, 0.5, -1.48, 49.6)"/><path d="M41.76,27.62a.76.76,0,0,1-.37-.1c-.5-.29-.54-1.17-.08-2h0c.46-.8,1.24-1.21,1.74-.92s.54,1.17.08,2a2.21,2.21,0,0,1-.84.85A1.15,1.15,0,0,1,41.76,27.62Zm-.32-2c-.41.72-.4,1.51,0,1.76a.79.79,0,0,0,.75-.06,2.12,2.12,0,0,0,.77-.8c.42-.72.41-1.51,0-1.75s-1.11.14-1.53.85Z"/><ellipse cx="42.22" cy="26.07" rx="0.36" ry="0.22" transform="matrix(0.5, -0.87, 0.87, 0.5, -1.47, 49.6)"/><path class="cls-3" d="M42.12,26.48a.2.2,0,0,1-.11,0,.25.25,0,0,1-.12-.23.44.44,0,0,1,.08-.29h0c.12-.22.33-.31.47-.23s.16.31,0,.52a.5.5,0,0,1-.29.25Zm0-.48a.45.45,0,0,0-.06.21.16.16,0,0,0,0,.11h.07a.38.38,0,0,0,.2-.18c.08-.13.07-.27,0-.31s-.18,0-.26.17Z"/><ellipse cx="42.61" cy="25.36" rx="0.28" ry="0.17" transform="translate(-0.66 49.58) rotate(-60)"/><ellipse cx="42.82" cy="25.81" rx="0.28" ry="0.17" transform="translate(-0.94 49.99) rotate(-60)"/><ellipse cx="42.58" cy="26.42" rx="0.28" ry="0.17" transform="matrix(0.5, -0.87, 0.87, 0.5, -1.59, 50.09)"/><ellipse cx="42.06" cy="26.79" rx="0.28" ry="0.17" transform="matrix(0.5, -0.87, 0.87, 0.5, -2.17, 49.82)"/><ellipse cx="41.7" cy="26.56" rx="0.28" ry="0.17" transform="translate(-2.15 49.4) rotate(-60)"/><ellipse cx="41.67" cy="25.99" rx="0.28" ry="0.17" transform="translate(-1.67 49.08) rotate(-60)"/><ellipse cx="42.06" cy="25.48" rx="0.28" ry="0.17" transform="translate(-1.04 49.17) rotate(-60)"/><path class="cls-8" d="M45.94,23.22A1.09,1.09,0,0,0,47,24c.84,0,1.1-1.59,1.1-1.59Z"/><path d="M47,24.16a1.23,1.23,0,0,1-1.19-.9l0-.13,2.53-1-.05.27C48.22,22.51,47.94,24.16,47,24.16Zm-.84-.85a.89.89,0,0,0,.84.54c.48,0,.77-.71.89-1.19Z"/><path class="cls-8" d="M35.2.5c.11-.24.3-.39.43-.33s1.31.45,1.31,1.23.08,5,.08,5-.22.25-.48.25-.48-.11-.48-.25V2.18a.9.9,0,0,0-.32-.69L35.22,1C35.09,1,35.08.74,35.2.5Z"/><path d="M36.54,6.82c-.36,0-.64-.17-.64-.4V2.18a.8.8,0,0,0-.26-.58l-.51-.43c-.19-.11-.22-.42-.07-.74A.78.78,0,0,1,35.45,0a.29.29,0,0,1,.24,0S37.1.52,37.1,1.4s.07,5,.08,5C37.18,6.65,36.9,6.82,36.54,6.82Zm-1-6.51s-.15.08-.23.26a.42.42,0,0,0-.05.34h0l.52.45a1.05,1.05,0,0,1,.37.81V6.42a.49.49,0,0,0,.33.09.45.45,0,0,0,.33-.1s-.08-4.24-.08-5c0-.55-.88-1-1.22-1.09Z"/><ellipse class="cls-3" cx="21.02" cy="38.38" rx="2.3" ry="1.41" transform="translate(-22.73 37.39) rotate(-60)"/><path d="M20.34,40.65a1.15,1.15,0,0,1-.55-.14,1.37,1.37,0,0,1-.6-1.21,3.27,3.27,0,0,1,.47-1.7h0a3.31,3.31,0,0,1,1.23-1.26,1.35,1.35,0,0,1,1.35-.08c.76.44.82,1.72.13,2.91a3.31,3.31,0,0,1-1.23,1.26A1.67,1.67,0,0,1,20.34,40.65Zm-.41-2.89a2.92,2.92,0,0,0-.43,1.53.92.92,0,0,0,1.5.86A3,3,0,0,0,22.11,39c.58-1,.57-2.14,0-2.48a1.08,1.08,0,0,0-1.05.08,3,3,0,0,0-1.11,1.15Z"/><path d="M22.28,36.31h0l-1.11-.73c-.74-.43-1.87.17-2.54,1.33s-.62,2.44.1,2.86l1,.63.14.1a1.08,1.08,0,0,0,.53.14,1.65,1.65,0,0,0,.79-.23,3.23,3.23,0,0,0,1.22-1.24,3.4,3.4,0,0,0,.47-1.68A1.33,1.33,0,0,0,22.28,36.31Z"/><ellipse class="cls-3" cx="21.02" cy="38.38" rx="1.62" ry="0.99" transform="matrix(0.5, -0.87, 0.87, 0.5, -22.73, 37.39)"/><path d="M20.54,40a.79.79,0,0,1-.37-.1.94.94,0,0,1-.41-.83,2.29,2.29,0,0,1,.33-1.17h0c.47-.81,1.26-1.23,1.77-.93s.55,1.19.08,2a2.29,2.29,0,0,1-.85.87A1.11,1.11,0,0,1,20.54,40Zm.95-3a1.67,1.67,0,0,0-1.26,1h0A2.11,2.11,0,0,0,19.92,39a.78.78,0,0,0,.33.7.83.83,0,0,0,.77-.06,2.23,2.23,0,0,0,.79-.82c.42-.73.41-1.54,0-1.79A.61.61,0,0,0,21.49,37Z"/><ellipse class="cls-4" cx="21.01" cy="38.39" rx="1.58" ry="0.97" transform="translate(-22.74 37.39) rotate(-60)"/><path d="M20.54,39.92a.74.74,0,0,1-.36-.09.9.9,0,0,1-.4-.81,2.28,2.28,0,0,1,.32-1.15h0c.46-.8,1.24-1.21,1.74-.92s.54,1.17.08,2A1.79,1.79,0,0,1,20.54,39.92Zm-.3-2a2.06,2.06,0,0,0-.3,1.08.75.75,0,0,0,.32.68c.43.24,1.11-.14,1.53-.86s.4-1.51,0-1.75-1.12.13-1.53.85Z"/><ellipse cx="21.02" cy="38.38" rx="0.36" ry="0.22" transform="matrix(0.5, -0.87, 0.87, 0.5, -22.73, 37.39)"/><path class="cls-3" d="M20.91,38.79a.2.2,0,0,1-.11,0,.25.25,0,0,1-.11-.15.51.51,0,0,1,.07-.37h0c.12-.22.33-.32.47-.23a.27.27,0,0,1,.13.23.55.55,0,0,1-.09.29.5.5,0,0,1-.29.25Zm.21-.66a.32.32,0,0,0-.22.18h0a.33.33,0,0,0-.06.26.09.09,0,0,0,0,.06h.06a.38.38,0,0,0,.2-.18.42.42,0,0,0,.06-.21.13.13,0,0,0,0-.1Z"/><ellipse cx="21.4" cy="37.67" rx="0.28" ry="0.17" transform="translate(-21.93 37.37) rotate(-60)"/><ellipse cx="21.62" cy="38.12" rx="0.28" ry="0.17" transform="translate(-22.2 37.78) rotate(-60)"/><ellipse cx="21.38" cy="38.73" rx="0.28" ry="0.17" transform="matrix(0.5, -0.87, 0.87, 0.5, -22.85, 37.88)"/><ellipse cx="20.85" cy="39.1" rx="0.28" ry="0.17" transform="translate(-23.44 37.61) rotate(-60)"/><ellipse cx="20.49" cy="38.87" rx="0.28" ry="0.17" transform="translate(-23.42 37.18) rotate(-60)"/><ellipse cx="20.46" cy="38.29" rx="0.28" ry="0.17" transform="translate(-22.93 36.87) rotate(-60)"/><ellipse cx="20.85" cy="37.79" rx="0.28" ry="0.17" transform="translate(-22.3 36.96) rotate(-60)"/><ellipse class="cls-3" cx="16.8" cy="40.73" rx="2.3" ry="1.41" transform="translate(-26.87 34.92) rotate(-60)"/><path d="M16.13,43a1.08,1.08,0,0,1-.55-.15c-.76-.44-.82-1.71-.13-2.9h0a3.18,3.18,0,0,1,1.23-1.26,1.22,1.22,0,0,1,1.95,1.13,3.24,3.24,0,0,1-.47,1.69A2.64,2.64,0,0,1,16.13,43Zm-.41-2.9c-.59,1-.58,2.14,0,2.49s1.58-.23,2.16-1.23a3,3,0,0,0,.43-1.53,1.07,1.07,0,0,0-.45-1,1,1,0,0,0-1,.09,2.9,2.9,0,0,0-1.11,1.14Z"/><path d="M18.07,38.65h0L17,37.92c-.73-.42-1.87.18-2.54,1.33s-.61,2.44.11,2.86l1,.64.13.09a1.11,1.11,0,0,0,.54.14,1.6,1.6,0,0,0,.78-.22,3.26,3.26,0,0,0,1.22-1.25,3.18,3.18,0,0,0,.47-1.68A1.33,1.33,0,0,0,18.07,38.65Z"/><ellipse class="cls-3" cx="16.8" cy="40.73" rx="1.62" ry="0.99" transform="matrix(0.5, -0.87, 0.87, 0.5, -26.87, 34.92)"/><path d="M16.33,42.29A.75.75,0,0,1,16,42.2a.92.92,0,0,1-.41-.83,2.25,2.25,0,0,1,.33-1.18h0c.46-.8,1.26-1.22,1.77-.93s.55,1.2.08,2a2.33,2.33,0,0,1-.85.88A1.2,1.2,0,0,1,16.33,42.29Zm.94-3a1.71,1.71,0,0,0-1.26,1h0a2.12,2.12,0,0,0-.31,1.1.79.79,0,0,0,.33.69A.77.77,0,0,0,16.8,42a2.06,2.06,0,0,0,.79-.81c.43-.74.42-1.54,0-1.79A.61.61,0,0,0,17.27,39.32Z"/><ellipse class="cls-4" cx="16.8" cy="40.74" rx="1.58" ry="0.97" transform="matrix(0.5, -0.87, 0.87, 0.5, -26.88, 34.92)"/><path d="M16.33,42.27a.74.74,0,0,1-.36-.09.92.92,0,0,1-.4-.81,2.24,2.24,0,0,1,.32-1.16h0c.46-.79,1.24-1.2,1.74-.91a.9.9,0,0,1,.4.81,2.23,2.23,0,0,1-.32,1.15A1.82,1.82,0,0,1,16.33,42.27Zm-.31-2a2.1,2.1,0,0,0-.3,1.07.75.75,0,0,0,.33.68c.42.25,1.11-.14,1.52-.86a2,2,0,0,0,.31-1.07.78.78,0,0,0-.33-.68c-.43-.24-1.11.14-1.53.86Z"/><ellipse cx="16.8" cy="40.73" rx="0.36" ry="0.22" transform="translate(-26.87 34.92) rotate(-60)"/><path class="cls-3" d="M16.7,41.13l-.11,0c-.15-.09-.17-.32,0-.53h0a.53.53,0,0,1,.29-.25.28.28,0,0,1,.18,0,.28.28,0,0,1,.12.24.67.67,0,0,1-.08.29.48.48,0,0,1-.29.24Zm.21-.65h0a.38.38,0,0,0-.2.18h0c-.08.14-.07.28,0,.31h.07a.42.42,0,0,0,.2-.18.45.45,0,0,0,.06-.21c0-.05,0-.09,0-.1Z"/><ellipse cx="17.18" cy="40.02" rx="0.28" ry="0.17" transform="matrix(0.5, -0.87, 0.87, 0.5, -26.07, 34.89)"/><ellipse cx="17.4" cy="40.47" rx="0.28" ry="0.17" transform="translate(-26.34 35.3) rotate(-60)"/><ellipse cx="17.16" cy="41.08" rx="0.28" ry="0.17" transform="matrix(0.5, -0.87, 0.87, 0.5, -26.99, 35.4)"/><ellipse cx="16.64" cy="41.45" rx="0.28" ry="0.17" transform="matrix(0.5, -0.87, 0.87, 0.5, -27.57, 35.13)"/><ellipse cx="16.28" cy="41.22" rx="0.28" ry="0.17" transform="translate(-27.56 34.71) rotate(-60)"/><ellipse cx="16.25" cy="40.64" rx="0.28" ry="0.17" transform="translate(-27.07 34.39) rotate(-60)"/><ellipse cx="16.64" cy="40.14" rx="0.28" ry="0.17" transform="translate(-26.44 34.48) rotate(-60)"/><polygon class="cls-9" points="10.84 28.12 0.8 22.21 0.8 35.63 10.97 41.58 10.84 28.12"/><path d="M11.09,41.78.69,35.69V22l10.27,6ZM.92,35.56l9.93,5.82-.12-13.19L.92,22.42Z"/><polygon class="cls-10" points="45.94 21.52 10.89 41.66 10.89 28.12 45.9 7.84 45.94 21.52"/><path d="M10.77,41.87V28.05l.06,0L46,7.64l.05,14-.06,0ZM11,28.19V41.46l34.82-20,0-13.4Z"/><polygon class="cls-11" points="0.8 22.21 35.88 2.28 45.9 7.84 10.89 28.12 0.8 22.21"/><path d="M10.89,28.25l-10.32-6,.17-.1,35.14-20,0,0,10.2,5.67-.17.1ZM1,22.21,10.89,28,45.66,7.85,35.88,2.41Z"/><path class="cls-12" d="M11.43,41.67a.76.76,0,0,1-.76,0L1,36.05s-.13.13,0,0a1.28,1.28,0,0,1-.69-1l-.08.09A.83.83,0,0,0,0,35.7v.75a.27.27,0,0,0,.12.22l10.55,6.22a.76.76,0,0,0,.76,0l2-1.2.09-1.29Z"/><path class="cls-12" d="M10.29,40.41a.23.23,0,0,1-.11,0,.66.66,0,0,1-.2-.52v-.49c0-.11,0-.3.15-.37a.2.2,0,0,1,.21,0,.65.65,0,0,1,.2.52V40a.44.44,0,0,1-.15.37A.17.17,0,0,1,10.29,40.41Z"/><path class="cls-12" d="M10.29,38.81a.23.23,0,0,1-.11,0,.66.66,0,0,1-.2-.52v-.49c0-.11,0-.3.15-.37a.2.2,0,0,1,.21,0,.65.65,0,0,1,.2.52v.49a.44.44,0,0,1-.15.37A.17.17,0,0,1,10.29,38.81Z"/><path class="cls-12" d="M1.23,35.5a.23.23,0,0,1-.11,0A.65.65,0,0,1,.92,35v-.49c0-.11,0-.3.15-.37a.2.2,0,0,1,.21,0,.65.65,0,0,1,.2.52v.49c0,.1,0,.3-.15.37A.17.17,0,0,1,1.23,35.5Z"/><path class="cls-12" d="M1.23,33.9a.23.23,0,0,1-.11,0,.65.65,0,0,1-.2-.52v-.49c0-.11,0-.3.15-.37a.2.2,0,0,1,.21,0,.65.65,0,0,1,.2.52v.49a.44.44,0,0,1-.15.37A.17.17,0,0,1,1.23,33.9Z"/><path class="cls-12" d="M10.08,40.94H9.77V28.68L2.36,24.4V35.75l-.87.48V23.53l8.59,5ZM1.8,24.07V35.71l.25-.14V24.22Z"/><rect class="cls-12" x="5.91" y="33.38" width="0.31" height="9.03" transform="translate(-29.8 24.23) rotate(-60.05)"/><rect class="cls-12" x="5.98" y="32.85" width="0.16" height="9.03" transform="translate(-29.34 23.96) rotate(-60.05)"/><rect class="cls-12" x="5.98" y="32.48" width="0.16" height="9.03" transform="translate(-29.02 23.78) rotate(-60.05)"/><rect class="cls-12" x="5.98" y="32.11" width="0.16" height="9.03" transform="translate(-28.7 23.59) rotate(-60.05)"/><rect class="cls-12" x="5.98" y="31.75" width="0.16" height="9.03" transform="translate(-28.38 23.41) rotate(-60.05)"/><rect class="cls-12" x="5.98" y="31.38" width="0.16" height="9.03" transform="translate(-28.06 23.22) rotate(-60.05)"/><rect class="cls-12" x="5.98" y="31.01" width="0.16" height="9.03" transform="translate(-27.74 23.04) rotate(-60.05)"/><rect class="cls-12" x="5.98" y="30.64" width="0.16" height="9.03" transform="translate(-27.42 22.85) rotate(-60.05)"/><rect class="cls-12" x="5.98" y="30.27" width="0.16" height="9.03" transform="translate(-27.1 22.67) rotate(-60.05)"/><rect class="cls-12" x="5.98" y="29.9" width="0.16" height="9.03" transform="translate(-26.78 22.48) rotate(-60.05)"/><rect class="cls-12" x="5.98" y="29.53" width="0.16" height="9.03" transform="translate(-26.46 22.3) rotate(-60.05)"/><rect class="cls-12" x="5.98" y="29.16" width="0.16" height="9.03" transform="translate(-26.14 22.11) rotate(-60.05)"/><rect class="cls-12" x="5.98" y="28.79" width="0.16" height="9.03" transform="translate(-25.82 21.93) rotate(-60.05)"/><rect class="cls-12" x="5.98" y="28.42" width="0.16" height="9.03" transform="translate(-25.5 21.74) rotate(-60.05)"/><rect class="cls-12" x="5.98" y="28.06" width="0.16" height="9.03" transform="translate(-25.18 21.56) rotate(-60.05)"/><rect class="cls-12" x="5.98" y="27.69" width="0.16" height="9.03" transform="translate(-24.86 21.37) rotate(-60.05)"/><rect class="cls-12" x="5.98" y="27.32" width="0.16" height="9.03" transform="translate(-24.55 21.19) rotate(-60.05)"/><rect class="cls-12" x="5.98" y="26.97" width="0.16" height="9.03" transform="translate(-24.24 21.01) rotate(-60.05)"/><rect class="cls-12" x="5.98" y="26.6" width="0.16" height="9.03" transform="translate(-23.92 20.83) rotate(-60.05)"/><rect class="cls-12" x="5.98" y="26.23" width="0.16" height="9.03" transform="translate(-23.6 20.64) rotate(-60.05)"/><rect class="cls-12" x="5.98" y="25.86" width="0.16" height="9.03" transform="translate(-23.28 20.46) rotate(-60.05)"/><rect class="cls-12" x="5.98" y="25.49" width="0.16" height="9.03" transform="translate(-22.96 20.27) rotate(-60.05)"/><rect class="cls-12" x="5.98" y="25.12" width="0.16" height="9.03" transform="translate(-22.64 20.09) rotate(-60.05)"/><rect class="cls-12" x="5.98" y="24.75" width="0.16" height="9.03" transform="translate(-22.32 19.91) rotate(-60.05)"/><rect class="cls-12" x="5.98" y="24.39" width="0.16" height="9.03" transform="translate(-22 19.72) rotate(-60.05)"/><rect class="cls-12" x="5.98" y="24.02" width="0.16" height="9.03" transform="translate(-21.68 19.54) rotate(-60.05)"/><rect class="cls-12" x="5.98" y="23.65" width="0.16" height="9.03" transform="translate(-21.36 19.35) rotate(-60.05)"/><rect class="cls-12" x="5.98" y="23.28" width="0.16" height="9.03" transform="translate(-21.05 19.17) rotate(-60.05)"/><rect class="cls-12" x="5.98" y="22.94" width="0.16" height="9.03" transform="translate(-20.75 19) rotate(-60.05)"/><rect class="cls-12" x="5.98" y="22.57" width="0.16" height="9.03" transform="translate(-20.43 18.81) rotate(-60.05)"/><rect class="cls-12" x="5.98" y="22.21" width="0.16" height="9.03" transform="translate(-20.12 18.63) rotate(-60.05)"/><path class="cls-8" d="M46.46,14.3c.6,0,1.09.25,1.09.56v7.78c0,.3-.49.55-1.09.55s-1.09-.25-1.09-.55V14.86C45.37,14.55,45.86,14.3,46.46,14.3Z"/><path d="M46.46,23.35c-.71,0-1.24-.31-1.24-.71V14.86c0-.4.53-.71,1.24-.71s1.25.31,1.25.71v7.78C47.71,23,47.17,23.35,46.46,23.35Zm0-8.89c-.53,0-.93.21-.93.4v7.78c0,.19.4.4.93.4s.93-.21.93-.4V14.86C47.39,14.67,47,14.46,46.46,14.46Z"/><path d="M46.46,15.57c-.71,0-1.24-.3-1.24-.71s.53-.71,1.24-.71,1.25.31,1.25.71S47.17,15.57,46.46,15.57Zm0-1.11c-.53,0-.93.21-.93.4s.4.4.93.4.93-.21.93-.4S47,14.46,46.46,14.46Z"/><path d="M58.17,12,48.65,6.36a.54.54,0,0,0-.33-.06h0l-4.2-.74.06-.31L48.3,6a.89.89,0,0,1,.51.1l9.52,5.59Z"/><path d="M51.13,9.72,39.4,2.88a.58.58,0,0,0-.57.05l-.91.6-.17-.26.93-.6a.82.82,0,0,1,.87,0L51.29,9.46Z"/><path class="cls-13" d="M50.25,9l-4,2.39.09-1.6S48.85,6.91,50.25,9Z"/><path d="M46.23,11.5l-.08,0a.19.19,0,0,1-.07-.14l.09-1.6a.13.13,0,0,1,0-.1c.06-.06,1.5-1.66,2.87-1.57a1.64,1.64,0,0,1,1.29.8.14.14,0,0,1,0,.12.16.16,0,0,1-.08.1l-4,2.39Zm.24-1.69-.06,1.25L50,8.91a1.36,1.36,0,0,0-1-.54C47.94,8.3,46.7,9.57,46.47,9.81Z"/><path class="cls-8" d="M46.49,8.77h0a.46.46,0,0,1,.46.46v5.45a.32.32,0,0,1-.32.32h-.28a.32.32,0,0,1-.32-.32V9.24a.46.46,0,0,1,.46-.46Z"/><path d="M46.64,15.16h-.29a.47.47,0,0,1-.47-.47V9.24a.61.61,0,0,1,.61-.62.62.62,0,0,1,.62.62v5.45A.47.47,0,0,1,46.64,15.16Zm-.15-6.23a.31.31,0,0,0-.3.31v5.45a.16.16,0,0,0,.16.16h.29a.16.16,0,0,0,.16-.16V9.24A.31.31,0,0,0,46.49,8.93Z"/><circle class="cls-8" cx="46.49" cy="9.24" r="0.49"/><path d="M46.49,9.88a.65.65,0,1,1,.65-.64A.64.64,0,0,1,46.49,9.88Zm0-1a.34.34,0,1,0,.34.34A.34.34,0,0,0,46.49,8.9Z"/><path d="M50.26,9l0-.16L52,8.63a.16.16,0,0,0,0-.08.4.4,0,0,0-.27-.08c-.44,0-2.52-.25-2.61-.26l0-.15s2.16.25,2.59.25a.49.49,0,0,1,.38.14.34.34,0,0,1,.08.26v0Z"/><path class="cls-14" d="M32.5,19.3l2-1.17v4.51l1.68-1v1.6L32.5,25.41Zm3.21,3.53v-.22l-2.05,1.18V19.37l-.24.14v4.64Z"/><path class="cls-14" d="M36.61,18.54l-1.12.65v-1.6l4.26-2.46v1.6l-1.12.65v4.5l-2,1.16Zm1.13,3.12V17.24l1.31-.75v-.22l-2.86,1.64v.22l1.31-.75V21.8Z"/><path class="cls-14" d="M40.07,15l2-1.17v4.5l1.68-1v1.6l-3.72,2.14Zm3.21,3.53v-.22l-2.05,1.18V15l-.24.13v4.64Z"/></g></g></svg>