<svg xmlns="http://www.w3.org/2000/svg" xmlns:xlink="http://www.w3.org/1999/xlink" viewBox="0 0 58.66 50.76"><defs><style>.cls-1{fill:#fff;}.cls-2{fill:#d7d7d7;}.cls-3{fill:url(#New_Gradient_Swatch_3);}.cls-4{fill:url(#New_Gradient_Swatch_3-2);}.cls-5{fill:url(#New_Gradient_Swatch_3-3);}.cls-6{fill:#ccc;}.cls-7{fill:url(#New_Gradient_Swatch_3-4);}.cls-8{fill:url(#New_Gradient_Swatch_3-5);}.cls-9{fill:url(#New_Gradient_Swatch_3-6);}.cls-10{fill:#231f20;}.cls-11{fill:url(#New_Gradient_Swatch_3-7);}.cls-12{fill:url(#New_Gradient_Swatch_3-8);}.cls-13{fill:url(#New_Gradient_Swatch_3-9);}.cls-14{fill:url(#New_Gradient_Swatch_3-10);}.cls-15{fill:url(#New_Gradient_Swatch_3-11);}.cls-16{fill:url(#New_Gradient_Swatch_3-12);}.cls-17{fill:url(#New_Gradient_Swatch_3-13);}.cls-18{fill:url(#New_Gradient_Swatch_3-14);}.cls-19{fill:url(#New_Gradient_Swatch_3-15);}.cls-20{fill:url(#New_Gradient_Swatch_3-16);}.cls-21{fill:url(#New_Gradient_Swatch_3-17);}.cls-22{fill:#ed3224;}</style><linearGradient id="New_Gradient_Swatch_3" x1="12.84" y1="30.37" x2="23.12" y2="30.37" gradientUnits="userSpaceOnUse"><stop offset="0" stop-color="#fff"/><stop offset="1" stop-color="#d7d7d7"/></linearGradient><linearGradient id="New_Gradient_Swatch_3-2" x1="23.03" y1="22.53" x2="58.44" y2="22.53" xlink:href="#New_Gradient_Swatch_3"/><linearGradient id="New_Gradient_Swatch_3-3" x1="12.84" y1="13.11" x2="58.4" y2="13.11" xlink:href="#New_Gradient_Swatch_3"/><linearGradient id="New_Gradient_Swatch_3-4" x1="6.2" y1="33.94" x2="21.26" y2="33.94" xlink:href="#New_Gradient_Swatch_3"/><linearGradient id="New_Gradient_Swatch_3-5" x1="12.17" y1="33.38" x2="12.89" y2="37.41" xlink:href="#New_Gradient_Swatch_3"/><linearGradient id="New_Gradient_Swatch_3-6" x1="8.78" y1="31.95" x2="9.63" y2="36.45" xlink:href="#New_Gradient_Swatch_3"/><linearGradient id="New_Gradient_Swatch_3-7" x1="9.29" y1="45.79" x2="15.98" y2="45.79" xlink:href="#New_Gradient_Swatch_3"/><linearGradient id="New_Gradient_Swatch_3-8" x1="8.75" y1="38.98" x2="21.58" y2="38.98" xlink:href="#New_Gradient_Swatch_3"/><linearGradient id="New_Gradient_Swatch_3-9" x1="3.3" y1="39.11" x2="14.2" y2="39.11" xlink:href="#New_Gradient_Swatch_3"/><linearGradient id="New_Gradient_Swatch_3-10" x1="15.78" y1="36.49" x2="20.21" y2="36.49" xlink:href="#New_Gradient_Swatch_3"/><linearGradient id="New_Gradient_Swatch_3-11" x1="0.65" y1="44.57" x2="10.7" y2="44.57" xlink:href="#New_Gradient_Swatch_3"/><linearGradient id="New_Gradient_Swatch_3-12" x1="8.6" y1="47.45" x2="10.36" y2="47.45" gradientTransform="translate(40.88 10.63) rotate(51.76)" xlink:href="#New_Gradient_Swatch_3"/><linearGradient id="New_Gradient_Swatch_3-13" x1="1" y1="43.74" x2="2.76" y2="43.74" gradientTransform="translate(35.07 15.19) rotate(51.76)" xlink:href="#New_Gradient_Swatch_3"/><linearGradient id="New_Gradient_Swatch_3-14" x1="8.82" y1="30.33" x2="20.43" y2="30.33" xlink:href="#New_Gradient_Swatch_3"/><linearGradient id="New_Gradient_Swatch_3-15" x1="15.2" y1="32.03" x2="20.55" y2="32.03" xlink:href="#New_Gradient_Swatch_3"/><linearGradient id="New_Gradient_Swatch_3-16" x1="16.32" y1="37.9" x2="16.32" y2="37.9" xlink:href="#New_Gradient_Swatch_3"/><linearGradient id="New_Gradient_Swatch_3-17" x1="15.98" y1="43.54" x2="21.19" y2="43.54" xlink:href="#New_Gradient_Swatch_3"/></defs><g id="Layer_2" data-name="Layer 2"><g id="Layer_1-2" data-name="Layer 1"><ellipse class="cls-1" cx="25.74" cy="40.19" rx="2.32" ry="1.42" transform="translate(-21.93 42.38) rotate(-60)"/><path d="M25.06,42.48a1.09,1.09,0,0,1-.56-.15c-.77-.44-.82-1.73-.13-2.94h0a3.37,3.37,0,0,1,1.24-1.27,1.24,1.24,0,0,1,2,1.14A3.45,3.45,0,0,1,27.11,41a3.37,3.37,0,0,1-1.24,1.27A1.76,1.76,0,0,1,25.06,42.48Zm-.42-2.93c-.58,1-.58,2.17,0,2.51A1.08,1.08,0,0,0,25.72,42a3.28,3.28,0,0,0,1.56-2.7,1.09,1.09,0,0,0-.46-1,1.08,1.08,0,0,0-1.06.09,3.1,3.1,0,0,0-1.12,1.15Z"/><path d="M27,38.09h0l-1.12-.74c-.74-.43-1.89.17-2.56,1.34s-.63,2.47.1,2.89l1,.64.14.1a1.11,1.11,0,0,0,.54.14,1.63,1.63,0,0,0,.79-.22,3.58,3.58,0,0,0,1.71-3A1.37,1.37,0,0,0,27,38.09Z"/><ellipse class="cls-1" cx="25.74" cy="40.19" rx="1.63" ry="1" transform="translate(-21.93 42.38) rotate(-60)"/><path d="M25.26,41.76a.75.75,0,0,1-.37-.09,1,1,0,0,1-.42-.84,2.39,2.39,0,0,1,.33-1.19c.48-.81,1.28-1.23,1.8-.94s.55,1.21.08,2a2.37,2.37,0,0,1-.87.88A1.2,1.2,0,0,1,25.26,41.76Zm1-3a1.71,1.71,0,0,0-1.28,1,2.18,2.18,0,0,0-.31,1.11.81.81,0,0,0,.33.7.79.79,0,0,0,.78-.06,2.18,2.18,0,0,0,.8-.82c.43-.75.42-1.56,0-1.81A.61.61,0,0,0,26.22,38.76Z"/><ellipse class="cls-2" cx="25.74" cy="40.19" rx="1.6" ry="0.98" transform="translate(-21.94 42.38) rotate(-60)"/><path d="M25.26,41.74a.74.74,0,0,1-.36-.09.94.94,0,0,1-.41-.82,2.32,2.32,0,0,1,.33-1.17h0c.46-.8,1.25-1.21,1.76-.92a.92.92,0,0,1,.4.82,2.26,2.26,0,0,1-.33,1.16A1.81,1.81,0,0,1,25.26,41.74Zm-.31-2a2.16,2.16,0,0,0-.3,1.08.76.76,0,0,0,.33.69c.43.25,1.12-.14,1.54-.87a2.13,2.13,0,0,0,.3-1.08.74.74,0,0,0-.32-.68c-.43-.25-1.13.13-1.55.86Z"/><ellipse cx="25.74" cy="40.19" rx="0.36" ry="0.22" transform="translate(-21.93 42.38) rotate(-60)"/><path class="cls-1" d="M25.63,40.59l-.11,0a.4.4,0,0,1,0-.53h0a.46.46,0,0,1,.29-.25.25.25,0,0,1,.19,0c.15.09.16.32,0,.53a.56.56,0,0,1-.21.22A.34.34,0,0,1,25.63,40.59Zm.22-.66h0a.34.34,0,0,0-.19.17h0c-.08.14-.08.29,0,.32a.14.14,0,0,0,.11,0,.46.46,0,0,0,.15-.16c.09-.14.08-.29,0-.32Z"/><ellipse cx="26.13" cy="39.47" rx="0.29" ry="0.18" transform="translate(-21.12 42.36) rotate(-60)"/><ellipse cx="26.35" cy="39.92" rx="0.29" ry="0.18" transform="translate(-21.4 42.78) rotate(-60)"/><ellipse cx="26.1" cy="40.54" rx="0.29" ry="0.18" transform="translate(-22.05 42.87) rotate(-60)"/><ellipse cx="25.57" cy="40.91" rx="0.29" ry="0.18" transform="translate(-22.64 42.6) rotate(-60)"/><ellipse cx="25.21" cy="40.68" rx="0.29" ry="0.18" transform="translate(-22.62 42.17) rotate(-60)"/><ellipse cx="25.18" cy="40.09" rx="0.29" ry="0.18" transform="matrix(0.5, -0.87, 0.87, 0.5, -22.13, 41.85)"/><ellipse cx="25.57" cy="39.59" rx="0.29" ry="0.18" transform="translate(-21.5 41.94) rotate(-60)"/><ellipse class="cls-1" cx="29.47" cy="38.1" rx="2.32" ry="1.42" transform="translate(-18.27 44.57) rotate(-60)"/><path d="M28.79,40.4a1.09,1.09,0,0,1-.56-.15A1.36,1.36,0,0,1,27.62,39a3.35,3.35,0,0,1,.48-1.72h0A3.37,3.37,0,0,1,29.34,36,1.38,1.38,0,0,1,30.71,36c.77.44.82,1.73.13,2.94a3.44,3.44,0,0,1-1.24,1.27A1.76,1.76,0,0,1,28.79,40.4Zm-.42-2.93A3,3,0,0,0,27.93,39a1.07,1.07,0,0,0,.46,1,1.08,1.08,0,0,0,1.06-.09,3.1,3.1,0,0,0,1.12-1.15c.58-1,.58-2.17,0-2.51a1.08,1.08,0,0,0-1.06.09,3,3,0,0,0-1.12,1.15Z"/><path d="M30.75,36h0l-1.12-.74c-.74-.43-1.89.17-2.57,1.34s-.62,2.47.11,2.89l1,.64a.71.71,0,0,0,.14.1,1.09,1.09,0,0,0,.54.14,1.75,1.75,0,0,0,.79-.22,3.58,3.58,0,0,0,1.71-3A1.37,1.37,0,0,0,30.75,36Z"/><ellipse class="cls-1" cx="29.47" cy="38.1" rx="1.63" ry="1" transform="matrix(0.5, -0.87, 0.87, 0.5, -18.27, 44.57)"/><path d="M29,39.68a.82.82,0,0,1-.38-.09,1,1,0,0,1-.41-.84,2.39,2.39,0,0,1,.33-1.19h0c.47-.81,1.28-1.23,1.79-.94s.56,1.21.08,2a2.31,2.31,0,0,1-.86.89A1.2,1.2,0,0,1,29,39.68Zm1-3a1.71,1.71,0,0,0-1.28,1h0a2.18,2.18,0,0,0-.31,1.11.78.78,0,0,0,.33.7.79.79,0,0,0,.78-.06,2.25,2.25,0,0,0,.8-.82c.43-.75.42-1.56,0-1.81A.64.64,0,0,0,30,36.68Z"/><ellipse class="cls-2" cx="29.46" cy="38.11" rx="1.6" ry="0.98" transform="translate(-18.27 44.57) rotate(-60)"/><path d="M29,39.66a.74.74,0,0,1-.36-.09.92.92,0,0,1-.41-.82,2.29,2.29,0,0,1,.33-1.17h0c.46-.8,1.25-1.21,1.75-.92a.89.89,0,0,1,.41.82,2.26,2.26,0,0,1-.33,1.16A1.81,1.81,0,0,1,29,39.66Zm-.31-2a2.16,2.16,0,0,0-.3,1.08.76.76,0,0,0,.32.69c.43.25,1.13-.14,1.55-.87a2.13,2.13,0,0,0,.3-1.08.79.79,0,0,0-.32-.69c-.44-.24-1.13.14-1.55.87Z"/><ellipse cx="29.47" cy="38.1" rx="0.36" ry="0.22" transform="translate(-18.27 44.57) rotate(-60)"/><path class="cls-1" d="M29.36,38.51a.2.2,0,0,1-.11,0c-.15-.08-.16-.31,0-.53h0a.53.53,0,0,1,.29-.25.31.31,0,0,1,.19,0,.28.28,0,0,1,.12.24.63.63,0,0,1-.08.29.5.5,0,0,1-.29.25Zm.21-.66h0a.31.31,0,0,0-.19.17h0c-.09.14-.08.29,0,.32h.07a.37.37,0,0,0,.19-.17.37.37,0,0,0,.06-.22.11.11,0,0,0,0-.1Z"/><ellipse cx="29.85" cy="37.39" rx="0.29" ry="0.18" transform="translate(-17.45 44.55) rotate(-60)"/><ellipse cx="30.07" cy="37.84" rx="0.29" ry="0.18" transform="translate(-17.73 44.96) rotate(-60)"/><ellipse cx="29.83" cy="38.45" rx="0.29" ry="0.18" transform="translate(-18.39 45.06) rotate(-60)"/><ellipse cx="29.3" cy="38.83" rx="0.29" ry="0.18" transform="translate(-18.98 44.79) rotate(-60)"/><ellipse cx="28.94" cy="38.6" rx="0.29" ry="0.18" transform="translate(-18.96 44.36) rotate(-60)"/><ellipse cx="28.91" cy="38.01" rx="0.29" ry="0.18" transform="translate(-18.47 44.04) rotate(-60)"/><ellipse cx="29.3" cy="37.51" rx="0.29" ry="0.18" transform="translate(-17.83 44.13) rotate(-60)"/><ellipse class="cls-1" cx="54.61" cy="23.46" rx="2.32" ry="1.42" transform="translate(6.98 59.02) rotate(-60)"/><path d="M53.93,25.76a1.09,1.09,0,0,1-.56-.15,1.36,1.36,0,0,1-.61-1.22,3.26,3.26,0,0,1,.48-1.72h0a3.3,3.3,0,0,1,1.24-1.27,1.38,1.38,0,0,1,1.37-.08c.77.44.82,1.73.13,2.93a3.4,3.4,0,0,1-1.24,1.28A1.76,1.76,0,0,1,53.93,25.76Zm-.42-2.93a3,3,0,0,0-.44,1.55,1.07,1.07,0,0,0,.46,1,1.08,1.08,0,0,0,1.06-.09,3.1,3.1,0,0,0,1.12-1.15c.58-1,.58-2.17,0-2.51a1.08,1.08,0,0,0-1.06.09,3,3,0,0,0-1.12,1.15Z"/><path d="M55.89,21.37h0l-1.12-.74C54,20.2,52.88,20.8,52.2,22s-.62,2.47.11,2.89l1,.64a.71.71,0,0,0,.14.1,1.09,1.09,0,0,0,.54.14,1.75,1.75,0,0,0,.79-.22,3.58,3.58,0,0,0,1.71-3A1.36,1.36,0,0,0,55.89,21.37Z"/><ellipse class="cls-1" cx="54.61" cy="23.46" rx="1.63" ry="1" transform="matrix(0.5, -0.87, 0.87, 0.5, 6.98, 59.02)"/><path d="M54.13,25a.82.82,0,0,1-.38-.09c-.51-.3-.55-1.21-.08-2h0c.48-.81,1.28-1.23,1.79-.94s.56,1.21.08,2a2.31,2.31,0,0,1-.86.89A1.2,1.2,0,0,1,54.13,25Zm-.32-2c-.43.74-.42,1.56,0,1.81a.79.79,0,0,0,.78-.06,2.25,2.25,0,0,0,.8-.82c.43-.75.42-1.56,0-1.81s-1.15.14-1.58.88Z"/><ellipse class="cls-2" cx="54.6" cy="23.47" rx="1.6" ry="0.98" transform="translate(6.97 59.02) rotate(-60)"/><path d="M54.13,25a.74.74,0,0,1-.36-.09.92.92,0,0,1-.41-.82,2.29,2.29,0,0,1,.33-1.17,2.24,2.24,0,0,1,.84-.86.89.89,0,0,1,.91-.06c.51.29.55,1.18.08,2A1.81,1.81,0,0,1,54.13,25Zm.94-2.94a1,1,0,0,0-.46.13,2.2,2.2,0,0,0-.79.81h0a2.16,2.16,0,0,0-.3,1.08.76.76,0,0,0,.32.69c.44.25,1.13-.14,1.55-.87s.41-1.52,0-1.77A.6.6,0,0,0,55.07,22.08Z"/><ellipse cx="54.61" cy="23.46" rx="0.36" ry="0.22" transform="translate(6.98 59.02) rotate(-60)"/><path class="cls-1" d="M54.5,23.87a.2.2,0,0,1-.11,0,.24.24,0,0,1-.12-.23.49.49,0,0,1,.08-.3h0c.12-.21.33-.31.48-.23a.4.4,0,0,1,0,.53.52.52,0,0,1-.22.22A.28.28,0,0,1,54.5,23.87Zm0-.48a.45.45,0,0,0-.06.21c0,.06,0,.09,0,.11a.12.12,0,0,0,.11,0,.36.36,0,0,0,.15-.15c.08-.14.08-.29,0-.32s-.18,0-.27.17Z"/><ellipse cx="54.99" cy="22.75" rx="0.29" ry="0.18" transform="translate(7.8 59) rotate(-60)"/><ellipse cx="55.21" cy="23.2" rx="0.29" ry="0.18" transform="translate(7.52 59.42) rotate(-60)"/><ellipse cx="54.97" cy="23.81" rx="0.29" ry="0.18" transform="translate(6.86 59.51) rotate(-60)"/><ellipse cx="54.44" cy="24.19" rx="0.29" ry="0.18" transform="translate(6.27 59.24) rotate(-60)"/><ellipse cx="54.08" cy="23.96" rx="0.29" ry="0.18" transform="translate(6.29 58.81) rotate(-60)"/><ellipse cx="54.05" cy="23.37" rx="0.29" ry="0.18" transform="translate(6.78 58.49) rotate(-60)"/><ellipse cx="54.44" cy="22.87" rx="0.29" ry="0.18" transform="translate(7.42 58.58) rotate(-60)"/><ellipse class="cls-1" cx="50.49" cy="25.76" rx="2.32" ry="1.42" transform="matrix(0.5, -0.87, 0.87, 0.5, 2.94, 56.61)"/><path d="M49.81,28.05a1.19,1.19,0,0,1-.56-.14,1.4,1.4,0,0,1-.61-1.23A3.42,3.42,0,0,1,49.12,25h0a3.32,3.32,0,0,1,1.25-1.27,1.35,1.35,0,0,1,1.36-.09c.77.45.83,1.74.13,2.94a3.3,3.3,0,0,1-1.24,1.27A1.76,1.76,0,0,1,49.81,28.05Zm1.36-4.27a1.52,1.52,0,0,0-.66.19,3.06,3.06,0,0,0-1.12,1.16h0A3.1,3.1,0,0,0,49,26.67a1.09,1.09,0,0,0,.46,1,1.08,1.08,0,0,0,1.06-.08,3,3,0,0,0,1.12-1.16c.59-1,.58-2.16,0-2.51A.85.85,0,0,0,51.17,23.78Z"/><path d="M51.77,23.66h0l-1.12-.74c-.74-.42-1.89.18-2.56,1.35s-.63,2.46.11,2.89l1,.64a1.1,1.1,0,0,0,.14.09,1,1,0,0,0,.54.14,1.63,1.63,0,0,0,.79-.22,3.24,3.24,0,0,0,1.23-1.26,3.28,3.28,0,0,0,.48-1.69A1.34,1.34,0,0,0,51.77,23.66Z"/><ellipse class="cls-1" cx="50.49" cy="25.76" rx="1.63" ry="1" transform="translate(2.94 56.61) rotate(-60)"/><path d="M50,27.34a.66.66,0,0,1-.37-.1c-.52-.3-.56-1.2-.08-2h0a2.28,2.28,0,0,1,.86-.88.92.92,0,0,1,.93-.06.94.94,0,0,1,.41.83,2.36,2.36,0,0,1-.33,1.19A1.86,1.86,0,0,1,50,27.34Zm1-3a1,1,0,0,0-.48.13,2.21,2.21,0,0,0-.8.83h0c-.43.74-.42,1.55,0,1.81s1.15-.15,1.58-.89a2.14,2.14,0,0,0,.31-1.1.77.77,0,0,0-.33-.71A.6.6,0,0,0,51,24.34Z"/><ellipse class="cls-2" cx="50.49" cy="25.77" rx="1.6" ry="0.98" transform="translate(2.93 56.61) rotate(-60)"/><path d="M50,27.32a.76.76,0,0,1-.37-.1.94.94,0,0,1-.41-.82,2.49,2.49,0,0,1,1.17-2,1,1,0,0,1,.92-.06.93.93,0,0,1,.4.82,2.3,2.3,0,0,1-.32,1.17,2.34,2.34,0,0,1-.85.86A1.18,1.18,0,0,1,50,27.32ZM51,24.37a1,1,0,0,0-.47.14A2.27,2.27,0,0,0,49.4,26.4a.75.75,0,0,0,.33.68.78.78,0,0,0,.76,0,2.25,2.25,0,0,0,.78-.81,2.17,2.17,0,0,0,.31-1.08.79.79,0,0,0-.33-.69A.6.6,0,0,0,51,24.37Z"/><ellipse cx="50.49" cy="25.76" rx="0.36" ry="0.22" transform="translate(2.94 56.61) rotate(-60)"/><path class="cls-1" d="M50.39,26.17a.27.27,0,0,1-.12,0c-.14-.08-.16-.32,0-.53h0a.58.58,0,0,1,.22-.22.27.27,0,0,1,.26,0,.25.25,0,0,1,.11.15.54.54,0,0,1-.07.38A.47.47,0,0,1,50.39,26.17Zm0-.48c-.08.14-.08.28,0,.31s.18,0,.27-.17a.37.37,0,0,0,.05-.26s0-.05,0-.05-.06,0-.11,0a.39.39,0,0,0-.15.16Z"/><ellipse cx="50.88" cy="25.04" rx="0.29" ry="0.18" transform="translate(3.75 56.58) rotate(-60)"/><ellipse cx="51.1" cy="25.49" rx="0.29" ry="0.18" transform="translate(3.47 57) rotate(-60)"/><ellipse cx="50.85" cy="26.11" rx="0.29" ry="0.18" transform="matrix(0.5, -0.87, 0.87, 0.5, 2.82, 57.1)"/><ellipse cx="50.33" cy="26.48" rx="0.29" ry="0.18" transform="matrix(0.5, -0.87, 0.87, 0.5, 2.23, 56.83)"/><ellipse cx="49.96" cy="26.25" rx="0.29" ry="0.18" transform="translate(2.25 56.4) rotate(-60)"/><ellipse cx="49.93" cy="25.67" rx="0.29" ry="0.18" transform="translate(2.73 56.08) rotate(-60)"/><ellipse cx="50.33" cy="25.16" rx="0.29" ry="0.18" transform="matrix(0.5, -0.87, 0.87, 0.5, 3.37, 56.17)"/><polygon class="cls-3" points="22.99 26.08 12.84 21.05 12.84 34.95 23.12 39.68 22.99 26.08"/><path d="M23.24,39.87,12.73,35V20.87L23.1,26v.07ZM13,34.88l10,4.61-.13-13.33L13,21.24Z"/><polygon class="cls-4" points="58.44 19.11 23.03 39.77 23.03 26.08 58.4 5.29 58.44 19.11"/><path d="M22.91,40V26L23,26,58.52,5.1l0,14.08-.06,0Zm.24-13.8V39.58L58.33,19l0-13.55Z"/><polygon class="cls-5" points="12.84 21.05 48.39 0.13 58.4 5.29 23.03 26.08 12.84 21.05"/><path d="M23,26.21l-.05,0-10.4-5.13.21-.11L48.39,0l0,0L58.66,5.29l-.21.11Zm-9.92-5.16L23,26,58.14,5.29l-9.75-5Z"/><path class="cls-6" d="M11.63,21.94c.11-.24.3-.39.43-.33s1.33.46,1.33,1.24.08,5.07.08,5.07-.22.25-.49.25-.49-.11-.49-.25V23.64a.91.91,0,0,0-.32-.7l-.52-.45C11.52,22.43,11.51,22.19,11.63,21.94Z"/><path d="M13,28.33c-.37,0-.64-.17-.64-.41V23.64a.78.78,0,0,0-.27-.58l-.51-.44c-.19-.11-.22-.42-.08-.74a.82.82,0,0,1,.4-.42.28.28,0,0,1,.24,0c.05,0,1.43.5,1.43,1.38s.07,5,.07,5.07C13.62,28.16,13.35,28.33,13,28.33Zm-1-6.57s-.15.07-.23.25a.41.41,0,0,0,0,.34l0,0,.52.45a1.1,1.1,0,0,1,.38.82v4.28s.13.1.33.1.32-.07.33-.1-.08-4.29-.08-5.07c0-.55-.88-1-1.22-1.09Z"/><rect x="17.34" y="25.69" width="0.31" height="8.43" transform="translate(-17.09 32.02) rotate(-63.17)"/><path class="cls-7" d="M6.2,35.8l8,4.07,1.9-5a4.21,4.21,0,0,1,.59-.41c.18-.07,4.57-2.66,4.57-2.66L13.74,28l-5.29,3Z"/><path class="cls-8" d="M10.06,37a.11.11,0,0,0,0,.15L13.82,39a.11.11,0,0,0,.15,0l1.32-3.48a.1.1,0,0,0,0-.14l-3.58-1.76a.1.1,0,0,0-.14,0Z"/><path class="cls-9" d="M6.86,35.23a.12.12,0,0,0,0,.15L10,37a.1.1,0,0,0,.14,0l1.48-3.38a.1.1,0,0,0,0-.14l-3-1.5a.09.09,0,0,0-.14,0Z"/><path class="cls-10" d="M13.88,39.06l-.1,0-6.9-3.6a.18.18,0,0,1-.07-.25l1.58-3.28a.31.31,0,0,1,.11-.09.22.22,0,0,1,.14,0l6.65,3.4a.18.18,0,0,1,.07.25L14,39a.23.23,0,0,1-.12.1ZM8.54,32l-1.6,3.28s0,0,0,0l6.93,3.6,1.34-3.47s0,0,0-.06Z"/><rect class="cls-10" x="8.84" y="35.04" width="3.89" height="0.31" transform="translate(-25.76 30.83) rotate(-66.14)"/><ellipse class="cls-1" cx="13.51" cy="47.3" rx="2.32" ry="1.42" transform="translate(-34.21 35.35) rotate(-60)"/><path d="M12.82,49.6a1,1,0,0,1-.55-.15c-.77-.44-.83-1.73-.13-2.94h0c.69-1.2,1.84-1.8,2.61-1.35s.82,1.73.13,2.94a3.39,3.39,0,0,1-1.25,1.27A1.72,1.72,0,0,1,12.82,49.6Zm-.41-2.93c-.59,1-.58,2.17,0,2.51a1.08,1.08,0,0,0,1.06-.09,3,3,0,0,0,1.12-1.15c.59-1,.58-2.17,0-2.51s-1.6.23-2.18,1.24Z"/><path d="M14.79,45.21h0l-1.12-.74c-.74-.43-1.89.17-2.57,1.34s-.62,2.47.11,2.89l1,.64a.71.71,0,0,0,.14.1,1.09,1.09,0,0,0,.54.14,1.82,1.82,0,0,0,.79-.22A3.39,3.39,0,0,0,14.9,48.1a3.27,3.27,0,0,0,.47-1.7A1.34,1.34,0,0,0,14.79,45.21Z"/><ellipse class="cls-1" cx="13.51" cy="47.3" rx="1.63" ry="1" transform="translate(-34.21 35.35) rotate(-60)"/><path d="M13,48.88a.79.79,0,0,1-.38-.09.94.94,0,0,1-.41-.84,2.29,2.29,0,0,1,.33-1.19h0c.47-.81,1.28-1.23,1.79-.94s.55,1.21.08,2a2.28,2.28,0,0,1-.86.88A1.2,1.2,0,0,1,13,48.88Zm-.32-2A2.19,2.19,0,0,0,12.39,48a.69.69,0,0,0,1.12.64,2.25,2.25,0,0,0,.8-.82c.42-.75.41-1.56,0-1.81s-1.15.14-1.57.88Z"/><ellipse class="cls-2" cx="13.5" cy="47.31" rx="1.6" ry="0.98" transform="translate(-34.22 35.35) rotate(-60)"/><path d="M13,48.86a.78.78,0,0,1-.37-.09.93.93,0,0,1-.4-.82,2.3,2.3,0,0,1,.32-1.17h0c.47-.8,1.25-1.21,1.76-.92s.54,1.18.08,2A1.81,1.81,0,0,1,13,48.86Zm-.31-2a2.08,2.08,0,0,0-.31,1.08.79.79,0,0,0,.33.69c.43.25,1.12-.14,1.54-.87s.41-1.52,0-1.76-1.12.13-1.54.86Z"/><ellipse cx="13.51" cy="47.3" rx="0.36" ry="0.22" transform="translate(-34.21 35.35) rotate(-60)"/><path class="cls-1" d="M13.4,47.71l-.11,0a.29.29,0,0,1-.13-.24.55.55,0,0,1,.09-.29h0c.12-.22.33-.32.48-.24a.4.4,0,0,1,0,.53A.46.46,0,0,1,13.4,47.71Zm0-.48a.46.46,0,0,0-.06.22.13.13,0,0,0,0,.1c.06,0,.19,0,.27-.17s.08-.29,0-.32-.19,0-.27.17Z"/><ellipse cx="13.89" cy="46.59" rx="0.29" ry="0.18" transform="matrix(0.5, -0.87, 0.87, 0.5, -33.4, 35.32)"/><ellipse cx="14.11" cy="47.04" rx="0.29" ry="0.18" transform="translate(-33.68 35.74) rotate(-60)"/><ellipse cx="13.87" cy="47.66" rx="0.29" ry="0.18" transform="translate(-34.34 35.84) rotate(-60)"/><ellipse cx="13.34" cy="48.03" rx="0.29" ry="0.18" transform="translate(-34.92 35.57) rotate(-60)"/><ellipse cx="12.98" cy="47.8" rx="0.29" ry="0.18" transform="translate(-34.91 35.14) rotate(-60)"/><ellipse cx="12.94" cy="47.21" rx="0.29" ry="0.18" transform="translate(-34.42 34.82) rotate(-60)"/><ellipse cx="13.34" cy="46.71" rx="0.29" ry="0.18" transform="translate(-33.78 34.91) rotate(-60)"/><path class="cls-11" d="M10.67,49.23s.64-.17.67-.38,0-1.42,0-1.42a3.34,3.34,0,0,1,2.07-3.33c1.95-.92,2.12,1.91,2.12,1.91L16,45s0-3-2.9-2.58S9.29,46,9.29,46l1.06.89c.22.19.29,1.54.29,1.54Z"/><path class="cls-12" d="M8.75,42.48a1.86,1.86,0,0,1,.55,1.14V46a7.69,7.69,0,0,1,1-1.89,6.13,6.13,0,0,1,2.33-1.52,2.82,2.82,0,0,1,2.22.06A4.08,4.08,0,0,1,16,44.82a4.5,4.5,0,0,1-.44,1.34L21.34,43s.26-2.25.23-3,0-7.69,0-7.69-.2-.64-.46-.5l-4.78,2.82a2.35,2.35,0,0,0-.38.56c-.09.23-1.72,4.63-1.72,4.63Z"/><polygon class="cls-13" points="3.3 39.67 6.2 35.74 14.2 39.87 8.81 42.48 3.3 39.67"/><path d="M8.81,42.64a.08.08,0,0,1-.07,0L3.23,39.81a.16.16,0,0,1-.08-.1.18.18,0,0,1,0-.13l2.9-3.94a.16.16,0,0,1,.2,0l8,4.13a.17.17,0,0,1,.09.14.19.19,0,0,1-.09.14L8.88,42.63Zm-5.28-3,5.28,2.69,5-2.45-7.6-3.92Z"/><path class="cls-14" d="M15.93,37.71c-.41,1,.05,1.43,1,.9l1.52-.84a3.48,3.48,0,0,0,1.75-2.65c0-.93-.75-1.26-1.66-.73a6.54,6.54,0,0,0-2.41,2.81Z"/><path d="M15.54,39.44a.27.27,0,0,1-.17-.06c0-.05-.12-.17,0-.42l1.22-3.06a2,2,0,0,1,.84-.89l2.2-1.39a.51.51,0,0,1,.48,0,.5.5,0,0,1,.2.43v2.13a1.17,1.17,0,0,1-.61,1l-3.89,2.22A.63.63,0,0,1,15.54,39.44Zm4.32-5.72a.33.33,0,0,0-.18.05l-2.2,1.38a1.78,1.78,0,0,0-.76.8L15.5,39c-.06.14-.05.22,0,.24s.11,0,.24,0L19.61,37a1,1,0,0,0,.52-.83V34.05a.31.31,0,0,0-.13-.29A.21.21,0,0,0,19.86,33.72Z"/><path d="M10.66,49.41l-.13-.28.56-.26a.25.25,0,0,0,.13-.22V47.8S10.8,45,13.2,44a1.68,1.68,0,0,1,1.65,0,2.54,2.54,0,0,1,.83,1.88L21.12,43a.44.44,0,0,0,.24-.39V32.17a.16.16,0,0,0-.09-.15.15.15,0,0,0-.17,0l-4.6,2.71a.8.8,0,0,0-.37.42l-1.78,4.78-.3-.11L15.83,35a1.17,1.17,0,0,1,.53-.59L21,31.73a.48.48,0,0,1,.48,0,.49.49,0,0,1,.23.42V42.56a.73.73,0,0,1-.42.67l-5.88,3.14v-.25s0-1.38-.7-1.86a1.42,1.42,0,0,0-1.36,0c-2.17.9-1.8,3.39-1.79,3.5v.87a.57.57,0,0,1-.31.5Z"/><path d="M15.68,46.18l-.29-.12.43-1.1a3.17,3.17,0,0,0-1.23-2.29,2.5,2.5,0,0,0-2.22.09A4.36,4.36,0,0,0,9.52,46L9.21,46a4.71,4.71,0,0,1,3-3.5,2.77,2.77,0,0,1,2.49-.07A3.44,3.44,0,0,1,16.13,45v0Z"/><path d="M1,42.27.8,42l.58-.41a3.33,3.33,0,0,1,1.27-2.22,4.89,4.89,0,0,1,1-.45l.07.3a5.7,5.7,0,0,0-.94.41,3.06,3.06,0,0,0-1.14,2.07v.07Z"/><path d="M6.34,35.8l-.28-.13,2-4.2c.14-.3.37-.88.66-1l5.23-2.63.15.28-5.23,3a1.2,1.2,0,0,0-.53.54Z"/><path d="M6.63,40.89a.23.23,0,0,1-.19-.11.23.23,0,0,1,0-.31L9.15,37.3l.12.11L6.59,40.58a.09.09,0,0,0,.07.15l3.2-3.08.11.11-3.23,3.1A.2.2,0,0,1,6.63,40.89Z"/><path class="cls-15" d="M.9,44.59l9.27,4.76A.37.37,0,0,0,10.7,49V47.34a.61.61,0,0,0-.34-.56l-.61-.3a.83.83,0,0,1-.45-.73V43.9a2.06,2.06,0,0,0-1.13-1.84L3.78,39.85a.84.84,0,0,0-1.21.75v1.79a.3.3,0,0,1-.44.26l-.91-.49a.39.39,0,0,0-.57.35v1.66A.48.48,0,0,0,.9,44.59Z"/><path d="M10.34,49.54a.48.48,0,0,1-.24-.06L.83,44.73a.63.63,0,0,1-.34-.56V42.51a.54.54,0,0,1,.8-.48l.92.48a.12.12,0,0,0,.13,0,.14.14,0,0,0,.07-.12V40.6a1,1,0,0,1,.47-.85,1,1,0,0,1,1,0l4.39,2.21a2.21,2.21,0,0,1,1.22,2v1.85a.67.67,0,0,0,.36.59l.61.3a.78.78,0,0,1,.43.7V49a.55.55,0,0,1-.25.45A.54.54,0,0,1,10.34,49.54ZM1,44.45l9.26,4.76a.2.2,0,0,0,.2,0,.2.2,0,0,0,.1-.18V47.34a.46.46,0,0,0-.25-.42l-.61-.3a1,1,0,0,1-.53-.87V43.9A1.92,1.92,0,0,0,8.1,42.2L3.71,40a.68.68,0,0,0-1,.61v1.79a.47.47,0,0,1-.22.39.45.45,0,0,1-.45,0l-.91-.49a.21.21,0,0,0-.23,0,.21.21,0,0,0-.12.2v1.66a.31.31,0,0,0,.18.28Z"/><rect class="cls-10" x="5.57" y="39.29" width="0.16" height="5.8" transform="translate(-34.26 27.37) rotate(-62)"/><rect class="cls-10" x="5.57" y="39.81" width="0.16" height="5.8" transform="translate(-34.71 27.65) rotate(-62)"/><rect class="cls-10" x="5.57" y="40.33" width="0.16" height="5.8" transform="translate(-35.17 27.92) rotate(-62)"/><rect class="cls-10" x="5.57" y="40.84" width="0.16" height="5.8" transform="translate(-35.63 28.2) rotate(-62.01)"/><rect class="cls-10" x="5.57" y="41.36" width="0.16" height="5.8" transform="translate(-36.08 28.47) rotate(-62.01)"/><rect class="cls-10" x="5.57" y="41.87" width="0.16" height="5.8" transform="translate(-36.54 28.75) rotate(-62.01)"/><rect class="cls-10" x="5.57" y="42.39" width="0.16" height="5.8" transform="translate(-36.99 29.02) rotate(-62.01)"/><path class="cls-10" d="M10.76,49.57a.66.66,0,0,1-.68,0S2.83,46,.63,44.7A.82.82,0,0,1,.29,44c-.09,0-.07.07-.07.07a.74.74,0,0,0-.22.52v.67a.23.23,0,0,0,.11.2l10,5.24a.69.69,0,0,0,.68,0l.75-.41V49.12Z"/><path class="cls-10" d="M7.91,47.58a.67.67,0,0,1-.3-.08l-4-2.11a1.29,1.29,0,0,1-.64-1.06V41a.53.53,0,0,1,.24-.49.53.53,0,0,1,.54,0l4,2.11a1.27,1.27,0,0,1,.64,1.05V47a.55.55,0,0,1-.24.49A.4.4,0,0,1,7.91,47.58Zm-4.49-6.8a.11.11,0,0,0-.08,0c-.06,0-.09.11-.09.22v3.31a1,1,0,0,0,.47.78l4,2.11c.1.05.19.06.24,0s.09-.11.09-.22V43.71a1,1,0,0,0-.47-.78l-4-2.11A.37.37,0,0,0,3.42,40.78Z"/><rect class="cls-10" x="5.57" y="42.9" width="0.16" height="5.8" transform="translate(-37.45 29.29) rotate(-62.01)"/><ellipse class="cls-16" cx="9.48" cy="47.45" rx="0.51" ry="1.05" transform="translate(-33.66 25.53) rotate(-51.76)"/><path class="cls-10" d="M10.2,48.56a.36.36,0,0,1-.19-.05l-1.2-.62a.74.74,0,0,1-.36-.6V46.7a.37.37,0,0,1,.15-.32.36.36,0,0,1,.35,0l1.21.62a.74.74,0,0,1,.36.6v.6a.36.36,0,0,1-.16.31A.27.27,0,0,1,10.2,48.56ZM8.76,46.65s0,0,0,.05v.59a.4.4,0,0,0,.19.32l1.21.63h0a.1.1,0,0,0,0,0v-.6a.42.42,0,0,0-.2-.32l-1.2-.62-.05,0Z"/><polygon class="cls-1" points="9.11 47.64 9.79 47.07 10.01 47.2 9.39 47.81 9.11 47.64"/><ellipse class="cls-17" cx="1.88" cy="43.74" rx="0.51" ry="1.05" transform="translate(-33.64 18.14) rotate(-51.76)"/><path class="cls-10" d="M2.59,44.85a.41.41,0,0,1-.18-.05L1.2,44.17a.73.73,0,0,1-.36-.59V43A.35.35,0,0,1,1,42.67a.36.36,0,0,1,.35,0l1.2.63a.73.73,0,0,1,.36.59v.6a.33.33,0,0,1-.32.36ZM1.16,42.94a.06.06,0,0,0,0,0v.6a.41.41,0,0,0,.2.31l1.2.63H2.6s0,0,0,0v-.6a.4.4,0,0,0-.19-.31L1.2,43Z"/><polygon class="cls-1" points="1.5 43.92 2.19 43.36 2.41 43.48 1.78 44.09 1.5 43.92"/><path class="cls-18" d="M13.89,26.16a6.52,6.52,0,0,0-5.07,5.12l6.38,3.23a7.42,7.42,0,0,1,5.23-5Z"/><path d="M15.2,34.67l-.07,0L8.75,31.42a.16.16,0,0,1-.08-.17A6.73,6.73,0,0,1,13.86,26a.12.12,0,0,1,.1,0L20.5,29.4a.16.16,0,0,1,.09.16.15.15,0,0,1-.12.13,7.33,7.33,0,0,0-5.12,4.87.16.16,0,0,1-.08.1ZM9,31.19l6.12,3.1A7.72,7.72,0,0,1,20,29.49l-6.12-3.17a6.49,6.49,0,0,0-4,2.68A6.57,6.57,0,0,0,9,31.19Z"/><path class="cls-19" d="M15.2,34.51l5.35-3-.12-2S17,30,15.2,34.51Z"/><path d="M15.2,34.67a.14.14,0,0,1-.1,0,.17.17,0,0,1,0-.18c1.83-4.52,5.33-5.06,5.37-5.07a.17.17,0,0,1,.16.15l.11,2a.16.16,0,0,1-.08.15l-5.35,3Zm5.09-5a5.2,5.2,0,0,0-1.73.61,8.58,8.58,0,0,0-3,3.86l4.86-2.76Z"/><line class="cls-20" x1="16.32" y1="36.81" x2="16.32" y2="38.99"/><rect x="16.24" y="36.81" width="0.16" height="2.19"/><line class="cls-21" x1="15.98" y1="44.97" x2="21.19" y2="42.11"/><polygon points="16.01 45.05 15.95 44.9 21.16 42.04 21.23 42.18 16.01 45.05"/><path class="cls-6" d="M22.58,42s.48,3.79-3.35,2.37l1.52-.7c.5-.1.94-1,.85-1.67Z"/><path d="M20.74,44.8a4.56,4.56,0,0,1-1.57-.33l-.36-.13,1.91-.86c.4-.08.8-.92.73-1.5l0-.18h1.29l0,.14A3,3,0,0,1,22,44.42,1.93,1.93,0,0,1,20.74,44.8Zm-1.09-.49a2.27,2.27,0,0,0,2.11-.14,2.57,2.57,0,0,0,.67-2.06h-.66c0,.68-.42,1.55-1,1.67Z"/><path class="cls-6" d="M22.24,33.15c-.6,0-1.1.25-1.1.56v7.85c0,.32.5.57,1.1.57s1.1-.25,1.1-.57V33.71C23.34,33.4,22.85,33.15,22.24,33.15Z"/><path d="M22.24,42.28c-.71,0-1.25-.31-1.25-.72V33.71c0-.41.54-.72,1.25-.72s1.26.31,1.26.72v7.85C23.5,42,23,42.28,22.24,42.28Zm0-9c-.54,0-.94.22-.94.41v7.85c0,.2.4.41.94.41s1-.21,1-.41V33.71C23.19,33.52,22.78,33.3,22.24,33.3Z"/><path d="M22.24,34.43c-.71,0-1.25-.31-1.25-.72s.54-.72,1.25-.72,1.26.31,1.26.72S23,34.43,22.24,34.43Zm0-1.13c-.54,0-.94.22-.94.41s.4.41.94.41,1-.22,1-.41S22.78,33.3,22.24,33.3Z"/><path class="cls-6" d="M23.57,27.58c-.12-.24-.31-.39-.44-.33s-1.33.45-1.33,1.24-.08,5.07-.08,5.07.22.25.49.25.49-.11.49-.25V29.28a.93.93,0,0,1,.32-.7l.53-.45C23.67,28.07,23.68,27.83,23.57,27.58Z"/><path d="M22.21,34c-.36,0-.64-.18-.64-.41,0,0,.08-4.3.08-5.07S23,27.12,23.08,27.1c.2-.09.47.08.63.42a.9.9,0,0,1,.09.41.37.37,0,0,1-.16.33l-.52.44a.75.75,0,0,0-.26.58v4.28C22.86,33.79,22.58,34,22.21,34Zm1-6.58c-.35.12-1.23.55-1.23,1.1,0,.78-.08,5-.08,5.08a.57.57,0,0,0,.33.09.42.42,0,0,0,.33-.11V29.28a1.08,1.08,0,0,1,.38-.82l.56-.47a.5.5,0,0,0-.06-.34A.45.45,0,0,0,23.19,27.39Z"/><path class="cls-22" d="M25.08,27.64l2.08-1.23V31l1.73-1v1.64L25.08,33.9Zm3.28,3.57V31l-2.1,1.24V27.7l-.24.14V32.6Z"/><path class="cls-22" d="M29.29,26.8l-1.15.68V25.84l4.37-2.59V24.9l-1.16.68v4.61l-2.06,1.22ZM30.44,30V25.45l1.35-.79v-.23l-2.93,1.73v.23l1.34-.8v4.54Z"/><path class="cls-22" d="M32.84,23.06l2.08-1.23v4.62l1.73-1v1.64l-3.81,2.25Zm3.28,3.57V26.4L34,27.64V23.11l-.25.15V28Z"/></g></g></svg>