<svg xmlns="http://www.w3.org/2000/svg" viewBox="0 0 46.44 54.21"><defs><style>.cls-1{fill:#b44c93;}.cls-2{fill:#0071bc;}.cls-3{fill:#ef4a23;}.cls-4{fill:#f2f2f2;}</style></defs><g id="Layer_2" data-name="Layer 2"><g id="Layer_1-2" data-name="Layer 1"><polygon class="cls-1" points="0.5 22.81 37.99 0.87 38.02 26.79 0.51 48.88 0.5 22.81"/><path d="M37.49,1.74l0,24.77L1,48V23.1L37.49,1.74m1-1.74L0,22.52V49.76L38.52,27.08,38.49,0Z"/><polygon class="cls-2" points="3.29 24.3 40.78 2.36 40.81 28.28 3.31 50.37 3.29 24.3"/><path d="M40.28,3.23l0,24.76L3.8,49.49V24.58L40.28,3.23m1-1.74L2.79,24l0,27.23,38.5-22.68,0-27.07Z"/><polygon class="cls-3" points="5.87 25.78 43.36 3.84 43.39 29.76 5.88 51.85 5.87 25.78"/><path d="M42.86,4.71l0,24.77L6.38,51V26.07L42.86,4.71m1-1.74L5.37,25.49V52.73L43.89,30.05,43.86,3Z"/><polygon class="cls-4" points="8.42 27.27 45.91 5.33 45.94 31.25 8.43 53.34 8.42 27.27"/><path d="M45.41,6.2l0,24.76L8.93,52.47V27.55L45.41,6.2m1-1.74L7.92,27V54.21L46.44,31.53l0-27.07Z"/><path d="M14.58,31.3l-1.29-3h0c0,.53.05,1,.05,1.53V32l-.66.38V28l1-.6,1.24,2.84h0l1.28-4.29,1-.6v4.47l-.7.4V28c0-.22,0-.51,0-.87s0-.59,0-.67l0,0-1.34,4.5Z"/><path d="M21.93,22.59v2.89a2.37,2.37,0,0,1-.22,1,3.18,3.18,0,0,1-.61.93,4.26,4.26,0,0,1-1,.75,1.65,1.65,0,0,1-1.29.31c-.31-.12-.46-.43-.46-.95V24.63l.73-.42V27c0,.37.08.59.25.66s.44,0,.79-.19a1.86,1.86,0,0,0,1-1.68V23Z"/><path d="M23.07,26.4V21.93l.73-.42v3.84l1.89-1.09v.62Z"/><path d="M28,23.55l-.73.42V20.13L26,20.89v-.63l3.36-1.94V19L28,19.71Z"/><path d="M30,22.4V17.93l.73-.42V22Z"/><path d="M34.87,16.47a2.31,2.31,0,0,1-.46,1.34,4.07,4.07,0,0,1-1.31,1.12l-.46.27v1.67l-.73.42V16.83l1.29-.75a1.9,1.9,0,0,1,1.25-.38C34.73,15.77,34.87,16,34.87,16.47Zm-2.23,2.12.39-.23a2.63,2.63,0,0,0,.82-.67,1.22,1.22,0,0,0,.27-.76c0-.26-.08-.41-.24-.44a1.14,1.14,0,0,0-.73.23l-.51.3Z"/><path d="M35.76,19.07V14.6l.73-.42V18l1.89-1.09v.63Z"/><path d="M41.68,15.65l-2.53,1.46V12.65l2.53-1.46v.61l-1.8,1v1.22l1.68-1v.61l-1.68,1v1.4l1.8-1Z"/><path d="M17.8,34.67a3.62,3.62,0,0,1-.61,2,5,5,0,0,1-1.77,1.61L14.17,39V34.58l1.38-.8a2.07,2.07,0,0,1,1.66-.39C17.61,33.55,17.8,34,17.8,34.67Zm-.77.47c0-1.07-.5-1.32-1.5-.74l-.63.37V38l.52-.3A2.85,2.85,0,0,0,17,35.14Z"/><path d="M21.29,34.93l-2.53,1.46V31.92l2.53-1.45v.61l-1.8,1v1.22l1.69-1V33l-1.69,1v1.4l1.8-1Z"/><path d="M22.26,34.38V29.91l.73-.42v3.84l1.89-1.09v.62Z"/><path d="M25.65,32.42V28l.73-.42V32Z"/><path d="M30.1,25.38l.76-.44L29.3,30.31l-.77.45L27,27.19l.75-.44L28.65,29c.05.11.1.25.16.43a2.85,2.85,0,0,1,.1.4c0-.17.07-.37.12-.61s.1-.41.14-.53Z"/><path d="M34,27.61l-2.52,1.46V24.6L34,23.14v.62l-1.79,1V26l1.68-1v.61l-1.68,1V28L34,27Z"/><path d="M35.67,24.84v1.79l-.73.42V22.58l1.26-.72a2.08,2.08,0,0,1,1.28-.42c.28.06.42.3.42.74A2.45,2.45,0,0,1,37,23.87l1.26,1.25-.83.48-1.07-1.17Zm0-.6.51-.29a2.39,2.39,0,0,0,.74-.62,1.19,1.19,0,0,0,.23-.69c0-.26-.09-.39-.25-.4a1.43,1.43,0,0,0-.75.26l-.48.28Z"/><path d="M40.2,21.58l1.06-2.64.79-.46-1.48,3.59V23.8l-.74.43V22.52l-1.48-1.9.8-.46Z"/><path d="M14.11,46.59l-1.29-3,0,0c0,.53.05,1,.05,1.53v2.17l-.66.38V43.23l1-.59,1.24,2.84h0l1.28-4.29,1-.6v4.47l-.71.4V43.24c0-.22,0-.51,0-.87s0-.59,0-.67l0,0-1.34,4.49Z"/><path d="M20.48,42.91,18,44.37V39.9l2.53-1.46v.62l-1.8,1v1.21l1.69-1V41l-1.69,1v1.41l1.8-1Z"/><path d="M23,41.46l-.73.42V38L21,38.8v-.63l3.35-1.94v.63L23,37.62Z"/><path d="M28.51,38.27l-.73.43v-2l-2.06,1.19v2l-.73.42V35.84l.73-.42v1.83l2.06-1.19V34.23l.73-.42Z"/><path d="M33.65,33.06a3.94,3.94,0,0,1-.54,2,4.19,4.19,0,0,1-1.55,1.49c-.67.39-1.19.49-1.55.3s-.54-.66-.54-1.39a3.89,3.89,0,0,1,.54-2A4.3,4.3,0,0,1,31.57,32c.66-.38,1.18-.48,1.54-.29S33.65,32.33,33.65,33.06Zm-3.41,2c0,.55.11.91.34,1.06s.55.11,1-.14a2.45,2.45,0,0,0,1-1,2.91,2.91,0,0,0,.34-1.45c0-.54-.11-.9-.33-1s-.55-.11-1,.14a2.48,2.48,0,0,0-1,1A3,3,0,0,0,30.24,35Z"/><path d="M38.24,30.38a3.64,3.64,0,0,1-.61,2A5.14,5.14,0,0,1,35.86,34l-1.25.72V30.28L36,29.49a2.07,2.07,0,0,1,1.66-.39C38.05,29.26,38.24,29.68,38.24,30.38Zm-.77.47c0-1.07-.5-1.32-1.5-.74l-.63.36v3.24l.52-.3A2.83,2.83,0,0,0,37.47,30.85Z"/><path d="M41.78,29.4a2,2,0,0,1-.43,1.18,3.78,3.78,0,0,1-1.19,1,3.34,3.34,0,0,1-1.24.48V31.4a2.87,2.87,0,0,0,.65-.15,3.38,3.38,0,0,0,.64-.29,2,2,0,0,0,.64-.53.94.94,0,0,0,.2-.56c0-.17-.06-.28-.19-.32a2,2,0,0,0-.78,0,1.19,1.19,0,0,1-.86-.07A.69.69,0,0,1,39,28.9a1.87,1.87,0,0,1,.4-1.11,3.33,3.33,0,0,1,1.06-.93,3.54,3.54,0,0,1,1.28-.46l-.23.73a3,3,0,0,0-1.06.36,1.69,1.69,0,0,0-.54.47.9.9,0,0,0-.19.51.38.38,0,0,0,.08.26.38.38,0,0,0,.24.09,2.76,2.76,0,0,0,.6-.06,2.32,2.32,0,0,1,.72,0,.48.48,0,0,1,.34.21A.82.82,0,0,1,41.78,29.4Z"/></g></g></svg>