<svg xmlns="http://www.w3.org/2000/svg" xmlns:xlink="http://www.w3.org/1999/xlink" viewBox="0 0 40.11 40.11"><defs><style>.cls-1{fill:url(#New_Gradient_Swatch_3);}.cls-2{fill:url(#New_Gradient_Swatch_3-2);}.cls-3{fill:url(#New_Gradient_Swatch_3-3);}.cls-4,.cls-6{fill:#fff;}.cls-10,.cls-5,.cls-7{fill:none;}.cls-10,.cls-6,.cls-7{stroke:#000;stroke-miterlimit:10;}.cls-7{stroke-width:0.5px;}.cls-8{fill:url(#New_Gradient_Swatch_2);}.cls-9{fill:url(#New_Gradient_Swatch_2-2);}</style><linearGradient id="New_Gradient_Swatch_3" x1="0.5" y1="20.05" x2="39.61" y2="20.05" gradientUnits="userSpaceOnUse"><stop offset="0" stop-color="#fff"/><stop offset="1" stop-color="#d7d7d7"/></linearGradient><linearGradient id="New_Gradient_Swatch_3-2" x1="23.07" y1="20.53" x2="30.79" y2="27.01" xlink:href="#New_Gradient_Swatch_3"/><linearGradient id="New_Gradient_Swatch_3-3" x1="3835.17" y1="20.53" x2="3842.89" y2="27.01" gradientTransform="matrix(-1, 0, 0, 1, 3852.48, 0)" xlink:href="#New_Gradient_Swatch_3"/><linearGradient id="New_Gradient_Swatch_2" x1="12.46" y1="14.96" x2="27.84" y2="14.96" gradientUnits="userSpaceOnUse"><stop offset="0" stop-color="#fff" stop-opacity="0"/><stop offset="1" stop-opacity="0.15"/></linearGradient><linearGradient id="New_Gradient_Swatch_2-2" x1="4381.92" y1="3209.23" x2="4384.29" y2="3209.23" gradientTransform="translate(4409.78 3237.27) rotate(180)" xlink:href="#New_Gradient_Swatch_2"/></defs><g id="Layer_2" data-name="Layer 2"><g id="Layer_1-2" data-name="Layer 1"><circle class="cls-1" cx="20.05" cy="20.05" r="19.55"/><polygon class="cls-2" points="33.13 13.31 33.13 26.27 20.16 33.76 20.16 20.79 33.13 13.31"/><polygon class="cls-3" points="7.25 13.31 7.25 26.27 20.22 33.76 20.22 20.79 7.25 13.31"/><polygon class="cls-4" points="33.03 13.37 20.08 5.73 13.68 9.26 26.73 16.8 33.03 13.37"/><line class="cls-5" x1="26.72" y1="16.76" x2="26.72" y2="17.09"/><polyline class="cls-5" points="33.13 13.09 33.13 13.42 26.72 17.09 13.75 9.6 13.75 9.27"/><path d="M7.73,13.88l12,6.95v12.1L7.73,26V13.88M7.23,13v13.3l13,7.48V20.54L7.23,13Z"/><path d="M32.57,14.26V26.07L20.61,33V21.17l12-6.91m.5-.86-13,7.48v13l13-7.49v-13Z"/><polyline class="cls-6" points="20.16 20.8 26.58 17.13 26.58 16.8"/><polygon class="cls-4" points="7.62 12.98 13.58 9.6 26.14 16.82 20.18 20.23 7.62 12.98"/><path d="M13.58,9.88l12,6.94-5.45,3.12-12-7,5.45-3.1m0-.57L7.12,13l13.06,7.53,6.46-3.69L13.58,9.31Z"/><polyline class="cls-7" points="12.47 9.97 25.48 17.48 25.48 21.41"/><polygon class="cls-8" points="25.54 21.21 25.62 21.26 25.71 21.11 25.79 21.16 25.87 21.02 25.94 21.08 26.03 20.93 26.14 20.97 26.24 20.81 26.33 20.85 26.42 20.7 26.51 20.75 26.64 20.58 26.78 20.59 26.88 20.43 26.96 20.49 27.08 20.32 27.19 20.36 27.28 20.21 27.38 20.25 27.48 20.09 27.57 20.14 27.7 19.96 27.84 19.97 27.84 16 14.95 8.56 12.46 9.92 25.47 17.43 25.47 21.36 25.54 21.21"/><polyline class="cls-7" points="14.96 8.61 27.86 16.05 27.86 20.02"/><polyline class="cls-7" points="25.48 21.41 25.56 21.26 25.63 21.32 25.72 21.16 25.8 21.22 25.88 21.07 25.95 21.13 26.05 20.98 26.15 21.02 26.25 20.86 26.34 20.9 26.43 20.75 26.52 20.8 26.65 20.63 26.8 20.64 26.9 20.48 26.97 20.54 27.09 20.37 27.2 20.41 27.29 20.26 27.39 20.3 27.49 20.14 27.58 20.19 27.72 20.01 27.87 20.02"/><line class="cls-7" x1="27.85" y1="29.3" x2="27.85" y2="25.37"/><polyline class="cls-9" points="27.86 29.29 27.86 25.36 27.79 25.51 27.71 25.45 27.63 25.61 27.54 25.55 27.46 25.7 27.39 25.64 27.3 25.79 27.2 25.75 27.09 25.91 27 25.87 26.91 26.02 26.82 25.97 26.7 26.14 26.55 26.13 26.45 26.29 26.37 26.23 26.26 26.4 26.15 26.36 26.05 26.51 25.95 26.47 25.85 26.63 25.76 26.58 25.63 26.76 25.49 26.75 25.49 30.72"/><line class="cls-7" x1="25.48" y1="30.68" x2="25.48" y2="26.76"/><polyline class="cls-7" points="27.86 25.38 27.78 25.52 27.7 25.47 27.61 25.62 27.53 25.57 27.45 25.71 27.38 25.65 27.29 25.81 27.18 25.77 27.08 25.93 26.99 25.88 26.9 26.03 26.81 25.98 26.68 26.16 26.54 26.14 26.44 26.3 26.36 26.24 26.24 26.41 26.14 26.37 26.04 26.53 25.94 26.48 25.84 26.64 25.75 26.59 25.62 26.77 25.47 26.76"/><path d="M20,6.34l12,7-5.15,3-12.2-7,5.35-3m0-.57L13.68,9.31l13.21,7.63L33,13.37,20,5.77Z"/><circle class="cls-10" cx="20.05" cy="20.05" r="19.55"/></g></g></svg>