<svg xmlns="http://www.w3.org/2000/svg" xmlns:xlink="http://www.w3.org/1999/xlink" viewBox="0 0 39.11 29.44"><defs><style>.cls-1{fill:url(#New_Gradient_Swatch_3);}.cls-2{fill:#fff;}.cls-3{fill:#d7d7d7;}.cls-4{fill:#231f20;}.cls-5{fill:url(#New_Gradient_Swatch_3-2);}.cls-6{fill:url(#New_Gradient_Swatch_3-3);}.cls-7{fill:url(#New_Gradient_Swatch_3-4);}.cls-8{fill:#ed3224;}.cls-9{fill:url(#New_Gradient_Swatch_3-5);}</style><linearGradient id="New_Gradient_Swatch_3" x1="0.53" y1="14.28" x2="38.66" y2="14.28" gradientUnits="userSpaceOnUse"><stop offset="0" stop-color="#fff"/><stop offset="1" stop-color="#d7d7d7"/></linearGradient><linearGradient id="New_Gradient_Swatch_3-2" x1="8127.94" y1="-4750.91" x2="8127.94" y2="-4768.78" gradientTransform="matrix(-1, 1.18, 0, 1, 8153.38, -4803.2)" xlink:href="#New_Gradient_Swatch_3"/><linearGradient id="New_Gradient_Swatch_3-3" x1="8125.51" y1="-4756.11" x2="8125.51" y2="-4756.11" gradientTransform="matrix(-1, 1.18, 0, 1, 8153.38, -4803.2)" xlink:href="#New_Gradient_Swatch_3"/><linearGradient id="New_Gradient_Swatch_3-4" x1="8125.71" y1="-4756.17" x2="8125.71" y2="-4756.17" gradientTransform="matrix(-1, 1.18, 0, 1, 8153.38, -4803.2)" xlink:href="#New_Gradient_Swatch_3"/><linearGradient id="New_Gradient_Swatch_3-5" x1="8119.88" y1="-4755.76" x2="8119.58" y2="-4752.69" gradientTransform="matrix(-1, 1.18, 0, 1, 8153.38, -4803.2)" xlink:href="#New_Gradient_Swatch_3"/></defs><g id="Layer_2" data-name="Layer 2"><g id="Layer_1-2" data-name="Layer 1"><path class="cls-1" d="M38.66,7.91,27.57,1.53s-.11-.39-.45-.34-2.18,1-2.35,1A1.45,1.45,0,0,1,23.88,2L20.24,0l-.79.39L1.09,11s-.56.33-.56,1.45,0,9.3,0,9.3l11.31,6.77V19.42a1.63,1.63,0,0,1,1-1.68L31.49,6.91a2.24,2.24,0,0,1,.73.28C32.61,7.41,35.8,9,35.8,9l.62-.16C36.64,8.81,38.66,7.91,38.66,7.91Z"/><ellipse class="cls-2" cx="35.28" cy="15.31" rx="2.61" ry="1.6" transform="matrix(0.5, -0.87, 0.87, 0.5, 4.38, 38.21)"/><path d="M34.52,17.81a1.15,1.15,0,0,1-.59-.15c-.82-.47-.87-1.91-.12-3.21h0a3.62,3.62,0,0,1,1.37-1.4A1.46,1.46,0,0,1,36.64,13a1.49,1.49,0,0,1,.65,1.31,4,4,0,0,1-1.9,3.29A1.81,1.81,0,0,1,34.52,17.81ZM36.05,13a1.63,1.63,0,0,0-.78.22A3.52,3.52,0,0,0,34,14.56h0c-.69,1.2-.67,2.51.05,2.92a1.28,1.28,0,0,0,1.26-.09,3.44,3.44,0,0,0,1.29-1.33,3.54,3.54,0,0,0,.51-1.78,1.3,1.3,0,0,0-.55-1.15A1,1,0,0,0,36.05,13Z"/><path d="M36.72,13h0l-1.26-.84c-.83-.48-2.13.2-2.88,1.52s-.71,2.77.12,3.25l1.11.72.15.11a1.18,1.18,0,0,0,.61.16,2,2,0,0,0,.9-.25,3.77,3.77,0,0,0,1.38-1.42,3.83,3.83,0,0,0,.54-1.91A1.52,1.52,0,0,0,36.72,13Z"/><ellipse class="cls-2" cx="35.28" cy="15.31" rx="1.84" ry="1.13" transform="matrix(0.5, -0.87, 0.87, 0.5, 4.38, 38.21)"/><path d="M34.74,17a.77.77,0,0,1-.4-.1,1,1,0,0,1-.45-.91,2.56,2.56,0,0,1,.37-1.31c.52-.9,1.4-1.37,2-1.05a1,1,0,0,1,.44.91,2.6,2.6,0,0,1-.37,1.32A2.07,2.07,0,0,1,34.74,17Zm1.08-3.37a1.94,1.94,0,0,0-1.47,1.1A2.48,2.48,0,0,0,34,16a.94.94,0,0,0,.4.83c.51.29,1.33-.16,1.83-1a2.49,2.49,0,0,0,.35-1.27.92.92,0,0,0-.39-.82A.74.74,0,0,0,35.82,13.67Z"/><ellipse class="cls-3" cx="35.28" cy="15.32" rx="1.8" ry="1.11" transform="translate(4.37 38.21) rotate(-60)"/><path d="M34.74,17a.76.76,0,0,1-.39-.1,1,1,0,0,1-.44-.89,2.47,2.47,0,0,1,.37-1.29h0c.51-.89,1.37-1.35,1.92-1a1,1,0,0,1,.44.89,2.55,2.55,0,0,1-.36,1.29A2,2,0,0,1,34.74,17Zm-.38-2.23A2.49,2.49,0,0,0,34,16a.9.9,0,0,0,.39.8c.51.29,1.31-.15,1.79-1a2.36,2.36,0,0,0,.35-1.23.9.9,0,0,0-.39-.81c-.5-.29-1.3.15-1.79,1Z"/><ellipse cx="35.28" cy="15.31" rx="0.41" ry="0.25" transform="translate(4.38 38.21) rotate(-60)"/><path class="cls-2" d="M35.16,15.73a.23.23,0,0,1-.11,0,.24.24,0,0,1-.1-.15.57.57,0,0,1,.07-.39h0a.56.56,0,0,1,.23-.23.25.25,0,0,1,.26,0c.15.09.16.33,0,.55a.55.55,0,0,1-.31.26ZM35.4,15a.24.24,0,0,0-.1,0,.53.53,0,0,0-.19.2h0a.49.49,0,0,0-.07.32.16.16,0,0,0,.06.08.11.11,0,0,0,.11,0,.4.4,0,0,0,.24-.21c.1-.17.1-.36,0-.41Z"/><ellipse cx="35.72" cy="14.5" rx="0.32" ry="0.2" transform="translate(5.3 38.18) rotate(-60)"/><ellipse cx="35.96" cy="15.01" rx="0.32" ry="0.2" transform="translate(4.98 38.65) rotate(-60)"/><ellipse cx="35.69" cy="15.7" rx="0.32" ry="0.2" transform="matrix(0.5, -0.87, 0.87, 0.5, 4.25, 38.76)"/><ellipse cx="35.1" cy="16.12" rx="0.32" ry="0.2" transform="translate(3.59 38.46) rotate(-60)"/><ellipse cx="34.69" cy="15.86" rx="0.32" ry="0.2" transform="matrix(0.5, -0.87, 0.87, 0.5, 3.61, 37.97)"/><ellipse cx="34.65" cy="15.21" rx="0.32" ry="0.2" transform="matrix(0.5, -0.87, 0.87, 0.5, 4.16, 37.61)"/><ellipse cx="35.1" cy="14.64" rx="0.32" ry="0.2" transform="translate(4.87 37.71) rotate(-60)"/><ellipse class="cls-2" cx="19" cy="24.74" rx="2.61" ry="1.6" transform="matrix(0.5, -0.87, 0.87, 0.5, -11.93, 28.82)"/><path d="M18.23,27.25a1.09,1.09,0,0,1-.59-.16c-.82-.46-.87-1.9-.12-3.2h0c.75-1.29,2-2,2.83-1.49s.87,1.9.12,3.2A3.62,3.62,0,0,1,19.1,27,1.9,1.9,0,0,1,18.23,27.25ZM17.69,24c-.69,1.2-.67,2.52,0,2.93a1.28,1.28,0,0,0,1.27-.1A3.41,3.41,0,0,0,20.3,25.5c.69-1.2.67-2.52-.05-2.93s-1.86.22-2.56,1.42Z"/><path d="M20.44,22.39h0l-1.27-.84c-.83-.48-2.12.2-2.88,1.51s-.7,2.78.12,3.26l1.11.72a.91.91,0,0,0,.16.11,1.26,1.26,0,0,0,.61.16,1.87,1.87,0,0,0,.89-.26,3.67,3.67,0,0,0,1.38-1.41,3.83,3.83,0,0,0,.54-1.91A1.51,1.51,0,0,0,20.44,22.39Z"/><ellipse class="cls-2" cx="19" cy="24.74" rx="1.84" ry="1.13" transform="matrix(0.5, -0.87, 0.87, 0.5, -11.93, 28.82)"/><path d="M18.45,26.48a.79.79,0,0,1-.4-.1,1,1,0,0,1-.45-.91A2.56,2.56,0,0,1,18,24.16c.53-.91,1.41-1.37,2-1.05a1,1,0,0,1,.45.91A2.56,2.56,0,0,1,20,25.33,2.06,2.06,0,0,1,18.45,26.48Zm1.08-3.37a2,2,0,0,0-1.47,1.1,2.45,2.45,0,0,0-.36,1.26,1,1,0,0,0,.4.82c.52.3,1.34-.15,1.83-1A2.45,2.45,0,0,0,20.29,24a.93.93,0,0,0-.4-.82A.64.64,0,0,0,19.53,23.11Z"/><ellipse class="cls-3" cx="18.99" cy="24.75" rx="1.8" ry="1.11" transform="matrix(0.5, -0.87, 0.87, 0.5, -11.94, 28.82)"/><path d="M18.46,26.46a.79.79,0,0,1-.4-.1,1,1,0,0,1-.43-.89A2.46,2.46,0,0,1,18,24.18a2.41,2.41,0,0,1,.94-1,.88.88,0,0,1,1.42.82A2.46,2.46,0,0,1,20,25.33,2,2,0,0,1,18.46,26.46Zm1.06-3.31a1.2,1.2,0,0,0-.55.15,2.42,2.42,0,0,0-.89.93,2.33,2.33,0,0,0-.35,1.23.9.9,0,0,0,.38.81c.51.29,1.31-.15,1.79-1A2.39,2.39,0,0,0,20.25,24a.89.89,0,0,0-.38-.8A.7.7,0,0,0,19.52,23.15Z"/><ellipse cx="19" cy="24.74" rx="0.41" ry="0.25" transform="matrix(0.5, -0.87, 0.87, 0.5, -11.93, 28.82)"/><path class="cls-2" d="M18.88,25.17a.2.2,0,0,1-.11,0c-.15-.08-.16-.32,0-.54a.52.52,0,0,1,.3-.27.22.22,0,0,1,.18,0,.25.25,0,0,1,.12.23.61.61,0,0,1-.09.31.52.52,0,0,1-.22.24A.48.48,0,0,1,18.88,25.17Zm.23-.75h0a.47.47,0,0,0-.25.22c-.09.16-.1.35,0,.4s.12,0,.16,0a.53.53,0,0,0,.19-.2.47.47,0,0,0,.07-.25c0-.08,0-.13-.07-.15Z"/><ellipse cx="19.43" cy="23.94" rx="0.32" ry="0.2" transform="translate(-11.02 28.79) rotate(-60)"/><ellipse cx="19.68" cy="24.45" rx="0.32" ry="0.2" transform="translate(-11.33 29.26) rotate(-60)"/><ellipse cx="19.4" cy="25.14" rx="0.32" ry="0.2" transform="translate(-12.07 29.37) rotate(-60)"/><ellipse cx="18.81" cy="25.56" rx="0.32" ry="0.2" transform="translate(-12.73 29.07) rotate(-60)"/><ellipse cx="18.4" cy="25.3" rx="0.32" ry="0.2" transform="translate(-12.71 28.59) rotate(-60)"/><ellipse cx="18.36" cy="24.64" rx="0.32" ry="0.2" transform="translate(-12.16 28.22) rotate(-60)"/><ellipse cx="18.81" cy="24.07" rx="0.32" ry="0.2" transform="translate(-11.44 28.33) rotate(-60)"/><path class="cls-4" d="M11.55,27.15l-.11,0a.47.47,0,0,1-.19-.37v-.89a.23.23,0,0,1,.1-.21.21.21,0,0,1,.2,0,.47.47,0,0,1,.19.38v.88a.24.24,0,0,1-.1.21A.15.15,0,0,1,11.55,27.15Zm-.1-1.31v.91a.29.29,0,0,0,.09.19V26A.29.29,0,0,0,11.45,25.84Z"/><path class="cls-4" d="M11.55,25.29l-.11,0a.47.47,0,0,1-.19-.37V24a.22.22,0,0,1,.1-.21.21.21,0,0,1,.2,0,.47.47,0,0,1,.19.37v.89a.24.24,0,0,1-.1.21ZM11.45,24v.91a.29.29,0,0,0,.09.19v-.91A.29.29,0,0,0,11.45,24Z"/><path class="cls-4" d="M1,21.44l-.11,0A.47.47,0,0,1,.71,21v-.89a.22.22,0,0,1,.1-.21A.19.19,0,0,1,1,20a.45.45,0,0,1,.2.37v.89a.24.24,0,0,1-.1.21Zm-.1-1.31V21a.25.25,0,0,0,.09.19v-.91A.29.29,0,0,0,.91,20.13Z"/><path class="cls-4" d="M1,19.58l-.11,0a.47.47,0,0,1-.19-.38v-.88a.22.22,0,0,1,.1-.21.19.19,0,0,1,.19,0,.44.44,0,0,1,.2.37v.89a.25.25,0,0,1-.1.21Zm-.1-1.32v.91a.25.25,0,0,0,.09.2v-.91A.34.34,0,0,0,.91,18.26Z"/><path class="cls-5" d="M38.49,12.78l-1.09.74c-.32-.7-1.18-.85-2.2-.24a4.67,4.67,0,0,0-2.35,3.53l-1.26.73L20.75,24c0-.1,0-.35,0-.45,0-1.29-1.06-1.71-2.35-.93a5,5,0,0,0-2.35,3.76v.32l-3.84,2.22c-.22.13-.36-.08-.36-.33V18.83a1.46,1.46,0,0,1,.54-.94L31,7.09a1,1,0,0,1,.92-.15l3.65,2a.92.92,0,0,0,.88-.12l1.72-.76c.52-.28.83-.08.83.52v3.25A1.46,1.46,0,0,1,38.49,12.78Z"/><path class="cls-4" d="M12.1,29.06A.2.2,0,0,1,12,29a.45.45,0,0,1-.2-.43V18.83a1.53,1.53,0,0,1,.59-1L31,7a1,1,0,0,1,1-.15l3.65,2a.84.84,0,0,0,.78-.12L38.14,8c.35-.18.57-.14.69-.06s.28.25.28.68v3.25a1.61,1.61,0,0,1-.56,1l-1.19.8,0-.1a.93.93,0,0,0-.58-.52,1.88,1.88,0,0,0-1.48.32A4.56,4.56,0,0,0,33,16.81v.06l-1.31.75-11,6.57,0-.2c0-.09,0-.34,0-.44a1.2,1.2,0,0,0-.52-1.1,1.74,1.74,0,0,0-1.68.25,4.9,4.9,0,0,0-2.3,3.68v.37L12.28,29A.38.38,0,0,1,12.1,29.06ZM31.65,7a1.22,1.22,0,0,0-.59.19L12.46,18a1.37,1.37,0,0,0-.49.85v9.76a.34.34,0,0,0,.09.26s.07,0,.12,0L16,26.64v-.26a5.11,5.11,0,0,1,2.4-3.85,1.91,1.91,0,0,1,1.88-.25,1.37,1.37,0,0,1,.62,1.27c0,.05,0,.16,0,.26l10.68-6.36,1.21-.7a4.8,4.8,0,0,1,2.4-3.55,2.09,2.09,0,0,1,1.64-.34,1.08,1.08,0,0,1,.65.52l1-.68a1.42,1.42,0,0,0,.48-.84V8.61a.59.59,0,0,0-.18-.51c-.14-.09-.35,0-.5.07l-1.73.77a1,1,0,0,1-1,.12L31.88,7A.41.41,0,0,0,31.65,7Z"/><path d="M28.31,18.83V10.16l2.63-1.52a.65.65,0,0,1,.51-.11.38.38,0,0,1,.23.2l1.16,2.36a.5.5,0,0,1,0,.26l-.06,4.36a.93.93,0,0,1-.44.75Zm.2-8.56v8.21l3.78-2.2a.71.71,0,0,0,.34-.58l.06-4.35a.48.48,0,0,0,0-.18L31.5,8.82a.16.16,0,0,0-.11-.1.48.48,0,0,0-.35.09Z"/><path class="cls-4" d="M12.52,28a.87.87,0,0,1-.84,0L1.09,21.83h0a1.38,1.38,0,0,1-.74-1.11l-.1.09a.9.9,0,0,0-.26.64v.82a.28.28,0,0,0,.13.24l11.55,6.81a.82.82,0,0,0,.84,0L14.76,28l.09-1.41Z"/><path d="M38.12,9.93a.22.22,0,0,1-.2-.16A.64.64,0,0,1,38,9.34c.14-.25.36-.37.5-.29h0a.26.26,0,0,1,.11.14.59.59,0,0,1-.09.43A.55.55,0,0,1,38.12,9.93Zm.28-.75a.43.43,0,0,0-.27.23.51.51,0,0,0-.07.32l0,0s.2,0,.3-.22a.52.52,0,0,0,.07-.32s0,0,0,0Z"/><line class="cls-6" x1="27.87" y1="8.83" x2="27.87" y2="19.68"/><rect class="cls-4" x="27.82" y="8.83" width="0.1" height="10.85"/><line class="cls-7" x1="27.67" y1="9.06" x2="27.67" y2="19.79"/><rect class="cls-4" x="27.62" y="9.06" width="0.1" height="10.73"/><polygon class="cls-8" points="11.91 24.6 27.67 15.38 27.67 14.89 11.91 24.11 11.91 24.6"/><path class="cls-4" d="M11.86,24.69v-.61l0,0L27.72,14.8v.61h0Zm.1-.55v.38l15.66-9.17V15Z"/><path class="cls-9" d="M33.18,8.53c-.47-.29-.69-.1-.49.41l.34.89a.82.82,0,0,0,1.22.42l0,0a.55.55,0,0,0,0-1Z"/><path d="M33.47,10.78h-.09a.28.28,0,0,1-.16-.16l-.91-2.38c-.05-.12,0-.19,0-.21s.1-.06.21,0L35,9.53a.23.23,0,0,1,.12.19.24.24,0,0,1-.12.19l-1.41.83A.23.23,0,0,1,33.47,10.78Zm-.94-2.53.88,2.29a.08.08,0,0,0,0,0,.07.07,0,0,0,.06,0l1.41-.83,0,0,0,0Z"/><polygon class="cls-2" points="28.86 13.26 28.68 13.66 28.68 14.66 28.86 14.61 28.86 13.26"/><path d="M28.63,14.72V13.64l.27-.61v1.62Zm.1-1.05v.92l.08,0V13.5Z"/><path class="cls-2" d="M15.72,16.69c1.34-.81,2.43-.37,2.43,1a5.21,5.21,0,0,1-2.43,3.9c-1.35.81-2.44.37-2.44-1A5.19,5.19,0,0,1,15.72,16.69Z"/><path d="M15.72,16.69c1.34-.81,2.43-.37,2.43,1a5.21,5.21,0,0,1-2.43,3.9c-1.35.81-2.44.37-2.44-1A5.19,5.19,0,0,1,15.72,16.69Zm-.87,2.17a.22.22,0,0,0-.14.05s-.06.06,0,.06l.07,0s-.07.06-.06.08,0,.09.08.05.06,0,.06,0,.06,0,.09,0,0,.11,0,.06.1,0,.13,0,0,.07.07,0,0,0,0,0,0,.05,0,.05,0,.06-.05.06,0,0,0,0,0,.08.05.08a.34.34,0,0,0,.11,0c.06,0,.1.08,0,.16s0,.11,0,.11,0,.17.05.08a.49.49,0,0,0,.06-.17.22.22,0,0,1,0-.1s0,0,.09-.06.08-.06.1-.09.08,0,.09-.09,0,.07,0,.08.05,0,.07,0,.13-.06.18-.11l0,0s0,0,.06,0,0,0,.06,0,0,.15,0,.24a.55.55,0,0,1-.11.27.36.36,0,0,1-.15.1s0,0-.05-.06,0,0-.08,0,0,.12,0,.17,0,.08,0,.11l0,0s0,0,0,0-.08.09-.1.07-.07.1-.07.15-.05.12,0,.09,0,.09,0,.11-.09.14-.16.15,0,.09,0,.07a.2.2,0,0,0,.08-.14,0,0,0,0,0,0,0c0-.06.08-.11.11-.17s.09-.19.07-.19.14-.09.18-.14.08-.17.16-.21a.26.26,0,0,0,.14-.07l.12-.15a.62.62,0,0,0,.16-.21c0-.07,0-.12,0-.19a.48.48,0,0,1,.12-.16s0-.12.05-.14.16-.24.13-.29l.08-.09,0,.12-.06.12a.64.64,0,0,0-.07.24s0-.06,0-.09.08-.09.1-.15h0c0-.06.08-.15.06-.18s.05-.13.08-.19a1,1,0,0,1,.12-.16s.13-.23.09-.22.09-.19.08-.22h0s0-.24,0-.21a.15.15,0,0,0,0-.12s-.05.07-.06.08a0,0,0,0,1,0,0,.67.67,0,0,1,.07-.11l.14-.17s0,0,0-.07,0-.06.06-.09l0,0a1,1,0,0,0-.75-.26l-.07,0a.65.65,0,0,0-.13.16.25.25,0,0,1,0-.07s-.05,0-.07,0a.27.27,0,0,0-.1.06.75.75,0,0,1,.07-.12,0,0,0,0,1,0,0,.18.18,0,0,1,.14-.06h.07l0,0a1.57,1.57,0,0,0-.3,0l-.07.1s0,0,0,.06-.11.08-.15.11-.14.11-.12.05a.58.58,0,0,1,0,.14s0-.07,0-.08-.07,0-.08,0,0-.05,0-.06.16-.12.1-.16-.11.05-.13.08-.07.1,0,.1-.12.11-.11.14,0,0,0,0,0,.09-.05.12-.12,0-.13,0,0,0-.08,0-.06.12,0,.09,0,.13,0,.09.1-.13.14-.1,0,.05.07.06.1,0,.16-.06,0,.05.05.06a.1.1,0,0,1,0,.05.25.25,0,0,0,0,.09s-.08.13-.06.12a.63.63,0,0,0-.18.12.61.61,0,0,0-.13.16s-.07,0-.09.06a.21.21,0,0,0-.05.12c0,.06-.06.16-.11.17s-.08,0-.05,0,.05-.11,0-.13-.08,0-.1,0,.08-.11.08-.17,0,0,0-.05,0-.13,0-.13a1,1,0,0,0-.21.16,1.53,1.53,0,0,0-.13.15h0s-.05.1,0,.09-.11.09-.06.07l0,0s0,0-.06,0-.05,0-.07,0a.36.36,0,0,0,0,.09.6.6,0,0,0-.06.11c0,.06,0,.11-.09.17s-.08,0-.08.07l0,0a.16.16,0,0,1-.07.14V19s.07,0,.1,0,.08,0,.07,0a.34.34,0,0,1,.17-.13.52.52,0,0,1,.16-.06h.07s0,.06,0,.05S14.87,18.87,14.85,18.86Zm.52,2.47v0c0-.05,0-.06,0-.11a.09.09,0,0,0,0-.1c0-.05,0-.06-.09-.07s0-.08,0-.13a2.42,2.42,0,0,0,0-.25s-.06.05-.07.08,0,0,0-.05,0,0-.05,0-.1,0-.14,0,0,0,0,.11,0-.06,0-.07-.08.06-.14.1a.76.76,0,0,0-.11.14s0,0-.06,0-.08.07-.12.13-.12.12-.11.18l-.08.07s-.06,0-.08.07A1.36,1.36,0,0,0,15.37,21.33Z"/><rect x="35.92" y="9.11" width="0.1" height="3.7"/><line class="cls-2" x1="29.03" y1="9.89" x2="29.03" y2="18.29"/><rect x="28.98" y="9.89" width="0.1" height="8.4"/><path class="cls-2" d="M32.61,16c-.06,0-3.55-2-3.55-2"/><path d="M32.6,16.06c-.06,0-2.74-1.56-3.56-2l.05-.08,3.54,2Z"/><path class="cls-2" d="M32.72,13.51,29.06,11.4"/><path d="M32.71,13.56c-.06,0-2.82-1.62-3.67-2.11l.05-.09,3.65,2.11Z"/><path class="cls-2" d="M32.72,12.6l-3.66-2.11"/><path d="M32.71,12.65c-.06,0-2.82-1.63-3.67-2.12l.05-.08,3.65,2.1Z"/><path class="cls-2" d="M32.76,11.53c-.06,0-3.28-1.9-3.28-1.9"/><path d="M32.74,11.58,29.45,9.67l.05-.08,3.28,1.9Z"/><path class="cls-2" d="M32.8,11.31c-.06,0-3.18-1.85-3.18-1.85"/><path d="M32.78,11.36,29.6,9.51l0-.09c.85.5,3.08,1.81,3.17,1.84Z"/><rect class="cls-4" x="6.58" y="7.9" width="0.2" height="13.28" transform="translate(-9.24 12.95) rotate(-59.63)"/><rect class="cls-4" x="25.93" y="-3.24" width="0.2" height="13.52" transform="translate(9.94 24.28) rotate(-59.93)"/><path class="cls-4" d="M.73,22.28a.23.23,0,0,1-.13,0,.49.49,0,0,1-.2-.44V12.06A1.53,1.53,0,0,1,1,11L19.59.22a1.07,1.07,0,0,1,1-.14l3.65,2A.85.85,0,0,0,25.05,2L27,1.13a.55.55,0,0,1,.59.16L38.77,7.88l-.11.18L27.42,1.44l0,0A.33.33,0,0,0,27,1.32l-1.9.85a1,1,0,0,1-1,.11l-3.66-2a.89.89,0,0,0-.82.15L1.09,11.2a1.44,1.44,0,0,0-.49.86v9.75c0,.15.05.24.1.26s.06,0,.11,0l.1.17A.35.35,0,0,1,.73,22.28Z"/><path class="cls-4" d="M11.2,27.68H11V19.46L2.22,14.38v7.39l-.85.46V13.66l9.83,5.68ZM1.57,14v7.89L2,21.65V14.27Z"/><rect class="cls-4" x="6.51" y="19.05" width="0.2" height="10.5" transform="translate(-17.75 17.89) rotate(-60.04)"/><rect class="cls-4" x="6.56" y="18.44" width="0.1" height="10.5" transform="translate(-17.22 17.59) rotate(-60.05)"/><rect class="cls-4" x="6.56" y="18.01" width="0.1" height="10.5" transform="translate(-16.84 17.37) rotate(-60.04)"/><rect class="cls-4" x="6.56" y="17.58" width="0.1" height="10.5" transform="translate(-16.47 17.16) rotate(-60.04)"/><rect class="cls-4" x="6.56" y="17.15" width="0.1" height="10.5" transform="translate(-16.1 16.94) rotate(-60.04)"/><rect class="cls-4" x="6.56" y="16.72" width="0.1" height="10.5" transform="translate(-15.73 16.73) rotate(-60.04)"/><rect class="cls-4" x="6.56" y="16.29" width="0.1" height="10.5" transform="translate(-15.36 16.51) rotate(-60.04)"/><rect class="cls-4" x="6.56" y="15.86" width="0.1" height="10.5" transform="translate(-14.98 16.3) rotate(-60.04)"/><rect class="cls-4" x="6.56" y="15.43" width="0.1" height="10.5" transform="translate(-14.61 16.08) rotate(-60.04)"/><rect class="cls-4" x="6.56" y="15" width="0.1" height="10.5" transform="translate(-14.24 15.87) rotate(-60.05)"/><rect class="cls-4" x="6.56" y="14.57" width="0.1" height="10.5" transform="translate(-13.87 15.65) rotate(-60.05)"/><rect class="cls-4" x="6.56" y="14.14" width="0.1" height="10.5" transform="translate(-13.5 15.44) rotate(-60.04)"/><rect class="cls-4" x="6.56" y="13.72" width="0.1" height="10.5" transform="translate(-13.13 15.22) rotate(-60.04)"/><rect class="cls-4" x="6.56" y="13.29" width="0.1" height="10.5" transform="translate(-12.75 15.01) rotate(-60.04)"/><rect class="cls-4" x="6.56" y="12.86" width="0.1" height="10.5" transform="translate(-12.38 14.79) rotate(-60.04)"/><rect class="cls-4" x="6.56" y="12.43" width="0.1" height="10.5" transform="translate(-12.01 14.58) rotate(-60.04)"/><rect class="cls-4" x="6.56" y="12" width="0.1" height="10.5" transform="translate(-11.64 14.36) rotate(-60.04)"/><path class="cls-4" d="M33.87,8l-.06-.08,1-.81a.49.49,0,0,0-.06-.8l-5.84-3.4a.49.49,0,0,0-.29-.06l-3.28.32v-.1l3.28-.32a.54.54,0,0,1,.35.07l5.85,3.4a.59.59,0,0,1,.28.47.58.58,0,0,1-.22.5Z"/></g></g></svg>