<svg xmlns="http://www.w3.org/2000/svg" xmlns:xlink="http://www.w3.org/1999/xlink" viewBox="0 0 39.11 35.11"><defs><style>.cls-1{fill:#fff;}.cls-2{fill:#d7d7d7;}.cls-3{fill:url(#New_Gradient_Swatch_3);}.cls-4{fill:url(#New_Gradient_Swatch_3-2);}.cls-5{fill:#231f20;}.cls-6{fill:url(#New_Gradient_Swatch_3-3);}.cls-7{fill:url(#New_Gradient_Swatch_3-4);}.cls-8{fill:url(#New_Gradient_Swatch_3-5);}.cls-9{fill:url(#New_Gradient_Swatch_3-6);}.cls-10{fill:url(#New_Gradient_Swatch_3-7);}.cls-11{fill:url(#New_Gradient_Swatch_3-8);}.cls-12{fill:url(#New_Gradient_Swatch_3-9);}.cls-13{fill:#ed3224;}.cls-14{fill:url(#New_Gradient_Swatch_3-10);}</style><linearGradient id="New_Gradient_Swatch_3" x1="15.48" y1="31.1" x2="22.68" y2="3.65" gradientUnits="userSpaceOnUse"><stop offset="0" stop-color="#fff"/><stop offset="1" stop-color="#d7d7d7"/></linearGradient><linearGradient id="New_Gradient_Swatch_3-2" x1="1.07" y1="24.42" x2="2.61" y2="24.42" gradientTransform="translate(18.88 6.83) rotate(48.4)" xlink:href="#New_Gradient_Swatch_3"/><linearGradient id="New_Gradient_Swatch_3-3" x1="9.01" y1="29.08" x2="10.55" y2="29.08" gradientTransform="translate(25.03 2.46) rotate(48.4)" xlink:href="#New_Gradient_Swatch_3"/><linearGradient id="New_Gradient_Swatch_3-4" x1="12.82" y1="17" x2="13.88" y2="22.91" xlink:href="#New_Gradient_Swatch_3"/><linearGradient id="New_Gradient_Swatch_3-5" x1="7.23" y1="14.22" x2="8.45" y2="20.74" xlink:href="#New_Gradient_Swatch_3"/><linearGradient id="New_Gradient_Swatch_3-6" x1="25.12" y1="27.36" x2="25.12" y2="9.34" xlink:href="#New_Gradient_Swatch_3"/><linearGradient id="New_Gradient_Swatch_3-7" x1="23.83" y1="26.48" x2="20.74" y2="26.48" xlink:href="#New_Gradient_Swatch_3"/><linearGradient id="New_Gradient_Swatch_3-8" x1="23.5" y1="21.81" x2="23.5" y2="21.81" xlink:href="#New_Gradient_Swatch_3"/><linearGradient id="New_Gradient_Swatch_3-9" x1="23.7" y1="21.72" x2="23.7" y2="21.72" xlink:href="#New_Gradient_Swatch_3"/><linearGradient id="New_Gradient_Swatch_3-10" x1="18.02" y1="21.86" x2="17.71" y2="25.12" xlink:href="#New_Gradient_Swatch_3"/></defs><g id="Layer_2" data-name="Layer 2"><g id="Layer_1-2" data-name="Layer 1"><ellipse class="cls-1" cx="32.72" cy="21.36" rx="2.54" ry="1.56" transform="translate(-2.14 39.02) rotate(-60)"/><path d="M32,23.79a1.13,1.13,0,0,1-.57-.15,1.41,1.41,0,0,1-.63-1.27,3.59,3.59,0,0,1,.51-1.84,3.68,3.68,0,0,1,1.34-1.37A1.46,1.46,0,0,1,34,19.07c.79.46.84,1.86.12,3.12a3.65,3.65,0,0,1-1.34,1.36A1.77,1.77,0,0,1,32,23.79Zm1.5-4.67a1.56,1.56,0,0,0-.76.22,3.33,3.33,0,0,0-1.26,1.29h0A3.4,3.4,0,0,0,31,22.36a1.1,1.1,0,0,0,1.77,1A3.4,3.4,0,0,0,34,22.09c.67-1.17.65-2.44-.05-2.85A.94.94,0,0,0,33.47,19.12Z"/><path d="M34.12,19.06h0l-1.23-.81c-.8-.46-2.06.2-2.8,1.47s-.69,2.7.12,3.17l1.08.7.15.1a1.11,1.11,0,0,0,.59.16,1.78,1.78,0,0,0,.87-.25,3.63,3.63,0,0,0,1.34-1.38,3.56,3.56,0,0,0,.53-1.85A1.5,1.5,0,0,0,34.12,19.06Z"/><ellipse class="cls-1" cx="32.72" cy="21.36" rx="1.79" ry="1.1" transform="translate(-2.14 39.02) rotate(-60)"/><path d="M32.2,23.05a.77.77,0,0,1-.4-.1,1,1,0,0,1-.43-.88,2.42,2.42,0,0,1,.36-1.28c.5-.88,1.36-1.34,1.91-1a1,1,0,0,1,.43.88,2.68,2.68,0,0,1-1.29,2.23A1.23,1.23,0,0,1,32.2,23.05Zm1-3.29a1.93,1.93,0,0,0-1.43,1.07,2.48,2.48,0,0,0-.35,1.23.8.8,0,0,0,1.28.74,2.47,2.47,0,0,0,.89-.92A2.43,2.43,0,0,0,34,20.65a.92.92,0,0,0-.39-.8A.7.7,0,0,0,33.24,19.76Z"/><ellipse class="cls-2" cx="32.72" cy="21.37" rx="1.75" ry="1.08" transform="translate(-2.15 39.02) rotate(-60)"/><path d="M32.2,23a.86.86,0,0,1-.39-.09,1,1,0,0,1-.42-.87,2.62,2.62,0,0,1,1.26-2.19,1,1,0,0,1,1-.06,1,1,0,0,1,.42.86,2.43,2.43,0,0,1-.35,1.26A2,2,0,0,1,32.2,23Zm1-3.21a1.13,1.13,0,0,0-.53.15,2.4,2.4,0,0,0-.87.89h0a2.37,2.37,0,0,0-.34,1.21.87.87,0,0,0,.37.78c.49.28,1.27-.15,1.74-1a2.36,2.36,0,0,0,.34-1.2.89.89,0,0,0-.37-.79A.66.66,0,0,0,33.23,19.81Z"/><ellipse cx="32.72" cy="21.36" rx="0.39" ry="0.24" transform="translate(-2.14 39.02) rotate(-60)"/><path class="cls-1" d="M32.6,21.77a.19.19,0,0,1-.1,0c-.14-.08-.16-.31,0-.53a.47.47,0,0,1,.22-.22.25.25,0,0,1,.25,0,.39.39,0,0,1,0,.53A.46.46,0,0,1,32.6,21.77Zm.24-.73-.11,0a.66.66,0,0,0-.18.19c-.09.16-.09.35,0,.4s.24,0,.34-.21.09-.34,0-.39Z"/><ellipse cx="33.14" cy="20.57" rx="0.31" ry="0.19" transform="matrix(0.5, -0.87, 0.87, 0.5, -1.25, 38.99)"/><ellipse cx="33.38" cy="21.07" rx="0.31" ry="0.19" transform="translate(-1.55 39.44) rotate(-60)"/><ellipse cx="33.12" cy="21.74" rx="0.31" ry="0.19" transform="matrix(0.5, -0.87, 0.87, 0.5, -2.27, 39.55)"/><ellipse cx="32.54" cy="22.15" rx="0.31" ry="0.19" transform="translate(-2.91 39.26) rotate(-60)"/><ellipse cx="32.14" cy="21.9" rx="0.31" ry="0.19" transform="matrix(0.5, -0.87, 0.87, 0.5, -2.89, 38.78)"/><ellipse cx="32.1" cy="21.26" rx="0.31" ry="0.19" transform="translate(-2.36 38.43) rotate(-60)"/><ellipse cx="32.54" cy="20.71" rx="0.31" ry="0.19" transform="translate(-1.66 38.53) rotate(-60)"/><ellipse class="cls-1" cx="16.64" cy="31.65" rx="2.54" ry="1.56" transform="translate(-19.09 30.24) rotate(-60)"/><path d="M15.9,34.09a1.17,1.17,0,0,1-.58-.15,1.45,1.45,0,0,1-.63-1.28,3.66,3.66,0,0,1,.52-1.84h0c.73-1.26,2-1.91,2.75-1.45s.85,1.85.12,3.11a3.58,3.58,0,0,1-1.33,1.37A1.84,1.84,0,0,1,15.9,34.09Zm-.52-3.17a3.34,3.34,0,0,0-.49,1.74,1.24,1.24,0,0,0,.53,1.11,1.25,1.25,0,0,0,1.23-.09,3.36,3.36,0,0,0,1.26-1.3c.67-1.16.65-2.44,0-2.84s-1.82.21-2.49,1.38Z"/><path d="M18.05,29.36h0l-1.23-.81C16,28.08,14.75,28.74,14,30s-.68,2.7.12,3.16l1.08.71.15.1a1.21,1.21,0,0,0,.6.15,1.84,1.84,0,0,0,.86-.24,3.89,3.89,0,0,0,1.87-3.24A1.5,1.5,0,0,0,18.05,29.36Z"/><ellipse class="cls-1" cx="16.64" cy="31.65" rx="1.79" ry="1.1" transform="translate(-19.09 30.24) rotate(-60)"/><path d="M16.12,33.34a.73.73,0,0,1-.39-.1,1,1,0,0,1-.44-.88,2.54,2.54,0,0,1,.36-1.28c.51-.88,1.37-1.33,1.91-1A1,1,0,0,1,18,31a2.57,2.57,0,0,1-.36,1.28A2,2,0,0,1,16.12,33.34Zm1.05-3.28a1.89,1.89,0,0,0-1.43,1.07,2.33,2.33,0,0,0-.35,1.23.9.9,0,0,0,.39.8c.5.29,1.29-.15,1.77-1A2.38,2.38,0,0,0,17.9,31a.9.9,0,0,0-.39-.8A.67.67,0,0,0,17.17,30.06Z"/><path class="cls-3" d="M38.77,7.27,27.21.2a1.36,1.36,0,0,0-1.43,0L8.33,10.88a3,3,0,0,0-1,1.08L3.47,18.53,1,21.73a1.72,1.72,0,0,0-.35,1.05v3.39a.84.84,0,0,0,.4.72L11.27,33Z"/><ellipse class="cls-4" cx="1.84" cy="24.42" rx="0.43" ry="0.96" transform="translate(-17.64 9.58) rotate(-48.4)"/><path class="cls-5" d="M2.52,25.45a.28.28,0,0,1-.12,0l-1.21-.74A.46.46,0,0,1,1,24.29v-.68a.2.2,0,0,1,.1-.19.22.22,0,0,1,.22,0l1.21.74a.49.49,0,0,1,.21.38v.68a.2.2,0,0,1-.1.19A.12.12,0,0,1,2.52,25.45ZM1.17,23.59v.7a.3.3,0,0,0,.12.21l1.21.74h0v-.7a.3.3,0,0,0-.12-.21L1.19,23.6Z"/><path class="cls-5" d="M2.53,26.3a.2.2,0,0,1-.13,0l-.92-.58a.48.48,0,0,1-.21-.38v-.1a.23.23,0,0,1,.1-.2.25.25,0,0,1,.22,0l.91.58a.49.49,0,0,1,.21.38v.11a.2.2,0,0,1-.1.19ZM1.47,25.18v.12a.32.32,0,0,0,.12.22l.91.58h0V26a.3.3,0,0,0-.12-.21l-.92-.58Z"/><path class="cls-5" d="M8.32,14.37a.27.27,0,0,1-.15,0l-.92-.58a.3.3,0,0,1-.09-.4l.07-.12a.24.24,0,0,1,.18-.13.28.28,0,0,1,.22,0l.91.58a.31.31,0,0,1,.1.41l-.07.12a.34.34,0,0,1-.18.13Zm-1-.93a.1.1,0,0,0,0,.14l.91.58h.07a.09.09,0,0,0,.06,0L8.47,14a.11.11,0,0,0,0-.14l-.91-.58a.06.06,0,0,0-.07,0,.07.07,0,0,0-.06,0Z"/><path class="cls-5" d="M9.78,15.31a.27.27,0,0,1-.15-.05l-.91-.57a.31.31,0,0,1-.1-.41l.07-.12A.29.29,0,0,1,8.87,14a.24.24,0,0,1,.22,0l.92.58a.3.3,0,0,1,.09.4l-.07.12a.29.29,0,0,1-.18.13Zm-.84-1.09h0a.09.09,0,0,0-.06,0l-.07.12a.1.1,0,0,0,0,.14l.91.58a.09.09,0,0,0,.07,0,.07.07,0,0,0,.06,0L9.93,15a.1.1,0,0,0,0-.14L9,14.23Z"/><path class="cls-5" d="M18.07,20.39a.3.3,0,0,1-.15-.05L17,19.76a.29.29,0,0,1-.1-.4l.07-.12a.29.29,0,0,1,.18-.13.31.31,0,0,1,.23,0l.91.58a.3.3,0,0,1,.09.41l-.07.12a.27.27,0,0,1-.18.13Zm-.84-1.1h0a.08.08,0,0,0-.06,0l-.07.12a.11.11,0,0,0,0,.14l.91.58a.11.11,0,0,0,.08,0,.1.1,0,0,0,0,0l.08-.12a.11.11,0,0,0,0-.14l-.91-.58Z"/><path class="cls-5" d="M16.58,19.47a.26.26,0,0,1-.15,0l-.92-.58a.31.31,0,0,1-.09-.41l.07-.12a.3.3,0,0,1,.18-.13.29.29,0,0,1,.22,0l.91.58a.29.29,0,0,1,.1.4l-.07.12a.26.26,0,0,1-.18.13Zm-1-.93a.1.1,0,0,0,0,.14l.91.58a.06.06,0,0,0,.07,0,.07.07,0,0,0,.06,0l.07-.12a.11.11,0,0,0,0-.14l-.91-.58h-.07a.09.09,0,0,0-.06,0Z"/><path class="cls-5" d="M10.16,30.8a.28.28,0,0,1-.13,0l-.92-.58a.5.5,0,0,1-.21-.39v-.1A.2.2,0,0,1,9,29.5a.2.2,0,0,1,.22,0l.91.58a.48.48,0,0,1,.21.38v.1a.23.23,0,0,1-.1.2ZM9.1,29.68h0v.1a.3.3,0,0,0,.12.22l.91.58h0v-.12a.31.31,0,0,0-.11-.22l-.92-.58Z"/><ellipse class="cls-6" cx="9.78" cy="29.08" rx="0.43" ry="0.96" transform="translate(-18.46 17.09) rotate(-48.4)"/><path class="cls-5" d="M10.46,30.11a.38.38,0,0,1-.13,0l-1.21-.74A.48.48,0,0,1,8.91,29v-.68a.2.2,0,0,1,.1-.19.22.22,0,0,1,.22,0l1.21.74a.49.49,0,0,1,.21.38v.68a.23.23,0,0,1-.1.2ZM9.11,28.25V29a.27.27,0,0,0,.12.21l1.21.74h0v-.7a.27.27,0,0,0-.12-.21l-1.21-.74Z"/><path class="cls-5" d="M8.21,30.79a.44.44,0,0,1-.2-.07L3.35,27.87A.84.84,0,0,1,3,27.2V24.78a.33.33,0,0,1,.14-.3.35.35,0,0,1,.34,0l4.66,2.85a.88.88,0,0,1,.38.67v2.42a.31.31,0,0,1-.15.3A.2.2,0,0,1,8.21,30.79Zm-5-6.15h0a.14.14,0,0,0,0,.13V27.2a.68.68,0,0,0,.29.51l4.66,2.85c.06,0,.11,0,.14,0s0-.06,0-.13V28A.7.7,0,0,0,8,27.52L3.35,24.68A.19.19,0,0,0,3.24,24.64Z"/><path class="cls-7" d="M9.36,21.37a.19.19,0,0,0,.07.24l5.86,3.57a.16.16,0,0,0,.23-.06l2.27-4a.18.18,0,0,0-.06-.24L11.87,17.3a.16.16,0,0,0-.23.06Z"/><path class="cls-8" d="M4.25,18.28a.19.19,0,0,0,.07.24l4.73,3a.18.18,0,0,0,.24-.07l2.27-4a.18.18,0,0,0-.06-.24l-4.74-3a.16.16,0,0,0-.23.06Z"/><path class="cls-5" d="M15.38,25.3a.23.23,0,0,1-.14,0L4.29,18.6a.28.28,0,0,1-.1-.37l2.27-4a.26.26,0,0,1,.37-.1l11,6.67a.27.27,0,0,1,.1.37l-2.27,4a.31.31,0,0,1-.17.13Zm-8.69-11h0l0,0-2.27,4a.08.08,0,0,0,0,.11l11,6.67h.05a.1.1,0,0,0,0,0l2.27-4a.09.09,0,0,0,0-.11L6.73,14.29Z"/><rect class="cls-5" x="9.46" y="15.23" width="0.19" height="14.22" transform="translate(-14.5 18.89) rotate(-58.68)"/><rect class="cls-5" x="7.98" y="19.23" width="4.96" height="0.19" transform="translate(-11.51 18.9) rotate(-60.48)"/><path class="cls-9" d="M11.73,33.25,14.18,32a5.09,5.09,0,0,1,2.14-2.76c1.25-.72,2.27-.3,2.28,1l1.23-.76,10.54-6.68a2,2,0,0,1,0-.25,4.72,4.72,0,0,1,2.28-3.6c1.26-.73,2.29-.3,2.29,1,0,0,0,.06,0,.09l3.74-2.15a.68.68,0,0,0,.35-.6V7.71a.35.35,0,0,0-.53-.29l-18.08,11a2.64,2.64,0,0,0-.9.92L16,25.49a2.61,2.61,0,0,1-.86.89L12,28.32a1.73,1.73,0,0,0-.8,1.46v3.16A.35.35,0,0,0,11.73,33.25Z"/><path class="cls-5" d="M11.57,33.38a.46.46,0,0,1-.23-.06.45.45,0,0,1-.21-.38V29.78A1.83,1.83,0,0,1,12,28.24L15,26.3a2.59,2.59,0,0,0,.82-.86l3.56-6.16a2.57,2.57,0,0,1,.93-1l18.08-11a.43.43,0,0,1,.45,0,.44.44,0,0,1,.23.38V17.2a.82.82,0,0,1-.4.69l-3.89,2.23v-.26a1.18,1.18,0,0,0-.51-1.09,1.7,1.7,0,0,0-1.63.21,4.63,4.63,0,0,0-2.23,3.52,1.93,1.93,0,0,0,0,.24v.06l-.05,0L19.88,29.51l-1.37.85v-.17A1.19,1.19,0,0,0,18,29.12a1.68,1.68,0,0,0-1.62.21,5,5,0,0,0-2.1,2.7v0l-2.49,1.26A.35.35,0,0,1,11.57,33.38ZM38.66,7.47a.31.31,0,0,0-.13,0l-18.08,11a2.44,2.44,0,0,0-.86.89L16,25.54a2.61,2.61,0,0,1-.89.92l-3.06,1.95a1.62,1.62,0,0,0-.76,1.37v3.16a.24.24,0,0,0,.12.21.23.23,0,0,0,.24,0l2.42-1.22a5.13,5.13,0,0,1,2.17-2.78A1.85,1.85,0,0,1,18.09,29a1.29,1.29,0,0,1,.6,1.07l1.09-.67L30.27,22.7a1.34,1.34,0,0,1,0-.2,4.87,4.87,0,0,1,2.33-3.69,1.86,1.86,0,0,1,1.83-.21,1.35,1.35,0,0,1,.6,1.18l3.59-2.06a.6.6,0,0,0,.3-.52V7.71a.23.23,0,0,0-.13-.21A.21.21,0,0,0,38.66,7.47Z"/><path class="cls-2" d="M22,26l-3.21-1.69,1.12-3.62a1.74,1.74,0,0,1,.59-.74l1.52-.9Z"/><path d="M18.62,29.49V24.58a.92.92,0,0,1,0-.29l1.13-3.61a1.4,1.4,0,0,1,.63-.8l2.66-1.6v8.44Zm4.26-10.86L20.52,20a1.24,1.24,0,0,0-.54.69l-1.13,3.62a.59.59,0,0,0,0,.23v4.56l4.07-2.53Z"/><path class="cls-5" d="M11.22,33.19,1,27.09a1,1,0,0,1-.45-.81V22.89A1.82,1.82,0,0,1,1,21.79l2.44-3.2L7.2,12a3.16,3.16,0,0,1,1.09-1.12L25.73.23a1.47,1.47,0,0,1,1.54,0L38.83,7.31l-.1.16L27.17.4a1.27,1.27,0,0,0-1.33,0L8.39,11.08a3,3,0,0,0-1,1.05l-3.8,6.56L1.12,21.9a1.65,1.65,0,0,0-.34,1v3.39a.75.75,0,0,0,.36.64L11.32,33Z"/><path class="cls-5" d="M11.84,33.69a.81.81,0,0,1-.81,0l-10-6.2s-.13.15,0,0a1.32,1.32,0,0,1-.72-1.08l-.09.09A.85.85,0,0,0,0,27.1v.8a.28.28,0,0,0,.13.23L11,35a.81.81,0,0,0,.81,0L14,33.82l.1-1.37Z"/><rect class="cls-5" x="5.67" y="23.21" width="0.1" height="6.24" transform="translate(-19.7 17.38) rotate(-58.33)"/><rect class="cls-5" x="5.67" y="23.57" width="0.1" height="6.24" transform="translate(-20.01 17.55) rotate(-58.33)"/><rect class="cls-5" x="5.67" y="23.94" width="0.1" height="6.24" transform="translate(-20.31 17.72) rotate(-58.33)"/><rect class="cls-5" x="5.67" y="24.3" width="0.1" height="6.24" transform="translate(-20.62 17.89) rotate(-58.33)"/><rect class="cls-5" x="5.67" y="24.66" width="0.1" height="6.24" transform="translate(-20.93 18.06) rotate(-58.33)"/><rect class="cls-5" x="5.67" y="25.02" width="0.1" height="6.24" transform="translate(-21.24 18.23) rotate(-58.33)"/><rect class="cls-5" x="5.67" y="25.38" width="0.1" height="6.24" transform="translate(-21.55 18.41) rotate(-58.33)"/><rect class="cls-5" x="5.67" y="25.74" width="0.1" height="6.24" transform="translate(-21.85 18.58) rotate(-58.34)"/><path d="M11.89,30.16a.23.23,0,0,1-.11,0c-.15-.08-.16-.32,0-.54h0c.13-.22.34-.32.49-.23a.27.27,0,0,1,.12.23.64.64,0,0,1-.08.3.7.7,0,0,1-.22.23A.32.32,0,0,1,11.89,30.16Zm0-.49c-.09.15-.08.3,0,.33A.12.12,0,0,0,12,30a.38.38,0,0,0,.16-.17.37.37,0,0,0,.06-.22c0-.06,0-.1,0-.12S12,29.51,11.87,29.67Z"/><rect x="18.4" y="27.47" width="4.26" height="0.2" transform="translate(-11.36 14.75) rotate(-31.42)"/><path class="cls-10" d="M18.72,28.64l3.37-2s-.08.1-.1,0S22,26,22,26l-3.21-1.69,0,.26Z"/><line class="cls-11" x1="23.5" y1="16.48" x2="23.5" y2="27.13"/><rect class="cls-5" x="23.46" y="16.48" width="0.1" height="10.65"/><line class="cls-12" x1="23.7" y1="16.48" x2="23.7" y2="26.96"/><rect class="cls-5" x="23.65" y="16.48" width="0.1" height="10.47"/><polygon class="cls-13" points="39.03 13.34 23.7 22.63 23.7 22.15 39.03 12.86 39.03 13.34"/><path class="cls-5" d="M23.65,22.72v-.6h0l15.41-9.34v.6h0Zm.1-.54v.36L39,13.32V13Z"/><path class="cls-14" d="M18.68,21.67c.27-.48.37-.44.23.1l-.52,1.95a2.81,2.81,0,0,1-1.11,1.47c-.46.27-.63.1-.36-.38Z"/><path d="M16.53,25.71a.13.13,0,0,1-.09,0s-.06-.09,0-.2L19,20.92s.09-.14.18-.11.06.15.05.2l-.93,3.51a.65.65,0,0,1-.26.35l-1.37.8A.24.24,0,0,1,16.53,25.71Zm2.34-4.19-2.18,3.9,1.23-.72a.44.44,0,0,0,.17-.23Z"/><polygon class="cls-1" points="21.99 19.06 21.99 26.59 22.46 26.82 22.46 18.76 21.99 19.06"/><path d="M22.51,26.9l-.57-.28V19l.57-.36ZM22,26.56l.37.19v-7.9l-.37.23Z"/><line class="cls-1" x1="22.46" y1="26.83" x2="22.96" y2="26.5"/><rect x="22.41" y="26.62" width="0.59" height="0.1" transform="translate(-10.84 16.6) rotate(-32.88)"/><polygon class="cls-1" points="22.65 22.12 22.82 22.3 22.82 23.27 22.65 23.43 22.65 22.12"/><path d="M22.6,23.54V22l.27.29v1Zm.1-1.3v1.08l.07-.07v-.93Z"/><ellipse class="cls-2" cx="16.64" cy="31.66" rx="1.75" ry="1.08" transform="matrix(0.5, -0.87, 0.87, 0.5, -19.1, 30.24)"/><path d="M16.12,33.32a.7.7,0,0,1-.38-.1c-.54-.31-.57-1.26-.07-2.12s1.33-1.31,1.87-1,.57,1.26.07,2.12A2,2,0,0,1,16.12,33.32Zm1-3.22a1.86,1.86,0,0,0-1.4,1c-.47.81-.45,1.7,0,2s1.27-.15,1.74-1,.45-1.7,0-2A.67.67,0,0,0,17.15,30.1Z"/><ellipse cx="16.64" cy="31.65" rx="0.39" ry="0.24" transform="translate(-19.09 30.24) rotate(-60)"/><path class="cls-1" d="M16.53,32.06a.2.2,0,0,1-.11,0c-.14-.08-.15-.32,0-.53a.57.57,0,0,1,.3-.26.22.22,0,0,1,.18,0,.24.24,0,0,1,.1.14.57.57,0,0,1-.07.39.58.58,0,0,1-.22.22A.28.28,0,0,1,16.53,32.06Zm.23-.72h0a.4.4,0,0,0-.24.21c-.1.16-.1.34,0,.39a.18.18,0,0,0,.16,0,.55.55,0,0,0,.18-.19.48.48,0,0,0,.07-.31.18.18,0,0,0-.06-.09Z"/><ellipse cx="17.07" cy="30.87" rx="0.31" ry="0.19" transform="translate(-18.2 30.21) rotate(-60)"/><ellipse cx="17.31" cy="31.36" rx="0.31" ry="0.19" transform="matrix(0.5, -0.87, 0.87, 0.5, -18.51, 30.67)"/><ellipse cx="17.04" cy="32.04" rx="0.31" ry="0.19" transform="translate(-19.22 30.78) rotate(-60)"/><ellipse cx="16.46" cy="32.45" rx="0.31" ry="0.19" transform="matrix(0.5, -0.87, 0.87, 0.5, -19.87, 30.48)"/><ellipse cx="16.07" cy="32.19" rx="0.31" ry="0.19" transform="matrix(0.5, -0.87, 0.87, 0.5, -19.85, 30.01)"/><ellipse cx="16.03" cy="31.55" rx="0.31" ry="0.19" transform="translate(-19.31 29.66) rotate(-60)"/><path class="cls-1" d="M37.69,11a4.92,4.92,0,0,1-2.37,3.74c-1.31.75-2.37.3-2.37-1A4.92,4.92,0,0,1,35.32,10C36.63,9.26,37.69,9.7,37.69,11Z"/><ellipse cx="16.46" cy="31" rx="0.31" ry="0.19" transform="translate(-18.62 29.76) rotate(-60)"/><path d="M37.69,11a4.92,4.92,0,0,1-2.37,3.74c-1.31.75-2.37.3-2.37-1A4.92,4.92,0,0,1,35.32,10C36.63,9.26,37.69,9.7,37.69,11Zm-1.59.22s0-.08,0-.09,0-.06.06-.09l.16-.13c.06,0,.12-.08.16-.06a.62.62,0,0,1,.08-.12s.07-.05.09-.09v-.07s-.07,0-.07,0l0,0s-.05,0-.08,0-.06,0-.08-.07,0,0-.06,0,0-.05,0,0-.06.1-.06.1,0,0-.06,0l-.06.05c.06-.05,0,0,0,0s0-.07,0-.07h0s-.09,0-.12,0a.47.47,0,0,0-.2.08s0,.08,0,.11,0,.07,0,.1.1,0,.07.07-.07.1-.1.15a.07.07,0,0,0,0,.09s0,.07-.05.08-.09,0-.11,0,0-.06,0-.06-.08,0-.09.06-.09,0-.13,0a.43.43,0,0,0-.18.09s0-.1-.06,0,0-.07,0-.1a.54.54,0,0,1,0-.1s.08-.12.06-.11a.36.36,0,0,0,.15-.13s0-.09.07-.14.09,0,.13-.06.06-.1,0-.11,0-.08,0-.07-.13.09-.08.08-.08.2-.13.15,0-.07,0-.06a.14.14,0,0,0,0,.08c0-.05-.09,0-.11,0s0-.07,0-.07a.19.19,0,0,0-.13.07c-.06.1.06,0,.09,0s0,0,0,0l-.08.08s0,0,0,.09,0-.05,0-.07-.11.08-.1.08-.12.1-.16.07,0-.08,0-.08h-.06l-.29.29,0,0a.46.46,0,0,1,.07-.07s.09-.11.13-.1v0s.05,0,.06,0a.28.28,0,0,0-.09,0s-.06,0-.07.07,0,0,0,.05-.07,0-.13,0l-.07,0a4.64,4.64,0,0,0-.72,1.1h0s0,.1.06,0a0,0,0,0,1,0,0h.14s.06,0,.07,0a.17.17,0,0,1,0,.07s0,0-.05,0,0,.1,0,.08,0,.21,0,.25h0s0,.17.08.12S34,13,34,13s.08,0,.11,0,0,.09.08.1.06,0,.06.1h0s.08,0,.1,0,0,.08,0,.05a.2.2,0,0,0-.08-.15l0-.06,0-.07s.08,0,.08,0,.09.11.13.13.08.06,0,.08a.12.12,0,0,1,.12,0s0,.09,0,.13.1,0,.15,0h.12c.07,0,.08,0,.14-.08s.09,0,.15,0a.29.29,0,0,0,.17-.06s.07.09.07.1.08,0,.11,0l0,0s0,.07.07,0,0-.1,0-.12-.12.07-.15,0-.06-.07,0-.09,0-.06,0-.1,0,0-.08-.07-.08.08-.09.06v0l0,0s0-.09,0-.13.12-.23,0-.15a.23.23,0,0,0-.08.11.24.24,0,0,1,0,.12.34.34,0,0,1-.15.07c-.06,0-.1-.08-.1-.14s0-.18,0-.24l.06-.09s0,0,0-.06h0s.13-.11.17-.1a.08.08,0,0,0,.07,0s0,0,0-.06,0,0,.09,0,.07,0,.1,0,0,0,.08,0,0,0,0,.05,0,.11.06.1,0-.09,0-.13v-.1c-.1,0-.06-.06,0-.15a.69.69,0,0,0,.11-.12s.06-.1,0-.13a.1.1,0,0,0,0,0h0a0,0,0,0,0,0-.05s0-.06,0-.09.1-.07.07-.08.1-.09.12-.14,0,0,0-.1.06-.06.09-.09.08-.09,0-.08.16-.14.08-.14,0,0-.06,0,0,0,.07,0,0,0,0,0a.33.33,0,0,0-.13.11S36.13,11.21,36.1,11.23Zm.65,1.69s-.06,0-.08,0a.1.1,0,0,0-.07,0c0-.07-.07-.05-.11-.06s-.06,0-.12,0-.07.06-.06.07a.14.14,0,0,0-.11,0c-.05,0-.08,0-.13,0s0,.07,0,.1,0-.09,0-.11-.1.08-.13.12l-.06.07,0,.09s-.06,0-.06,0,0,.14,0,.21a.28.28,0,0,1,0,.17.35.35,0,0,0-.09.17s0,.07,0,.06-.05.11,0,.16v0A4.32,4.32,0,0,0,36.75,12.92Z"/><rect x="20.26" y="23.35" width="0.2" height="3.63" transform="translate(-11.4 31.43) rotate(-62.17)"/><path d="M8.61,27a.62.62,0,0,1-.32-.09L3.46,24.08a.35.35,0,0,1-.15-.45l1.65-4,.09,0-1.65,4a.27.27,0,0,0,.11.33l4.83,2.86a.52.52,0,0,0,.5,0l4.53-2.24,0,.09L8.88,27A.52.52,0,0,1,8.61,27Z"/><rect x="15.58" y="26.04" width="0.1" height="3.6"/><polygon class="cls-1" points="1.51 24.65 2.12 24.16 2.31 24.27 1.76 24.8 1.51 24.65"/><polygon class="cls-1" points="9.48 29.33 10.08 28.84 10.27 28.95 9.73 29.48 9.48 29.33"/></g></g></svg>