<svg xmlns="http://www.w3.org/2000/svg" xmlns:xlink="http://www.w3.org/1999/xlink" viewBox="0 0 102.46 90.32"><defs><style>.cls-1,.cls-7,.cls-8{fill:#fff;}.cls-1,.cls-2,.cls-3,.cls-5,.cls-6,.cls-8{stroke:#000;}.cls-1,.cls-15,.cls-2,.cls-3,.cls-5,.cls-6,.cls-8{stroke-miterlimit:10;}.cls-2{fill:url(#New_Gradient_Swatch_3);}.cls-3{fill:url(#New_Gradient_Swatch_3-2);}.cls-4{fill:url(#New_Gradient_Swatch_3-3);}.cls-5,.cls-6{fill:none;}.cls-6,.cls-8{stroke-width:0.5px;}.cls-9{fill:url(#New_Gradient_Swatch_3-4);}.cls-10,.cls-15{fill:#662d91;}.cls-11{fill:url(#New_Gradient_Swatch_3-5);}.cls-12{fill:url(#New_Gradient_Swatch_3-6);}.cls-13{fill:url(#New_Gradient_Swatch_3-7);}.cls-14{fill:url(#New_Gradient_Swatch_3-8);}.cls-15{stroke:#231f20;}.cls-16{fill:url(#New_Gradient_Swatch_3-9);}.cls-17{fill:url(#New_Gradient_Swatch_3-10);}</style><linearGradient id="New_Gradient_Swatch_3" x1="0.78" y1="63.14" x2="37.75" y2="63.14" gradientUnits="userSpaceOnUse"><stop offset="0" stop-color="#fff"/><stop offset="1" stop-color="#d7d7d7"/></linearGradient><linearGradient id="New_Gradient_Swatch_3-2" x1="87.59" y1="62.04" x2="35.29" y2="46.92" xlink:href="#New_Gradient_Swatch_3"/><linearGradient id="New_Gradient_Swatch_3-3" x1="714.64" y1="47.27" x2="719.73" y2="57.19" gradientTransform="matrix(-1, 0, 0, 1, 803.88, 0)" xlink:href="#New_Gradient_Swatch_3"/><linearGradient id="New_Gradient_Swatch_3-4" x1="728.05" y1="53.25" x2="731.89" y2="60.73" gradientTransform="matrix(-1, 0, 0, 1, 803.88, 0)" xlink:href="#New_Gradient_Swatch_3"/><linearGradient id="New_Gradient_Swatch_3-5" x1="20.4" y1="38.36" x2="28.57" y2="30.72" xlink:href="#New_Gradient_Swatch_3"/><linearGradient id="New_Gradient_Swatch_3-6" x1="35.72" y1="47.4" x2="43.89" y2="39.76" xlink:href="#New_Gradient_Swatch_3"/><linearGradient id="New_Gradient_Swatch_3-7" x1="37.02" y1="27.94" x2="45.19" y2="20.3" xlink:href="#New_Gradient_Swatch_3"/><linearGradient id="New_Gradient_Swatch_3-8" x1="52.35" y1="36.98" x2="60.52" y2="29.34" xlink:href="#New_Gradient_Swatch_3"/><linearGradient id="New_Gradient_Swatch_3-9" x1="53.03" y1="17.48" x2="61.2" y2="9.85" xlink:href="#New_Gradient_Swatch_3"/><linearGradient id="New_Gradient_Swatch_3-10" x1="68.35" y1="26.52" x2="76.52" y2="18.89" xlink:href="#New_Gradient_Swatch_3"/></defs><g id="Layer_2" data-name="Layer 2"><g id="Layer_1-2" data-name="Layer 1"><polygon class="cls-1" points="95.18 22.58 37.75 57.75 0.97 36.82 58.77 0.59 95.18 22.58"/><polygon class="cls-1" points="3.1 36.8 58.78 1.87 93.06 22.59 37.74 56.46 3.1 36.8"/><polygon class="cls-2" points="0.97 36.82 37.75 57.68 37.75 89.45 0.78 68.2 0.97 36.82"/><polygon class="cls-3" points="37.91 57.45 37.91 89.42 95.33 53.99 95.33 22.55 37.91 57.45"/><polygon class="cls-1" points="80.11 50.74 80.11 63.42 91.08 56.64 91.08 43.79 80.11 50.74"/><path class="cls-4" d="M90.17,45.64V57l-8.81,5.26V51.06Z"/><polygon class="cls-5" points="81.22 51 81.22 62.69 85.78 59.79 85.78 48.28 81.22 51"/><polygon class="cls-5" points="85.73 48.34 85.72 59.98 90.27 57.1 90.27 45.53 85.73 48.34"/><polygon class="cls-1" points="14.4 57.91 14.4 68.83 3.87 62.23 3.87 51.58 14.4 57.91"/><polygon class="cls-1" points="13.48 58.24 13.48 67.29 4.61 61.82 4.61 53 13.48 58.24"/><line class="cls-6" x1="13.46" y1="59.07" x2="4.61" y2="53.76"/><line class="cls-6" x1="13.46" y1="59.68" x2="4.61" y2="54.36"/><line class="cls-6" x1="13.46" y1="60.28" x2="4.61" y2="54.96"/><line class="cls-6" x1="13.46" y1="60.89" x2="4.61" y2="55.57"/><line class="cls-6" x1="13.46" y1="61.49" x2="4.61" y2="56.17"/><line class="cls-6" x1="13.46" y1="62.09" x2="4.61" y2="56.78"/><line class="cls-6" x1="13.46" y1="62.7" x2="4.61" y2="57.38"/><line class="cls-6" x1="13.46" y1="63.3" x2="4.61" y2="57.98"/><line class="cls-6" x1="13.46" y1="63.91" x2="4.61" y2="58.59"/><line class="cls-6" x1="13.46" y1="64.51" x2="4.61" y2="59.19"/><line class="cls-6" x1="13.46" y1="65.11" x2="4.61" y2="59.79"/><line class="cls-6" x1="13.46" y1="65.72" x2="4.61" y2="60.4"/><line class="cls-6" x1="13.46" y1="66.32" x2="4.61" y2="61"/><line class="cls-7" x1="15.62" y1="56.68" x2="14.4" y2="57.91"/><rect x="14.14" y="57.02" width="1.73" height="0.55" transform="translate(-36.11 27.38) rotate(-44.99)"/><rect x="14.21" y="68.21" width="1.75" height="0.56" transform="translate(-44.01 30.72) rotate(-45)"/><rect x="3.54" y="50.42" width="1.73" height="0.55" transform="translate(-34.55 17.97) rotate(-45)"/><polygon points="15.31 56.84 4.78 50.55 4.78 49.87 15.86 56.53 15.86 68.1 15.33 67.77 15.31 56.84"/><path d="M1.89,64.3l13.54,8.53,1.26-1.38V68.66l-.92-.57-.44.46.62.35-.86.86L2.42,62.05l.84-.83.33.2V60.7l-.45-.27L1.91,61.74Zm13.54,5.94.75-.74,0,1.61-.77.85Zm-13-7.48,12.38,7.53v1.49L2.47,64Z"/><polygon class="cls-8" points="67.98 58.04 67.98 65.03 78.47 58.38 78.47 51.52 67.98 58.04"/><path d="M77.65,53.09V58l-8.77,5.51v-5l8.77-5.43m.5-.9-9.77,6.05V64.4l9.77-6.15V52.19Z"/><rect x="78.11" y="50.75" width="0.24" height="0.76" transform="translate(-13.24 70.3) rotate(-45)"/><polygon points="67.58 57.57 78.07 51.06 78.07 50.77 67.33 57.44 67.33 64.78 67.57 64.91 67.58 57.57"/><path d="M79.33,58.17l-.54-.58-.2.12V58l.15-.09.37.36L67.67,65.43l-.38-.37.28-.16-.2-.2L67,65v1l.66.59L79.34,59.1Zm-11.81,8-.33-.38v-.46l.32.32ZM79.09,59,67.78,66.08v-.42l11.31-7Z"/><path class="cls-9" d="M77.86,52.71v5.42l-9.22,5.8V58.42l9.22-5.71"/><polygon class="cls-7" points="75.78 59.41 71.51 56.64 69.4 57.91 73.77 60.71 75.78 59.41"/><rect x="67.56" y="64.55" width="0.27" height="0.71" transform="translate(-26.06 66.88) rotate(-45)"/><rect x="67.56" y="57.42" width="0.27" height="0.71" transform="translate(-21.02 64.79) rotate(-45)"/><polygon class="cls-7" points="85.2 59.83 82.87 50.33 82.06 50.81 84.4 60.34 85.2 59.83"/><polygon class="cls-7" points="89.49 57.28 87.16 47.77 86.36 48.26 88.69 57.78 89.49 57.28"/><line class="cls-5" x1="81.22" y1="57.35" x2="85.78" y2="54.45"/><line class="cls-5" x1="85.69" y1="54.54" x2="90.25" y2="51.64"/><polygon class="cls-10" points="95.28 30.66 102.45 34.47 102.32 36.59 71.23 56.33 64.31 52.11 64.31 49.42 95.28 30.66"/><polyline class="cls-1" points="25.48 29.3 26.5 28.67 34.49 33.48 22.54 40.85 14.48 36.1 17.95 33.93"/><polyline class="cls-5" points="34.5 33.48 35.73 34.48 22.48 42.42 13.48 37.16 14.25 36.18"/><path class="cls-11" d="M16.27,36l6.43,3.86s3.27-5,6-6.1,4.26-.2,4.26-.2l-6.92-4.25a5.47,5.47,0,0,0-4.49,1A45,45,0,0,0,16.27,36Z"/><path class="cls-7" d="M21.58,30.31s-.79,4.37,4.29,5.6c-.69,1-.87.92-1.1,1.35s-4.6-4.65-5.82-4.67C18.69,32.51,21.58,30.31,21.58,30.31Z"/><path class="cls-6" d="M22.7,39.89s6.12-9.26,10.29-6.3"/><path class="cls-6" d="M26.6,29.7,33,33.59,22.7,39.89,16.27,36S22.43,26.74,26.6,29.7Z"/><line class="cls-5" x1="22.54" y1="40.85" x2="22.54" y2="42.42"/><polyline class="cls-1" points="40.8 38.34 41.82 37.71 49.81 42.52 37.87 49.89 29.8 45.14 33.28 42.98"/><polyline class="cls-5" points="49.83 42.52 51.05 43.52 37.8 51.46 28.81 46.2 29.58 45.22"/><path class="cls-12" d="M31.59,45.07,38,48.93s3.28-5,6-6.1,4.26-.2,4.26-.2L41.4,38.38a5.49,5.49,0,0,0-4.5,1A45.8,45.8,0,0,0,31.59,45.07Z"/><path class="cls-7" d="M36.9,39.35s-.79,4.37,4.29,5.6c-.69,1-.86.92-1.09,1.35s-4.6-4.65-5.83-4.67C34,41.55,36.9,39.35,36.9,39.35Z"/><path class="cls-6" d="M38,48.93s6.13-9.26,10.29-6.3"/><path class="cls-6" d="M41.92,38.74l6.39,3.89L38,48.93l-6.43-3.86S37.76,35.78,41.92,38.74Z"/><line class="cls-5" x1="37.86" y1="49.89" x2="37.86" y2="51.46"/><polyline class="cls-1" points="42.11 18.88 43.12 18.25 51.12 23.06 39.17 30.43 31.11 25.68 34.58 23.51"/><polyline class="cls-5" points="51.13 23.06 52.35 24.06 39.1 32 30.11 26.74 30.88 25.76"/><path class="cls-13" d="M32.9,25.61l6.42,3.86s3.28-4.95,6-6.1,4.26-.2,4.26-.2L42.7,18.92a5.47,5.47,0,0,0-4.49,1A45,45,0,0,0,32.9,25.61Z"/><path class="cls-7" d="M38.21,19.89s-.8,4.37,4.29,5.6c-.69,1-.87.92-1.1,1.35s-4.6-4.65-5.83-4.67C35.32,22.09,38.21,19.89,38.21,19.89Z"/><path class="cls-6" d="M39.32,29.47s6.13-9.26,10.3-6.3"/><path class="cls-6" d="M43.23,19.28l6.39,3.89-10.3,6.3L32.9,25.61S39.06,16.32,43.23,19.28Z"/><line class="cls-5" x1="39.17" y1="30.43" x2="39.17" y2="32"/><polyline class="cls-1" points="57.43 27.92 58.45 27.29 66.44 32.1 54.49 39.47 46.43 34.72 49.9 32.55"/><polyline class="cls-5" points="66.45 32.1 67.68 33.1 54.43 41.04 45.43 35.78 46.2 34.8"/><path class="cls-14" d="M48.22,34.65l6.43,3.86s3.27-4.95,6-6.1,4.26-.2,4.26-.2L58,28a5.47,5.47,0,0,0-4.49,1A45.8,45.8,0,0,0,48.22,34.65Z"/><path class="cls-7" d="M53.53,28.93s-.79,4.37,4.29,5.6c-.69,1-.87.92-1.1,1.35s-4.6-4.65-5.82-4.67C50.64,31.13,53.53,28.93,53.53,28.93Z"/><path class="cls-6" d="M54.65,38.51s6.12-9.26,10.29-6.3"/><path class="cls-6" d="M58.55,28.32l6.39,3.89-10.29,6.3-6.43-3.86S54.38,25.36,58.55,28.32Z"/><line class="cls-5" x1="54.49" y1="39.47" x2="54.49" y2="41.04"/><path d="M102.46,34.46l-7.23-4.12L64.31,49.42v2.69l6.92,4.24v0l0,0,31.06-19.77.13-.08v-2h0ZM95.24,31l6.09,3.47L71.07,53.14l-6-3.57ZM64.86,50.05l6,3.62,0,1.79-6-3.66Zm37-13.8L71.48,55.53l-.06-2h0l30.44-18.79Z"/><polygon class="cls-1" points="43.41 41.92 43.41 86.04 45.46 87.92 66.06 31.59 63.79 29.79 43.41 41.92"/><polygon class="cls-15" points="45.49 43.7 45.49 88.11 66.01 75.38 66.01 31.49 45.49 43.7"/><line class="cls-1" x1="43.41" y1="41.92" x2="45.49" y2="43.7"/><polyline class="cls-5" points="5.39 38.57 58.93 5.35 90.22 24.23"/><polyline class="cls-1" points="58.11 8.42 59.13 7.79 67.12 12.6 55.17 19.98 47.11 15.22 50.58 13.06"/><polyline class="cls-5" points="67.13 12.61 68.36 13.6 55.11 21.54 46.11 16.28 46.88 15.3"/><path class="cls-16" d="M48.9,15.15,55.33,19s3.27-5,6-6.11,4.26-.2,4.26-.2L58.71,8.47a5.45,5.45,0,0,0-4.5,1A45.24,45.24,0,0,0,48.9,15.15Z"/><path class="cls-7" d="M54.21,9.44S53.42,13.81,58.5,15c-.69,1-.87.92-1.1,1.36s-4.59-4.65-5.82-4.68C51.32,11.63,54.21,9.44,54.21,9.44Z"/><path class="cls-6" d="M55.33,19s6.12-9.27,10.29-6.31"/><path class="cls-6" d="M59.23,8.82l6.39,3.89L55.33,19,48.9,15.15S55.06,5.87,59.23,8.82Z"/><line class="cls-5" x1="55.17" y1="19.98" x2="55.17" y2="21.54"/><polyline class="cls-1" points="73.44 17.46 74.45 16.83 82.45 21.64 70.5 29.02 62.44 24.26 65.91 22.1"/><polyline class="cls-5" points="82.46 21.65 83.68 22.64 70.43 30.59 61.44 25.32 62.21 24.34"/><path class="cls-17" d="M64.23,24.19l6.42,3.87s3.28-5,6-6.11,4.26-.2,4.26-.2L74,17.51a5.49,5.49,0,0,0-4.5,1A44.89,44.89,0,0,0,64.23,24.19Z"/><path class="cls-7" d="M69.53,18.48s-.79,4.37,4.29,5.59c-.68,1-.86.92-1.09,1.36s-4.6-4.65-5.83-4.68C66.65,20.68,69.53,18.48,69.53,18.48Z"/><path class="cls-6" d="M70.65,28.06s6.13-9.27,10.3-6.31"/><path class="cls-6" d="M74.55,17.87,81,21.75l-10.3,6.31-6.42-3.87S70.39,14.91,74.55,17.87Z"/><line class="cls-5" x1="70.5" y1="29.02" x2="70.5" y2="30.59"/><line class="cls-6" x1="94.41" y1="31.17" x2="101" y2="34.95"/><line class="cls-6" x1="92.93" y1="32.19" x2="99.52" y2="35.97"/><line class="cls-6" x1="91.45" y1="33.22" x2="98.04" y2="37"/><line class="cls-6" x1="89.97" y1="34.24" x2="96.56" y2="38.02"/><line class="cls-6" x1="88.31" y1="35.08" x2="94.89" y2="38.86"/><line class="cls-6" x1="86.77" y1="36.05" x2="93.36" y2="39.83"/><line class="cls-6" x1="85.14" y1="36.92" x2="91.73" y2="40.7"/><line class="cls-6" x1="83.63" y1="37.92" x2="90.22" y2="41.7"/><line class="cls-6" x1="82.1" y1="38.89" x2="88.69" y2="42.67"/><line class="cls-6" x1="80.57" y1="39.86" x2="87.16" y2="43.64"/><line class="cls-6" x1="78.73" y1="40.88" x2="85.32" y2="44.66"/><line class="cls-6" x1="77.3" y1="41.85" x2="83.89" y2="45.63"/><line class="cls-6" x1="75.82" y1="42.82" x2="82.41" y2="46.6"/><line class="cls-6" x1="74.23" y1="43.84" x2="80.82" y2="47.62"/><line class="cls-6" x1="72.55" y1="44.81" x2="79.14" y2="48.59"/><line class="cls-6" x1="71.02" y1="45.73" x2="77.6" y2="49.51"/><line class="cls-6" x1="69.53" y1="46.75" x2="76.12" y2="50.53"/><line class="cls-6" x1="67.95" y1="47.72" x2="74.54" y2="51.5"/><line class="cls-6" x1="66.37" y1="48.69" x2="72.96" y2="52.47"/></g></g></svg>