<svg xmlns="http://www.w3.org/2000/svg" xmlns:xlink="http://www.w3.org/1999/xlink" viewBox="0 0 90.95 89.73"><defs><style>.cls-1,.cls-4,.cls-74{fill:none;}.cls-2,.cls-5,.cls-52,.cls-68,.cls-69,.cls-8{fill:#fff;}.cls-2,.cls-3,.cls-4,.cls-5,.cls-52,.cls-68,.cls-69,.cls-74{stroke:#000;}.cls-2,.cls-3{stroke-linejoin:round;}.cls-3{fill:#39b54a;}.cls-4,.cls-5,.cls-52,.cls-68,.cls-69,.cls-74{stroke-miterlimit:10;}.cls-4,.cls-5{stroke-width:0.75px;}.cls-6{clip-path:url(#clip-path);}.cls-7{clip-path:url(#clip-path-2);}.cls-9{fill:#fefefe;}.cls-10{fill:#fdfdfd;}.cls-11{fill:#fcfcfc;}.cls-12{fill:#fbfbfb;}.cls-13{fill:#fafafa;}.cls-14{fill:#f9f9f9;}.cls-15{fill:#f8f8f8;}.cls-16{fill:#f7f7f7;}.cls-17{fill:#f6f6f6;}.cls-18{fill:#f5f5f5;}.cls-19{fill:#f4f4f4;}.cls-20{fill:#f3f3f3;}.cls-21{fill:#f2f2f2;}.cls-22{fill:#f1f1f1;}.cls-23{fill:#f0f0f0;}.cls-24{fill:#efefef;}.cls-25{fill:#eee;}.cls-26{fill:#ededed;}.cls-27{fill:#ececec;}.cls-28{fill:#eaeaea;}.cls-29{fill:#e9e9e9;}.cls-30{fill:#e8e8e8;}.cls-31{fill:#e7e7e7;}.cls-32{fill:#e6e6e6;}.cls-33{fill:#e5e5e5;}.cls-34{fill:#e4e4e4;}.cls-35{fill:#e3e3e3;}.cls-36{fill:#e2e2e2;}.cls-37{fill:#e1e1e1;}.cls-38{fill:#e0e0e0;}.cls-39{fill:#dfdfdf;}.cls-40{fill:#dedede;}.cls-41{fill:#ddd;}.cls-42{fill:#dcdcdc;}.cls-43{fill:#dbdbdb;}.cls-44{fill:#dadada;}.cls-45{fill:#d9d9d9;}.cls-46{fill:#d8d8d8;}.cls-47{fill:#d7d7d7;}.cls-48{clip-path:url(#clip-path-3);}.cls-49{clip-path:url(#clip-path-4);}.cls-50{clip-path:url(#clip-path-5);}.cls-51{clip-path:url(#clip-path-6);}.cls-52{stroke-width:0.5px;}.cls-53{fill:url(#New_Gradient_Swatch_3);}.cls-54{clip-path:url(#clip-path-7);}.cls-55{clip-path:url(#clip-path-8);}.cls-56{clip-path:url(#clip-path-9);}.cls-57{clip-path:url(#clip-path-10);}.cls-58{clip-path:url(#clip-path-11);}.cls-59{clip-path:url(#clip-path-12);}.cls-60{fill:url(#New_Gradient_Swatch_3-2);}.cls-61{clip-path:url(#clip-path-13);}.cls-62{clip-path:url(#clip-path-14);}.cls-63{clip-path:url(#clip-path-15);}.cls-64{clip-path:url(#clip-path-16);}.cls-65{clip-path:url(#clip-path-17);}.cls-66{clip-path:url(#clip-path-18);}.cls-67{fill:url(#New_Gradient_Swatch_3-3);}.cls-69{stroke-width:0.25px;}.cls-70{fill:url(#New_Gradient_Swatch_3-4);}.cls-71{fill:url(#New_Gradient_Swatch_3-5);}.cls-72{fill:url(#New_Gradient_Swatch_3-6);}.cls-73{fill:url(#New_Gradient_Swatch_3-7);}</style><clipPath id="clip-path"><path class="cls-1" d="M45,10.49a26.5,26.5,0,0,0,13,.14c-1.78,2.8-10.12,13.54-10.12,13.54l-9.58-5Z"/></clipPath><clipPath id="clip-path-2"><polygon class="cls-1" points="40.7 18.77 48.24 23.24 60.67 6.11 52.94 1.95 40.7 18.77"/></clipPath><clipPath id="clip-path-3"><path class="cls-1" d="M55.83,13.45c.2,0,4.72,1.51,14.84-.55-2.46,3-12.52,16.9-12.52,16.9L47.82,24.12Z"/></clipPath><clipPath id="clip-path-4"><polygon class="cls-1" points="49.01 23.73 58.18 28.93 70.76 11.51 61.55 6.45 49.01 23.73"/></clipPath><clipPath id="clip-path-5"><path class="cls-1" d="M69.23,15.09c.21,0,9,5.7,15.26,3S68.62,36.71,68.62,36.71L58,30.28Z"/></clipPath><clipPath id="clip-path-6"><polygon class="cls-1" points="59.09 29.52 68.62 34.91 82.21 17.62 71.72 12.01 59.09 29.52"/></clipPath><linearGradient id="New_Gradient_Swatch_3" x1="75.35" y1="25.07" x2="78.84" y2="30.15" gradientUnits="userSpaceOnUse"><stop offset="0" stop-color="#fff"/><stop offset="1" stop-color="#d7d7d7"/></linearGradient><clipPath id="clip-path-7"><path class="cls-1" d="M28.31,19.88a26.53,26.53,0,0,0,13,.13c-1.78,2.81-10.12,13.55-10.12,13.55l-9.58-5Z"/></clipPath><clipPath id="clip-path-8"><polygon class="cls-1" points="24 28.16 31.54 32.62 43.97 15.5 36.25 11.33 24 28.16"/></clipPath><clipPath id="clip-path-9"><path class="cls-1" d="M39.13,22.84c.2,0,4.72,1.5,14.84-.55-2.46,3-12.51,16.89-12.51,16.89L31.13,33.51Z"/></clipPath><clipPath id="clip-path-10"><polygon class="cls-1" points="32.31 33.12 41.48 38.32 54.06 20.9 44.85 15.84 32.31 33.12"/></clipPath><clipPath id="clip-path-11"><path class="cls-1" d="M52.54,24.48c.2,0,9,5.7,15.25,3S51.92,46.09,51.92,46.09L41.25,39.66Z"/></clipPath><clipPath id="clip-path-12"><polygon class="cls-1" points="42.39 38.91 51.92 44.29 65.51 27.01 55.02 21.4 42.39 38.91"/></clipPath><linearGradient id="New_Gradient_Swatch_3-2" x1="58.65" y1="34.46" x2="62.15" y2="39.54" xlink:href="#New_Gradient_Swatch_3"/><clipPath id="clip-path-13"><path class="cls-1" d="M11.72,29.81a26.45,26.45,0,0,0,13,.14c-1.78,2.8-10.12,13.54-10.12,13.54L5,38.5Z"/></clipPath><clipPath id="clip-path-14"><polygon class="cls-1" points="7.41 38.09 14.96 42.55 27.39 25.43 19.66 21.27 7.41 38.09"/></clipPath><clipPath id="clip-path-15"><path class="cls-1" d="M22.54,32.77c.21,0,4.72,1.5,14.84-.55-2.46,3-12.51,16.89-12.51,16.89L14.54,43.44Z"/></clipPath><clipPath id="clip-path-16"><polygon class="cls-1" points="15.72 43.05 24.89 48.25 37.48 30.83 28.26 25.77 15.72 43.05"/></clipPath><clipPath id="clip-path-17"><path class="cls-1" d="M36,34.41c.2,0,9,5.7,15.25,3S35.33,56,35.33,56L24.66,49.59Z"/></clipPath><clipPath id="clip-path-18"><polygon class="cls-1" points="25.8 48.84 35.33 54.22 48.92 36.94 38.43 31.33 25.8 48.84"/></clipPath><linearGradient id="New_Gradient_Swatch_3-3" x1="42.06" y1="44.39" x2="45.56" y2="49.47" xlink:href="#New_Gradient_Swatch_3"/><linearGradient id="New_Gradient_Swatch_3-4" x1="-480.79" y1="58.83" x2="-476.38" y2="67.42" gradientTransform="translate(487.34)" xlink:href="#New_Gradient_Swatch_3"/><linearGradient id="New_Gradient_Swatch_3-5" x1="41.15" y1="71" x2="54.54" y2="71" xlink:href="#New_Gradient_Swatch_3"/><linearGradient id="New_Gradient_Swatch_3-6" x1="57.59" y1="61.32" x2="70.99" y2="61.32" xlink:href="#New_Gradient_Swatch_3"/><linearGradient id="New_Gradient_Swatch_3-7" x1="74.03" y1="51.36" x2="87.43" y2="51.36" xlink:href="#New_Gradient_Swatch_3"/></defs><g id="Layer_2" data-name="Layer 2"><g id="Layer_1-2" data-name="Layer 1"><polygon class="cls-2" points="90.3 27.25 35.67 59.07 0.68 38.39 55.39 6.35 90.3 27.25"/><polygon class="cls-3" points="0.68 38.39 35.67 59.01 35.67 89.23 0.5 68.25 0.68 38.39"/><polygon class="cls-3" points="35.82 58.78 35.82 89.19 90.44 57.13 90.44 27.22 35.82 58.78"/><polyline class="cls-4" points="8.09 34.98 2.98 38.11 35.78 57.65 87.6 27.28 84.2 25.41"/><polygon class="cls-5" points="38.76 19.37 52.44 0.49 83.9 18.5 68.85 36.61 38.76 19.37"/><g class="cls-6"><g class="cls-7"><polygon class="cls-8" points="60.67 2.63 40.7 8 40.7 1.95 60.67 1.95 60.67 2.63"/><polygon class="cls-8" points="60.67 3.02 40.7 8.4 40.7 8 60.67 2.63 60.67 3.02"/><polygon class="cls-9" points="60.67 3.42 40.7 8.79 40.7 8.4 60.67 3.02 60.67 3.42"/><polygon class="cls-10" points="60.67 3.81 40.7 9.18 40.7 8.79 60.67 3.42 60.67 3.81"/><polygon class="cls-11" points="60.67 4.2 40.7 9.58 40.7 9.18 60.67 3.81 60.67 4.2"/><polygon class="cls-12" points="60.67 4.6 40.7 9.97 40.7 9.58 60.67 4.2 60.67 4.6"/><polygon class="cls-13" points="60.67 4.99 40.7 10.37 40.7 9.97 60.67 4.6 60.67 4.99"/><polygon class="cls-14" points="60.67 5.38 40.7 10.76 40.7 10.37 60.67 4.99 60.67 5.38"/><polygon class="cls-15" points="60.67 5.78 40.7 11.15 40.7 10.76 60.67 5.38 60.67 5.78"/><polygon class="cls-16" points="60.67 6.17 40.7 11.55 40.7 11.15 60.67 5.78 60.67 6.17"/><polygon class="cls-17" points="60.67 6.57 40.7 11.94 40.7 11.55 60.67 6.17 60.67 6.57"/><polygon class="cls-18" points="60.67 6.96 40.7 12.33 40.7 11.94 60.67 6.57 60.67 6.96"/><polygon class="cls-19" points="60.67 7.35 40.7 12.73 40.7 12.33 60.67 6.96 60.67 7.35"/><polygon class="cls-20" points="60.67 7.75 40.7 13.12 40.7 12.73 60.67 7.35 60.67 7.75"/><polygon class="cls-21" points="60.67 8.14 40.7 13.52 40.7 13.12 60.67 7.75 60.67 8.14"/><polygon class="cls-22" points="60.67 8.54 40.7 13.91 40.7 13.52 60.67 8.14 60.67 8.54"/><polygon class="cls-23" points="60.67 8.93 40.7 14.3 40.7 13.91 60.67 8.54 60.67 8.93"/><polygon class="cls-24" points="60.67 9.32 40.7 14.7 40.7 14.3 60.67 8.93 60.67 9.32"/><polygon class="cls-25" points="60.67 9.72 40.7 15.09 40.7 14.7 60.67 9.32 60.67 9.72"/><polygon class="cls-26" points="60.67 10.11 40.7 15.48 40.7 15.09 60.67 9.72 60.67 10.11"/><polygon class="cls-27" points="60.67 10.51 40.7 15.88 40.7 15.48 60.67 10.11 60.67 10.51"/><polygon class="cls-28" points="60.67 10.9 40.7 16.27 40.7 15.88 60.67 10.51 60.67 10.9"/><polygon class="cls-29" points="60.67 11.29 40.7 16.67 40.7 16.27 60.67 10.9 60.67 11.29"/><polygon class="cls-30" points="60.67 11.69 40.7 17.06 40.7 16.67 60.67 11.29 60.67 11.69"/><polygon class="cls-31" points="60.67 12.08 40.7 17.45 40.7 17.06 60.67 11.69 60.67 12.08"/><polygon class="cls-32" points="60.67 12.47 40.7 17.85 40.7 17.45 60.67 12.08 60.67 12.47"/><polygon class="cls-33" points="60.67 12.87 40.7 18.24 40.7 17.85 60.67 12.47 60.67 12.87"/><polygon class="cls-34" points="60.67 13.26 40.7 18.64 40.7 18.24 60.67 12.87 60.67 13.26"/><polygon class="cls-35" points="60.67 13.65 40.7 19.03 40.7 18.64 60.67 13.26 60.67 13.65"/><polygon class="cls-36" points="60.67 14.05 40.7 19.42 40.7 19.03 60.67 13.65 60.67 14.05"/><polygon class="cls-37" points="60.67 14.44 40.7 19.82 40.7 19.42 60.67 14.05 60.67 14.44"/><polygon class="cls-38" points="60.67 14.84 40.7 20.21 40.7 19.82 60.67 14.44 60.67 14.84"/><polygon class="cls-39" points="60.67 15.23 40.7 20.6 40.7 20.21 60.67 14.84 60.67 15.23"/><polygon class="cls-40" points="60.67 15.62 40.7 21 40.7 20.6 60.67 15.23 60.67 15.62"/><polygon class="cls-41" points="60.67 16.02 40.7 21.39 40.7 21 60.67 15.62 60.67 16.02"/><polygon class="cls-42" points="60.67 16.41 40.7 21.79 40.7 21.39 60.67 16.02 60.67 16.41"/><polygon class="cls-43" points="60.67 16.8 40.7 22.18 40.7 21.79 60.67 16.41 60.67 16.8"/><polygon class="cls-44" points="60.67 17.2 40.7 22.57 40.7 22.18 60.67 16.8 60.67 17.2"/><polygon class="cls-45" points="60.67 17.59 40.7 22.97 40.7 22.57 60.67 17.2 60.67 17.59"/><polygon class="cls-46" points="60.67 17.99 41.16 23.24 40.7 23.24 40.7 22.97 60.67 17.59 60.67 17.99"/><polygon class="cls-47" points="60.67 18.38 42.62 23.24 41.16 23.24 60.67 17.99 60.67 18.38"/><polygon class="cls-47" points="42.62 23.24 60.67 18.38 60.67 23.24 42.62 23.24"/></g></g><g class="cls-48"><g class="cls-49"><polygon class="cls-8" points="70.76 6.83 49.01 12.95 49.01 6.45 70.76 6.45 70.76 6.83"/><polygon class="cls-8" points="70.76 7.25 49.01 13.37 49.01 12.95 70.76 6.83 70.76 7.25"/><polygon class="cls-9" points="70.76 7.67 49.01 13.79 49.01 13.37 70.76 7.25 70.76 7.67"/><polygon class="cls-10" points="70.76 8.1 49.01 14.22 49.01 13.79 70.76 7.67 70.76 8.1"/><polygon class="cls-11" points="70.76 8.52 49.01 14.64 49.01 14.22 70.76 8.1 70.76 8.52"/><polygon class="cls-12" points="70.76 8.95 49.01 15.06 49.01 14.64 70.76 8.52 70.76 8.95"/><polygon class="cls-13" points="70.76 9.37 49.01 15.49 49.01 15.06 70.76 8.95 70.76 9.37"/><polygon class="cls-14" points="70.76 9.79 49.01 15.91 49.01 15.49 70.76 9.37 70.76 9.79"/><polygon class="cls-15" points="70.76 10.22 49.01 16.33 49.01 15.91 70.76 9.79 70.76 10.22"/><polygon class="cls-16" points="70.76 10.64 49.01 16.76 49.01 16.33 70.76 10.22 70.76 10.64"/><polygon class="cls-17" points="70.76 11.06 49.01 17.18 49.01 16.76 70.76 10.64 70.76 11.06"/><polygon class="cls-18" points="70.76 11.49 49.01 17.6 49.01 17.18 70.76 11.06 70.76 11.49"/><polygon class="cls-19" points="70.76 11.91 49.01 18.03 49.01 17.6 70.76 11.49 70.76 11.91"/><polygon class="cls-20" points="70.76 12.33 49.01 18.45 49.01 18.03 70.76 11.91 70.76 12.33"/><polygon class="cls-21" points="70.76 12.76 49.01 18.87 49.01 18.45 70.76 12.33 70.76 12.76"/><polygon class="cls-22" points="70.76 13.18 49.01 19.3 49.01 18.87 70.76 12.76 70.76 13.18"/><polygon class="cls-23" points="70.76 13.6 49.01 19.72 49.01 19.3 70.76 13.18 70.76 13.6"/><polygon class="cls-24" points="70.76 14.03 49.01 20.14 49.01 19.72 70.76 13.6 70.76 14.03"/><polygon class="cls-25" points="70.76 14.45 49.01 20.57 49.01 20.14 70.76 14.03 70.76 14.45"/><polygon class="cls-26" points="70.76 14.87 49.01 20.99 49.01 20.57 70.76 14.45 70.76 14.87"/><polygon class="cls-27" points="70.76 15.3 49.01 21.41 49.01 20.99 70.76 14.87 70.76 15.3"/><polygon class="cls-28" points="70.76 15.72 49.01 21.84 49.01 21.41 70.76 15.3 70.76 15.72"/><polygon class="cls-29" points="70.76 16.14 49.01 22.26 49.01 21.84 70.76 15.72 70.76 16.14"/><polygon class="cls-30" points="70.76 16.57 49.01 22.68 49.01 22.26 70.76 16.14 70.76 16.57"/><polygon class="cls-31" points="70.76 16.99 49.01 23.11 49.01 22.68 70.76 16.57 70.76 16.99"/><polygon class="cls-32" points="70.76 17.41 49.01 23.53 49.01 23.11 70.76 16.99 70.76 17.41"/><polygon class="cls-33" points="70.76 17.84 49.01 23.95 49.01 23.53 70.76 17.41 70.76 17.84"/><polygon class="cls-34" points="70.76 18.26 49.01 24.38 49.01 23.95 70.76 17.84 70.76 18.26"/><polygon class="cls-35" points="70.76 18.68 49.01 24.8 49.01 24.38 70.76 18.26 70.76 18.68"/><polygon class="cls-36" points="70.76 19.11 49.01 25.23 49.01 24.8 70.76 18.68 70.76 19.11"/><polygon class="cls-37" points="70.76 19.53 49.01 25.65 49.01 25.23 70.76 19.11 70.76 19.53"/><polygon class="cls-38" points="70.76 19.95 49.01 26.07 49.01 25.65 70.76 19.53 70.76 19.95"/><polygon class="cls-39" points="70.76 20.38 49.01 26.5 49.01 26.07 70.76 19.95 70.76 20.38"/><polygon class="cls-40" points="70.76 20.8 49.01 26.92 49.01 26.5 70.76 20.38 70.76 20.8"/><polygon class="cls-41" points="70.76 21.23 49.01 27.34 49.01 26.92 70.76 20.8 70.76 21.23"/><polygon class="cls-42" points="70.76 21.65 49.01 27.77 49.01 27.34 70.76 21.23 70.76 21.65"/><polygon class="cls-43" points="70.76 22.07 49.01 28.19 49.01 27.77 70.76 21.65 70.76 22.07"/><polygon class="cls-44" points="70.76 22.5 49.01 28.61 49.01 28.19 70.76 22.07 70.76 22.5"/><polygon class="cls-45" points="70.76 22.92 49.38 28.93 49.01 28.93 49.01 28.61 70.76 22.5 70.76 22.92"/><polygon class="cls-46" points="70.76 23.34 50.89 28.93 49.38 28.93 70.76 22.92 70.76 23.34"/><polygon class="cls-47" points="70.76 23.77 52.39 28.93 50.89 28.93 70.76 23.34 70.76 23.77"/><polygon class="cls-47" points="52.39 28.93 70.76 23.77 70.76 28.93 52.39 28.93"/></g></g><g class="cls-50"><g class="cls-51"><polygon class="cls-8" points="82.21 12.1 59.09 18.6 59.09 12.01 82.21 12.01 82.21 12.1"/><polygon class="cls-8" points="82.21 12.53 59.09 19.04 59.09 18.6 82.21 12.1 82.21 12.53"/><polygon class="cls-9" points="82.21 12.97 59.09 19.47 59.09 19.04 82.21 12.53 82.21 12.97"/><polygon class="cls-10" points="82.21 13.4 59.09 19.9 59.09 19.47 82.21 12.97 82.21 13.4"/><polygon class="cls-11" points="82.21 13.83 59.09 20.33 59.09 19.9 82.21 13.4 82.21 13.83"/><polygon class="cls-12" points="82.21 14.27 59.09 20.77 59.09 20.33 82.21 13.83 82.21 14.27"/><polygon class="cls-13" points="82.21 14.7 59.09 21.2 59.09 20.77 82.21 14.27 82.21 14.7"/><polygon class="cls-14" points="82.21 15.13 59.09 21.63 59.09 21.2 82.21 14.7 82.21 15.13"/><polygon class="cls-15" points="82.21 15.56 59.09 22.07 59.09 21.63 82.21 15.13 82.21 15.56"/><polygon class="cls-16" points="82.21 16 59.09 22.5 59.09 22.07 82.21 15.56 82.21 16"/><polygon class="cls-17" points="82.21 16.43 59.09 22.93 59.09 22.5 82.21 16 82.21 16.43"/><polygon class="cls-18" points="82.21 16.86 59.09 23.36 59.09 22.93 82.21 16.43 82.21 16.86"/><polygon class="cls-19" points="82.21 17.3 59.09 23.8 59.09 23.36 82.21 16.86 82.21 17.3"/><polygon class="cls-20" points="82.21 17.73 59.09 24.23 59.09 23.8 82.21 17.3 82.21 17.73"/><polygon class="cls-21" points="82.21 18.16 59.09 24.66 59.09 24.23 82.21 17.73 82.21 18.16"/><polygon class="cls-22" points="82.21 18.59 59.09 25.1 59.09 24.66 82.21 18.16 82.21 18.59"/><polygon class="cls-23" points="82.21 19.03 59.09 25.53 59.09 25.1 82.21 18.59 82.21 19.03"/><polygon class="cls-24" points="82.21 19.46 59.09 25.96 59.09 25.53 82.21 19.03 82.21 19.46"/><polygon class="cls-25" points="82.21 19.89 59.09 26.4 59.09 25.96 82.21 19.46 82.21 19.89"/><polygon class="cls-26" points="82.21 20.33 59.09 26.83 59.09 26.4 82.21 19.89 82.21 20.33"/><polygon class="cls-27" points="82.21 20.76 59.09 27.26 59.09 26.83 82.21 20.33 82.21 20.76"/><polygon class="cls-28" points="82.21 21.19 59.09 27.7 59.09 27.26 82.21 20.76 82.21 21.19"/><polygon class="cls-29" points="82.21 21.63 59.09 28.13 59.09 27.7 82.21 21.19 82.21 21.63"/><polygon class="cls-30" points="82.21 22.06 59.09 28.56 59.09 28.13 82.21 21.63 82.21 22.06"/><polygon class="cls-31" points="82.21 22.49 59.09 28.99 59.09 28.56 82.21 22.06 82.21 22.49"/><polygon class="cls-32" points="82.21 22.93 59.09 29.43 59.09 28.99 82.21 22.49 82.21 22.93"/><polygon class="cls-33" points="82.21 23.36 59.09 29.86 59.09 29.43 82.21 22.93 82.21 23.36"/><polygon class="cls-34" points="82.21 23.79 59.09 30.29 59.09 29.86 82.21 23.36 82.21 23.79"/><polygon class="cls-35" points="82.21 24.22 59.09 30.73 59.09 30.29 82.21 23.79 82.21 24.22"/><polygon class="cls-36" points="82.21 24.66 59.09 31.16 59.09 30.73 82.21 24.22 82.21 24.66"/><polygon class="cls-37" points="82.21 25.09 59.09 31.59 59.09 31.16 82.21 24.66 82.21 25.09"/><polygon class="cls-38" points="82.21 25.52 59.09 32.03 59.09 31.59 82.21 25.09 82.21 25.52"/><polygon class="cls-39" points="82.21 25.96 59.09 32.46 59.09 32.03 82.21 25.52 82.21 25.96"/><polygon class="cls-40" points="82.21 26.39 59.09 32.89 59.09 32.46 82.21 25.96 82.21 26.39"/><polygon class="cls-41" points="82.21 26.82 59.09 33.33 59.09 32.89 82.21 26.39 82.21 26.82"/><polygon class="cls-42" points="82.21 27.25 59.09 33.76 59.09 33.33 82.21 26.82 82.21 27.25"/><polygon class="cls-43" points="82.21 27.69 59.09 34.19 59.09 33.76 82.21 27.25 82.21 27.69"/><polygon class="cls-44" points="82.21 28.12 59.09 34.62 59.09 34.19 82.21 27.69 82.21 28.12"/><polygon class="cls-45" points="82.21 28.55 59.63 34.91 59.09 34.91 59.09 34.62 82.21 28.12 82.21 28.55"/><polygon class="cls-46" points="82.21 28.99 61.17 34.91 59.63 34.91 82.21 28.55 82.21 28.99"/><polygon class="cls-47" points="82.21 29.42 62.7 34.91 61.17 34.91 82.21 28.99 82.21 29.42"/><polygon class="cls-47" points="62.7 34.91 82.21 29.42 82.21 34.91 62.7 34.91"/></g></g><line class="cls-52" x1="48.18" y1="23.31" x2="60.45" y2="6.13"/><line class="cls-52" x1="48.81" y1="23.69" x2="61.1" y2="6.48"/><line class="cls-52" x1="58.19" y1="28.99" x2="70.5" y2="11.85"/><line class="cls-52" x1="58.83" y1="29.37" x2="71.16" y2="12.2"/><polygon class="cls-53" points="84.04 19 84.04 27.68 69.95 35.93 84.04 19"/><path d="M83.79,19.69v7.85L71.06,35,83.79,19.69m.5-1.38L68.85,36.87l15.44-9V18.31Z"/><polygon class="cls-4" points="40.19 19.06 52.73 1.76 82.21 18.62 68.6 35.34 40.19 19.06"/><polygon class="cls-5" points="22.06 28.76 35.74 9.88 67.2 27.89 52.15 45.99 22.06 28.76"/><g class="cls-54"><g class="cls-55"><polygon class="cls-8" points="43.97 12.01 24 17.39 24 11.33 43.97 11.33 43.97 12.01"/><polygon class="cls-8" points="43.97 12.41 24 17.78 24 17.39 43.97 12.01 43.97 12.41"/><polygon class="cls-9" points="43.97 12.8 24 18.18 24 17.78 43.97 12.41 43.97 12.8"/><polygon class="cls-10" points="43.97 13.2 24 18.57 24 18.18 43.97 12.8 43.97 13.2"/><polygon class="cls-11" points="43.97 13.59 24 18.96 24 18.57 43.97 13.2 43.97 13.59"/><polygon class="cls-12" points="43.97 13.98 24 19.36 24 18.96 43.97 13.59 43.97 13.98"/><polygon class="cls-13" points="43.97 14.38 24 19.75 24 19.36 43.97 13.98 43.97 14.38"/><polygon class="cls-14" points="43.97 14.77 24 20.14 24 19.75 43.97 14.38 43.97 14.77"/><polygon class="cls-15" points="43.97 15.16 24 20.54 24 20.14 43.97 14.77 43.97 15.16"/><polygon class="cls-16" points="43.97 15.56 24 20.93 24 20.54 43.97 15.16 43.97 15.56"/><polygon class="cls-17" points="43.97 15.95 24 21.33 24 20.93 43.97 15.56 43.97 15.95"/><polygon class="cls-18" points="43.97 16.35 24 21.72 24 21.33 43.97 15.95 43.97 16.35"/><polygon class="cls-19" points="43.97 16.74 24 22.11 24 21.72 43.97 16.35 43.97 16.74"/><polygon class="cls-20" points="43.97 17.13 24 22.51 24 22.11 43.97 16.74 43.97 17.13"/><polygon class="cls-21" points="43.97 17.53 24 22.9 24 22.51 43.97 17.13 43.97 17.53"/><polygon class="cls-22" points="43.97 17.92 24 23.3 24 22.9 43.97 17.53 43.97 17.92"/><polygon class="cls-23" points="43.97 18.32 24 23.69 24 23.3 43.97 17.92 43.97 18.32"/><polygon class="cls-24" points="43.97 18.71 24 24.08 24 23.69 43.97 18.32 43.97 18.71"/><polygon class="cls-25" points="43.97 19.1 24 24.48 24 24.08 43.97 18.71 43.97 19.1"/><polygon class="cls-26" points="43.97 19.5 24 24.87 24 24.48 43.97 19.1 43.97 19.5"/><polygon class="cls-27" points="43.97 19.89 24 25.26 24 24.87 43.97 19.5 43.97 19.89"/><polygon class="cls-28" points="43.97 20.28 24 25.66 24 25.26 43.97 19.89 43.97 20.28"/><polygon class="cls-29" points="43.97 20.68 24 26.05 24 25.66 43.97 20.28 43.97 20.68"/><polygon class="cls-30" points="43.97 21.07 24 26.45 24 26.05 43.97 20.68 43.97 21.07"/><polygon class="cls-31" points="43.97 21.46 24 26.84 24 26.45 43.97 21.07 43.97 21.46"/><polygon class="cls-32" points="43.97 21.86 24 27.23 24 26.84 43.97 21.46 43.97 21.86"/><polygon class="cls-33" points="43.97 22.25 24 27.63 24 27.23 43.97 21.86 43.97 22.25"/><polygon class="cls-34" points="43.97 22.65 24 28.02 24 27.63 43.97 22.25 43.97 22.65"/><polygon class="cls-35" points="43.97 23.04 24 28.41 24 28.02 43.97 22.65 43.97 23.04"/><polygon class="cls-36" points="43.97 23.43 24 28.81 24 28.41 43.97 23.04 43.97 23.43"/><polygon class="cls-37" points="43.97 23.83 24 29.2 24 28.81 43.97 23.43 43.97 23.83"/><polygon class="cls-38" points="43.97 24.22 24 29.6 24 29.2 43.97 23.83 43.97 24.22"/><polygon class="cls-39" points="43.97 24.62 24 29.99 24 29.6 43.97 24.22 43.97 24.62"/><polygon class="cls-40" points="43.97 25.01 24 30.38 24 29.99 43.97 24.62 43.97 25.01"/><polygon class="cls-41" points="43.97 25.4 24 30.78 24 30.38 43.97 25.01 43.97 25.4"/><polygon class="cls-42" points="43.97 25.8 24 31.17 24 30.78 43.97 25.4 43.97 25.8"/><polygon class="cls-43" points="43.97 26.19 24 31.57 24 31.17 43.97 25.8 43.97 26.19"/><polygon class="cls-44" points="43.97 26.59 24 31.96 24 31.57 43.97 26.19 43.97 26.59"/><polygon class="cls-45" points="43.97 26.98 24 32.35 24 31.96 43.97 26.59 43.97 26.98"/><polygon class="cls-46" points="43.97 27.37 24.46 32.62 24 32.62 24 32.35 43.97 26.98 43.97 27.37"/><polygon class="cls-47" points="43.97 27.77 25.92 32.62 24.46 32.62 43.97 27.37 43.97 27.77"/><polygon class="cls-47" points="25.92 32.62 43.97 27.77 43.97 32.62 25.92 32.62"/></g></g><g class="cls-56"><g class="cls-57"><polygon class="cls-8" points="54.06 16.21 32.31 22.33 32.31 15.84 54.06 15.84 54.06 16.21"/><polygon class="cls-8" points="54.06 16.64 32.31 22.75 32.31 22.33 54.06 16.21 54.06 16.64"/><polygon class="cls-9" points="54.06 17.06 32.31 23.18 32.31 22.75 54.06 16.64 54.06 17.06"/><polygon class="cls-10" points="54.06 17.48 32.31 23.6 32.31 23.18 54.06 17.06 54.06 17.48"/><polygon class="cls-11" points="54.06 17.91 32.31 24.02 32.31 23.6 54.06 17.48 54.06 17.91"/><polygon class="cls-12" points="54.06 18.33 32.31 24.45 32.31 24.02 54.06 17.91 54.06 18.33"/><polygon class="cls-13" points="54.06 18.75 32.31 24.87 32.31 24.45 54.06 18.33 54.06 18.75"/><polygon class="cls-14" points="54.06 19.18 32.31 25.3 32.31 24.87 54.06 18.75 54.06 19.18"/><polygon class="cls-15" points="54.06 19.6 32.31 25.72 32.31 25.3 54.06 19.18 54.06 19.6"/><polygon class="cls-16" points="54.06 20.02 32.31 26.14 32.31 25.72 54.06 19.6 54.06 20.02"/><polygon class="cls-17" points="54.06 20.45 32.31 26.57 32.31 26.14 54.06 20.02 54.06 20.45"/><polygon class="cls-18" points="54.06 20.87 32.31 26.99 32.31 26.57 54.06 20.45 54.06 20.87"/><polygon class="cls-19" points="54.06 21.3 32.31 27.41 32.31 26.99 54.06 20.87 54.06 21.3"/><polygon class="cls-20" points="54.06 21.72 32.31 27.84 32.31 27.41 54.06 21.3 54.06 21.72"/><polygon class="cls-21" points="54.06 22.14 32.31 28.26 32.31 27.84 54.06 21.72 54.06 22.14"/><polygon class="cls-22" points="54.06 22.57 32.31 28.68 32.31 28.26 54.06 22.14 54.06 22.57"/><polygon class="cls-23" points="54.06 22.99 32.31 29.11 32.31 28.68 54.06 22.57 54.06 22.99"/><polygon class="cls-24" points="54.06 23.41 32.31 29.53 32.31 29.11 54.06 22.99 54.06 23.41"/><polygon class="cls-25" points="54.06 23.84 32.31 29.95 32.31 29.53 54.06 23.41 54.06 23.84"/><polygon class="cls-26" points="54.06 24.26 32.31 30.38 32.31 29.95 54.06 23.84 54.06 24.26"/><polygon class="cls-27" points="54.06 24.68 32.31 30.8 32.31 30.38 54.06 24.26 54.06 24.68"/><polygon class="cls-28" points="54.06 25.11 32.31 31.22 32.31 30.8 54.06 24.68 54.06 25.11"/><polygon class="cls-29" points="54.06 25.53 32.31 31.65 32.31 31.22 54.06 25.11 54.06 25.53"/><polygon class="cls-30" points="54.06 25.95 32.31 32.07 32.31 31.65 54.06 25.53 54.06 25.95"/><polygon class="cls-31" points="54.06 26.38 32.31 32.49 32.31 32.07 54.06 25.95 54.06 26.38"/><polygon class="cls-32" points="54.06 26.8 32.31 32.92 32.31 32.49 54.06 26.38 54.06 26.8"/><polygon class="cls-33" points="54.06 27.22 32.31 33.34 32.31 32.92 54.06 26.8 54.06 27.22"/><polygon class="cls-34" points="54.06 27.65 32.31 33.76 32.31 33.34 54.06 27.22 54.06 27.65"/><polygon class="cls-35" points="54.06 28.07 32.31 34.19 32.31 33.76 54.06 27.65 54.06 28.07"/><polygon class="cls-36" points="54.06 28.49 32.31 34.61 32.31 34.19 54.06 28.07 54.06 28.49"/><polygon class="cls-37" points="54.06 28.92 32.31 35.03 32.31 34.61 54.06 28.49 54.06 28.92"/><polygon class="cls-38" points="54.06 29.34 32.31 35.46 32.31 35.03 54.06 28.92 54.06 29.34"/><polygon class="cls-39" points="54.06 29.76 32.31 35.88 32.31 35.46 54.06 29.34 54.06 29.76"/><polygon class="cls-40" points="54.06 30.19 32.31 36.3 32.31 35.88 54.06 29.76 54.06 30.19"/><polygon class="cls-41" points="54.06 30.61 32.31 36.73 32.31 36.3 54.06 30.19 54.06 30.61"/><polygon class="cls-42" points="54.06 31.03 32.31 37.15 32.31 36.73 54.06 30.61 54.06 31.03"/><polygon class="cls-43" points="54.06 31.46 32.31 37.58 32.31 37.15 54.06 31.03 54.06 31.46"/><polygon class="cls-44" points="54.06 31.88 32.31 38 32.31 37.58 54.06 31.46 54.06 31.88"/><polygon class="cls-45" points="54.06 32.3 32.69 38.32 32.31 38.32 32.31 38 54.06 31.88 54.06 32.3"/><polygon class="cls-46" points="54.06 32.73 34.19 38.32 32.69 38.32 54.06 32.3 54.06 32.73"/><polygon class="cls-47" points="54.06 33.15 35.7 38.32 34.19 38.32 54.06 32.73 54.06 33.15"/><polygon class="cls-47" points="35.7 38.32 54.06 33.15 54.06 38.32 35.7 38.32"/></g></g><g class="cls-58"><g class="cls-59"><polygon class="cls-8" points="65.51 21.48 42.39 27.99 42.39 21.4 65.51 21.4 65.51 21.48"/><polygon class="cls-8" points="65.51 21.92 42.39 28.42 42.39 27.99 65.51 21.48 65.51 21.92"/><polygon class="cls-9" points="65.51 22.35 42.39 28.85 42.39 28.42 65.51 21.92 65.51 22.35"/><polygon class="cls-10" points="65.51 22.78 42.39 29.29 42.39 28.85 65.51 22.35 65.51 22.78"/><polygon class="cls-11" points="65.51 23.22 42.39 29.72 42.39 29.29 65.51 22.78 65.51 23.22"/><polygon class="cls-12" points="65.51 23.65 42.39 30.15 42.39 29.72 65.51 23.22 65.51 23.65"/><polygon class="cls-13" points="65.51 24.08 42.39 30.59 42.39 30.15 65.51 23.65 65.51 24.08"/><polygon class="cls-14" points="65.51 24.52 42.39 31.02 42.39 30.59 65.51 24.08 65.51 24.52"/><polygon class="cls-15" points="65.51 24.95 42.39 31.45 42.39 31.02 65.51 24.52 65.51 24.95"/><polygon class="cls-16" points="65.51 25.38 42.39 31.89 42.39 31.45 65.51 24.95 65.51 25.38"/><polygon class="cls-17" points="65.51 25.82 42.39 32.32 42.39 31.89 65.51 25.38 65.51 25.82"/><polygon class="cls-18" points="65.51 26.25 42.39 32.75 42.39 32.32 65.51 25.82 65.51 26.25"/><polygon class="cls-19" points="65.51 26.68 42.39 33.18 42.39 32.75 65.51 26.25 65.51 26.68"/><polygon class="cls-20" points="65.51 27.11 42.39 33.62 42.39 33.18 65.51 26.68 65.51 27.11"/><polygon class="cls-21" points="65.51 27.55 42.39 34.05 42.39 33.62 65.51 27.11 65.51 27.55"/><polygon class="cls-22" points="65.51 27.98 42.39 34.48 42.39 34.05 65.51 27.55 65.51 27.98"/><polygon class="cls-23" points="65.51 28.41 42.39 34.92 42.39 34.48 65.51 27.98 65.51 28.41"/><polygon class="cls-24" points="65.51 28.85 42.39 35.35 42.39 34.92 65.51 28.41 65.51 28.85"/><polygon class="cls-25" points="65.51 29.28 42.39 35.78 42.39 35.35 65.51 28.85 65.51 29.28"/><polygon class="cls-26" points="65.51 29.71 42.39 36.22 42.39 35.78 65.51 29.28 65.51 29.71"/><polygon class="cls-27" points="65.51 30.15 42.39 36.65 42.39 36.22 65.51 29.71 65.51 30.15"/><polygon class="cls-28" points="65.51 30.58 42.39 37.08 42.39 36.65 65.51 30.15 65.51 30.58"/><polygon class="cls-29" points="65.51 31.01 42.39 37.51 42.39 37.08 65.51 30.58 65.51 31.01"/><polygon class="cls-30" points="65.51 31.45 42.39 37.95 42.39 37.51 65.51 31.01 65.51 31.45"/><polygon class="cls-31" points="65.51 31.88 42.39 38.38 42.39 37.95 65.51 31.45 65.51 31.88"/><polygon class="cls-32" points="65.51 32.31 42.39 38.81 42.39 38.38 65.51 31.88 65.51 32.31"/><polygon class="cls-33" points="65.51 32.74 42.39 39.25 42.39 38.81 65.51 32.31 65.51 32.74"/><polygon class="cls-34" points="65.51 33.18 42.39 39.68 42.39 39.25 65.51 32.74 65.51 33.18"/><polygon class="cls-35" points="65.51 33.61 42.39 40.11 42.39 39.68 65.51 33.18 65.51 33.61"/><polygon class="cls-36" points="65.51 34.04 42.39 40.55 42.39 40.11 65.51 33.61 65.51 34.04"/><polygon class="cls-37" points="65.51 34.48 42.39 40.98 42.39 40.55 65.51 34.04 65.51 34.48"/><polygon class="cls-38" points="65.51 34.91 42.39 41.41 42.39 40.98 65.51 34.48 65.51 34.91"/><polygon class="cls-39" points="65.51 35.34 42.39 41.84 42.39 41.41 65.51 34.91 65.51 35.34"/><polygon class="cls-40" points="65.51 35.77 42.39 42.28 42.39 41.84 65.51 35.34 65.51 35.77"/><polygon class="cls-41" points="65.51 36.21 42.39 42.71 42.39 42.28 65.51 35.77 65.51 36.21"/><polygon class="cls-42" points="65.51 36.64 42.39 43.14 42.39 42.71 65.51 36.21 65.51 36.64"/><polygon class="cls-43" points="65.51 37.07 42.39 43.58 42.39 43.14 65.51 36.64 65.51 37.07"/><polygon class="cls-44" points="65.51 37.51 42.39 44.01 42.39 43.58 65.51 37.07 65.51 37.51"/><polygon class="cls-45" points="65.51 37.94 42.93 44.29 42.39 44.29 42.39 44.01 65.51 37.51 65.51 37.94"/><polygon class="cls-46" points="65.51 38.37 44.47 44.29 42.93 44.29 65.51 37.94 65.51 38.37"/><polygon class="cls-47" points="65.51 38.81 46.01 44.29 44.47 44.29 65.51 38.37 65.51 38.81"/><polygon class="cls-47" points="46.01 44.29 65.51 38.81 65.51 44.29 46.01 44.29"/></g></g><line class="cls-52" x1="31.49" y1="32.7" x2="43.76" y2="15.51"/><line class="cls-52" x1="32.11" y1="33.08" x2="44.41" y2="15.87"/><line class="cls-52" x1="41.5" y1="38.38" x2="53.8" y2="21.23"/><line class="cls-52" x1="42.13" y1="38.76" x2="54.46" y2="21.59"/><polygon class="cls-60" points="67.34 28.39 67.34 37.07 53.26 45.32 67.34 28.39"/><path d="M67.09,29.08v7.84L54.36,44.38l12.73-15.3m.5-1.38L52.15,46.26l15.44-9V27.7Z"/><polygon class="cls-4" points="23.49 28.45 36.03 11.15 65.52 28.01 51.91 44.72 23.49 28.45"/><polygon class="cls-5" points="5.47 38.69 19.15 19.81 50.61 37.82 35.56 55.92 5.47 38.69"/><g class="cls-61"><g class="cls-62"><polygon class="cls-8" points="27.39 21.95 7.41 27.32 7.41 21.27 27.39 21.27 27.39 21.95"/><polygon class="cls-8" points="27.39 22.34 7.41 27.71 7.41 27.32 27.39 21.95 27.39 22.34"/><polygon class="cls-9" points="27.39 22.73 7.41 28.11 7.41 27.71 27.39 22.34 27.39 22.73"/><polygon class="cls-10" points="27.39 23.13 7.41 28.5 7.41 28.11 27.39 22.73 27.39 23.13"/><polygon class="cls-11" points="27.39 23.52 7.41 28.89 7.41 28.5 27.39 23.13 27.39 23.52"/><polygon class="cls-12" points="27.39 23.91 7.41 29.29 7.41 28.89 27.39 23.52 27.39 23.91"/><polygon class="cls-13" points="27.39 24.31 7.41 29.68 7.41 29.29 27.39 23.91 27.39 24.31"/><polygon class="cls-14" points="27.39 24.7 7.41 30.08 7.41 29.68 27.39 24.31 27.39 24.7"/><polygon class="cls-15" points="27.39 25.1 7.41 30.47 7.41 30.08 27.39 24.7 27.39 25.1"/><polygon class="cls-16" points="27.39 25.49 7.41 30.86 7.41 30.47 27.39 25.1 27.39 25.49"/><polygon class="cls-17" points="27.39 25.88 7.41 31.26 7.41 30.86 27.39 25.49 27.39 25.88"/><polygon class="cls-18" points="27.39 26.28 7.41 31.65 7.41 31.26 27.39 25.88 27.39 26.28"/><polygon class="cls-19" points="27.39 26.67 7.41 32.05 7.41 31.65 27.39 26.28 27.39 26.67"/><polygon class="cls-20" points="27.39 27.07 7.41 32.44 7.41 32.05 27.39 26.67 27.39 27.07"/><polygon class="cls-21" points="27.39 27.46 7.41 32.83 7.41 32.44 27.39 27.07 27.39 27.46"/><polygon class="cls-22" points="27.39 27.85 7.41 33.23 7.41 32.83 27.39 27.46 27.39 27.85"/><polygon class="cls-23" points="27.39 28.25 7.41 33.62 7.41 33.23 27.39 27.85 27.39 28.25"/><polygon class="cls-24" points="27.39 28.64 7.41 34.01 7.41 33.62 27.39 28.25 27.39 28.64"/><polygon class="cls-25" points="27.39 29.03 7.41 34.41 7.41 34.01 27.39 28.64 27.39 29.03"/><polygon class="cls-26" points="27.39 29.43 7.41 34.8 7.41 34.41 27.39 29.03 27.39 29.43"/><polygon class="cls-27" points="27.39 29.82 7.41 35.2 7.41 34.8 27.39 29.43 27.39 29.82"/><polygon class="cls-28" points="27.39 30.21 7.41 35.59 7.41 35.2 27.39 29.82 27.39 30.21"/><polygon class="cls-29" points="27.39 30.61 7.41 35.98 7.41 35.59 27.39 30.21 27.39 30.61"/><polygon class="cls-30" points="27.39 31 7.41 36.38 7.41 35.98 27.39 30.61 27.39 31"/><polygon class="cls-31" points="27.39 31.4 7.41 36.77 7.41 36.38 27.39 31 27.39 31.4"/><polygon class="cls-32" points="27.39 31.79 7.41 37.16 7.41 36.77 27.39 31.4 27.39 31.79"/><polygon class="cls-33" points="27.39 32.18 7.41 37.56 7.41 37.16 27.39 31.79 27.39 32.18"/><polygon class="cls-34" points="27.39 32.58 7.41 37.95 7.41 37.56 27.39 32.18 27.39 32.58"/><polygon class="cls-35" points="27.39 32.97 7.41 38.35 7.41 37.95 27.39 32.58 27.39 32.97"/><polygon class="cls-36" points="27.39 33.37 7.41 38.74 7.41 38.35 27.39 32.97 27.39 33.37"/><polygon class="cls-37" points="27.39 33.76 7.41 39.13 7.41 38.74 27.39 33.37 27.39 33.76"/><polygon class="cls-38" points="27.39 34.15 7.41 39.53 7.41 39.13 27.39 33.76 27.39 34.15"/><polygon class="cls-39" points="27.39 34.55 7.41 39.92 7.41 39.53 27.39 34.15 27.39 34.55"/><polygon class="cls-40" points="27.39 34.94 7.41 40.31 7.41 39.92 27.39 34.55 27.39 34.94"/><polygon class="cls-41" points="27.39 35.33 7.41 40.71 7.41 40.31 27.39 34.94 27.39 35.33"/><polygon class="cls-42" points="27.39 35.73 7.41 41.1 7.41 40.71 27.39 35.33 27.39 35.73"/><polygon class="cls-43" points="27.39 36.12 7.41 41.5 7.41 41.1 27.39 35.73 27.39 36.12"/><polygon class="cls-44" points="27.39 36.52 7.41 41.89 7.41 41.5 27.39 36.12 27.39 36.52"/><polygon class="cls-45" points="27.39 36.91 7.41 42.28 7.41 41.89 27.39 36.52 27.39 36.91"/><polygon class="cls-46" points="27.39 37.3 7.87 42.55 7.41 42.55 7.41 42.28 27.39 36.91 27.39 37.3"/><polygon class="cls-47" points="27.39 37.7 9.33 42.55 7.87 42.55 27.39 37.3 27.39 37.7"/><polygon class="cls-47" points="9.33 42.55 27.39 37.7 27.39 42.55 9.33 42.55"/></g></g><g class="cls-63"><g class="cls-64"><polygon class="cls-8" points="37.48 26.14 15.72 32.26 15.72 25.77 37.48 25.77 37.48 26.14"/><polygon class="cls-8" points="37.48 26.57 15.72 32.69 15.72 32.26 37.48 26.14 37.48 26.57"/><polygon class="cls-9" points="37.48 26.99 15.72 33.11 15.72 32.69 37.48 26.57 37.48 26.99"/><polygon class="cls-10" points="37.48 27.42 15.72 33.53 15.72 33.11 37.48 26.99 37.48 27.42"/><polygon class="cls-11" points="37.48 27.84 15.72 33.96 15.72 33.53 37.48 27.42 37.48 27.84"/><polygon class="cls-12" points="37.48 28.26 15.72 34.38 15.72 33.96 37.48 27.84 37.48 28.26"/><polygon class="cls-13" points="37.48 28.69 15.72 34.8 15.72 34.38 37.48 28.26 37.48 28.69"/><polygon class="cls-14" points="37.48 29.11 15.72 35.23 15.72 34.8 37.48 28.69 37.48 29.11"/><polygon class="cls-15" points="37.48 29.53 15.72 35.65 15.72 35.23 37.48 29.11 37.48 29.53"/><polygon class="cls-16" points="37.48 29.96 15.72 36.07 15.72 35.65 37.48 29.53 37.48 29.96"/><polygon class="cls-17" points="37.48 30.38 15.72 36.5 15.72 36.07 37.48 29.96 37.48 30.38"/><polygon class="cls-18" points="37.48 30.8 15.72 36.92 15.72 36.5 37.48 30.38 37.48 30.8"/><polygon class="cls-19" points="37.48 31.23 15.72 37.34 15.72 36.92 37.48 30.8 37.48 31.23"/><polygon class="cls-20" points="37.48 31.65 15.72 37.77 15.72 37.34 37.48 31.23 37.48 31.65"/><polygon class="cls-21" points="37.48 32.07 15.72 38.19 15.72 37.77 37.48 31.65 37.48 32.07"/><polygon class="cls-22" points="37.48 32.5 15.72 38.61 15.72 38.19 37.48 32.07 37.48 32.5"/><polygon class="cls-23" points="37.48 32.92 15.72 39.04 15.72 38.61 37.48 32.5 37.48 32.92"/><polygon class="cls-24" points="37.48 33.34 15.72 39.46 15.72 39.04 37.48 32.92 37.48 33.34"/><polygon class="cls-25" points="37.48 33.77 15.72 39.88 15.72 39.46 37.48 33.34 37.48 33.77"/><polygon class="cls-26" points="37.48 34.19 15.72 40.31 15.72 39.88 37.48 33.77 37.48 34.19"/><polygon class="cls-27" points="37.48 34.61 15.72 40.73 15.72 40.31 37.48 34.19 37.48 34.61"/><polygon class="cls-28" points="37.48 35.04 15.72 41.16 15.72 40.73 37.48 34.61 37.48 35.04"/><polygon class="cls-29" points="37.48 35.46 15.72 41.58 15.72 41.16 37.48 35.04 37.48 35.46"/><polygon class="cls-30" points="37.48 35.88 15.72 42 15.72 41.58 37.48 35.46 37.48 35.88"/><polygon class="cls-31" points="37.48 36.31 15.72 42.42 15.72 42 37.48 35.88 37.48 36.31"/><polygon class="cls-32" points="37.48 36.73 15.72 42.85 15.72 42.42 37.48 36.31 37.48 36.73"/><polygon class="cls-33" points="37.48 37.16 15.72 43.27 15.72 42.85 37.48 36.73 37.48 37.16"/><polygon class="cls-34" points="37.48 37.58 15.72 43.7 15.72 43.27 37.48 37.16 37.48 37.58"/><polygon class="cls-35" points="37.48 38 15.72 44.12 15.72 43.7 37.48 37.58 37.48 38"/><polygon class="cls-36" points="37.48 38.42 15.72 44.54 15.72 44.12 37.48 38 37.48 38.42"/><polygon class="cls-37" points="37.48 38.85 15.72 44.97 15.72 44.54 37.48 38.42 37.48 38.85"/><polygon class="cls-38" points="37.48 39.27 15.72 45.39 15.72 44.97 37.48 38.85 37.48 39.27"/><polygon class="cls-39" points="37.48 39.7 15.72 45.81 15.72 45.39 37.48 39.27 37.48 39.7"/><polygon class="cls-40" points="37.48 40.12 15.72 46.24 15.72 45.81 37.48 39.7 37.48 40.12"/><polygon class="cls-41" points="37.48 40.54 15.72 46.66 15.72 46.24 37.48 40.12 37.48 40.54"/><polygon class="cls-42" points="37.48 40.97 15.72 47.08 15.72 46.66 37.48 40.54 37.48 40.97"/><polygon class="cls-43" points="37.48 41.39 15.72 47.51 15.72 47.08 37.48 40.97 37.48 41.39"/><polygon class="cls-44" points="37.48 41.81 15.72 47.93 15.72 47.51 37.48 41.39 37.48 41.81"/><polygon class="cls-45" points="37.48 42.24 16.1 48.25 15.72 48.25 15.72 47.93 37.48 41.81 37.48 42.24"/><polygon class="cls-46" points="37.48 42.66 17.6 48.25 16.1 48.25 37.48 42.24 37.48 42.66"/><polygon class="cls-47" points="37.48 43.08 19.11 48.25 17.6 48.25 37.48 42.66 37.48 43.08"/><polygon class="cls-47" points="19.11 48.25 37.48 43.08 37.48 48.25 19.11 48.25"/></g></g><g class="cls-65"><g class="cls-66"><polygon class="cls-8" points="48.92 31.42 25.8 37.92 25.8 31.33 48.92 31.33 48.92 31.42"/><polygon class="cls-8" points="48.92 31.85 25.8 38.35 25.8 37.92 48.92 31.42 48.92 31.85"/><polygon class="cls-9" points="48.92 32.28 25.8 38.78 25.8 38.35 48.92 31.85 48.92 32.28"/><polygon class="cls-10" points="48.92 32.72 25.8 39.22 25.8 38.78 48.92 32.28 48.92 32.72"/><polygon class="cls-11" points="48.92 33.15 25.8 39.65 25.8 39.22 48.92 32.72 48.92 33.15"/><polygon class="cls-12" points="48.92 33.58 25.8 40.08 25.8 39.65 48.92 33.15 48.92 33.58"/><polygon class="cls-13" points="48.92 34.02 25.8 40.52 25.8 40.08 48.92 33.58 48.92 34.02"/><polygon class="cls-14" points="48.92 34.45 25.8 40.95 25.8 40.52 48.92 34.02 48.92 34.45"/><polygon class="cls-15" points="48.92 34.88 25.8 41.38 25.8 40.95 48.92 34.45 48.92 34.88"/><polygon class="cls-16" points="48.92 35.31 25.8 41.82 25.8 41.38 48.92 34.88 48.92 35.31"/><polygon class="cls-17" points="48.92 35.75 25.8 42.25 25.8 41.82 48.92 35.31 48.92 35.75"/><polygon class="cls-18" points="48.92 36.18 25.8 42.68 25.8 42.25 48.92 35.75 48.92 36.18"/><polygon class="cls-19" points="48.92 36.61 25.8 43.12 25.8 42.68 48.92 36.18 48.92 36.61"/><polygon class="cls-20" points="48.92 37.05 25.8 43.55 25.8 43.12 48.92 36.61 48.92 37.05"/><polygon class="cls-21" points="48.92 37.48 25.8 43.98 25.8 43.55 48.92 37.05 48.92 37.48"/><polygon class="cls-22" points="48.92 37.91 25.8 44.41 25.8 43.98 48.92 37.48 48.92 37.91"/><polygon class="cls-23" points="48.92 38.34 25.8 44.85 25.8 44.41 48.92 37.91 48.92 38.34"/><polygon class="cls-24" points="48.92 38.78 25.8 45.28 25.8 44.85 48.92 38.34 48.92 38.78"/><polygon class="cls-25" points="48.92 39.21 25.8 45.71 25.8 45.28 48.92 38.78 48.92 39.21"/><polygon class="cls-26" points="48.92 39.64 25.8 46.15 25.8 45.71 48.92 39.21 48.92 39.64"/><polygon class="cls-27" points="48.92 40.08 25.8 46.58 25.8 46.15 48.92 39.64 48.92 40.08"/><polygon class="cls-28" points="48.92 40.51 25.8 47.01 25.8 46.58 48.92 40.08 48.92 40.51"/><polygon class="cls-29" points="48.92 40.94 25.8 47.45 25.8 47.01 48.92 40.51 48.92 40.94"/><polygon class="cls-30" points="48.92 41.38 25.8 47.88 25.8 47.45 48.92 40.94 48.92 41.38"/><polygon class="cls-31" points="48.92 41.81 25.8 48.31 25.8 47.88 48.92 41.38 48.92 41.81"/><polygon class="cls-32" points="48.92 42.24 25.8 48.74 25.8 48.31 48.92 41.81 48.92 42.24"/><polygon class="cls-33" points="48.92 42.67 25.8 49.18 25.8 48.74 48.92 42.24 48.92 42.67"/><polygon class="cls-34" points="48.92 43.11 25.8 49.61 25.8 49.18 48.92 42.67 48.92 43.11"/><polygon class="cls-35" points="48.92 43.54 25.8 50.04 25.8 49.61 48.92 43.11 48.92 43.54"/><polygon class="cls-36" points="48.92 43.97 25.8 50.48 25.8 50.04 48.92 43.54 48.92 43.97"/><polygon class="cls-37" points="48.92 44.41 25.8 50.91 25.8 50.48 48.92 43.97 48.92 44.41"/><polygon class="cls-38" points="48.92 44.84 25.8 51.34 25.8 50.91 48.92 44.41 48.92 44.84"/><polygon class="cls-39" points="48.92 45.27 25.8 51.77 25.8 51.34 48.92 44.84 48.92 45.27"/><polygon class="cls-40" points="48.92 45.71 25.8 52.21 25.8 51.77 48.92 45.27 48.92 45.71"/><polygon class="cls-41" points="48.92 46.14 25.8 52.64 25.8 52.21 48.92 45.71 48.92 46.14"/><polygon class="cls-42" points="48.92 46.57 25.8 53.07 25.8 52.64 48.92 46.14 48.92 46.57"/><polygon class="cls-43" points="48.92 47.01 25.8 53.51 25.8 53.07 48.92 46.57 48.92 47.01"/><polygon class="cls-44" points="48.92 47.44 25.8 53.94 25.8 53.51 48.92 47.01 48.92 47.44"/><polygon class="cls-45" points="48.92 47.87 26.34 54.22 25.8 54.22 25.8 53.94 48.92 47.44 48.92 47.87"/><polygon class="cls-46" points="48.92 48.3 27.88 54.22 26.34 54.22 48.92 47.87 48.92 48.3"/><polygon class="cls-47" points="48.92 48.74 29.42 54.22 27.88 54.22 48.92 48.3 48.92 48.74"/><polygon class="cls-47" points="29.42 54.22 48.92 48.74 48.92 54.22 29.42 54.22"/></g></g><line class="cls-52" x1="14.9" y1="42.63" x2="27.17" y2="25.45"/><line class="cls-52" x1="15.52" y1="43.01" x2="27.82" y2="25.8"/><line class="cls-52" x1="24.91" y1="48.31" x2="37.22" y2="31.17"/><line class="cls-52" x1="25.54" y1="48.69" x2="37.87" y2="31.52"/><polygon class="cls-67" points="50.75 38.32 50.75 47 36.67 55.25 50.75 38.32"/><path d="M50.5,39v7.84L37.77,54.31,50.5,39m.5-1.38L35.56,56.19l15.44-9V37.63Z"/><polygon class="cls-4" points="6.9 38.38 19.44 21.08 48.93 37.94 35.32 54.65 6.9 38.38"/><polygon class="cls-68" points="31.05 74.15 31.05 86.43 20.62 80.21 20.62 68.13 31.05 74.15"/><polygon class="cls-69" points="16.01 65 16.01 71.88 3.06 64.08 3.06 57.32 16.01 65"/><polygon class="cls-8" points="3.63 63.81 3.63 58.42 15.36 65.34 15.36 70.82 3.63 63.81"/><path d="M3.88,58.86l11.23,6.62v4.9L3.88,63.67V58.86M3.38,58v6l12.23,7.31V65.2L3.38,58Z"/><line class="cls-8" x1="16.54" y1="64.47" x2="16.01" y2="65"/><rect x="15.9" y="64.62" width="0.75" height="0.24" transform="translate(-41 30.46) rotate(-44.99)"/><rect x="15.93" y="71.61" width="0.76" height="0.24" transform="translate(-45.95 32.54) rotate(-45)"/><rect x="2.93" y="56.85" width="0.75" height="0.24" transform="translate(-39.31 19.02) rotate(-45)"/><polygon points="16.4 64.54 3.46 56.87 3.46 56.58 16.64 64.41 16.64 71.56 16.41 71.42 16.4 64.54"/><path d="M2.21,64.78l14.14,8.57.65-.58v-1l-.4-.25-.19.2.27.15-.37.37L2.44,64l.36-.36.15.09v-.31l-.2-.12-.53.57Zm14.24,7.71.33-.32v.46l-.34.36Zm-14-8.18,13.74,8.2v.4L2.46,64.65Z"/><path class="cls-70" d="M3.67,58.49l11.68,6.88V70.8l-11.68-7V58.49"/><polygon class="cls-8" points="5.14 64.7 9.43 61.92 11.61 63.17 7.21 65.93 5.14 64.7"/><path class="cls-71" d="M51.85,61.13l1.18.61V71l1.51.76v2.17s-11.91,7-12,7-1.36-.49-1.36-.49V78.25l.87-.83L41.94,66.9Z"/><path d="M52.49,63l-8.77,4.79v9l8.77-5Zm-.57,7.89-7.63,4.23V74.9l7.63-4.22Zm0-.56-7.63,4.23v-.24l7.63-4.22Zm0-.56L44.29,74v-.24l7.63-4.22Zm0-.55-7.63,4.22v-.23L51.92,69Zm0-.56L44.29,72.9v-.23l7.63-4.23Zm0-.56-7.63,4.22v-.23l7.63-4.23Zm0-.56-7.63,4.23v-.24l7.63-4.22Zm0-.56-7.63,4.23V71l7.63-4.22Zm0-.56-7.63,4.23v-.24l7.63-4.22Zm0-.55-7.63,4.22v-.23l7.63-4.23Zm0-.56-7.63,4.22v-.23l7.63-4.23Zm0-.56L44.29,69v-.23l7.63-4.23Zm0-.76v.2l-7.63,4.22v-.3ZM44.29,75.83v-.37l7.63-4.22v.27Z"/><path d="M54.7,71.6l-1.52-.81,0-9.18-1.21-.7L41.8,66.8V77.42l-.8.63,0,2.38,1.38.8L54.72,74ZM43.13,67.36l-.62-.4L52,61.44l.81.43Zm9.48-4.66v9.19l-9.17,5.36V67.83ZM42.29,77.19l0-9.77.56.36v9.8l-.59-.38Zm-.09,3.39-.77-.39,0-1.56.79.44Zm-.64-2.46.47-.39.84.55,10.31-6.07v-.84l1,.52-11.8,6.83Zm12.76-4.51L42.74,80.49V79.11l11.58-6.63Z"/><path class="cls-72" d="M68.29,51.46l1.18.6v9.23l1.52.76v2.16s-11.92,7-12,7-1.37-.49-1.37-.49V68.57l.87-.83-.07-10.51Z"/><path d="M68.94,53.34l-8.78,4.79v9l8.78-5Zm-.57,7.9-7.64,4.22v-.23L68.37,61Zm0-.56L60.73,64.9v-.23l7.64-4.23Zm0-.56-7.64,4.22v-.23l7.64-4.23Zm0-.56-7.64,4.22v-.23l7.64-4.22Zm0-.56-7.64,4.23V63l7.64-4.22Zm0-.56-7.64,4.23v-.24l7.64-4.22Zm0-.56-7.64,4.23v-.24l7.64-4.22Zm0-.55-7.64,4.22v-.23l7.64-4.23Zm0-.56L60.73,61v-.23l7.64-4.23Zm0-.56-7.64,4.22V60.2L68.37,56Zm0-.56-7.64,4.23v-.24l7.64-4.22Zm0-.56-7.64,4.23v-.24l7.64-4.22Zm0-.75v.19l-7.64,4.23v-.3ZM60.73,66.15v-.37l7.64-4.22v.28Z"/><path d="M71.15,61.92l-1.53-.81,0-9.17-1.21-.71L58.25,57.12V67.75l-.8.62,0,2.39,1.38.79,12.31-7.27ZM59.58,57.68l-.62-.4,9.51-5.52.81.43ZM69.05,53v9.19l-9.17,5.36V58.15ZM58.73,67.52l0-9.78.56.36v9.8l-.59-.38Zm-.09,3.39-.77-.4V69l.78.45ZM58,68.45l.47-.4.84.55,10.31-6.07v-.84l1,.52L58.87,69Zm12.76-4.52L59.18,70.81V69.44L70.76,62.8Z"/><path class="cls-73" d="M84.74,41.49l1.17.61v9.22l1.52.76v2.16s-11.92,7-12,7S74,60.73,74,60.73V58.61l.88-.84-.08-10.51Z"/><path d="M85.38,43.37l-8.77,4.8v9l8.77-5Zm-.57,7.9-7.63,4.22v-.23L84.81,51Zm0-.56-7.63,4.22V54.7l7.63-4.23Zm0-.56-7.63,4.22v-.23l7.63-4.22Zm0-.56-7.63,4.23v-.24l7.63-4.22Zm0-.56-7.63,4.23V53l7.63-4.22Zm0-.55L77.18,52.7v-.23l7.63-4.23Zm0-.56-7.63,4.22v-.23l7.63-4.23Zm0-.56-7.63,4.22v-.23l7.63-4.23Zm0-.56L77.18,51v-.23l7.63-4.22Zm0-.56-7.63,4.23v-.24L84.81,46Zm0-.56-7.63,4.23v-.24l7.63-4.22Zm0-.56-7.63,4.23v-.24l7.63-4.22Zm0-.75v.2l-7.63,4.22v-.3ZM77.18,56.18v-.36l7.63-4.23v.28Z"/><path d="M87.59,52l-1.53-.81L86,42l-1.22-.71L74.69,47.15V57.78l-.8.63,0,2.38,1.38.8,12.31-7.27ZM76,47.71l-.62-.39,9.51-5.53.81.43Zm9.48-4.65v9.19l-9.18,5.36V48.18ZM75.18,57.55l0-9.77.56.36v9.79l-.59-.38Zm-.09,3.39-.77-.4,0-1.55.79.44Zm-.65-2.46.48-.4.84.56,10.3-6.08v-.83l1,.51-11.8,6.83ZM87.2,54,75.62,60.85V59.47L87.2,52.84Z"/><line class="cls-74" x1="25.61" y1="70.98" x2="25.61" y2="83.21"/></g></g></svg>