<svg xmlns="http://www.w3.org/2000/svg" xmlns:xlink="http://www.w3.org/1999/xlink" viewBox="0 0 57.26 87.37"><defs><style>.cls-1{fill:#d7d7d7;}.cls-1,.cls-4,.cls-5,.cls-6{stroke:#231f20;stroke-miterlimit:10;}.cls-2{fill:#fff;}.cls-3{fill:#231f20;}.cls-4{fill:#ed3224;}.cls-4,.cls-5{stroke-width:0.75px;}.cls-5,.cls-6{fill:none;}.cls-7{fill:url(#linear-gradient);}.cls-8{fill:url(#linear-gradient-2);}</style><linearGradient id="linear-gradient" x1="628.99" y1="88.42" x2="632.29" y2="0.61" gradientTransform="translate(-601.18 0.82) rotate(-0.06)" gradientUnits="userSpaceOnUse"><stop offset="0" stop-color="#fff"/><stop offset="1" stop-color="#fbcf2f"/></linearGradient><linearGradient id="linear-gradient-2" x1="629.58" y1="41.21" x2="631.73" y2="-15.93" xlink:href="#linear-gradient"/></defs><g id="Layer_2" data-name="Layer 2"><g id="Layer_1-2" data-name="Layer 1"><polygon class="cls-1" points="56.76 55.21 2.08 86.61 0.55 81.2 0.5 30.59 52.62 0.5 56.71 0.62 56.76 55.21"/><polygon class="cls-2" points="2.53 32.4 56.16 1.36 56.22 54.87 2.58 85.91 2.53 32.4"/><path class="cls-3" d="M55.66,2.23l.06,52.36L3.08,85.05,3,32.69,55.66,2.23m1-1.73L2,32.11l.05,54.67L56.72,55.16,56.66.5Z"/><ellipse class="cls-4" cx="4.18" cy="33.02" rx="1.08" ry="0.61" transform="translate(-24.74 16.54) rotate(-53.11)"/><ellipse class="cls-5" cx="6.77" cy="31.52" rx="1.08" ry="0.61" transform="translate(-22.5 18.01) rotate(-53.11)"/><ellipse class="cls-5" cx="9.36" cy="30.02" rx="1.08" ry="0.61" transform="translate(-20.27 19.49) rotate(-53.11)"/><line class="cls-6" x1="0.5" y1="30.59" x2="2.23" y2="32.32"/><line class="cls-6" x1="2.34" y1="35.93" x2="56.81" y2="4.41"/><path class="cls-7" d="M2.94,38.78V85.27l53-30.66v-16C48,34.81,39.26,32,29.89,32A59.62,59.62,0,0,0,2.94,38.78Z"/><path class="cls-8" d="M31.22,32.05c-18.39.13-29,6.81-29,6.81l-.09-2.73L55.2,5.48l-.14,33.38C55.2,38.86,42.53,32.59,31.22,32.05Z"/></g></g></svg>