<svg xmlns="http://www.w3.org/2000/svg" xmlns:xlink="http://www.w3.org/1999/xlink" viewBox="0 0 27.89 26.28"><defs><style>.cls-1{fill:url(#New_Gradient_Swatch_3);}.cls-2{fill:url(#New_Gradient_Swatch_3-2);}</style><linearGradient id="New_Gradient_Swatch_3" x1="6483.1" y1="-395.49" x2="6492" y2="-386.37" gradientTransform="matrix(-0.99, 0.16, 0.16, 0.99, 6470.65, -633.67)" gradientUnits="userSpaceOnUse"><stop offset="0" stop-color="#fff"/><stop offset="1" stop-color="#d7d7d7"/></linearGradient><linearGradient id="New_Gradient_Swatch_3-2" x1="-157.1" y1="986.61" x2="-152.59" y2="986.66" gradientTransform="translate(499.27 -865.16) rotate(19.2)" xlink:href="#New_Gradient_Swatch_3"/></defs><g id="Layer_2" data-name="Layer 2"><g id="Layer_1-2" data-name="Layer 1"><path class="cls-1" d="M.12,6.13l1.24,7.68a7.82,7.82,0,0,0,.48,1.67L4,23c.33.81,1.41.48,2.27.34l7.43-.44c.6-.1,1-1.93,1.26-2.47l3.48-9.34a1.57,1.57,0,1,0-2.8-1.41l-1,1.88L13.2,2.42a1.58,1.58,0,0,0-1.77-1.31A1.6,1.6,0,0,0,10.1,3l1.21,7.48-.31.05L9.54,1.42A1.58,1.58,0,0,0,7.76.11,1.6,1.6,0,0,0,6.44,2l1.44,8.88-.31.05-1.2-7.4A1.57,1.57,0,1,0,3.28,4l1.2,7.41-.31.05L3.22,5.66A1.59,1.59,0,0,0,1.39,4.34,1.56,1.56,0,0,0,.12,6.13Z"/><path d="M4.94,23.62a1,1,0,0,1-1-.59L1.74,15.51a7.34,7.34,0,0,1-.47-1.68L0,6.15A1.68,1.68,0,0,1,1.37,4.24a1.65,1.65,0,0,1,1.25.28,1.7,1.7,0,0,1,.7,1.12l.93,5.72.11,0L3.18,4a1.75,1.75,0,0,1,.31-1.29,1.66,1.66,0,0,1,1.1-.66A1.67,1.67,0,0,1,6.47,3.47l1.18,7.3.12,0L6.34,2A1.71,1.71,0,0,1,6.66.68,1.58,1.58,0,0,1,7.75,0,1.67,1.67,0,0,1,9.63,1.4l1.46,9,.11,0L10,3a1.75,1.75,0,0,1,.32-1.29A1.65,1.65,0,0,1,11.41,1,1.68,1.68,0,0,1,13.29,2.4l1.44,8.85.81-1.62a1.69,1.69,0,0,1,2.25-.74,1.73,1.73,0,0,1,.83,1,1.67,1.67,0,0,1-.1,1.28L15,20.46c-.07.16-.16.41-.26.71-.28.82-.59,1.75-1.07,1.82l-7.44.45L6,23.5A6,6,0,0,1,4.94,23.62ZM.22,6.12,1.46,13.8a7.39,7.39,0,0,0,.47,1.65L4.08,23c.26.62,1.06.48,1.83.34l.34-.06,7.43-.45c.36-.06.69-1,.91-1.7.11-.3.19-.56.27-.72l3.48-9.32a1.48,1.48,0,0,0-.64-2A1.43,1.43,0,0,0,16.57,9a1.46,1.46,0,0,0-.85.73l-1.09,2.15L13.1,2.43a1.48,1.48,0,0,0-1.66-1.22,1.39,1.39,0,0,0-1,.58,1.51,1.51,0,0,0-.28,1.14l1.23,7.58-.51.09v-.1L9.44,1.43A1.47,1.47,0,0,0,6.81.79a1.51,1.51,0,0,0-.27,1.14l1.45,9-.5.09,0-.1L6.27,3.5A1.46,1.46,0,0,0,4.61,2.28a1.44,1.44,0,0,0-1,.58A1.55,1.55,0,0,0,3.37,4l1.22,7.5-.51.09-1-5.91a1.56,1.56,0,0,0-.63-1,1.43,1.43,0,0,0-1.1-.25A1.48,1.48,0,0,0,.22,6.12Z"/><path d="M5.68,25.84l8.58-1.39a.81.81,0,0,0,.67-.89l-.27-2.16-10.34,2,.45,1.88A.81.81,0,0,0,5.68,25.84Z"/><path class="cls-2" d="M26.77,5.8a1.59,1.59,0,0,0-2,1l-1.94,5.56-.29-.1L25,5.15a1.59,1.59,0,0,0-1-2,1.56,1.56,0,0,0-2,1l-2.47,7.08-.29-.1,3-8.5a1.6,1.6,0,0,0-1-2,1.58,1.58,0,0,0-2,1l-3,8.67-.3-.1,2.5-7.16a1.6,1.6,0,0,0-1-2,1.57,1.57,0,0,0-2,1l-3.05,8.75-.61-2a1.57,1.57,0,1,0-3,.91l1.81,9.8c.17.58.24,2.45.81,2.65l7.24,1.73c.82.29,1.83.79,2.3,0l3.42-7a7.58,7.58,0,0,0,.76-1.57l2.56-7.34A1.57,1.57,0,0,0,26.77,5.8Z"/><path d="M20.23,24.21A3.91,3.91,0,0,1,19,23.88l-.32-.12L11.41,22c-.47-.17-.62-1.14-.75-2a6.38,6.38,0,0,0-.14-.73L8.71,9.51A1.67,1.67,0,0,1,9.83,7.44a1.66,1.66,0,0,1,1.27.13,1.67,1.67,0,0,1,.81,1l.52,1.74,3-8.47a1.68,1.68,0,0,1,2.09-1,1.61,1.61,0,0,1,1,.84A1.73,1.73,0,0,1,18.52,3L16.06,10l.11,0,3-8.58a1.66,1.66,0,0,1,2.09-1,1.71,1.71,0,0,1,1,.84A1.73,1.73,0,0,1,22.3,2.6L19.37,11l.11,0,2.44-7a1.65,1.65,0,0,1,3-.2,1.71,1.71,0,0,1,.09,1.33l-2.44,7,.11,0,1.91-5.47a1.68,1.68,0,0,1,.89-1,1.56,1.56,0,0,1,1.27-.06h0a1.67,1.67,0,0,1,1,2.11l-2.56,7.35a7.22,7.22,0,0,1-.77,1.58l-3.42,7A.9.9,0,0,1,20.23,24.21ZM10.31,7.56a1.68,1.68,0,0,0-.43.07,1.48,1.48,0,0,0-1,1.83l1.81,9.81a6.46,6.46,0,0,1,.14.75c.11.68.26,1.71.61,1.83l7.23,1.73.33.11c.73.28,1.5.56,1.86,0l3.42-7a7.45,7.45,0,0,0,.75-1.56l2.56-7.35a1.47,1.47,0,0,0-.88-1.86,1.41,1.41,0,0,0-1.12.05,1.56,1.56,0,0,0-.79.88l-2,5.65-.48-.17,2.5-7.18A1.53,1.53,0,0,0,24.8,4,1.44,1.44,0,0,0,24,3.21a1.48,1.48,0,0,0-1.85.91L19.6,11.3l-.48-.17,3-8.59A1.49,1.49,0,0,0,22,1.37a1.44,1.44,0,0,0-.85-.74,1.48,1.48,0,0,0-1.85.91l-3.05,8.77-.48-.17,2.52-7.25a1.52,1.52,0,0,0-.07-1.18A1.48,1.48,0,0,0,17.41,1a1.5,1.5,0,0,0-1.85.92l-3.14,9-.7-2.31A1.49,1.49,0,0,0,11,7.74,1.46,1.46,0,0,0,10.31,7.56Z"/><path d="M18.8,26.23l-8.2-2.85a.81.81,0,0,1-.5-1l.63-2.09L20.58,24l-.77,1.78A.81.81,0,0,1,18.8,26.23Z"/></g></g></svg>